ISO-10303-21;
HEADER;
/* Generated by software containing ST-Developer
 * from STEP Tools, Inc. (www.steptools.com) 
 */

FILE_DESCRIPTION(
/* description */ (''),
/* implementation_level */ '2;1');

FILE_NAME(
/* name */ 'exercise 10.step',
/* time_stamp */ '2026-10-06T22:39:54+05:30',
/* author */ (''),
/* organization */ (''),
/* preprocessor_version */ 'ST-DEVELOPER v20.2',
/* originating_system */ 'Autodesk Translation Framework v15.15.0.0',
/* authorisation */ '');

FILE_SCHEMA (('AUTOMOTIVE_DESIGN { 1 0 10303 214 3 1 1 }'));
ENDSEC;

DATA;
#10=MECHANICAL_DESIGN_GEOMETRIC_PRESENTATION_REPRESENTATION('',(#13,#14),
#638);
#11=SHAPE_REPRESENTATION_RELATIONSHIP('SRR','None',#645,#12);
#12=ADVANCED_BREP_SHAPE_REPRESENTATION('',(#15,#16),#637);
#13=STYLED_ITEM('',(#654),#15);
#14=STYLED_ITEM('',(#654),#16);
#15=MANIFOLD_SOLID_BREP('Body1',#361);
#16=MANIFOLD_SOLID_BREP('Body2',#362);
#17=FACE_BOUND('',#68,.T.);
#18=FACE_BOUND('',#69,.T.);
#19=FACE_BOUND('',#70,.T.);
#20=FACE_BOUND('',#72,.T.);
#21=FACE_BOUND('',#73,.T.);
#22=FACE_BOUND('',#74,.T.);
#23=FACE_BOUND('',#78,.T.);
#24=FACE_BOUND('',#80,.T.);
#25=PLANE('',#379);
#26=PLANE('',#383);
#27=PLANE('',#399);
#28=PLANE('',#406);
#29=PLANE('',#410);
#30=PLANE('',#411);
#31=PLANE('',#418);
#32=PLANE('',#419);
#33=FACE_OUTER_BOUND('',#53,.T.);
#34=FACE_OUTER_BOUND('',#54,.T.);
#35=FACE_OUTER_BOUND('',#55,.T.);
#36=FACE_OUTER_BOUND('',#56,.T.);
#37=FACE_OUTER_BOUND('',#57,.T.);
#38=FACE_OUTER_BOUND('',#58,.T.);
#39=FACE_OUTER_BOUND('',#59,.T.);
#40=FACE_OUTER_BOUND('',#60,.T.);
#41=FACE_OUTER_BOUND('',#61,.T.);
#42=FACE_OUTER_BOUND('',#62,.T.);
#43=FACE_OUTER_BOUND('',#63,.T.);
#44=FACE_OUTER_BOUND('',#64,.T.);
#45=FACE_OUTER_BOUND('',#65,.T.);
#46=FACE_OUTER_BOUND('',#66,.T.);
#47=FACE_OUTER_BOUND('',#67,.T.);
#48=FACE_OUTER_BOUND('',#71,.T.);
#49=FACE_OUTER_BOUND('',#75,.T.);
#50=FACE_OUTER_BOUND('',#76,.T.);
#51=FACE_OUTER_BOUND('',#77,.T.);
#52=FACE_OUTER_BOUND('',#79,.T.);
#53=EDGE_LOOP('',(#233,#234,#235,#236));
#54=EDGE_LOOP('',(#237,#238,#239,#240));
#55=EDGE_LOOP('',(#241,#242,#243,#244));
#56=EDGE_LOOP('',(#245,#246,#247,#248));
#57=EDGE_LOOP('',(#249,#250,#251,#252));
#58=EDGE_LOOP('',(#253,#254,#255,#256));
#59=EDGE_LOOP('',(#257,#258,#259,#260));
#60=EDGE_LOOP('',(#261,#262,#263,#264));
#61=EDGE_LOOP('',(#265,#266,#267,#268));
#62=EDGE_LOOP('',(#269,#270,#271,#272));
#63=EDGE_LOOP('',(#273,#274,#275,#276));
#64=EDGE_LOOP('',(#277,#278,#279,#280));
#65=EDGE_LOOP('',(#281,#282,#283,#284));
#66=EDGE_LOOP('',(#285,#286,#287,#288));
#67=EDGE_LOOP('',(#289,#290,#291,#292,#293,#294,#295,#296));
#68=EDGE_LOOP('',(#297));
#69=EDGE_LOOP('',(#298,#299,#300,#301));
#70=EDGE_LOOP('',(#302));
#71=EDGE_LOOP('',(#303,#304,#305,#306,#307,#308,#309,#310));
#72=EDGE_LOOP('',(#311));
#73=EDGE_LOOP('',(#312,#313,#314,#315));
#74=EDGE_LOOP('',(#316));
#75=EDGE_LOOP('',(#317,#318,#319,#320));
#76=EDGE_LOOP('',(#321,#322,#323,#324));
#77=EDGE_LOOP('',(#325));
#78=EDGE_LOOP('',(#326));
#79=EDGE_LOOP('',(#327));
#80=EDGE_LOOP('',(#328));
#81=LINE('',#539,#105);
#82=LINE('',#544,#106);
#83=LINE('',#546,#107);
#84=LINE('',#548,#108);
#85=LINE('',#549,#109);
#86=LINE('',#555,#110);
#87=LINE('',#558,#111);
#88=LINE('',#560,#112);
#89=LINE('',#561,#113);
#90=LINE('',#569,#114);
#91=LINE('',#576,#115);
#92=LINE('',#579,#116);
#93=LINE('',#585,#117);
#94=LINE('',#591,#118);
#95=LINE('',#594,#119);
#96=LINE('',#596,#120);
#97=LINE('',#597,#121);
#98=LINE('',#603,#122);
#99=LINE('',#609,#123);
#100=LINE('',#612,#124);
#101=LINE('',#614,#125);
#102=LINE('',#615,#126);
#103=LINE('',#625,#127);
#104=LINE('',#631,#128);
#105=VECTOR('',#426,7.5);
#106=VECTOR('',#431,10.);
#107=VECTOR('',#432,10.);
#108=VECTOR('',#433,10.);
#109=VECTOR('',#434,10.);
#110=VECTOR('',#441,10.);
#111=VECTOR('',#444,10.);
#112=VECTOR('',#445,10.);
#113=VECTOR('',#446,10.);
#114=VECTOR('',#457,20.);
#115=VECTOR('',#464,10.);
#116=VECTOR('',#467,10.);
#117=VECTOR('',#474,10.);
#118=VECTOR('',#481,10.);
#119=VECTOR('',#484,10.);
#120=VECTOR('',#485,10.);
#121=VECTOR('',#486,10.);
#122=VECTOR('',#493,10.);
#123=VECTOR('',#500,10.);
#124=VECTOR('',#503,10.);
#125=VECTOR('',#504,10.);
#126=VECTOR('',#505,10.);
#127=VECTOR('',#520,10.);
#128=VECTOR('',#527,20.);
#129=CIRCLE('',#377,7.5);
#130=CIRCLE('',#378,7.5);
#131=CIRCLE('',#381,6.);
#132=CIRCLE('',#382,6.);
#133=CIRCLE('',#385,6.);
#134=CIRCLE('',#386,6.);
#135=CIRCLE('',#388,20.);
#136=CIRCLE('',#389,20.);
#137=CIRCLE('',#391,30.);
#138=CIRCLE('',#392,30.);
#139=CIRCLE('',#394,79.4837311419335);
#140=CIRCLE('',#395,79.4837311419335);
#141=CIRCLE('',#397,15.);
#142=CIRCLE('',#398,15.);
#143=CIRCLE('',#401,15.);
#144=CIRCLE('',#402,15.);
#145=CIRCLE('',#404,14.9999999999979);
#146=CIRCLE('',#405,14.9999999999979);
#147=CIRCLE('',#408,14.9999999999999);
#148=CIRCLE('',#409,14.9999999999999);
#149=CIRCLE('',#413,10.);
#150=CIRCLE('',#414,10.);
#151=CIRCLE('',#416,20.);
#152=CIRCLE('',#417,20.);
#153=VERTEX_POINT('',#536);
#154=VERTEX_POINT('',#538);
#155=VERTEX_POINT('',#542);
#156=VERTEX_POINT('',#543);
#157=VERTEX_POINT('',#545);
#158=VERTEX_POINT('',#547);
#159=VERTEX_POINT('',#551);
#160=VERTEX_POINT('',#553);
#161=VERTEX_POINT('',#557);
#162=VERTEX_POINT('',#559);
#163=VERTEX_POINT('',#566);
#164=VERTEX_POINT('',#568);
#165=VERTEX_POINT('',#572);
#166=VERTEX_POINT('',#573);
#167=VERTEX_POINT('',#575);
#168=VERTEX_POINT('',#577);
#169=VERTEX_POINT('',#581);
#170=VERTEX_POINT('',#583);
#171=VERTEX_POINT('',#587);
#172=VERTEX_POINT('',#589);
#173=VERTEX_POINT('',#593);
#174=VERTEX_POINT('',#595);
#175=VERTEX_POINT('',#599);
#176=VERTEX_POINT('',#601);
#177=VERTEX_POINT('',#605);
#178=VERTEX_POINT('',#607);
#179=VERTEX_POINT('',#611);
#180=VERTEX_POINT('',#613);
#181=VERTEX_POINT('',#622);
#182=VERTEX_POINT('',#624);
#183=VERTEX_POINT('',#628);
#184=VERTEX_POINT('',#630);
#185=EDGE_CURVE('',#153,#153,#129,.T.);
#186=EDGE_CURVE('',#153,#154,#81,.T.);
#187=EDGE_CURVE('',#154,#154,#130,.T.);
#188=EDGE_CURVE('',#155,#156,#82,.T.);
#189=EDGE_CURVE('',#156,#157,#83,.T.);
#190=EDGE_CURVE('',#158,#157,#84,.T.);
#191=EDGE_CURVE('',#155,#158,#85,.T.);
#192=EDGE_CURVE('',#159,#155,#131,.T.);
#193=EDGE_CURVE('',#160,#158,#132,.T.);
#194=EDGE_CURVE('',#159,#160,#86,.T.);
#195=EDGE_CURVE('',#161,#159,#87,.T.);
#196=EDGE_CURVE('',#162,#160,#88,.T.);
#197=EDGE_CURVE('',#161,#162,#89,.T.);
#198=EDGE_CURVE('',#156,#161,#133,.T.);
#199=EDGE_CURVE('',#157,#162,#134,.T.);
#200=EDGE_CURVE('',#163,#163,#135,.T.);
#201=EDGE_CURVE('',#163,#164,#90,.T.);
#202=EDGE_CURVE('',#164,#164,#136,.T.);
#203=EDGE_CURVE('',#165,#166,#137,.T.);
#204=EDGE_CURVE('',#166,#167,#91,.T.);
#205=EDGE_CURVE('',#168,#167,#138,.T.);
#206=EDGE_CURVE('',#165,#168,#92,.T.);
#207=EDGE_CURVE('',#165,#169,#139,.T.);
#208=EDGE_CURVE('',#170,#168,#140,.T.);
#209=EDGE_CURVE('',#169,#170,#93,.T.);
#210=EDGE_CURVE('',#171,#169,#141,.T.);
#211=EDGE_CURVE('',#172,#170,#142,.T.);
#212=EDGE_CURVE('',#171,#172,#94,.T.);
#213=EDGE_CURVE('',#173,#171,#95,.T.);
#214=EDGE_CURVE('',#174,#172,#96,.T.);
#215=EDGE_CURVE('',#173,#174,#97,.T.);
#216=EDGE_CURVE('',#175,#173,#143,.T.);
#217=EDGE_CURVE('',#176,#174,#144,.T.);
#218=EDGE_CURVE('',#175,#176,#98,.T.);
#219=EDGE_CURVE('',#175,#177,#145,.T.);
#220=EDGE_CURVE('',#178,#176,#146,.T.);
#221=EDGE_CURVE('',#177,#178,#99,.T.);
#222=EDGE_CURVE('',#177,#179,#100,.T.);
#223=EDGE_CURVE('',#180,#178,#101,.T.);
#224=EDGE_CURVE('',#179,#180,#102,.T.);
#225=EDGE_CURVE('',#166,#179,#147,.T.);
#226=EDGE_CURVE('',#167,#180,#148,.T.);
#227=EDGE_CURVE('',#181,#181,#149,.T.);
#228=EDGE_CURVE('',#181,#182,#103,.T.);
#229=EDGE_CURVE('',#182,#182,#150,.T.);
#230=EDGE_CURVE('',#183,#183,#151,.T.);
#231=EDGE_CURVE('',#183,#184,#104,.T.);
#232=EDGE_CURVE('',#184,#184,#152,.T.);
#233=ORIENTED_EDGE('',*,*,#185,.F.);
#234=ORIENTED_EDGE('',*,*,#186,.T.);
#235=ORIENTED_EDGE('',*,*,#187,.T.);
#236=ORIENTED_EDGE('',*,*,#186,.F.);
#237=ORIENTED_EDGE('',*,*,#188,.T.);
#238=ORIENTED_EDGE('',*,*,#189,.T.);
#239=ORIENTED_EDGE('',*,*,#190,.F.);
#240=ORIENTED_EDGE('',*,*,#191,.F.);
#241=ORIENTED_EDGE('',*,*,#192,.T.);
#242=ORIENTED_EDGE('',*,*,#191,.T.);
#243=ORIENTED_EDGE('',*,*,#193,.F.);
#244=ORIENTED_EDGE('',*,*,#194,.F.);
#245=ORIENTED_EDGE('',*,*,#195,.T.);
#246=ORIENTED_EDGE('',*,*,#194,.T.);
#247=ORIENTED_EDGE('',*,*,#196,.F.);
#248=ORIENTED_EDGE('',*,*,#197,.F.);
#249=ORIENTED_EDGE('',*,*,#198,.T.);
#250=ORIENTED_EDGE('',*,*,#197,.T.);
#251=ORIENTED_EDGE('',*,*,#199,.F.);
#252=ORIENTED_EDGE('',*,*,#189,.F.);
#253=ORIENTED_EDGE('',*,*,#200,.F.);
#254=ORIENTED_EDGE('',*,*,#201,.T.);
#255=ORIENTED_EDGE('',*,*,#202,.T.);
#256=ORIENTED_EDGE('',*,*,#201,.F.);
#257=ORIENTED_EDGE('',*,*,#203,.T.);
#258=ORIENTED_EDGE('',*,*,#204,.T.);
#259=ORIENTED_EDGE('',*,*,#205,.F.);
#260=ORIENTED_EDGE('',*,*,#206,.F.);
#261=ORIENTED_EDGE('',*,*,#207,.F.);
#262=ORIENTED_EDGE('',*,*,#206,.T.);
#263=ORIENTED_EDGE('',*,*,#208,.F.);
#264=ORIENTED_EDGE('',*,*,#209,.F.);
#265=ORIENTED_EDGE('',*,*,#210,.T.);
#266=ORIENTED_EDGE('',*,*,#209,.T.);
#267=ORIENTED_EDGE('',*,*,#211,.F.);
#268=ORIENTED_EDGE('',*,*,#212,.F.);
#269=ORIENTED_EDGE('',*,*,#213,.T.);
#270=ORIENTED_EDGE('',*,*,#212,.T.);
#271=ORIENTED_EDGE('',*,*,#214,.F.);
#272=ORIENTED_EDGE('',*,*,#215,.F.);
#273=ORIENTED_EDGE('',*,*,#216,.T.);
#274=ORIENTED_EDGE('',*,*,#215,.T.);
#275=ORIENTED_EDGE('',*,*,#217,.F.);
#276=ORIENTED_EDGE('',*,*,#218,.F.);
#277=ORIENTED_EDGE('',*,*,#219,.F.);
#278=ORIENTED_EDGE('',*,*,#218,.T.);
#279=ORIENTED_EDGE('',*,*,#220,.F.);
#280=ORIENTED_EDGE('',*,*,#221,.F.);
#281=ORIENTED_EDGE('',*,*,#222,.F.);
#282=ORIENTED_EDGE('',*,*,#221,.T.);
#283=ORIENTED_EDGE('',*,*,#223,.F.);
#284=ORIENTED_EDGE('',*,*,#224,.F.);
#285=ORIENTED_EDGE('',*,*,#225,.T.);
#286=ORIENTED_EDGE('',*,*,#224,.T.);
#287=ORIENTED_EDGE('',*,*,#226,.F.);
#288=ORIENTED_EDGE('',*,*,#204,.F.);
#289=ORIENTED_EDGE('',*,*,#226,.T.);
#290=ORIENTED_EDGE('',*,*,#223,.T.);
#291=ORIENTED_EDGE('',*,*,#220,.T.);
#292=ORIENTED_EDGE('',*,*,#217,.T.);
#293=ORIENTED_EDGE('',*,*,#214,.T.);
#294=ORIENTED_EDGE('',*,*,#211,.T.);
#295=ORIENTED_EDGE('',*,*,#208,.T.);
#296=ORIENTED_EDGE('',*,*,#205,.T.);
#297=ORIENTED_EDGE('',*,*,#200,.T.);
#298=ORIENTED_EDGE('',*,*,#199,.T.);
#299=ORIENTED_EDGE('',*,*,#196,.T.);
#300=ORIENTED_EDGE('',*,*,#193,.T.);
#301=ORIENTED_EDGE('',*,*,#190,.T.);
#302=ORIENTED_EDGE('',*,*,#185,.T.);
#303=ORIENTED_EDGE('',*,*,#225,.F.);
#304=ORIENTED_EDGE('',*,*,#203,.F.);
#305=ORIENTED_EDGE('',*,*,#207,.T.);
#306=ORIENTED_EDGE('',*,*,#210,.F.);
#307=ORIENTED_EDGE('',*,*,#213,.F.);
#308=ORIENTED_EDGE('',*,*,#216,.F.);
#309=ORIENTED_EDGE('',*,*,#219,.T.);
#310=ORIENTED_EDGE('',*,*,#222,.T.);
#311=ORIENTED_EDGE('',*,*,#202,.F.);
#312=ORIENTED_EDGE('',*,*,#198,.F.);
#313=ORIENTED_EDGE('',*,*,#188,.F.);
#314=ORIENTED_EDGE('',*,*,#192,.F.);
#315=ORIENTED_EDGE('',*,*,#195,.F.);
#316=ORIENTED_EDGE('',*,*,#187,.F.);
#317=ORIENTED_EDGE('',*,*,#227,.F.);
#318=ORIENTED_EDGE('',*,*,#228,.T.);
#319=ORIENTED_EDGE('',*,*,#229,.F.);
#320=ORIENTED_EDGE('',*,*,#228,.F.);
#321=ORIENTED_EDGE('',*,*,#230,.F.);
#322=ORIENTED_EDGE('',*,*,#231,.T.);
#323=ORIENTED_EDGE('',*,*,#232,.F.);
#324=ORIENTED_EDGE('',*,*,#231,.F.);
#325=ORIENTED_EDGE('',*,*,#232,.T.);
#326=ORIENTED_EDGE('',*,*,#229,.T.);
#327=ORIENTED_EDGE('',*,*,#230,.T.);
#328=ORIENTED_EDGE('',*,*,#227,.T.);
#329=CYLINDRICAL_SURFACE('',#376,7.5);
#330=CYLINDRICAL_SURFACE('',#380,6.);
#331=CYLINDRICAL_SURFACE('',#384,6.);
#332=CYLINDRICAL_SURFACE('',#387,20.);
#333=CYLINDRICAL_SURFACE('',#390,30.);
#334=CYLINDRICAL_SURFACE('',#393,79.4837311419335);
#335=CYLINDRICAL_SURFACE('',#396,15.);
#336=CYLINDRICAL_SURFACE('',#400,15.);
#337=CYLINDRICAL_SURFACE('',#403,14.9999999999979);
#338=CYLINDRICAL_SURFACE('',#407,14.9999999999999);
#339=CYLINDRICAL_SURFACE('',#412,10.);
#340=CYLINDRICAL_SURFACE('',#415,20.);
#341=ADVANCED_FACE('',(#33),#329,.F.);
#342=ADVANCED_FACE('',(#34),#25,.T.);
#343=ADVANCED_FACE('',(#35),#330,.F.);
#344=ADVANCED_FACE('',(#36),#26,.T.);
#345=ADVANCED_FACE('',(#37),#331,.F.);
#346=ADVANCED_FACE('',(#38),#332,.F.);
#347=ADVANCED_FACE('',(#39),#333,.T.);
#348=ADVANCED_FACE('',(#40),#334,.F.);
#349=ADVANCED_FACE('',(#41),#335,.T.);
#350=ADVANCED_FACE('',(#42),#27,.T.);
#351=ADVANCED_FACE('',(#43),#336,.T.);
#352=ADVANCED_FACE('',(#44),#337,.F.);
#353=ADVANCED_FACE('',(#45),#28,.T.);
#354=ADVANCED_FACE('',(#46),#338,.T.);
#355=ADVANCED_FACE('',(#47,#17,#18,#19),#29,.T.);
#356=ADVANCED_FACE('',(#48,#20,#21,#22),#30,.F.);
#357=ADVANCED_FACE('',(#49),#339,.F.);
#358=ADVANCED_FACE('',(#50),#340,.T.);
#359=ADVANCED_FACE('',(#51,#23),#31,.T.);
#360=ADVANCED_FACE('',(#52,#24),#32,.F.);
#361=CLOSED_SHELL('',(#341,#342,#343,#344,#345,#346,#347,#348,#349,#350,
#351,#352,#353,#354,#355,#356));
#362=CLOSED_SHELL('',(#357,#358,#359,#360));
#363=DERIVED_UNIT_ELEMENT(#365,1.);
#364=DERIVED_UNIT_ELEMENT(#640,-3.);
#365=(
MASS_UNIT()
NAMED_UNIT(*)
SI_UNIT(.KILO.,.GRAM.)
);
#366=DERIVED_UNIT((#363,#364));
#367=MEASURE_REPRESENTATION_ITEM('density measure',
POSITIVE_RATIO_MEASURE(7850.),#366);
#368=PROPERTY_DEFINITION_REPRESENTATION(#373,#370);
#369=PROPERTY_DEFINITION_REPRESENTATION(#374,#371);
#370=REPRESENTATION('material name',(#372),#637);
#371=REPRESENTATION('density',(#367),#637);
#372=DESCRIPTIVE_REPRESENTATION_ITEM('Steel','Steel');
#373=PROPERTY_DEFINITION('material property','material name',#647);
#374=PROPERTY_DEFINITION('material property','density of part',#647);
#375=AXIS2_PLACEMENT_3D('',#534,#420,#421);
#376=AXIS2_PLACEMENT_3D('',#535,#422,#423);
#377=AXIS2_PLACEMENT_3D('',#537,#424,#425);
#378=AXIS2_PLACEMENT_3D('',#540,#427,#428);
#379=AXIS2_PLACEMENT_3D('',#541,#429,#430);
#380=AXIS2_PLACEMENT_3D('',#550,#435,#436);
#381=AXIS2_PLACEMENT_3D('',#552,#437,#438);
#382=AXIS2_PLACEMENT_3D('',#554,#439,#440);
#383=AXIS2_PLACEMENT_3D('',#556,#442,#443);
#384=AXIS2_PLACEMENT_3D('',#562,#447,#448);
#385=AXIS2_PLACEMENT_3D('',#563,#449,#450);
#386=AXIS2_PLACEMENT_3D('',#564,#451,#452);
#387=AXIS2_PLACEMENT_3D('',#565,#453,#454);
#388=AXIS2_PLACEMENT_3D('',#567,#455,#456);
#389=AXIS2_PLACEMENT_3D('',#570,#458,#459);
#390=AXIS2_PLACEMENT_3D('',#571,#460,#461);
#391=AXIS2_PLACEMENT_3D('',#574,#462,#463);
#392=AXIS2_PLACEMENT_3D('',#578,#465,#466);
#393=AXIS2_PLACEMENT_3D('',#580,#468,#469);
#394=AXIS2_PLACEMENT_3D('',#582,#470,#471);
#395=AXIS2_PLACEMENT_3D('',#584,#472,#473);
#396=AXIS2_PLACEMENT_3D('',#586,#475,#476);
#397=AXIS2_PLACEMENT_3D('',#588,#477,#478);
#398=AXIS2_PLACEMENT_3D('',#590,#479,#480);
#399=AXIS2_PLACEMENT_3D('',#592,#482,#483);
#400=AXIS2_PLACEMENT_3D('',#598,#487,#488);
#401=AXIS2_PLACEMENT_3D('',#600,#489,#490);
#402=AXIS2_PLACEMENT_3D('',#602,#491,#492);
#403=AXIS2_PLACEMENT_3D('',#604,#494,#495);
#404=AXIS2_PLACEMENT_3D('',#606,#496,#497);
#405=AXIS2_PLACEMENT_3D('',#608,#498,#499);
#406=AXIS2_PLACEMENT_3D('',#610,#501,#502);
#407=AXIS2_PLACEMENT_3D('',#616,#506,#507);
#408=AXIS2_PLACEMENT_3D('',#617,#508,#509);
#409=AXIS2_PLACEMENT_3D('',#618,#510,#511);
#410=AXIS2_PLACEMENT_3D('',#619,#512,#513);
#411=AXIS2_PLACEMENT_3D('',#620,#514,#515);
#412=AXIS2_PLACEMENT_3D('',#621,#516,#517);
#413=AXIS2_PLACEMENT_3D('',#623,#518,#519);
#414=AXIS2_PLACEMENT_3D('',#626,#521,#522);
#415=AXIS2_PLACEMENT_3D('',#627,#523,#524);
#416=AXIS2_PLACEMENT_3D('',#629,#525,#526);
#417=AXIS2_PLACEMENT_3D('',#632,#528,#529);
#418=AXIS2_PLACEMENT_3D('',#633,#530,#531);
#419=AXIS2_PLACEMENT_3D('',#634,#532,#533);
#420=DIRECTION('axis',(0.,0.,1.));
#421=DIRECTION('refdir',(1.,0.,0.));
#422=DIRECTION('center_axis',(0.,1.,0.));
#423=DIRECTION('ref_axis',(1.,0.,0.));
#424=DIRECTION('center_axis',(0.,-1.,0.));
#425=DIRECTION('ref_axis',(1.,0.,0.));
#426=DIRECTION('',(0.,-1.,0.));
#427=DIRECTION('center_axis',(0.,-1.,0.));
#428=DIRECTION('ref_axis',(1.,0.,0.));
#429=DIRECTION('center_axis',(-1.11022302462516E-16,0.,1.));
#430=DIRECTION('ref_axis',(1.,0.,1.11022302462516E-16));
#431=DIRECTION('',(1.,0.,1.11022302462516E-16));
#432=DIRECTION('',(0.,1.,0.));
#433=DIRECTION('',(1.,0.,1.11022302462516E-16));
#434=DIRECTION('',(0.,1.,0.));
#435=DIRECTION('center_axis',(0.,1.,0.));
#436=DIRECTION('ref_axis',(0.,0.,-1.));
#437=DIRECTION('center_axis',(0.,-1.,0.));
#438=DIRECTION('ref_axis',(0.,0.,-1.));
#439=DIRECTION('center_axis',(0.,-1.,0.));
#440=DIRECTION('ref_axis',(0.,0.,-1.));
#441=DIRECTION('',(0.,1.,0.));
#442=DIRECTION('center_axis',(0.,0.,-1.));
#443=DIRECTION('ref_axis',(-1.,0.,0.));
#444=DIRECTION('',(-1.,0.,0.));
#445=DIRECTION('',(-1.,0.,0.));
#446=DIRECTION('',(0.,1.,0.));
#447=DIRECTION('center_axis',(0.,1.,0.));
#448=DIRECTION('ref_axis',(0.,0.,1.));
#449=DIRECTION('center_axis',(0.,-1.,0.));
#450=DIRECTION('ref_axis',(0.,0.,1.));
#451=DIRECTION('center_axis',(0.,-1.,0.));
#452=DIRECTION('ref_axis',(0.,0.,1.));
#453=DIRECTION('center_axis',(0.,1.,0.));
#454=DIRECTION('ref_axis',(1.,0.,0.));
#455=DIRECTION('center_axis',(0.,-1.,0.));
#456=DIRECTION('ref_axis',(1.,0.,0.));
#457=DIRECTION('',(0.,-1.,0.));
#458=DIRECTION('center_axis',(0.,-1.,0.));
#459=DIRECTION('ref_axis',(1.,0.,0.));
#460=DIRECTION('center_axis',(0.,1.,0.));
#461=DIRECTION('ref_axis',(0.895028322123848,0.,-0.446009307746116));
#462=DIRECTION('center_axis',(0.,1.,0.));
#463=DIRECTION('ref_axis',(0.895028322123848,0.,-0.446009307746116));
#464=DIRECTION('',(0.,1.,0.));
#465=DIRECTION('center_axis',(0.,1.,0.));
#466=DIRECTION('ref_axis',(0.895028322123848,0.,-0.446009307746116));
#467=DIRECTION('',(0.,1.,0.));
#468=DIRECTION('center_axis',(0.,1.,0.));
#469=DIRECTION('ref_axis',(-0.88016476713776,0.,0.474668287006128));
#470=DIRECTION('center_axis',(0.,1.,0.));
#471=DIRECTION('ref_axis',(-0.88016476713776,0.,0.474668287006128));
#472=DIRECTION('center_axis',(0.,-1.,0.));
#473=DIRECTION('ref_axis',(-0.88016476713776,0.,0.474668287006128));
#474=DIRECTION('',(0.,1.,0.));
#475=DIRECTION('center_axis',(0.,1.,0.));
#476=DIRECTION('ref_axis',(0.,0.,1.));
#477=DIRECTION('center_axis',(0.,1.,0.));
#478=DIRECTION('ref_axis',(0.,0.,1.));
#479=DIRECTION('center_axis',(0.,1.,0.));
#480=DIRECTION('ref_axis',(0.,0.,1.));
#481=DIRECTION('',(0.,1.,0.));
#482=DIRECTION('center_axis',(0.,0.,1.));
#483=DIRECTION('ref_axis',(1.,0.,0.));
#484=DIRECTION('',(1.,0.,0.));
#485=DIRECTION('',(1.,0.,0.));
#486=DIRECTION('',(0.,1.,0.));
#487=DIRECTION('center_axis',(0.,1.,0.));
#488=DIRECTION('ref_axis',(-0.997411295445852,0.,0.0719076332319925));
#489=DIRECTION('center_axis',(0.,1.,0.));
#490=DIRECTION('ref_axis',(-0.997411295445852,0.,0.0719076332319925));
#491=DIRECTION('center_axis',(0.,1.,0.));
#492=DIRECTION('ref_axis',(-0.997411295445852,0.,0.0719076332319925));
#493=DIRECTION('',(0.,1.,0.));
#494=DIRECTION('center_axis',(0.,1.,0.));
#495=DIRECTION('ref_axis',(0.997411295445853,0.,-0.0719076332319819));
#496=DIRECTION('center_axis',(0.,1.,0.));
#497=DIRECTION('ref_axis',(0.997411295445853,0.,-0.0719076332319819));
#498=DIRECTION('center_axis',(0.,-1.,0.));
#499=DIRECTION('ref_axis',(0.997411295445853,0.,-0.0719076332319819));
#500=DIRECTION('',(0.,1.,0.));
#501=DIRECTION('center_axis',(-0.970142497594229,0.,0.242535635240744));
#502=DIRECTION('ref_axis',(0.242535635240744,0.,0.970142497594229));
#503=DIRECTION('',(-0.242535635240744,0.,-0.970142497594229));
#504=DIRECTION('',(0.242535635240744,0.,0.970142497594229));
#505=DIRECTION('',(0.,1.,0.));
#506=DIRECTION('center_axis',(0.,1.,0.));
#507=DIRECTION('ref_axis',(-0.994766711076976,0.,-0.102172356991001));
#508=DIRECTION('center_axis',(0.,1.,0.));
#509=DIRECTION('ref_axis',(-0.994766711076976,0.,-0.102172356991001));
#510=DIRECTION('center_axis',(0.,1.,0.));
#511=DIRECTION('ref_axis',(-0.994766711076976,0.,-0.102172356991001));
#512=DIRECTION('center_axis',(0.,1.,0.));
#513=DIRECTION('ref_axis',(1.,0.,0.));
#514=DIRECTION('center_axis',(0.,1.,0.));
#515=DIRECTION('ref_axis',(1.,0.,0.));
#516=DIRECTION('center_axis',(0.,-1.,0.));
#517=DIRECTION('ref_axis',(1.,0.,0.));
#518=DIRECTION('center_axis',(0.,1.,0.));
#519=DIRECTION('ref_axis',(1.,0.,0.));
#520=DIRECTION('',(0.,1.,0.));
#521=DIRECTION('center_axis',(0.,-1.,0.));
#522=DIRECTION('ref_axis',(1.,0.,0.));
#523=DIRECTION('center_axis',(0.,-1.,0.));
#524=DIRECTION('ref_axis',(1.,0.,0.));
#525=DIRECTION('center_axis',(0.,-1.,0.));
#526=DIRECTION('ref_axis',(1.,0.,0.));
#527=DIRECTION('',(0.,1.,0.));
#528=DIRECTION('center_axis',(0.,1.,0.));
#529=DIRECTION('ref_axis',(1.,0.,0.));
#530=DIRECTION('center_axis',(0.,1.,0.));
#531=DIRECTION('ref_axis',(1.,0.,0.));
#532=DIRECTION('center_axis',(0.,1.,0.));
#533=DIRECTION('ref_axis',(1.,0.,0.));
#534=CARTESIAN_POINT('',(0.,0.,0.));
#535=CARTESIAN_POINT('Origin',(-5.,0.,40.));
#536=CARTESIAN_POINT('',(-12.5,15.,40.));
#537=CARTESIAN_POINT('Origin',(-5.,15.,40.));
#538=CARTESIAN_POINT('',(-12.5,0.,40.));
#539=CARTESIAN_POINT('',(-12.5,0.,40.));
#540=CARTESIAN_POINT('Origin',(-5.,0.,40.));
#541=CARTESIAN_POINT('Origin',(45.,0.,34.));
#542=CARTESIAN_POINT('',(45.,0.,34.));
#543=CARTESIAN_POINT('',(85.,0.,34.));
#544=CARTESIAN_POINT('',(85.,0.,34.));
#545=CARTESIAN_POINT('',(85.,15.,34.));
#546=CARTESIAN_POINT('',(85.,0.,34.));
#547=CARTESIAN_POINT('',(45.,15.,34.));
#548=CARTESIAN_POINT('',(85.,15.,34.));
#549=CARTESIAN_POINT('',(45.,0.,34.));
#550=CARTESIAN_POINT('Origin',(45.,0.,40.));
#551=CARTESIAN_POINT('',(45.,0.,46.));
#552=CARTESIAN_POINT('Origin',(45.,0.,40.));
#553=CARTESIAN_POINT('',(45.,15.,46.));
#554=CARTESIAN_POINT('Origin',(45.,15.,40.));
#555=CARTESIAN_POINT('',(45.,0.,46.));
#556=CARTESIAN_POINT('Origin',(85.,0.,46.));
#557=CARTESIAN_POINT('',(85.,0.,46.));
#558=CARTESIAN_POINT('',(45.,0.,46.));
#559=CARTESIAN_POINT('',(85.,15.,46.));
#560=CARTESIAN_POINT('',(45.,15.,46.));
#561=CARTESIAN_POINT('',(85.,0.,46.));
#562=CARTESIAN_POINT('Origin',(85.,0.,40.));
#563=CARTESIAN_POINT('Origin',(85.,0.,40.));
#564=CARTESIAN_POINT('Origin',(85.,15.,40.));
#565=CARTESIAN_POINT('Origin',(0.,0.,0.));
#566=CARTESIAN_POINT('',(-20.,15.,2.44929359829471E-15));
#567=CARTESIAN_POINT('Origin',(0.,15.,0.));
#568=CARTESIAN_POINT('',(-20.,0.,2.44929359829471E-15));
#569=CARTESIAN_POINT('',(-20.,0.,2.44929359829471E-15));
#570=CARTESIAN_POINT('Origin',(0.,0.,0.));
#571=CARTESIAN_POINT('Origin',(0.,0.,0.));
#572=CARTESIAN_POINT('',(25.3216593103704,0.,-16.087683791321));
#573=CARTESIAN_POINT('',(-29.8430013323093,0.,-3.06517070973004));
#574=CARTESIAN_POINT('Origin',(0.,0.,0.));
#575=CARTESIAN_POINT('',(-29.8430013323093,15.,-3.06517070973004));
#576=CARTESIAN_POINT('',(-29.8430013323093,0.,-3.06517070973004));
#577=CARTESIAN_POINT('',(25.3216593103704,15.,-16.087683791321));
#578=CARTESIAN_POINT('Origin',(0.,15.,0.));
#579=CARTESIAN_POINT('',(25.3216593103704,0.,-16.087683791321));
#580=CARTESIAN_POINT('Origin',(95.2804390221507,0.,-53.8160902973182));
#581=CARTESIAN_POINT('',(85.,0.,25.));
#582=CARTESIAN_POINT('Origin',(95.2804390221507,0.,-53.8160902973182));
#583=CARTESIAN_POINT('',(85.,15.,25.));
#584=CARTESIAN_POINT('Origin',(95.2804390221507,15.,-53.8160902973182));
#585=CARTESIAN_POINT('',(85.,0.,25.));
#586=CARTESIAN_POINT('Origin',(85.,0.,40.));
#587=CARTESIAN_POINT('',(85.,0.,55.));
#588=CARTESIAN_POINT('Origin',(85.,0.,40.));
#589=CARTESIAN_POINT('',(85.,15.,55.));
#590=CARTESIAN_POINT('Origin',(85.,15.,40.));
#591=CARTESIAN_POINT('',(85.,0.,55.));
#592=CARTESIAN_POINT('Origin',(-5.,0.,55.));
#593=CARTESIAN_POINT('',(-5.,0.,55.));
#594=CARTESIAN_POINT('',(-5.,0.,55.));
#595=CARTESIAN_POINT('',(-5.,15.,55.));
#596=CARTESIAN_POINT('',(-5.,15.,55.));
#597=CARTESIAN_POINT('',(-5.,0.,55.));
#598=CARTESIAN_POINT('Origin',(-5.,0.,40.));
#599=CARTESIAN_POINT('',(-19.9611694316878,0.,41.0786144984799));
#600=CARTESIAN_POINT('Origin',(-5.,0.,40.));
#601=CARTESIAN_POINT('',(-19.9611694316878,15.,41.0786144984799));
#602=CARTESIAN_POINT('Origin',(-5.,15.,40.));
#603=CARTESIAN_POINT('',(-19.9611694316878,0.,41.0786144984799));
#604=CARTESIAN_POINT('Origin',(-34.9223388633735,0.,42.1572289969595));
#605=CARTESIAN_POINT('',(-20.3702013994621,0.,38.5191944683486));
#606=CARTESIAN_POINT('Origin',(-34.9223388633735,0.,42.1572289969595));
#607=CARTESIAN_POINT('',(-20.3702013994621,15.,38.5191944683486));
#608=CARTESIAN_POINT('Origin',(-34.9223388633735,15.,42.1572289969595));
#609=CARTESIAN_POINT('',(-20.3702013994621,0.,38.5191944683486));
#610=CARTESIAN_POINT('Origin',(-29.4736381300681,0.,2.10544917374615));
#611=CARTESIAN_POINT('',(-29.4736381300681,0.,2.10544917374615));
#612=CARTESIAN_POINT('',(-20.3702013994621,0.,38.5191944683486));
#613=CARTESIAN_POINT('',(-29.4736381300681,15.,2.10544917374615));
#614=CARTESIAN_POINT('',(-20.3702013994621,15.,38.5191944683486));
#615=CARTESIAN_POINT('',(-29.4736381300681,0.,2.10544917374615));
#616=CARTESIAN_POINT('Origin',(-14.9215006661547,0.,-1.53258535486502));
#617=CARTESIAN_POINT('Origin',(-14.9215006661547,0.,-1.53258535486502));
#618=CARTESIAN_POINT('Origin',(-14.9215006661547,15.,-1.53258535486502));
#619=CARTESIAN_POINT('Origin',(35.0392496669227,15.,12.5));
#620=CARTESIAN_POINT('Origin',(35.0392496669227,0.,12.5));
#621=CARTESIAN_POINT('Origin',(0.,0.,0.));
#622=CARTESIAN_POINT('',(-10.,-15.,1.22464679914735E-15));
#623=CARTESIAN_POINT('Origin',(0.,-15.,0.));
#624=CARTESIAN_POINT('',(-10.,0.,1.22464679914735E-15));
#625=CARTESIAN_POINT('',(-10.,0.,-1.22464679914735E-15));
#626=CARTESIAN_POINT('Origin',(0.,0.,0.));
#627=CARTESIAN_POINT('Origin',(0.,0.,0.));
#628=CARTESIAN_POINT('',(-20.,-15.,2.44929359829471E-15));
#629=CARTESIAN_POINT('Origin',(0.,-15.,0.));
#630=CARTESIAN_POINT('',(-20.,0.,2.44929359829471E-15));
#631=CARTESIAN_POINT('',(-20.,0.,-2.44929359829471E-15));
#632=CARTESIAN_POINT('Origin',(0.,0.,0.));
#633=CARTESIAN_POINT('Origin',(0.,0.,0.));
#634=CARTESIAN_POINT('Origin',(0.,-15.,0.));
#635=UNCERTAINTY_MEASURE_WITH_UNIT(LENGTH_MEASURE(0.01),#639,
'DISTANCE_ACCURACY_VALUE',
'Maximum model space distance between geometric entities at asserted c
onnectivities');
#636=UNCERTAINTY_MEASURE_WITH_UNIT(LENGTH_MEASURE(0.01),#639,
'DISTANCE_ACCURACY_VALUE',
'Maximum model space distance between geometric entities at asserted c
onnectivities');
#637=(
GEOMETRIC_REPRESENTATION_CONTEXT(3)
GLOBAL_UNCERTAINTY_ASSIGNED_CONTEXT((#635))
GLOBAL_UNIT_ASSIGNED_CONTEXT((#639,#641,#642))
REPRESENTATION_CONTEXT('','3D')
);
#638=(
GEOMETRIC_REPRESENTATION_CONTEXT(3)
GLOBAL_UNCERTAINTY_ASSIGNED_CONTEXT((#636))
GLOBAL_UNIT_ASSIGNED_CONTEXT((#639,#641,#642))
REPRESENTATION_CONTEXT('','3D')
);
#639=(
LENGTH_UNIT()
NAMED_UNIT(*)
SI_UNIT(.MILLI.,.METRE.)
);
#640=(
LENGTH_UNIT()
NAMED_UNIT(*)
SI_UNIT($,.METRE.)
);
#641=(
NAMED_UNIT(*)
PLANE_ANGLE_UNIT()
SI_UNIT($,.RADIAN.)
);
#642=(
NAMED_UNIT(*)
SI_UNIT($,.STERADIAN.)
SOLID_ANGLE_UNIT()
);
#643=SHAPE_DEFINITION_REPRESENTATION(#644,#645);
#644=PRODUCT_DEFINITION_SHAPE('',$,#647);
#645=SHAPE_REPRESENTATION('',(#375),#637);
#646=PRODUCT_DEFINITION_CONTEXT('part definition',#651,'design');
#647=PRODUCT_DEFINITION('2026-10-06-22-14-11-788','exercise 10',#648,#646);
#648=PRODUCT_DEFINITION_FORMATION('',$,#653);
#649=PRODUCT_RELATED_PRODUCT_CATEGORY('exercise 10','exercise 10',(#653));
#650=APPLICATION_PROTOCOL_DEFINITION('international standard',
'automotive_design',2009,#651);
#651=APPLICATION_CONTEXT(
'Core Data for Automotive Mechanical Design Process');
#652=PRODUCT_CONTEXT('part definition',#651,'mechanical');
#653=PRODUCT('2026-10-06-22-14-11-788','exercise 10',$,(#652));
#654=PRESENTATION_STYLE_ASSIGNMENT((#655));
#655=SURFACE_STYLE_USAGE(.BOTH.,#656);
#656=SURFACE_SIDE_STYLE('',(#657));
#657=SURFACE_STYLE_FILL_AREA(#658);
#658=FILL_AREA_STYLE('Steel - Satin',(#659));
#659=FILL_AREA_STYLE_COLOUR('Steel - Satin',#660);
#660=COLOUR_RGB('Steel - Satin',0.627450980392157,0.627450980392157,0.627450980392157);
ENDSEC;
END-ISO-10303-21;
