ISO-10303-21;
HEADER;
/* Generated by software containing ST-Developer
 * from STEP Tools, Inc. (www.steptools.com) 
 */

FILE_DESCRIPTION(
/* description */ (''),
/* implementation_level */ '2;1');

FILE_NAME(
/* name */ 'exercise 3.step',
/* time_stamp */ '2026-10-03T23:04:55+05:30',
/* author */ (''),
/* organization */ (''),
/* preprocessor_version */ 'ST-DEVELOPER v20.2',
/* originating_system */ 'Autodesk Translation Framework v15.15.0.0',
/* authorisation */ '');

FILE_SCHEMA (('AUTOMOTIVE_DESIGN { 1 0 10303 214 3 1 1 }'));
ENDSEC;

DATA;
#10=MECHANICAL_DESIGN_GEOMETRIC_PRESENTATION_REPRESENTATION('',(#13),#356);
#11=SHAPE_REPRESENTATION_RELATIONSHIP('SRR','None',#363,#12);
#12=ADVANCED_BREP_SHAPE_REPRESENTATION('',(#14),#355);
#13=STYLED_ITEM('',(#372),#14);
#14=MANIFOLD_SOLID_BREP('Body1',#212);
#15=FACE_BOUND('',#40,.T.);
#16=FACE_BOUND('',#44,.T.);
#17=PLANE('',#232);
#18=PLANE('',#233);
#19=PLANE('',#234);
#20=PLANE('',#235);
#21=PLANE('',#236);
#22=PLANE('',#237);
#23=PLANE('',#238);
#24=PLANE('',#239);
#25=PLANE('',#240);
#26=FACE_OUTER_BOUND('',#37,.T.);
#27=FACE_OUTER_BOUND('',#38,.T.);
#28=FACE_OUTER_BOUND('',#39,.T.);
#29=FACE_OUTER_BOUND('',#41,.T.);
#30=FACE_OUTER_BOUND('',#42,.T.);
#31=FACE_OUTER_BOUND('',#43,.T.);
#32=FACE_OUTER_BOUND('',#45,.T.);
#33=FACE_OUTER_BOUND('',#46,.T.);
#34=FACE_OUTER_BOUND('',#47,.T.);
#35=FACE_OUTER_BOUND('',#48,.T.);
#36=FACE_OUTER_BOUND('',#49,.T.);
#37=EDGE_LOOP('',(#145,#146,#147,#148));
#38=EDGE_LOOP('',(#149,#150,#151,#152));
#39=EDGE_LOOP('',(#153,#154,#155,#156,#157,#158));
#40=EDGE_LOOP('',(#159));
#41=EDGE_LOOP('',(#160,#161,#162,#163));
#42=EDGE_LOOP('',(#164,#165,#166,#167));
#43=EDGE_LOOP('',(#168,#169,#170,#171,#172,#173));
#44=EDGE_LOOP('',(#174));
#45=EDGE_LOOP('',(#175,#176,#177,#178));
#46=EDGE_LOOP('',(#179,#180,#181,#182));
#47=EDGE_LOOP('',(#183,#184,#185,#186));
#48=EDGE_LOOP('',(#187,#188,#189,#190,#191,#192));
#49=EDGE_LOOP('',(#193,#194,#195,#196,#197,#198));
#50=LINE('',#302,#73);
#51=LINE('',#305,#74);
#52=LINE('',#310,#75);
#53=LINE('',#314,#76);
#54=LINE('',#316,#77);
#55=LINE('',#318,#78);
#56=LINE('',#320,#79);
#57=LINE('',#321,#80);
#58=LINE('',#324,#81);
#59=LINE('',#325,#82);
#60=LINE('',#329,#83);
#61=LINE('',#331,#84);
#62=LINE('',#333,#85);
#63=LINE('',#334,#86);
#64=LINE('',#337,#87);
#65=LINE('',#338,#88);
#66=LINE('',#339,#89);
#67=LINE('',#341,#90);
#68=LINE('',#344,#91);
#69=LINE('',#346,#92);
#70=LINE('',#347,#93);
#71=LINE('',#349,#94);
#72=LINE('',#350,#95);
#73=VECTOR('',#247,10.);
#74=VECTOR('',#250,10.);
#75=VECTOR('',#255,20.);
#76=VECTOR('',#260,10.);
#77=VECTOR('',#261,10.);
#78=VECTOR('',#262,10.);
#79=VECTOR('',#263,10.);
#80=VECTOR('',#264,10.);
#81=VECTOR('',#267,10.);
#82=VECTOR('',#268,10.);
#83=VECTOR('',#271,10.);
#84=VECTOR('',#272,10.);
#85=VECTOR('',#273,10.);
#86=VECTOR('',#274,10.);
#87=VECTOR('',#277,10.);
#88=VECTOR('',#278,10.);
#89=VECTOR('',#279,10.);
#90=VECTOR('',#282,10.);
#91=VECTOR('',#285,10.);
#92=VECTOR('',#286,10.);
#93=VECTOR('',#287,10.);
#94=VECTOR('',#290,10.);
#95=VECTOR('',#291,10.);
#96=CIRCLE('',#227,25.);
#97=CIRCLE('',#228,25.);
#98=CIRCLE('',#230,20.);
#99=CIRCLE('',#231,20.);
#100=VERTEX_POINT('',#298);
#101=VERTEX_POINT('',#299);
#102=VERTEX_POINT('',#301);
#103=VERTEX_POINT('',#303);
#104=VERTEX_POINT('',#307);
#105=VERTEX_POINT('',#309);
#106=VERTEX_POINT('',#313);
#107=VERTEX_POINT('',#315);
#108=VERTEX_POINT('',#317);
#109=VERTEX_POINT('',#319);
#110=VERTEX_POINT('',#323);
#111=VERTEX_POINT('',#327);
#112=VERTEX_POINT('',#328);
#113=VERTEX_POINT('',#330);
#114=VERTEX_POINT('',#332);
#115=VERTEX_POINT('',#336);
#116=VERTEX_POINT('',#343);
#117=VERTEX_POINT('',#345);
#118=EDGE_CURVE('',#100,#101,#96,.T.);
#119=EDGE_CURVE('',#102,#100,#50,.T.);
#120=EDGE_CURVE('',#103,#102,#97,.T.);
#121=EDGE_CURVE('',#101,#103,#51,.T.);
#122=EDGE_CURVE('',#104,#104,#98,.T.);
#123=EDGE_CURVE('',#104,#105,#52,.T.);
#124=EDGE_CURVE('',#105,#105,#99,.T.);
#125=EDGE_CURVE('',#101,#106,#53,.T.);
#126=EDGE_CURVE('',#107,#106,#54,.T.);
#127=EDGE_CURVE('',#108,#107,#55,.T.);
#128=EDGE_CURVE('',#109,#108,#56,.T.);
#129=EDGE_CURVE('',#109,#100,#57,.T.);
#130=EDGE_CURVE('',#103,#110,#58,.T.);
#131=EDGE_CURVE('',#106,#110,#59,.T.);
#132=EDGE_CURVE('',#111,#112,#60,.T.);
#133=EDGE_CURVE('',#111,#113,#61,.T.);
#134=EDGE_CURVE('',#114,#113,#62,.T.);
#135=EDGE_CURVE('',#112,#114,#63,.T.);
#136=EDGE_CURVE('',#115,#102,#64,.T.);
#137=EDGE_CURVE('',#112,#115,#65,.T.);
#138=EDGE_CURVE('',#110,#114,#66,.T.);
#139=EDGE_CURVE('',#115,#109,#67,.T.);
#140=EDGE_CURVE('',#108,#116,#68,.T.);
#141=EDGE_CURVE('',#117,#107,#69,.T.);
#142=EDGE_CURVE('',#116,#117,#70,.T.);
#143=EDGE_CURVE('',#116,#111,#71,.T.);
#144=EDGE_CURVE('',#113,#117,#72,.T.);
#145=ORIENTED_EDGE('',*,*,#118,.F.);
#146=ORIENTED_EDGE('',*,*,#119,.F.);
#147=ORIENTED_EDGE('',*,*,#120,.F.);
#148=ORIENTED_EDGE('',*,*,#121,.F.);
#149=ORIENTED_EDGE('',*,*,#122,.T.);
#150=ORIENTED_EDGE('',*,*,#123,.T.);
#151=ORIENTED_EDGE('',*,*,#124,.F.);
#152=ORIENTED_EDGE('',*,*,#123,.F.);
#153=ORIENTED_EDGE('',*,*,#125,.T.);
#154=ORIENTED_EDGE('',*,*,#126,.F.);
#155=ORIENTED_EDGE('',*,*,#127,.F.);
#156=ORIENTED_EDGE('',*,*,#128,.F.);
#157=ORIENTED_EDGE('',*,*,#129,.T.);
#158=ORIENTED_EDGE('',*,*,#118,.T.);
#159=ORIENTED_EDGE('',*,*,#122,.F.);
#160=ORIENTED_EDGE('',*,*,#121,.T.);
#161=ORIENTED_EDGE('',*,*,#130,.T.);
#162=ORIENTED_EDGE('',*,*,#131,.F.);
#163=ORIENTED_EDGE('',*,*,#125,.F.);
#164=ORIENTED_EDGE('',*,*,#132,.F.);
#165=ORIENTED_EDGE('',*,*,#133,.T.);
#166=ORIENTED_EDGE('',*,*,#134,.F.);
#167=ORIENTED_EDGE('',*,*,#135,.F.);
#168=ORIENTED_EDGE('',*,*,#120,.T.);
#169=ORIENTED_EDGE('',*,*,#136,.F.);
#170=ORIENTED_EDGE('',*,*,#137,.F.);
#171=ORIENTED_EDGE('',*,*,#135,.T.);
#172=ORIENTED_EDGE('',*,*,#138,.F.);
#173=ORIENTED_EDGE('',*,*,#130,.F.);
#174=ORIENTED_EDGE('',*,*,#124,.T.);
#175=ORIENTED_EDGE('',*,*,#119,.T.);
#176=ORIENTED_EDGE('',*,*,#129,.F.);
#177=ORIENTED_EDGE('',*,*,#139,.F.);
#178=ORIENTED_EDGE('',*,*,#136,.T.);
#179=ORIENTED_EDGE('',*,*,#140,.F.);
#180=ORIENTED_EDGE('',*,*,#127,.T.);
#181=ORIENTED_EDGE('',*,*,#141,.F.);
#182=ORIENTED_EDGE('',*,*,#142,.F.);
#183=ORIENTED_EDGE('',*,*,#143,.F.);
#184=ORIENTED_EDGE('',*,*,#142,.T.);
#185=ORIENTED_EDGE('',*,*,#144,.F.);
#186=ORIENTED_EDGE('',*,*,#133,.F.);
#187=ORIENTED_EDGE('',*,*,#144,.T.);
#188=ORIENTED_EDGE('',*,*,#141,.T.);
#189=ORIENTED_EDGE('',*,*,#126,.T.);
#190=ORIENTED_EDGE('',*,*,#131,.T.);
#191=ORIENTED_EDGE('',*,*,#138,.T.);
#192=ORIENTED_EDGE('',*,*,#134,.T.);
#193=ORIENTED_EDGE('',*,*,#143,.T.);
#194=ORIENTED_EDGE('',*,*,#132,.T.);
#195=ORIENTED_EDGE('',*,*,#137,.T.);
#196=ORIENTED_EDGE('',*,*,#139,.T.);
#197=ORIENTED_EDGE('',*,*,#128,.T.);
#198=ORIENTED_EDGE('',*,*,#140,.T.);
#199=CYLINDRICAL_SURFACE('',#226,25.);
#200=CYLINDRICAL_SURFACE('',#229,20.);
#201=ADVANCED_FACE('',(#26),#199,.T.);
#202=ADVANCED_FACE('',(#27),#200,.F.);
#203=ADVANCED_FACE('',(#28,#15),#17,.T.);
#204=ADVANCED_FACE('',(#29),#18,.T.);
#205=ADVANCED_FACE('',(#30),#19,.T.);
#206=ADVANCED_FACE('',(#31,#16),#20,.T.);
#207=ADVANCED_FACE('',(#32),#21,.T.);
#208=ADVANCED_FACE('',(#33),#22,.T.);
#209=ADVANCED_FACE('',(#34),#23,.T.);
#210=ADVANCED_FACE('',(#35),#24,.T.);
#211=ADVANCED_FACE('',(#36),#25,.F.);
#212=CLOSED_SHELL('',(#201,#202,#203,#204,#205,#206,#207,#208,#209,#210,
#211));
#213=DERIVED_UNIT_ELEMENT(#215,1.);
#214=DERIVED_UNIT_ELEMENT(#358,-3.);
#215=(
MASS_UNIT()
NAMED_UNIT(*)
SI_UNIT(.KILO.,.GRAM.)
);
#216=DERIVED_UNIT((#213,#214));
#217=MEASURE_REPRESENTATION_ITEM('density measure',
POSITIVE_RATIO_MEASURE(7850.),#216);
#218=PROPERTY_DEFINITION_REPRESENTATION(#223,#220);
#219=PROPERTY_DEFINITION_REPRESENTATION(#224,#221);
#220=REPRESENTATION('material name',(#222),#355);
#221=REPRESENTATION('density',(#217),#355);
#222=DESCRIPTIVE_REPRESENTATION_ITEM('Steel','Steel');
#223=PROPERTY_DEFINITION('material property','material name',#365);
#224=PROPERTY_DEFINITION('material property','density of part',#365);
#225=AXIS2_PLACEMENT_3D('',#296,#241,#242);
#226=AXIS2_PLACEMENT_3D('',#297,#243,#244);
#227=AXIS2_PLACEMENT_3D('',#300,#245,#246);
#228=AXIS2_PLACEMENT_3D('',#304,#248,#249);
#229=AXIS2_PLACEMENT_3D('',#306,#251,#252);
#230=AXIS2_PLACEMENT_3D('',#308,#253,#254);
#231=AXIS2_PLACEMENT_3D('',#311,#256,#257);
#232=AXIS2_PLACEMENT_3D('',#312,#258,#259);
#233=AXIS2_PLACEMENT_3D('',#322,#265,#266);
#234=AXIS2_PLACEMENT_3D('',#326,#269,#270);
#235=AXIS2_PLACEMENT_3D('',#335,#275,#276);
#236=AXIS2_PLACEMENT_3D('',#340,#280,#281);
#237=AXIS2_PLACEMENT_3D('',#342,#283,#284);
#238=AXIS2_PLACEMENT_3D('',#348,#288,#289);
#239=AXIS2_PLACEMENT_3D('',#351,#292,#293);
#240=AXIS2_PLACEMENT_3D('',#352,#294,#295);
#241=DIRECTION('axis',(0.,0.,1.));
#242=DIRECTION('refdir',(1.,0.,0.));
#243=DIRECTION('center_axis',(1.,0.,0.));
#244=DIRECTION('ref_axis',(0.,-1.,0.));
#245=DIRECTION('center_axis',(-1.,0.,0.));
#246=DIRECTION('ref_axis',(0.,-1.,0.));
#247=DIRECTION('',(-1.,0.,0.));
#248=DIRECTION('center_axis',(1.,0.,0.));
#249=DIRECTION('ref_axis',(0.,-1.,0.));
#250=DIRECTION('',(1.,0.,0.));
#251=DIRECTION('center_axis',(1.,0.,0.));
#252=DIRECTION('ref_axis',(0.,-1.,0.));
#253=DIRECTION('center_axis',(-1.,0.,0.));
#254=DIRECTION('ref_axis',(0.,-1.,0.));
#255=DIRECTION('',(1.,0.,0.));
#256=DIRECTION('center_axis',(-1.,0.,0.));
#257=DIRECTION('ref_axis',(0.,-1.,0.));
#258=DIRECTION('center_axis',(-1.,0.,0.));
#259=DIRECTION('ref_axis',(0.,0.,1.));
#260=DIRECTION('',(0.,1.,0.));
#261=DIRECTION('',(0.,0.,1.));
#262=DIRECTION('',(0.,1.,0.));
#263=DIRECTION('',(0.,0.,-1.));
#264=DIRECTION('',(0.,1.,0.));
#265=DIRECTION('center_axis',(0.,0.,1.));
#266=DIRECTION('ref_axis',(1.,0.,0.));
#267=DIRECTION('',(0.,1.,0.));
#268=DIRECTION('',(1.,0.,0.));
#269=DIRECTION('center_axis',(6.12323399573677E-17,0.,-1.));
#270=DIRECTION('ref_axis',(-1.,0.,-6.12323399573677E-17));
#271=DIRECTION('',(1.,0.,6.12323399573677E-17));
#272=DIRECTION('',(0.,1.,0.));
#273=DIRECTION('',(-1.,0.,-6.12323399573677E-17));
#274=DIRECTION('',(0.,1.,0.));
#275=DIRECTION('center_axis',(1.,0.,0.));
#276=DIRECTION('ref_axis',(0.,0.,-1.));
#277=DIRECTION('',(0.,1.,0.));
#278=DIRECTION('',(0.,0.,1.));
#279=DIRECTION('',(0.,0.,-1.));
#280=DIRECTION('center_axis',(0.,0.,1.));
#281=DIRECTION('ref_axis',(1.,0.,0.));
#282=DIRECTION('',(-1.,0.,0.));
#283=DIRECTION('center_axis',(-5.55111512312578E-17,0.,1.));
#284=DIRECTION('ref_axis',(1.,0.,5.55111512312578E-17));
#285=DIRECTION('',(-1.,0.,-5.55111512312578E-17));
#286=DIRECTION('',(1.,0.,5.55111512312578E-17));
#287=DIRECTION('',(0.,1.,0.));
#288=DIRECTION('center_axis',(-1.,0.,0.));
#289=DIRECTION('ref_axis',(0.,0.,1.));
#290=DIRECTION('',(0.,0.,-1.));
#291=DIRECTION('',(0.,0.,1.));
#292=DIRECTION('center_axis',(0.,1.,0.));
#293=DIRECTION('ref_axis',(0.,0.,1.));
#294=DIRECTION('center_axis',(0.,1.,0.));
#295=DIRECTION('ref_axis',(1.,0.,0.));
#296=CARTESIAN_POINT('',(0.,0.,0.));
#297=CARTESIAN_POINT('Origin',(-20.,50.,45.));
#298=CARTESIAN_POINT('',(-20.,25.,45.));
#299=CARTESIAN_POINT('',(-20.,75.,45.));
#300=CARTESIAN_POINT('Origin',(-20.,50.,45.));
#301=CARTESIAN_POINT('',(0.,25.,45.));
#302=CARTESIAN_POINT('',(-20.,25.,45.));
#303=CARTESIAN_POINT('',(0.,75.,45.));
#304=CARTESIAN_POINT('Origin',(0.,50.,45.));
#305=CARTESIAN_POINT('',(-20.,75.,45.));
#306=CARTESIAN_POINT('Origin',(-20.,50.,45.));
#307=CARTESIAN_POINT('',(-20.,70.,45.));
#308=CARTESIAN_POINT('Origin',(-20.,50.,45.));
#309=CARTESIAN_POINT('',(0.,70.,45.));
#310=CARTESIAN_POINT('',(-20.,70.,45.));
#311=CARTESIAN_POINT('Origin',(0.,50.,45.));
#312=CARTESIAN_POINT('Origin',(-20.,0.,20.));
#313=CARTESIAN_POINT('',(-20.,100.,45.));
#314=CARTESIAN_POINT('',(-20.,0.,45.));
#315=CARTESIAN_POINT('',(-20.,100.,20.));
#316=CARTESIAN_POINT('',(-20.,100.,45.));
#317=CARTESIAN_POINT('',(-20.,0.,20.));
#318=CARTESIAN_POINT('',(-20.,0.,20.));
#319=CARTESIAN_POINT('',(-20.,0.,45.));
#320=CARTESIAN_POINT('',(-20.,0.,45.));
#321=CARTESIAN_POINT('',(-20.,0.,45.));
#322=CARTESIAN_POINT('Origin',(-20.,0.,45.));
#323=CARTESIAN_POINT('',(0.,100.,45.));
#324=CARTESIAN_POINT('',(0.,0.,45.));
#325=CARTESIAN_POINT('',(0.,100.,45.));
#326=CARTESIAN_POINT('Origin',(0.,0.,0.));
#327=CARTESIAN_POINT('',(-60.,0.,-3.67394039744206E-15));
#328=CARTESIAN_POINT('',(0.,0.,0.));
#329=CARTESIAN_POINT('',(-60.,0.,-3.67394039744206E-15));
#330=CARTESIAN_POINT('',(-60.,100.,-4.44089209850063E-15));
#331=CARTESIAN_POINT('',(-60.,0.,-3.67394039744206E-15));
#332=CARTESIAN_POINT('',(0.,100.,0.));
#333=CARTESIAN_POINT('',(-60.,100.,-3.67394039744206E-15));
#334=CARTESIAN_POINT('',(0.,0.,0.));
#335=CARTESIAN_POINT('Origin',(0.,0.,45.));
#336=CARTESIAN_POINT('',(0.,0.,45.));
#337=CARTESIAN_POINT('',(0.,0.,45.));
#338=CARTESIAN_POINT('',(0.,0.,0.));
#339=CARTESIAN_POINT('',(0.,100.,0.));
#340=CARTESIAN_POINT('Origin',(-20.,0.,45.));
#341=CARTESIAN_POINT('',(0.,0.,45.));
#342=CARTESIAN_POINT('Origin',(-60.,0.,20.));
#343=CARTESIAN_POINT('',(-60.,0.,20.));
#344=CARTESIAN_POINT('',(-20.,0.,20.));
#345=CARTESIAN_POINT('',(-60.,100.,20.));
#346=CARTESIAN_POINT('',(-20.,100.,20.));
#347=CARTESIAN_POINT('',(-60.,0.,20.));
#348=CARTESIAN_POINT('Origin',(-60.,0.,-4.44089209850063E-15));
#349=CARTESIAN_POINT('',(-60.,0.,20.));
#350=CARTESIAN_POINT('',(-60.,100.,20.));
#351=CARTESIAN_POINT('Origin',(-30.,100.,22.5));
#352=CARTESIAN_POINT('Origin',(-30.,0.,22.5));
#353=UNCERTAINTY_MEASURE_WITH_UNIT(LENGTH_MEASURE(0.01),#357,
'DISTANCE_ACCURACY_VALUE',
'Maximum model space distance between geometric entities at asserted c
onnectivities');
#354=UNCERTAINTY_MEASURE_WITH_UNIT(LENGTH_MEASURE(0.01),#357,
'DISTANCE_ACCURACY_VALUE',
'Maximum model space distance between geometric entities at asserted c
onnectivities');
#355=(
GEOMETRIC_REPRESENTATION_CONTEXT(3)
GLOBAL_UNCERTAINTY_ASSIGNED_CONTEXT((#353))
GLOBAL_UNIT_ASSIGNED_CONTEXT((#357,#359,#360))
REPRESENTATION_CONTEXT('','3D')
);
#356=(
GEOMETRIC_REPRESENTATION_CONTEXT(3)
GLOBAL_UNCERTAINTY_ASSIGNED_CONTEXT((#354))
GLOBAL_UNIT_ASSIGNED_CONTEXT((#357,#359,#360))
REPRESENTATION_CONTEXT('','3D')
);
#357=(
LENGTH_UNIT()
NAMED_UNIT(*)
SI_UNIT(.MILLI.,.METRE.)
);
#358=(
LENGTH_UNIT()
NAMED_UNIT(*)
SI_UNIT($,.METRE.)
);
#359=(
NAMED_UNIT(*)
PLANE_ANGLE_UNIT()
SI_UNIT($,.RADIAN.)
);
#360=(
NAMED_UNIT(*)
SI_UNIT($,.STERADIAN.)
SOLID_ANGLE_UNIT()
);
#361=SHAPE_DEFINITION_REPRESENTATION(#362,#363);
#362=PRODUCT_DEFINITION_SHAPE('',$,#365);
#363=SHAPE_REPRESENTATION('',(#225),#355);
#364=PRODUCT_DEFINITION_CONTEXT('part definition',#369,'design');
#365=PRODUCT_DEFINITION('2026-10-01-22-38-48-408','exercise 3',#366,#364);
#366=PRODUCT_DEFINITION_FORMATION('',$,#371);
#367=PRODUCT_RELATED_PRODUCT_CATEGORY('exercise 3','exercise 3',(#371));
#368=APPLICATION_PROTOCOL_DEFINITION('international standard',
'automotive_design',2009,#369);
#369=APPLICATION_CONTEXT(
'Core Data for Automotive Mechanical Design Process');
#370=PRODUCT_CONTEXT('part definition',#369,'mechanical');
#371=PRODUCT('2026-10-01-22-38-48-408','exercise 3',$,(#370));
#372=PRESENTATION_STYLE_ASSIGNMENT((#373));
#373=SURFACE_STYLE_USAGE(.BOTH.,#374);
#374=SURFACE_SIDE_STYLE('',(#375));
#375=SURFACE_STYLE_FILL_AREA(#376);
#376=FILL_AREA_STYLE('Steel - Satin',(#377));
#377=FILL_AREA_STYLE_COLOUR('Steel - Satin',#378);
#378=COLOUR_RGB('Steel - Satin',0.627450980392157,0.627450980392157,0.627450980392157);
ENDSEC;
END-ISO-10303-21;
