ISO-10303-21;
HEADER;
/* Generated by software containing ST-Developer
 * from STEP Tools, Inc. (www.steptools.com) 
 */

FILE_DESCRIPTION(
/* description */ (''),
/* implementation_level */ '2;1');

FILE_NAME(
/* name */ 'exercise 12.step',
/* time_stamp */ '2026-10-07T17:19:28+05:30',
/* author */ (''),
/* organization */ (''),
/* preprocessor_version */ 'ST-DEVELOPER v20.2',
/* originating_system */ 'Autodesk Translation Framework v15.15.0.0',
/* authorisation */ '');

FILE_SCHEMA (('AUTOMOTIVE_DESIGN { 1 0 10303 214 3 1 1 }'));
ENDSEC;

DATA;
#10=MECHANICAL_DESIGN_GEOMETRIC_PRESENTATION_REPRESENTATION('',(#13,#14),
#473);
#11=SHAPE_REPRESENTATION_RELATIONSHIP('SRR','None',#480,#12);
#12=ADVANCED_BREP_SHAPE_REPRESENTATION('',(#15,#16),#472);
#13=STYLED_ITEM('',(#489),#15);
#14=STYLED_ITEM('',(#489),#16);
#15=MANIFOLD_SOLID_BREP('Body1',#264);
#16=MANIFOLD_SOLID_BREP('Body2',#265);
#17=CYLINDRICAL_SURFACE('',#292,27.5);
#18=CYLINDRICAL_SURFACE('',#294,32.);
#19=CYLINDRICAL_SURFACE('',#300,10.);
#20=CYLINDRICAL_SURFACE('',#302,19.);
#21=CYLINDRICAL_SURFACE('',#305,17.);
#22=CYLINDRICAL_SURFACE('',#308,21.5);
#23=FACE_BOUND('',#51,.T.);
#24=FACE_BOUND('',#54,.T.);
#25=FACE_BOUND('',#56,.T.);
#26=FACE_BOUND('',#58,.T.);
#27=FACE_BOUND('',#62,.T.);
#28=FACE_BOUND('',#66,.T.);
#29=FACE_BOUND('',#68,.T.);
#30=FACE_OUTER_BOUND('',#46,.T.);
#31=FACE_OUTER_BOUND('',#47,.T.);
#32=FACE_OUTER_BOUND('',#48,.T.);
#33=FACE_OUTER_BOUND('',#49,.T.);
#34=FACE_OUTER_BOUND('',#50,.T.);
#35=FACE_OUTER_BOUND('',#52,.T.);
#36=FACE_OUTER_BOUND('',#53,.T.);
#37=FACE_OUTER_BOUND('',#55,.T.);
#38=FACE_OUTER_BOUND('',#57,.T.);
#39=FACE_OUTER_BOUND('',#59,.T.);
#40=FACE_OUTER_BOUND('',#60,.T.);
#41=FACE_OUTER_BOUND('',#61,.T.);
#42=FACE_OUTER_BOUND('',#63,.T.);
#43=FACE_OUTER_BOUND('',#64,.T.);
#44=FACE_OUTER_BOUND('',#65,.T.);
#45=FACE_OUTER_BOUND('',#67,.T.);
#46=EDGE_LOOP('',(#172,#173,#174,#175,#176));
#47=EDGE_LOOP('',(#177,#178,#179,#180));
#48=EDGE_LOOP('',(#181,#182,#183,#184));
#49=EDGE_LOOP('',(#185,#186,#187,#188,#189));
#50=EDGE_LOOP('',(#190));
#51=EDGE_LOOP('',(#191));
#52=EDGE_LOOP('',(#192,#193,#194,#195));
#53=EDGE_LOOP('',(#196,#197,#198,#199));
#54=EDGE_LOOP('',(#200,#201,#202,#203));
#55=EDGE_LOOP('',(#204));
#56=EDGE_LOOP('',(#205));
#57=EDGE_LOOP('',(#206));
#58=EDGE_LOOP('',(#207));
#59=EDGE_LOOP('',(#208,#209,#210,#211));
#60=EDGE_LOOP('',(#212,#213,#214,#215,#216,#217,#218,#219,#220,#221,#222,
#223));
#61=EDGE_LOOP('',(#224));
#62=EDGE_LOOP('',(#225));
#63=EDGE_LOOP('',(#226,#227,#228,#229));
#64=EDGE_LOOP('',(#230,#231,#232,#233));
#65=EDGE_LOOP('',(#234));
#66=EDGE_LOOP('',(#235));
#67=EDGE_LOOP('',(#236));
#68=EDGE_LOOP('',(#237));
#69=LINE('',#404,#84);
#70=LINE('',#408,#85);
#71=LINE('',#412,#86);
#72=LINE('',#414,#87);
#73=LINE('',#415,#88);
#74=LINE('',#418,#89);
#75=LINE('',#420,#90);
#76=LINE('',#421,#91);
#77=LINE('',#435,#92);
#78=LINE('',#439,#93);
#79=LINE('',#449,#94);
#80=LINE('',#453,#95);
#81=LINE('',#454,#96);
#82=LINE('',#460,#97);
#83=LINE('',#466,#98);
#84=VECTOR('',#319,10.);
#85=VECTOR('',#322,10.);
#86=VECTOR('',#327,10.);
#87=VECTOR('',#328,10.);
#88=VECTOR('',#329,10.);
#89=VECTOR('',#332,10.);
#90=VECTOR('',#333,10.);
#91=VECTOR('',#334,10.);
#92=VECTOR('',#353,27.5);
#93=VECTOR('',#358,32.);
#94=VECTOR('',#371,10.);
#95=VECTOR('',#376,19.);
#96=VECTOR('',#377,19.);
#97=VECTOR('',#384,17.);
#98=VECTOR('',#391,21.5);
#99=CIRCLE('',#280,19.);
#100=CIRCLE('',#281,32.);
#101=CIRCLE('',#282,19.);
#102=CIRCLE('',#286,19.);
#103=CIRCLE('',#287,32.);
#104=CIRCLE('',#288,19.);
#105=CIRCLE('',#290,32.);
#106=CIRCLE('',#291,27.5);
#107=CIRCLE('',#293,27.5);
#108=CIRCLE('',#295,32.);
#109=CIRCLE('',#298,19.);
#110=CIRCLE('',#299,10.);
#111=CIRCLE('',#301,10.);
#112=CIRCLE('',#303,19.);
#113=CIRCLE('',#306,17.);
#114=CIRCLE('',#307,17.);
#115=CIRCLE('',#309,21.5);
#116=CIRCLE('',#310,21.5);
#117=VERTEX_POINT('',#400);
#118=VERTEX_POINT('',#401);
#119=VERTEX_POINT('',#403);
#120=VERTEX_POINT('',#405);
#121=VERTEX_POINT('',#407);
#122=VERTEX_POINT('',#411);
#123=VERTEX_POINT('',#413);
#124=VERTEX_POINT('',#417);
#125=VERTEX_POINT('',#419);
#126=VERTEX_POINT('',#423);
#127=VERTEX_POINT('',#428);
#128=VERTEX_POINT('',#430);
#129=VERTEX_POINT('',#433);
#130=VERTEX_POINT('',#437);
#131=VERTEX_POINT('',#442);
#132=VERTEX_POINT('',#444);
#133=VERTEX_POINT('',#447);
#134=VERTEX_POINT('',#451);
#135=VERTEX_POINT('',#457);
#136=VERTEX_POINT('',#459);
#137=VERTEX_POINT('',#463);
#138=VERTEX_POINT('',#465);
#139=EDGE_CURVE('',#117,#118,#99,.T.);
#140=EDGE_CURVE('',#117,#119,#69,.T.);
#141=EDGE_CURVE('',#120,#119,#100,.T.);
#142=EDGE_CURVE('',#120,#121,#70,.T.);
#143=EDGE_CURVE('',#118,#121,#101,.T.);
#144=EDGE_CURVE('',#117,#122,#71,.T.);
#145=EDGE_CURVE('',#123,#122,#72,.T.);
#146=EDGE_CURVE('',#119,#123,#73,.T.);
#147=EDGE_CURVE('',#120,#124,#74,.T.);
#148=EDGE_CURVE('',#125,#124,#75,.T.);
#149=EDGE_CURVE('',#121,#125,#76,.T.);
#150=EDGE_CURVE('',#125,#126,#102,.T.);
#151=EDGE_CURVE('',#123,#124,#103,.T.);
#152=EDGE_CURVE('',#126,#122,#104,.T.);
#153=EDGE_CURVE('',#127,#127,#105,.T.);
#154=EDGE_CURVE('',#128,#128,#106,.T.);
#155=EDGE_CURVE('',#129,#129,#107,.T.);
#156=EDGE_CURVE('',#129,#128,#77,.T.);
#157=EDGE_CURVE('',#130,#130,#108,.T.);
#158=EDGE_CURVE('',#130,#127,#78,.T.);
#159=EDGE_CURVE('',#131,#131,#109,.T.);
#160=EDGE_CURVE('',#132,#132,#110,.T.);
#161=EDGE_CURVE('',#133,#133,#111,.T.);
#162=EDGE_CURVE('',#133,#132,#79,.T.);
#163=EDGE_CURVE('',#134,#134,#112,.T.);
#164=EDGE_CURVE('',#134,#126,#80,.T.);
#165=EDGE_CURVE('',#118,#131,#81,.T.);
#166=EDGE_CURVE('',#135,#135,#113,.T.);
#167=EDGE_CURVE('',#135,#136,#82,.T.);
#168=EDGE_CURVE('',#136,#136,#114,.T.);
#169=EDGE_CURVE('',#137,#137,#115,.T.);
#170=EDGE_CURVE('',#137,#138,#83,.T.);
#171=EDGE_CURVE('',#138,#138,#116,.T.);
#172=ORIENTED_EDGE('',*,*,#139,.F.);
#173=ORIENTED_EDGE('',*,*,#140,.T.);
#174=ORIENTED_EDGE('',*,*,#141,.F.);
#175=ORIENTED_EDGE('',*,*,#142,.T.);
#176=ORIENTED_EDGE('',*,*,#143,.F.);
#177=ORIENTED_EDGE('',*,*,#144,.T.);
#178=ORIENTED_EDGE('',*,*,#145,.F.);
#179=ORIENTED_EDGE('',*,*,#146,.F.);
#180=ORIENTED_EDGE('',*,*,#140,.F.);
#181=ORIENTED_EDGE('',*,*,#147,.T.);
#182=ORIENTED_EDGE('',*,*,#148,.F.);
#183=ORIENTED_EDGE('',*,*,#149,.F.);
#184=ORIENTED_EDGE('',*,*,#142,.F.);
#185=ORIENTED_EDGE('',*,*,#150,.F.);
#186=ORIENTED_EDGE('',*,*,#148,.T.);
#187=ORIENTED_EDGE('',*,*,#151,.F.);
#188=ORIENTED_EDGE('',*,*,#145,.T.);
#189=ORIENTED_EDGE('',*,*,#152,.F.);
#190=ORIENTED_EDGE('',*,*,#153,.T.);
#191=ORIENTED_EDGE('',*,*,#154,.T.);
#192=ORIENTED_EDGE('',*,*,#155,.F.);
#193=ORIENTED_EDGE('',*,*,#156,.T.);
#194=ORIENTED_EDGE('',*,*,#154,.F.);
#195=ORIENTED_EDGE('',*,*,#156,.F.);
#196=ORIENTED_EDGE('',*,*,#157,.F.);
#197=ORIENTED_EDGE('',*,*,#158,.T.);
#198=ORIENTED_EDGE('',*,*,#153,.F.);
#199=ORIENTED_EDGE('',*,*,#158,.F.);
#200=ORIENTED_EDGE('',*,*,#141,.T.);
#201=ORIENTED_EDGE('',*,*,#146,.T.);
#202=ORIENTED_EDGE('',*,*,#151,.T.);
#203=ORIENTED_EDGE('',*,*,#147,.F.);
#204=ORIENTED_EDGE('',*,*,#157,.T.);
#205=ORIENTED_EDGE('',*,*,#155,.T.);
#206=ORIENTED_EDGE('',*,*,#159,.T.);
#207=ORIENTED_EDGE('',*,*,#160,.T.);
#208=ORIENTED_EDGE('',*,*,#161,.F.);
#209=ORIENTED_EDGE('',*,*,#162,.T.);
#210=ORIENTED_EDGE('',*,*,#160,.F.);
#211=ORIENTED_EDGE('',*,*,#162,.F.);
#212=ORIENTED_EDGE('',*,*,#163,.F.);
#213=ORIENTED_EDGE('',*,*,#164,.T.);
#214=ORIENTED_EDGE('',*,*,#152,.T.);
#215=ORIENTED_EDGE('',*,*,#144,.F.);
#216=ORIENTED_EDGE('',*,*,#139,.T.);
#217=ORIENTED_EDGE('',*,*,#165,.T.);
#218=ORIENTED_EDGE('',*,*,#159,.F.);
#219=ORIENTED_EDGE('',*,*,#165,.F.);
#220=ORIENTED_EDGE('',*,*,#143,.T.);
#221=ORIENTED_EDGE('',*,*,#149,.T.);
#222=ORIENTED_EDGE('',*,*,#150,.T.);
#223=ORIENTED_EDGE('',*,*,#164,.F.);
#224=ORIENTED_EDGE('',*,*,#163,.T.);
#225=ORIENTED_EDGE('',*,*,#161,.T.);
#226=ORIENTED_EDGE('',*,*,#166,.F.);
#227=ORIENTED_EDGE('',*,*,#167,.T.);
#228=ORIENTED_EDGE('',*,*,#168,.F.);
#229=ORIENTED_EDGE('',*,*,#167,.F.);
#230=ORIENTED_EDGE('',*,*,#169,.F.);
#231=ORIENTED_EDGE('',*,*,#170,.T.);
#232=ORIENTED_EDGE('',*,*,#171,.F.);
#233=ORIENTED_EDGE('',*,*,#170,.F.);
#234=ORIENTED_EDGE('',*,*,#171,.T.);
#235=ORIENTED_EDGE('',*,*,#168,.T.);
#236=ORIENTED_EDGE('',*,*,#169,.T.);
#237=ORIENTED_EDGE('',*,*,#166,.T.);
#238=PLANE('',#279);
#239=PLANE('',#283);
#240=PLANE('',#284);
#241=PLANE('',#285);
#242=PLANE('',#289);
#243=PLANE('',#296);
#244=PLANE('',#297);
#245=PLANE('',#304);
#246=PLANE('',#311);
#247=PLANE('',#312);
#248=ADVANCED_FACE('',(#30),#238,.F.);
#249=ADVANCED_FACE('',(#31),#239,.T.);
#250=ADVANCED_FACE('',(#32),#240,.T.);
#251=ADVANCED_FACE('',(#33),#241,.T.);
#252=ADVANCED_FACE('',(#34,#23),#242,.F.);
#253=ADVANCED_FACE('',(#35),#17,.F.);
#254=ADVANCED_FACE('',(#36,#24),#18,.T.);
#255=ADVANCED_FACE('',(#37,#25),#243,.T.);
#256=ADVANCED_FACE('',(#38,#26),#244,.F.);
#257=ADVANCED_FACE('',(#39),#19,.F.);
#258=ADVANCED_FACE('',(#40),#20,.T.);
#259=ADVANCED_FACE('',(#41,#27),#245,.T.);
#260=ADVANCED_FACE('',(#42),#21,.F.);
#261=ADVANCED_FACE('',(#43),#22,.T.);
#262=ADVANCED_FACE('',(#44,#28),#246,.T.);
#263=ADVANCED_FACE('',(#45,#29),#247,.F.);
#264=CLOSED_SHELL('',(#248,#249,#250,#251,#252,#253,#254,#255,#256,#257,
#258,#259));
#265=CLOSED_SHELL('',(#260,#261,#262,#263));
#266=DERIVED_UNIT_ELEMENT(#268,1.);
#267=DERIVED_UNIT_ELEMENT(#475,-3.);
#268=(
MASS_UNIT()
NAMED_UNIT(*)
SI_UNIT(.KILO.,.GRAM.)
);
#269=DERIVED_UNIT((#266,#267));
#270=MEASURE_REPRESENTATION_ITEM('density measure',
POSITIVE_RATIO_MEASURE(7850.),#269);
#271=PROPERTY_DEFINITION_REPRESENTATION(#276,#273);
#272=PROPERTY_DEFINITION_REPRESENTATION(#277,#274);
#273=REPRESENTATION('material name',(#275),#472);
#274=REPRESENTATION('density',(#270),#472);
#275=DESCRIPTIVE_REPRESENTATION_ITEM('Steel','Steel');
#276=PROPERTY_DEFINITION('material property','material name',#482);
#277=PROPERTY_DEFINITION('material property','density of part',#482);
#278=AXIS2_PLACEMENT_3D('',#398,#313,#314);
#279=AXIS2_PLACEMENT_3D('',#399,#315,#316);
#280=AXIS2_PLACEMENT_3D('',#402,#317,#318);
#281=AXIS2_PLACEMENT_3D('',#406,#320,#321);
#282=AXIS2_PLACEMENT_3D('',#409,#323,#324);
#283=AXIS2_PLACEMENT_3D('',#410,#325,#326);
#284=AXIS2_PLACEMENT_3D('',#416,#330,#331);
#285=AXIS2_PLACEMENT_3D('',#422,#335,#336);
#286=AXIS2_PLACEMENT_3D('',#424,#337,#338);
#287=AXIS2_PLACEMENT_3D('',#425,#339,#340);
#288=AXIS2_PLACEMENT_3D('',#426,#341,#342);
#289=AXIS2_PLACEMENT_3D('',#427,#343,#344);
#290=AXIS2_PLACEMENT_3D('',#429,#345,#346);
#291=AXIS2_PLACEMENT_3D('',#431,#347,#348);
#292=AXIS2_PLACEMENT_3D('',#432,#349,#350);
#293=AXIS2_PLACEMENT_3D('',#434,#351,#352);
#294=AXIS2_PLACEMENT_3D('',#436,#354,#355);
#295=AXIS2_PLACEMENT_3D('',#438,#356,#357);
#296=AXIS2_PLACEMENT_3D('',#440,#359,#360);
#297=AXIS2_PLACEMENT_3D('',#441,#361,#362);
#298=AXIS2_PLACEMENT_3D('',#443,#363,#364);
#299=AXIS2_PLACEMENT_3D('',#445,#365,#366);
#300=AXIS2_PLACEMENT_3D('',#446,#367,#368);
#301=AXIS2_PLACEMENT_3D('',#448,#369,#370);
#302=AXIS2_PLACEMENT_3D('',#450,#372,#373);
#303=AXIS2_PLACEMENT_3D('',#452,#374,#375);
#304=AXIS2_PLACEMENT_3D('',#455,#378,#379);
#305=AXIS2_PLACEMENT_3D('',#456,#380,#381);
#306=AXIS2_PLACEMENT_3D('',#458,#382,#383);
#307=AXIS2_PLACEMENT_3D('',#461,#385,#386);
#308=AXIS2_PLACEMENT_3D('',#462,#387,#388);
#309=AXIS2_PLACEMENT_3D('',#464,#389,#390);
#310=AXIS2_PLACEMENT_3D('',#467,#392,#393);
#311=AXIS2_PLACEMENT_3D('',#468,#394,#395);
#312=AXIS2_PLACEMENT_3D('',#469,#396,#397);
#313=DIRECTION('axis',(0.,0.,1.));
#314=DIRECTION('refdir',(1.,0.,0.));
#315=DIRECTION('center_axis',(0.,1.,0.));
#316=DIRECTION('ref_axis',(1.,0.,0.));
#317=DIRECTION('center_axis',(0.,-1.,0.));
#318=DIRECTION('ref_axis',(1.,0.,0.));
#319=DIRECTION('',(-0.173333333333333,0.,-0.984863216673034));
#320=DIRECTION('center_axis',(0.,-1.,0.));
#321=DIRECTION('ref_axis',(1.,0.,0.));
#322=DIRECTION('',(-0.173333333333333,0.,0.984863216673034));
#323=DIRECTION('center_axis',(0.,-1.,0.));
#324=DIRECTION('ref_axis',(1.,0.,0.));
#325=DIRECTION('center_axis',(-0.984863216673034,0.,0.173333333333333));
#326=DIRECTION('ref_axis',(0.173333333333333,0.,0.984863216673034));
#327=DIRECTION('',(0.,1.,0.));
#328=DIRECTION('',(0.173333333333333,0.,0.984863216673034));
#329=DIRECTION('',(0.,1.,0.));
#330=DIRECTION('center_axis',(0.984863216673034,0.,0.173333333333333));
#331=DIRECTION('ref_axis',(0.173333333333333,0.,-0.984863216673034));
#332=DIRECTION('',(0.,1.,0.));
#333=DIRECTION('',(0.173333333333333,0.,-0.984863216673034));
#334=DIRECTION('',(0.,1.,0.));
#335=DIRECTION('center_axis',(0.,1.,0.));
#336=DIRECTION('ref_axis',(1.,0.,0.));
#337=DIRECTION('center_axis',(0.,1.,0.));
#338=DIRECTION('ref_axis',(1.,0.,0.));
#339=DIRECTION('center_axis',(0.,1.,0.));
#340=DIRECTION('ref_axis',(1.,0.,0.));
#341=DIRECTION('center_axis',(0.,1.,0.));
#342=DIRECTION('ref_axis',(1.,0.,0.));
#343=DIRECTION('center_axis',(0.,1.,0.));
#344=DIRECTION('ref_axis',(1.,0.,0.));
#345=DIRECTION('center_axis',(0.,-1.,0.));
#346=DIRECTION('ref_axis',(1.,0.,0.));
#347=DIRECTION('center_axis',(0.,1.,0.));
#348=DIRECTION('ref_axis',(1.,0.,0.));
#349=DIRECTION('center_axis',(0.,1.,0.));
#350=DIRECTION('ref_axis',(1.,0.,0.));
#351=DIRECTION('center_axis',(0.,-1.,0.));
#352=DIRECTION('ref_axis',(1.,0.,0.));
#353=DIRECTION('',(0.,-1.,0.));
#354=DIRECTION('center_axis',(0.,1.,0.));
#355=DIRECTION('ref_axis',(1.,0.,0.));
#356=DIRECTION('center_axis',(0.,1.,0.));
#357=DIRECTION('ref_axis',(1.,0.,0.));
#358=DIRECTION('',(0.,-1.,0.));
#359=DIRECTION('center_axis',(0.,1.,0.));
#360=DIRECTION('ref_axis',(1.,0.,0.));
#361=DIRECTION('center_axis',(0.,1.,0.));
#362=DIRECTION('ref_axis',(1.,0.,0.));
#363=DIRECTION('center_axis',(0.,-1.,0.));
#364=DIRECTION('ref_axis',(1.,0.,0.));
#365=DIRECTION('center_axis',(0.,1.,0.));
#366=DIRECTION('ref_axis',(1.,0.,0.));
#367=DIRECTION('center_axis',(0.,1.,0.));
#368=DIRECTION('ref_axis',(1.,0.,0.));
#369=DIRECTION('center_axis',(0.,-1.,0.));
#370=DIRECTION('ref_axis',(1.,0.,0.));
#371=DIRECTION('',(0.,-1.,0.));
#372=DIRECTION('center_axis',(0.,1.,0.));
#373=DIRECTION('ref_axis',(1.,0.,0.));
#374=DIRECTION('center_axis',(0.,1.,0.));
#375=DIRECTION('ref_axis',(1.,0.,0.));
#376=DIRECTION('',(0.,-1.,0.));
#377=DIRECTION('',(0.,-1.,0.));
#378=DIRECTION('center_axis',(0.,1.,0.));
#379=DIRECTION('ref_axis',(1.,0.,0.));
#380=DIRECTION('center_axis',(0.,-1.,0.));
#381=DIRECTION('ref_axis',(1.,0.,0.));
#382=DIRECTION('center_axis',(0.,1.,0.));
#383=DIRECTION('ref_axis',(1.,0.,0.));
#384=DIRECTION('',(0.,1.,0.));
#385=DIRECTION('center_axis',(0.,-1.,0.));
#386=DIRECTION('ref_axis',(1.,0.,0.));
#387=DIRECTION('center_axis',(0.,-1.,0.));
#388=DIRECTION('ref_axis',(1.,0.,0.));
#389=DIRECTION('center_axis',(0.,-1.,0.));
#390=DIRECTION('ref_axis',(1.,0.,0.));
#391=DIRECTION('',(0.,1.,0.));
#392=DIRECTION('center_axis',(0.,1.,0.));
#393=DIRECTION('ref_axis',(1.,0.,0.));
#394=DIRECTION('center_axis',(0.,1.,0.));
#395=DIRECTION('ref_axis',(1.,0.,0.));
#396=DIRECTION('center_axis',(0.,1.,0.));
#397=DIRECTION('ref_axis',(1.,0.,0.));
#398=CARTESIAN_POINT('',(0.,0.,0.));
#399=CARTESIAN_POINT('Origin',(0.,-5.,41.92));
#400=CARTESIAN_POINT('',(-18.7124011167876,-5.,78.2933333333333));
#401=CARTESIAN_POINT('',(-19.,-5.,75.));
#402=CARTESIAN_POINT('Origin',(0.,-5.,75.));
#403=CARTESIAN_POINT('',(-31.5156229335371,-5.,5.54666666666668));
#404=CARTESIAN_POINT('',(-18.7124011167876,-5.,78.2933333333333));
#405=CARTESIAN_POINT('',(31.5156229335371,-5.,5.54666666666667));
#406=CARTESIAN_POINT('Origin',(0.,-5.,0.));
#407=CARTESIAN_POINT('',(18.7124011167876,-5.,78.2933333333333));
#408=CARTESIAN_POINT('',(18.7124011167876,-5.,78.2933333333333));
#409=CARTESIAN_POINT('Origin',(0.,-5.,75.));
#410=CARTESIAN_POINT('Origin',(-31.5156229335371,0.,5.54666666666668));
#411=CARTESIAN_POINT('',(-18.7124011167876,5.,78.2933333333333));
#412=CARTESIAN_POINT('',(-18.7124011167876,0.,78.2933333333334));
#413=CARTESIAN_POINT('',(-31.5156229335371,5.,5.54666666666668));
#414=CARTESIAN_POINT('',(-18.7124011167876,5.,78.2933333333333));
#415=CARTESIAN_POINT('',(-31.5156229335371,0.,5.54666666666667));
#416=CARTESIAN_POINT('Origin',(18.7124011167876,0.,78.2933333333333));
#417=CARTESIAN_POINT('',(31.5156229335371,5.,5.54666666666667));
#418=CARTESIAN_POINT('',(31.5156229335371,0.,5.54666666666667));
#419=CARTESIAN_POINT('',(18.7124011167876,5.,78.2933333333333));
#420=CARTESIAN_POINT('',(18.7124011167876,5.,78.2933333333333));
#421=CARTESIAN_POINT('',(18.7124011167876,0.,78.2933333333333));
#422=CARTESIAN_POINT('Origin',(0.,5.,41.92));
#423=CARTESIAN_POINT('',(-19.,5.,75.));
#424=CARTESIAN_POINT('Origin',(0.,5.,75.));
#425=CARTESIAN_POINT('Origin',(0.,5.,0.));
#426=CARTESIAN_POINT('Origin',(0.,5.,75.));
#427=CARTESIAN_POINT('Origin',(0.,-15.,0.));
#428=CARTESIAN_POINT('',(-32.,-15.,3.91886975727153E-15));
#429=CARTESIAN_POINT('Origin',(0.,-15.,0.));
#430=CARTESIAN_POINT('',(-27.5,-15.,3.36777869765522E-15));
#431=CARTESIAN_POINT('Origin',(0.,-15.,0.));
#432=CARTESIAN_POINT('Origin',(0.,0.,0.));
#433=CARTESIAN_POINT('',(-27.5,15.,3.36777869765522E-15));
#434=CARTESIAN_POINT('Origin',(0.,15.,0.));
#435=CARTESIAN_POINT('',(-27.5,0.,3.36777869765522E-15));
#436=CARTESIAN_POINT('Origin',(0.,0.,0.));
#437=CARTESIAN_POINT('',(-32.,15.,3.91886975727153E-15));
#438=CARTESIAN_POINT('Origin',(0.,15.,0.));
#439=CARTESIAN_POINT('',(-32.,0.,3.91886975727153E-15));
#440=CARTESIAN_POINT('Origin',(0.,15.,0.));
#441=CARTESIAN_POINT('Origin',(0.,-15.,75.));
#442=CARTESIAN_POINT('',(-19.,-15.,75.));
#443=CARTESIAN_POINT('Origin',(0.,-15.,75.));
#444=CARTESIAN_POINT('',(-10.,-15.,75.));
#445=CARTESIAN_POINT('Origin',(0.,-15.,75.));
#446=CARTESIAN_POINT('Origin',(0.,0.,75.));
#447=CARTESIAN_POINT('',(-10.,15.,75.));
#448=CARTESIAN_POINT('Origin',(0.,15.,75.));
#449=CARTESIAN_POINT('',(-10.,0.,75.));
#450=CARTESIAN_POINT('Origin',(0.,0.,75.));
#451=CARTESIAN_POINT('',(-19.,15.,75.));
#452=CARTESIAN_POINT('Origin',(0.,15.,75.));
#453=CARTESIAN_POINT('',(-19.,0.,75.));
#454=CARTESIAN_POINT('',(-19.,0.,75.));
#455=CARTESIAN_POINT('Origin',(0.,15.,75.));
#456=CARTESIAN_POINT('Origin',(0.,0.,0.));
#457=CARTESIAN_POINT('',(-17.,-30.,2.0818995585505E-15));
#458=CARTESIAN_POINT('Origin',(0.,-30.,0.));
#459=CARTESIAN_POINT('',(-17.,0.,2.0818995585505E-15));
#460=CARTESIAN_POINT('',(-17.,0.,-2.0818995585505E-15));
#461=CARTESIAN_POINT('Origin',(0.,0.,0.));
#462=CARTESIAN_POINT('Origin',(0.,0.,0.));
#463=CARTESIAN_POINT('',(-21.5,-30.,2.63299061816681E-15));
#464=CARTESIAN_POINT('Origin',(0.,-30.,0.));
#465=CARTESIAN_POINT('',(-21.5,0.,2.63299061816681E-15));
#466=CARTESIAN_POINT('',(-21.5,0.,-2.63299061816681E-15));
#467=CARTESIAN_POINT('Origin',(0.,0.,0.));
#468=CARTESIAN_POINT('Origin',(0.,0.,0.));
#469=CARTESIAN_POINT('Origin',(0.,-30.,0.));
#470=UNCERTAINTY_MEASURE_WITH_UNIT(LENGTH_MEASURE(0.01),#474,
'DISTANCE_ACCURACY_VALUE',
'Maximum model space distance between geometric entities at asserted c
onnectivities');
#471=UNCERTAINTY_MEASURE_WITH_UNIT(LENGTH_MEASURE(0.01),#474,
'DISTANCE_ACCURACY_VALUE',
'Maximum model space distance between geometric entities at asserted c
onnectivities');
#472=(
GEOMETRIC_REPRESENTATION_CONTEXT(3)
GLOBAL_UNCERTAINTY_ASSIGNED_CONTEXT((#470))
GLOBAL_UNIT_ASSIGNED_CONTEXT((#474,#476,#477))
REPRESENTATION_CONTEXT('','3D')
);
#473=(
GEOMETRIC_REPRESENTATION_CONTEXT(3)
GLOBAL_UNCERTAINTY_ASSIGNED_CONTEXT((#471))
GLOBAL_UNIT_ASSIGNED_CONTEXT((#474,#476,#477))
REPRESENTATION_CONTEXT('','3D')
);
#474=(
LENGTH_UNIT()
NAMED_UNIT(*)
SI_UNIT(.MILLI.,.METRE.)
);
#475=(
LENGTH_UNIT()
NAMED_UNIT(*)
SI_UNIT($,.METRE.)
);
#476=(
NAMED_UNIT(*)
PLANE_ANGLE_UNIT()
SI_UNIT($,.RADIAN.)
);
#477=(
NAMED_UNIT(*)
SI_UNIT($,.STERADIAN.)
SOLID_ANGLE_UNIT()
);
#478=SHAPE_DEFINITION_REPRESENTATION(#479,#480);
#479=PRODUCT_DEFINITION_SHAPE('',$,#482);
#480=SHAPE_REPRESENTATION('',(#278),#472);
#481=PRODUCT_DEFINITION_CONTEXT('part definition',#486,'design');
#482=PRODUCT_DEFINITION('2026-10-07-17-04-14-943','exercise 12',#483,#481);
#483=PRODUCT_DEFINITION_FORMATION('',$,#488);
#484=PRODUCT_RELATED_PRODUCT_CATEGORY('exercise 12','exercise 12',(#488));
#485=APPLICATION_PROTOCOL_DEFINITION('international standard',
'automotive_design',2009,#486);
#486=APPLICATION_CONTEXT(
'Core Data for Automotive Mechanical Design Process');
#487=PRODUCT_CONTEXT('part definition',#486,'mechanical');
#488=PRODUCT('2026-10-07-17-04-14-943','exercise 12',$,(#487));
#489=PRESENTATION_STYLE_ASSIGNMENT((#490));
#490=SURFACE_STYLE_USAGE(.BOTH.,#491);
#491=SURFACE_SIDE_STYLE('',(#492));
#492=SURFACE_STYLE_FILL_AREA(#493);
#493=FILL_AREA_STYLE('Steel - Satin',(#494));
#494=FILL_AREA_STYLE_COLOUR('Steel - Satin',#495);
#495=COLOUR_RGB('Steel - Satin',0.627450980392157,0.627450980392157,0.627450980392157);
ENDSEC;
END-ISO-10303-21;
