ISO-10303-21;
HEADER;
/* Generated by software containing ST-Developer
 * from STEP Tools, Inc. (www.steptools.com) 
 */

FILE_DESCRIPTION(
/* description */ (''),
/* implementation_level */ '2;1');

FILE_NAME(
/* name */ 'exercise 14.step',
/* time_stamp */ '2026-10-07T17:48:40+05:30',
/* author */ (''),
/* organization */ (''),
/* preprocessor_version */ 'ST-DEVELOPER v20.2',
/* originating_system */ 'Autodesk Translation Framework v15.15.0.0',
/* authorisation */ '');

FILE_SCHEMA (('AUTOMOTIVE_DESIGN { 1 0 10303 214 3 1 1 }'));
ENDSEC;

DATA;
#10=MECHANICAL_DESIGN_GEOMETRIC_PRESENTATION_REPRESENTATION('',(#14,#15),
#1268);
#11=SHAPE_REPRESENTATION_RELATIONSHIP('SRR','None',#1275,#12);
#12=ADVANCED_BREP_SHAPE_REPRESENTATION('',(#16,#17),#1267);
#13=FACE_BOUND('',#100,.T.);
#14=STYLED_ITEM('',(#1284),#16);
#15=STYLED_ITEM('',(#1284),#17);
#16=MANIFOLD_SOLID_BREP('Body1',#795);
#17=MANIFOLD_SOLID_BREP('Body2',#796);
#18=FACE_OUTER_BOUND('',#59,.T.);
#19=FACE_OUTER_BOUND('',#60,.T.);
#20=FACE_OUTER_BOUND('',#61,.T.);
#21=FACE_OUTER_BOUND('',#62,.T.);
#22=FACE_OUTER_BOUND('',#63,.T.);
#23=FACE_OUTER_BOUND('',#64,.T.);
#24=FACE_OUTER_BOUND('',#65,.T.);
#25=FACE_OUTER_BOUND('',#66,.T.);
#26=FACE_OUTER_BOUND('',#67,.T.);
#27=FACE_OUTER_BOUND('',#68,.T.);
#28=FACE_OUTER_BOUND('',#69,.T.);
#29=FACE_OUTER_BOUND('',#70,.T.);
#30=FACE_OUTER_BOUND('',#71,.T.);
#31=FACE_OUTER_BOUND('',#72,.T.);
#32=FACE_OUTER_BOUND('',#73,.T.);
#33=FACE_OUTER_BOUND('',#74,.T.);
#34=FACE_OUTER_BOUND('',#75,.T.);
#35=FACE_OUTER_BOUND('',#76,.T.);
#36=FACE_OUTER_BOUND('',#77,.T.);
#37=FACE_OUTER_BOUND('',#78,.T.);
#38=FACE_OUTER_BOUND('',#79,.T.);
#39=FACE_OUTER_BOUND('',#80,.T.);
#40=FACE_OUTER_BOUND('',#81,.T.);
#41=FACE_OUTER_BOUND('',#82,.T.);
#42=FACE_OUTER_BOUND('',#83,.T.);
#43=FACE_OUTER_BOUND('',#84,.T.);
#44=FACE_OUTER_BOUND('',#85,.T.);
#45=FACE_OUTER_BOUND('',#86,.T.);
#46=FACE_OUTER_BOUND('',#87,.T.);
#47=FACE_OUTER_BOUND('',#88,.T.);
#48=FACE_OUTER_BOUND('',#89,.T.);
#49=FACE_OUTER_BOUND('',#90,.T.);
#50=FACE_OUTER_BOUND('',#91,.T.);
#51=FACE_OUTER_BOUND('',#92,.T.);
#52=FACE_OUTER_BOUND('',#93,.T.);
#53=FACE_OUTER_BOUND('',#94,.T.);
#54=FACE_OUTER_BOUND('',#95,.T.);
#55=FACE_OUTER_BOUND('',#96,.T.);
#56=FACE_OUTER_BOUND('',#97,.T.);
#57=FACE_OUTER_BOUND('',#98,.T.);
#58=FACE_OUTER_BOUND('',#99,.T.);
#59=EDGE_LOOP('',(#497,#498,#499,#500,#501,#502,#503,#504,#505,#506,#507,
#508));
#60=EDGE_LOOP('',(#509,#510,#511,#512));
#61=EDGE_LOOP('',(#513,#514,#515,#516));
#62=EDGE_LOOP('',(#517,#518,#519,#520));
#63=EDGE_LOOP('',(#521,#522,#523,#524));
#64=EDGE_LOOP('',(#525,#526,#527,#528));
#65=EDGE_LOOP('',(#529,#530,#531,#532));
#66=EDGE_LOOP('',(#533,#534,#535,#536));
#67=EDGE_LOOP('',(#537,#538,#539,#540));
#68=EDGE_LOOP('',(#541,#542,#543,#544));
#69=EDGE_LOOP('',(#545,#546,#547,#548));
#70=EDGE_LOOP('',(#549,#550,#551,#552));
#71=EDGE_LOOP('',(#553,#554,#555,#556));
#72=EDGE_LOOP('',(#557,#558,#559,#560,#561,#562,#563,#564,#565,#566,#567,
#568));
#73=EDGE_LOOP('',(#569,#570,#571,#572));
#74=EDGE_LOOP('',(#573,#574,#575,#576));
#75=EDGE_LOOP('',(#577,#578,#579,#580));
#76=EDGE_LOOP('',(#581,#582,#583,#584));
#77=EDGE_LOOP('',(#585,#586,#587,#588));
#78=EDGE_LOOP('',(#589,#590,#591,#592));
#79=EDGE_LOOP('',(#593,#594,#595,#596));
#80=EDGE_LOOP('',(#597,#598,#599,#600));
#81=EDGE_LOOP('',(#601,#602,#603,#604));
#82=EDGE_LOOP('',(#605,#606,#607,#608));
#83=EDGE_LOOP('',(#609,#610,#611,#612));
#84=EDGE_LOOP('',(#613,#614,#615,#616));
#85=EDGE_LOOP('',(#617,#618,#619,#620,#621,#622,#623,#624,#625,#626,#627,
#628));
#86=EDGE_LOOP('',(#629,#630,#631,#632));
#87=EDGE_LOOP('',(#633,#634,#635,#636));
#88=EDGE_LOOP('',(#637,#638,#639,#640));
#89=EDGE_LOOP('',(#641,#642,#643,#644));
#90=EDGE_LOOP('',(#645,#646,#647,#648));
#91=EDGE_LOOP('',(#649,#650,#651,#652));
#92=EDGE_LOOP('',(#653,#654,#655,#656));
#93=EDGE_LOOP('',(#657,#658,#659,#660));
#94=EDGE_LOOP('',(#661,#662,#663,#664));
#95=EDGE_LOOP('',(#665,#666,#667,#668));
#96=EDGE_LOOP('',(#669,#670,#671,#672));
#97=EDGE_LOOP('',(#673,#674,#675,#676));
#98=EDGE_LOOP('',(#677,#678,#679,#680,#681,#682,#683,#684,#685,#686,#687,
#688));
#99=EDGE_LOOP('',(#689,#690,#691,#692,#693,#694,#695,#696,#697,#698,#699,
#700));
#100=EDGE_LOOP('',(#701,#702,#703,#704,#705,#706,#707,#708,#709,#710,#711,
#712));
#101=LINE('',#1047,#209);
#102=LINE('',#1049,#210);
#103=LINE('',#1051,#211);
#104=LINE('',#1053,#212);
#105=LINE('',#1055,#213);
#106=LINE('',#1057,#214);
#107=LINE('',#1059,#215);
#108=LINE('',#1061,#216);
#109=LINE('',#1063,#217);
#110=LINE('',#1065,#218);
#111=LINE('',#1067,#219);
#112=LINE('',#1068,#220);
#113=LINE('',#1071,#221);
#114=LINE('',#1073,#222);
#115=LINE('',#1074,#223);
#116=LINE('',#1077,#224);
#117=LINE('',#1078,#225);
#118=LINE('',#1081,#226);
#119=LINE('',#1082,#227);
#120=LINE('',#1085,#228);
#121=LINE('',#1086,#229);
#122=LINE('',#1089,#230);
#123=LINE('',#1090,#231);
#124=LINE('',#1093,#232);
#125=LINE('',#1094,#233);
#126=LINE('',#1097,#234);
#127=LINE('',#1098,#235);
#128=LINE('',#1101,#236);
#129=LINE('',#1102,#237);
#130=LINE('',#1105,#238);
#131=LINE('',#1106,#239);
#132=LINE('',#1109,#240);
#133=LINE('',#1110,#241);
#134=LINE('',#1113,#242);
#135=LINE('',#1114,#243);
#136=LINE('',#1116,#244);
#137=LINE('',#1121,#245);
#138=LINE('',#1123,#246);
#139=LINE('',#1125,#247);
#140=LINE('',#1126,#248);
#141=LINE('',#1129,#249);
#142=LINE('',#1131,#250);
#143=LINE('',#1132,#251);
#144=LINE('',#1135,#252);
#145=LINE('',#1137,#253);
#146=LINE('',#1138,#254);
#147=LINE('',#1141,#255);
#148=LINE('',#1143,#256);
#149=LINE('',#1144,#257);
#150=LINE('',#1147,#258);
#151=LINE('',#1149,#259);
#152=LINE('',#1150,#260);
#153=LINE('',#1153,#261);
#154=LINE('',#1155,#262);
#155=LINE('',#1156,#263);
#156=LINE('',#1159,#264);
#157=LINE('',#1161,#265);
#158=LINE('',#1162,#266);
#159=LINE('',#1165,#267);
#160=LINE('',#1167,#268);
#161=LINE('',#1168,#269);
#162=LINE('',#1171,#270);
#163=LINE('',#1173,#271);
#164=LINE('',#1174,#272);
#165=LINE('',#1177,#273);
#166=LINE('',#1179,#274);
#167=LINE('',#1180,#275);
#168=LINE('',#1183,#276);
#169=LINE('',#1185,#277);
#170=LINE('',#1186,#278);
#171=LINE('',#1188,#279);
#172=LINE('',#1189,#280);
#173=LINE('',#1194,#281);
#174=LINE('',#1196,#282);
#175=LINE('',#1198,#283);
#176=LINE('',#1199,#284);
#177=LINE('',#1202,#285);
#178=LINE('',#1204,#286);
#179=LINE('',#1205,#287);
#180=LINE('',#1208,#288);
#181=LINE('',#1210,#289);
#182=LINE('',#1211,#290);
#183=LINE('',#1214,#291);
#184=LINE('',#1216,#292);
#185=LINE('',#1217,#293);
#186=LINE('',#1220,#294);
#187=LINE('',#1222,#295);
#188=LINE('',#1223,#296);
#189=LINE('',#1226,#297);
#190=LINE('',#1228,#298);
#191=LINE('',#1229,#299);
#192=LINE('',#1232,#300);
#193=LINE('',#1234,#301);
#194=LINE('',#1235,#302);
#195=LINE('',#1238,#303);
#196=LINE('',#1240,#304);
#197=LINE('',#1241,#305);
#198=LINE('',#1244,#306);
#199=LINE('',#1246,#307);
#200=LINE('',#1247,#308);
#201=LINE('',#1250,#309);
#202=LINE('',#1252,#310);
#203=LINE('',#1253,#311);
#204=LINE('',#1256,#312);
#205=LINE('',#1258,#313);
#206=LINE('',#1259,#314);
#207=LINE('',#1261,#315);
#208=LINE('',#1262,#316);
#209=VECTOR('',#855,10.);
#210=VECTOR('',#856,10.);
#211=VECTOR('',#857,10.);
#212=VECTOR('',#858,10.);
#213=VECTOR('',#859,10.);
#214=VECTOR('',#860,10.);
#215=VECTOR('',#861,10.);
#216=VECTOR('',#862,10.);
#217=VECTOR('',#863,10.);
#218=VECTOR('',#864,10.);
#219=VECTOR('',#865,10.);
#220=VECTOR('',#866,10.);
#221=VECTOR('',#869,10.);
#222=VECTOR('',#870,10.);
#223=VECTOR('',#871,10.);
#224=VECTOR('',#874,10.);
#225=VECTOR('',#875,10.);
#226=VECTOR('',#878,10.);
#227=VECTOR('',#879,10.);
#228=VECTOR('',#882,10.);
#229=VECTOR('',#883,10.);
#230=VECTOR('',#886,10.);
#231=VECTOR('',#887,10.);
#232=VECTOR('',#890,10.);
#233=VECTOR('',#891,10.);
#234=VECTOR('',#894,10.);
#235=VECTOR('',#895,10.);
#236=VECTOR('',#898,10.);
#237=VECTOR('',#899,10.);
#238=VECTOR('',#902,10.);
#239=VECTOR('',#903,10.);
#240=VECTOR('',#906,10.);
#241=VECTOR('',#907,10.);
#242=VECTOR('',#910,10.);
#243=VECTOR('',#911,10.);
#244=VECTOR('',#914,10.);
#245=VECTOR('',#919,10.);
#246=VECTOR('',#920,10.);
#247=VECTOR('',#921,10.);
#248=VECTOR('',#922,10.);
#249=VECTOR('',#925,10.);
#250=VECTOR('',#926,10.);
#251=VECTOR('',#927,10.);
#252=VECTOR('',#930,10.);
#253=VECTOR('',#931,10.);
#254=VECTOR('',#932,10.);
#255=VECTOR('',#935,10.);
#256=VECTOR('',#936,10.);
#257=VECTOR('',#937,10.);
#258=VECTOR('',#940,10.);
#259=VECTOR('',#941,10.);
#260=VECTOR('',#942,10.);
#261=VECTOR('',#945,10.);
#262=VECTOR('',#946,10.);
#263=VECTOR('',#947,10.);
#264=VECTOR('',#950,10.);
#265=VECTOR('',#951,10.);
#266=VECTOR('',#952,10.);
#267=VECTOR('',#955,10.);
#268=VECTOR('',#956,10.);
#269=VECTOR('',#957,10.);
#270=VECTOR('',#960,10.);
#271=VECTOR('',#961,10.);
#272=VECTOR('',#962,10.);
#273=VECTOR('',#965,10.);
#274=VECTOR('',#966,10.);
#275=VECTOR('',#967,10.);
#276=VECTOR('',#970,10.);
#277=VECTOR('',#971,10.);
#278=VECTOR('',#972,10.);
#279=VECTOR('',#975,10.);
#280=VECTOR('',#976,10.);
#281=VECTOR('',#981,10.);
#282=VECTOR('',#982,10.);
#283=VECTOR('',#983,10.);
#284=VECTOR('',#984,10.);
#285=VECTOR('',#987,10.);
#286=VECTOR('',#988,10.);
#287=VECTOR('',#989,10.);
#288=VECTOR('',#992,10.);
#289=VECTOR('',#993,10.);
#290=VECTOR('',#994,10.);
#291=VECTOR('',#997,10.);
#292=VECTOR('',#998,10.);
#293=VECTOR('',#999,10.);
#294=VECTOR('',#1002,10.);
#295=VECTOR('',#1003,10.);
#296=VECTOR('',#1004,10.);
#297=VECTOR('',#1007,10.);
#298=VECTOR('',#1008,10.);
#299=VECTOR('',#1009,10.);
#300=VECTOR('',#1012,10.);
#301=VECTOR('',#1013,10.);
#302=VECTOR('',#1014,10.);
#303=VECTOR('',#1017,10.);
#304=VECTOR('',#1018,10.);
#305=VECTOR('',#1019,10.);
#306=VECTOR('',#1022,10.);
#307=VECTOR('',#1023,10.);
#308=VECTOR('',#1024,10.);
#309=VECTOR('',#1027,10.);
#310=VECTOR('',#1028,10.);
#311=VECTOR('',#1029,10.);
#312=VECTOR('',#1032,10.);
#313=VECTOR('',#1033,10.);
#314=VECTOR('',#1034,10.);
#315=VECTOR('',#1037,10.);
#316=VECTOR('',#1038,10.);
#317=VERTEX_POINT('',#1045);
#318=VERTEX_POINT('',#1046);
#319=VERTEX_POINT('',#1048);
#320=VERTEX_POINT('',#1050);
#321=VERTEX_POINT('',#1052);
#322=VERTEX_POINT('',#1054);
#323=VERTEX_POINT('',#1056);
#324=VERTEX_POINT('',#1058);
#325=VERTEX_POINT('',#1060);
#326=VERTEX_POINT('',#1062);
#327=VERTEX_POINT('',#1064);
#328=VERTEX_POINT('',#1066);
#329=VERTEX_POINT('',#1070);
#330=VERTEX_POINT('',#1072);
#331=VERTEX_POINT('',#1076);
#332=VERTEX_POINT('',#1080);
#333=VERTEX_POINT('',#1084);
#334=VERTEX_POINT('',#1088);
#335=VERTEX_POINT('',#1092);
#336=VERTEX_POINT('',#1096);
#337=VERTEX_POINT('',#1100);
#338=VERTEX_POINT('',#1104);
#339=VERTEX_POINT('',#1108);
#340=VERTEX_POINT('',#1112);
#341=VERTEX_POINT('',#1119);
#342=VERTEX_POINT('',#1120);
#343=VERTEX_POINT('',#1122);
#344=VERTEX_POINT('',#1124);
#345=VERTEX_POINT('',#1128);
#346=VERTEX_POINT('',#1130);
#347=VERTEX_POINT('',#1134);
#348=VERTEX_POINT('',#1136);
#349=VERTEX_POINT('',#1140);
#350=VERTEX_POINT('',#1142);
#351=VERTEX_POINT('',#1146);
#352=VERTEX_POINT('',#1148);
#353=VERTEX_POINT('',#1152);
#354=VERTEX_POINT('',#1154);
#355=VERTEX_POINT('',#1158);
#356=VERTEX_POINT('',#1160);
#357=VERTEX_POINT('',#1164);
#358=VERTEX_POINT('',#1166);
#359=VERTEX_POINT('',#1170);
#360=VERTEX_POINT('',#1172);
#361=VERTEX_POINT('',#1176);
#362=VERTEX_POINT('',#1178);
#363=VERTEX_POINT('',#1182);
#364=VERTEX_POINT('',#1184);
#365=VERTEX_POINT('',#1192);
#366=VERTEX_POINT('',#1193);
#367=VERTEX_POINT('',#1195);
#368=VERTEX_POINT('',#1197);
#369=VERTEX_POINT('',#1201);
#370=VERTEX_POINT('',#1203);
#371=VERTEX_POINT('',#1207);
#372=VERTEX_POINT('',#1209);
#373=VERTEX_POINT('',#1213);
#374=VERTEX_POINT('',#1215);
#375=VERTEX_POINT('',#1219);
#376=VERTEX_POINT('',#1221);
#377=VERTEX_POINT('',#1225);
#378=VERTEX_POINT('',#1227);
#379=VERTEX_POINT('',#1231);
#380=VERTEX_POINT('',#1233);
#381=VERTEX_POINT('',#1237);
#382=VERTEX_POINT('',#1239);
#383=VERTEX_POINT('',#1243);
#384=VERTEX_POINT('',#1245);
#385=VERTEX_POINT('',#1249);
#386=VERTEX_POINT('',#1251);
#387=VERTEX_POINT('',#1255);
#388=VERTEX_POINT('',#1257);
#389=EDGE_CURVE('',#317,#318,#101,.T.);
#390=EDGE_CURVE('',#319,#317,#102,.T.);
#391=EDGE_CURVE('',#320,#319,#103,.T.);
#392=EDGE_CURVE('',#321,#320,#104,.T.);
#393=EDGE_CURVE('',#322,#321,#105,.T.);
#394=EDGE_CURVE('',#323,#322,#106,.T.);
#395=EDGE_CURVE('',#324,#323,#107,.T.);
#396=EDGE_CURVE('',#325,#324,#108,.T.);
#397=EDGE_CURVE('',#326,#325,#109,.T.);
#398=EDGE_CURVE('',#327,#326,#110,.T.);
#399=EDGE_CURVE('',#328,#327,#111,.T.);
#400=EDGE_CURVE('',#318,#328,#112,.T.);
#401=EDGE_CURVE('',#322,#329,#113,.F.);
#402=EDGE_CURVE('',#330,#329,#114,.F.);
#403=EDGE_CURVE('',#323,#330,#115,.F.);
#404=EDGE_CURVE('',#321,#331,#116,.T.);
#405=EDGE_CURVE('',#329,#331,#117,.F.);
#406=EDGE_CURVE('',#320,#332,#118,.T.);
#407=EDGE_CURVE('',#331,#332,#119,.F.);
#408=EDGE_CURVE('',#319,#333,#120,.F.);
#409=EDGE_CURVE('',#332,#333,#121,.F.);
#410=EDGE_CURVE('',#317,#334,#122,.F.);
#411=EDGE_CURVE('',#333,#334,#123,.F.);
#412=EDGE_CURVE('',#318,#335,#124,.F.);
#413=EDGE_CURVE('',#334,#335,#125,.F.);
#414=EDGE_CURVE('',#336,#330,#126,.F.);
#415=EDGE_CURVE('',#324,#336,#127,.F.);
#416=EDGE_CURVE('',#337,#336,#128,.F.);
#417=EDGE_CURVE('',#325,#337,#129,.F.);
#418=EDGE_CURVE('',#338,#337,#130,.F.);
#419=EDGE_CURVE('',#326,#338,#131,.F.);
#420=EDGE_CURVE('',#339,#338,#132,.F.);
#421=EDGE_CURVE('',#327,#339,#133,.F.);
#422=EDGE_CURVE('',#340,#339,#134,.F.);
#423=EDGE_CURVE('',#328,#340,#135,.F.);
#424=EDGE_CURVE('',#335,#340,#136,.F.);
#425=EDGE_CURVE('',#341,#342,#137,.T.);
#426=EDGE_CURVE('',#341,#343,#138,.T.);
#427=EDGE_CURVE('',#343,#344,#139,.T.);
#428=EDGE_CURVE('',#342,#344,#140,.T.);
#429=EDGE_CURVE('',#345,#341,#141,.T.);
#430=EDGE_CURVE('',#345,#346,#142,.T.);
#431=EDGE_CURVE('',#346,#343,#143,.T.);
#432=EDGE_CURVE('',#347,#345,#144,.T.);
#433=EDGE_CURVE('',#347,#348,#145,.T.);
#434=EDGE_CURVE('',#348,#346,#146,.T.);
#435=EDGE_CURVE('',#349,#347,#147,.T.);
#436=EDGE_CURVE('',#349,#350,#148,.T.);
#437=EDGE_CURVE('',#350,#348,#149,.T.);
#438=EDGE_CURVE('',#351,#349,#150,.T.);
#439=EDGE_CURVE('',#351,#352,#151,.T.);
#440=EDGE_CURVE('',#352,#350,#152,.T.);
#441=EDGE_CURVE('',#353,#351,#153,.T.);
#442=EDGE_CURVE('',#353,#354,#154,.T.);
#443=EDGE_CURVE('',#354,#352,#155,.T.);
#444=EDGE_CURVE('',#355,#353,#156,.T.);
#445=EDGE_CURVE('',#355,#356,#157,.T.);
#446=EDGE_CURVE('',#356,#354,#158,.T.);
#447=EDGE_CURVE('',#357,#355,#159,.T.);
#448=EDGE_CURVE('',#357,#358,#160,.T.);
#449=EDGE_CURVE('',#358,#356,#161,.T.);
#450=EDGE_CURVE('',#359,#357,#162,.T.);
#451=EDGE_CURVE('',#359,#360,#163,.T.);
#452=EDGE_CURVE('',#360,#358,#164,.T.);
#453=EDGE_CURVE('',#361,#359,#165,.T.);
#454=EDGE_CURVE('',#361,#362,#166,.T.);
#455=EDGE_CURVE('',#362,#360,#167,.T.);
#456=EDGE_CURVE('',#363,#361,#168,.T.);
#457=EDGE_CURVE('',#363,#364,#169,.T.);
#458=EDGE_CURVE('',#364,#362,#170,.T.);
#459=EDGE_CURVE('',#342,#363,#171,.T.);
#460=EDGE_CURVE('',#344,#364,#172,.T.);
#461=EDGE_CURVE('',#365,#366,#173,.T.);
#462=EDGE_CURVE('',#366,#367,#174,.T.);
#463=EDGE_CURVE('',#368,#367,#175,.T.);
#464=EDGE_CURVE('',#365,#368,#176,.T.);
#465=EDGE_CURVE('',#365,#369,#177,.T.);
#466=EDGE_CURVE('',#370,#368,#178,.T.);
#467=EDGE_CURVE('',#369,#370,#179,.T.);
#468=EDGE_CURVE('',#371,#369,#180,.T.);
#469=EDGE_CURVE('',#372,#370,#181,.T.);
#470=EDGE_CURVE('',#371,#372,#182,.T.);
#471=EDGE_CURVE('',#373,#371,#183,.T.);
#472=EDGE_CURVE('',#374,#372,#184,.T.);
#473=EDGE_CURVE('',#373,#374,#185,.T.);
#474=EDGE_CURVE('',#375,#373,#186,.T.);
#475=EDGE_CURVE('',#376,#374,#187,.T.);
#476=EDGE_CURVE('',#375,#376,#188,.T.);
#477=EDGE_CURVE('',#377,#375,#189,.T.);
#478=EDGE_CURVE('',#378,#376,#190,.T.);
#479=EDGE_CURVE('',#377,#378,#191,.T.);
#480=EDGE_CURVE('',#379,#377,#192,.T.);
#481=EDGE_CURVE('',#380,#378,#193,.T.);
#482=EDGE_CURVE('',#379,#380,#194,.T.);
#483=EDGE_CURVE('',#381,#379,#195,.T.);
#484=EDGE_CURVE('',#382,#380,#196,.T.);
#485=EDGE_CURVE('',#381,#382,#197,.T.);
#486=EDGE_CURVE('',#383,#381,#198,.T.);
#487=EDGE_CURVE('',#384,#382,#199,.T.);
#488=EDGE_CURVE('',#383,#384,#200,.T.);
#489=EDGE_CURVE('',#385,#383,#201,.T.);
#490=EDGE_CURVE('',#386,#384,#202,.T.);
#491=EDGE_CURVE('',#385,#386,#203,.T.);
#492=EDGE_CURVE('',#387,#385,#204,.T.);
#493=EDGE_CURVE('',#388,#386,#205,.T.);
#494=EDGE_CURVE('',#387,#388,#206,.T.);
#495=EDGE_CURVE('',#366,#387,#207,.T.);
#496=EDGE_CURVE('',#367,#388,#208,.T.);
#497=ORIENTED_EDGE('',*,*,#389,.F.);
#498=ORIENTED_EDGE('',*,*,#390,.F.);
#499=ORIENTED_EDGE('',*,*,#391,.F.);
#500=ORIENTED_EDGE('',*,*,#392,.F.);
#501=ORIENTED_EDGE('',*,*,#393,.F.);
#502=ORIENTED_EDGE('',*,*,#394,.F.);
#503=ORIENTED_EDGE('',*,*,#395,.F.);
#504=ORIENTED_EDGE('',*,*,#396,.F.);
#505=ORIENTED_EDGE('',*,*,#397,.F.);
#506=ORIENTED_EDGE('',*,*,#398,.F.);
#507=ORIENTED_EDGE('',*,*,#399,.F.);
#508=ORIENTED_EDGE('',*,*,#400,.F.);
#509=ORIENTED_EDGE('',*,*,#394,.T.);
#510=ORIENTED_EDGE('',*,*,#401,.T.);
#511=ORIENTED_EDGE('',*,*,#402,.F.);
#512=ORIENTED_EDGE('',*,*,#403,.F.);
#513=ORIENTED_EDGE('',*,*,#393,.T.);
#514=ORIENTED_EDGE('',*,*,#404,.T.);
#515=ORIENTED_EDGE('',*,*,#405,.F.);
#516=ORIENTED_EDGE('',*,*,#401,.F.);
#517=ORIENTED_EDGE('',*,*,#392,.T.);
#518=ORIENTED_EDGE('',*,*,#406,.T.);
#519=ORIENTED_EDGE('',*,*,#407,.F.);
#520=ORIENTED_EDGE('',*,*,#404,.F.);
#521=ORIENTED_EDGE('',*,*,#391,.T.);
#522=ORIENTED_EDGE('',*,*,#408,.T.);
#523=ORIENTED_EDGE('',*,*,#409,.F.);
#524=ORIENTED_EDGE('',*,*,#406,.F.);
#525=ORIENTED_EDGE('',*,*,#390,.T.);
#526=ORIENTED_EDGE('',*,*,#410,.T.);
#527=ORIENTED_EDGE('',*,*,#411,.F.);
#528=ORIENTED_EDGE('',*,*,#408,.F.);
#529=ORIENTED_EDGE('',*,*,#389,.T.);
#530=ORIENTED_EDGE('',*,*,#412,.T.);
#531=ORIENTED_EDGE('',*,*,#413,.F.);
#532=ORIENTED_EDGE('',*,*,#410,.F.);
#533=ORIENTED_EDGE('',*,*,#395,.T.);
#534=ORIENTED_EDGE('',*,*,#403,.T.);
#535=ORIENTED_EDGE('',*,*,#414,.F.);
#536=ORIENTED_EDGE('',*,*,#415,.F.);
#537=ORIENTED_EDGE('',*,*,#396,.T.);
#538=ORIENTED_EDGE('',*,*,#415,.T.);
#539=ORIENTED_EDGE('',*,*,#416,.F.);
#540=ORIENTED_EDGE('',*,*,#417,.F.);
#541=ORIENTED_EDGE('',*,*,#397,.T.);
#542=ORIENTED_EDGE('',*,*,#417,.T.);
#543=ORIENTED_EDGE('',*,*,#418,.F.);
#544=ORIENTED_EDGE('',*,*,#419,.F.);
#545=ORIENTED_EDGE('',*,*,#398,.T.);
#546=ORIENTED_EDGE('',*,*,#419,.T.);
#547=ORIENTED_EDGE('',*,*,#420,.F.);
#548=ORIENTED_EDGE('',*,*,#421,.F.);
#549=ORIENTED_EDGE('',*,*,#399,.T.);
#550=ORIENTED_EDGE('',*,*,#421,.T.);
#551=ORIENTED_EDGE('',*,*,#422,.F.);
#552=ORIENTED_EDGE('',*,*,#423,.F.);
#553=ORIENTED_EDGE('',*,*,#400,.T.);
#554=ORIENTED_EDGE('',*,*,#423,.T.);
#555=ORIENTED_EDGE('',*,*,#424,.F.);
#556=ORIENTED_EDGE('',*,*,#412,.F.);
#557=ORIENTED_EDGE('',*,*,#413,.T.);
#558=ORIENTED_EDGE('',*,*,#424,.T.);
#559=ORIENTED_EDGE('',*,*,#422,.T.);
#560=ORIENTED_EDGE('',*,*,#420,.T.);
#561=ORIENTED_EDGE('',*,*,#418,.T.);
#562=ORIENTED_EDGE('',*,*,#416,.T.);
#563=ORIENTED_EDGE('',*,*,#414,.T.);
#564=ORIENTED_EDGE('',*,*,#402,.T.);
#565=ORIENTED_EDGE('',*,*,#405,.T.);
#566=ORIENTED_EDGE('',*,*,#407,.T.);
#567=ORIENTED_EDGE('',*,*,#409,.T.);
#568=ORIENTED_EDGE('',*,*,#411,.T.);
#569=ORIENTED_EDGE('',*,*,#425,.F.);
#570=ORIENTED_EDGE('',*,*,#426,.T.);
#571=ORIENTED_EDGE('',*,*,#427,.T.);
#572=ORIENTED_EDGE('',*,*,#428,.F.);
#573=ORIENTED_EDGE('',*,*,#429,.F.);
#574=ORIENTED_EDGE('',*,*,#430,.T.);
#575=ORIENTED_EDGE('',*,*,#431,.T.);
#576=ORIENTED_EDGE('',*,*,#426,.F.);
#577=ORIENTED_EDGE('',*,*,#432,.F.);
#578=ORIENTED_EDGE('',*,*,#433,.T.);
#579=ORIENTED_EDGE('',*,*,#434,.T.);
#580=ORIENTED_EDGE('',*,*,#430,.F.);
#581=ORIENTED_EDGE('',*,*,#435,.F.);
#582=ORIENTED_EDGE('',*,*,#436,.T.);
#583=ORIENTED_EDGE('',*,*,#437,.T.);
#584=ORIENTED_EDGE('',*,*,#433,.F.);
#585=ORIENTED_EDGE('',*,*,#438,.F.);
#586=ORIENTED_EDGE('',*,*,#439,.T.);
#587=ORIENTED_EDGE('',*,*,#440,.T.);
#588=ORIENTED_EDGE('',*,*,#436,.F.);
#589=ORIENTED_EDGE('',*,*,#441,.F.);
#590=ORIENTED_EDGE('',*,*,#442,.T.);
#591=ORIENTED_EDGE('',*,*,#443,.T.);
#592=ORIENTED_EDGE('',*,*,#439,.F.);
#593=ORIENTED_EDGE('',*,*,#444,.F.);
#594=ORIENTED_EDGE('',*,*,#445,.T.);
#595=ORIENTED_EDGE('',*,*,#446,.T.);
#596=ORIENTED_EDGE('',*,*,#442,.F.);
#597=ORIENTED_EDGE('',*,*,#447,.F.);
#598=ORIENTED_EDGE('',*,*,#448,.T.);
#599=ORIENTED_EDGE('',*,*,#449,.T.);
#600=ORIENTED_EDGE('',*,*,#445,.F.);
#601=ORIENTED_EDGE('',*,*,#450,.F.);
#602=ORIENTED_EDGE('',*,*,#451,.T.);
#603=ORIENTED_EDGE('',*,*,#452,.T.);
#604=ORIENTED_EDGE('',*,*,#448,.F.);
#605=ORIENTED_EDGE('',*,*,#453,.F.);
#606=ORIENTED_EDGE('',*,*,#454,.T.);
#607=ORIENTED_EDGE('',*,*,#455,.T.);
#608=ORIENTED_EDGE('',*,*,#451,.F.);
#609=ORIENTED_EDGE('',*,*,#456,.F.);
#610=ORIENTED_EDGE('',*,*,#457,.T.);
#611=ORIENTED_EDGE('',*,*,#458,.T.);
#612=ORIENTED_EDGE('',*,*,#454,.F.);
#613=ORIENTED_EDGE('',*,*,#459,.F.);
#614=ORIENTED_EDGE('',*,*,#428,.T.);
#615=ORIENTED_EDGE('',*,*,#460,.T.);
#616=ORIENTED_EDGE('',*,*,#457,.F.);
#617=ORIENTED_EDGE('',*,*,#460,.F.);
#618=ORIENTED_EDGE('',*,*,#427,.F.);
#619=ORIENTED_EDGE('',*,*,#431,.F.);
#620=ORIENTED_EDGE('',*,*,#434,.F.);
#621=ORIENTED_EDGE('',*,*,#437,.F.);
#622=ORIENTED_EDGE('',*,*,#440,.F.);
#623=ORIENTED_EDGE('',*,*,#443,.F.);
#624=ORIENTED_EDGE('',*,*,#446,.F.);
#625=ORIENTED_EDGE('',*,*,#449,.F.);
#626=ORIENTED_EDGE('',*,*,#452,.F.);
#627=ORIENTED_EDGE('',*,*,#455,.F.);
#628=ORIENTED_EDGE('',*,*,#458,.F.);
#629=ORIENTED_EDGE('',*,*,#461,.T.);
#630=ORIENTED_EDGE('',*,*,#462,.T.);
#631=ORIENTED_EDGE('',*,*,#463,.F.);
#632=ORIENTED_EDGE('',*,*,#464,.F.);
#633=ORIENTED_EDGE('',*,*,#465,.F.);
#634=ORIENTED_EDGE('',*,*,#464,.T.);
#635=ORIENTED_EDGE('',*,*,#466,.F.);
#636=ORIENTED_EDGE('',*,*,#467,.F.);
#637=ORIENTED_EDGE('',*,*,#468,.T.);
#638=ORIENTED_EDGE('',*,*,#467,.T.);
#639=ORIENTED_EDGE('',*,*,#469,.F.);
#640=ORIENTED_EDGE('',*,*,#470,.F.);
#641=ORIENTED_EDGE('',*,*,#471,.T.);
#642=ORIENTED_EDGE('',*,*,#470,.T.);
#643=ORIENTED_EDGE('',*,*,#472,.F.);
#644=ORIENTED_EDGE('',*,*,#473,.F.);
#645=ORIENTED_EDGE('',*,*,#474,.T.);
#646=ORIENTED_EDGE('',*,*,#473,.T.);
#647=ORIENTED_EDGE('',*,*,#475,.F.);
#648=ORIENTED_EDGE('',*,*,#476,.F.);
#649=ORIENTED_EDGE('',*,*,#477,.T.);
#650=ORIENTED_EDGE('',*,*,#476,.T.);
#651=ORIENTED_EDGE('',*,*,#478,.F.);
#652=ORIENTED_EDGE('',*,*,#479,.F.);
#653=ORIENTED_EDGE('',*,*,#480,.T.);
#654=ORIENTED_EDGE('',*,*,#479,.T.);
#655=ORIENTED_EDGE('',*,*,#481,.F.);
#656=ORIENTED_EDGE('',*,*,#482,.F.);
#657=ORIENTED_EDGE('',*,*,#483,.T.);
#658=ORIENTED_EDGE('',*,*,#482,.T.);
#659=ORIENTED_EDGE('',*,*,#484,.F.);
#660=ORIENTED_EDGE('',*,*,#485,.F.);
#661=ORIENTED_EDGE('',*,*,#486,.T.);
#662=ORIENTED_EDGE('',*,*,#485,.T.);
#663=ORIENTED_EDGE('',*,*,#487,.F.);
#664=ORIENTED_EDGE('',*,*,#488,.F.);
#665=ORIENTED_EDGE('',*,*,#489,.T.);
#666=ORIENTED_EDGE('',*,*,#488,.T.);
#667=ORIENTED_EDGE('',*,*,#490,.F.);
#668=ORIENTED_EDGE('',*,*,#491,.F.);
#669=ORIENTED_EDGE('',*,*,#492,.T.);
#670=ORIENTED_EDGE('',*,*,#491,.T.);
#671=ORIENTED_EDGE('',*,*,#493,.F.);
#672=ORIENTED_EDGE('',*,*,#494,.F.);
#673=ORIENTED_EDGE('',*,*,#495,.T.);
#674=ORIENTED_EDGE('',*,*,#494,.T.);
#675=ORIENTED_EDGE('',*,*,#496,.F.);
#676=ORIENTED_EDGE('',*,*,#462,.F.);
#677=ORIENTED_EDGE('',*,*,#496,.T.);
#678=ORIENTED_EDGE('',*,*,#493,.T.);
#679=ORIENTED_EDGE('',*,*,#490,.T.);
#680=ORIENTED_EDGE('',*,*,#487,.T.);
#681=ORIENTED_EDGE('',*,*,#484,.T.);
#682=ORIENTED_EDGE('',*,*,#481,.T.);
#683=ORIENTED_EDGE('',*,*,#478,.T.);
#684=ORIENTED_EDGE('',*,*,#475,.T.);
#685=ORIENTED_EDGE('',*,*,#472,.T.);
#686=ORIENTED_EDGE('',*,*,#469,.T.);
#687=ORIENTED_EDGE('',*,*,#466,.T.);
#688=ORIENTED_EDGE('',*,*,#463,.T.);
#689=ORIENTED_EDGE('',*,*,#495,.F.);
#690=ORIENTED_EDGE('',*,*,#461,.F.);
#691=ORIENTED_EDGE('',*,*,#465,.T.);
#692=ORIENTED_EDGE('',*,*,#468,.F.);
#693=ORIENTED_EDGE('',*,*,#471,.F.);
#694=ORIENTED_EDGE('',*,*,#474,.F.);
#695=ORIENTED_EDGE('',*,*,#477,.F.);
#696=ORIENTED_EDGE('',*,*,#480,.F.);
#697=ORIENTED_EDGE('',*,*,#483,.F.);
#698=ORIENTED_EDGE('',*,*,#486,.F.);
#699=ORIENTED_EDGE('',*,*,#489,.F.);
#700=ORIENTED_EDGE('',*,*,#492,.F.);
#701=ORIENTED_EDGE('',*,*,#425,.T.);
#702=ORIENTED_EDGE('',*,*,#459,.T.);
#703=ORIENTED_EDGE('',*,*,#456,.T.);
#704=ORIENTED_EDGE('',*,*,#453,.T.);
#705=ORIENTED_EDGE('',*,*,#450,.T.);
#706=ORIENTED_EDGE('',*,*,#447,.T.);
#707=ORIENTED_EDGE('',*,*,#444,.T.);
#708=ORIENTED_EDGE('',*,*,#441,.T.);
#709=ORIENTED_EDGE('',*,*,#438,.T.);
#710=ORIENTED_EDGE('',*,*,#435,.T.);
#711=ORIENTED_EDGE('',*,*,#432,.T.);
#712=ORIENTED_EDGE('',*,*,#429,.T.);
#713=PLANE('',#810);
#714=PLANE('',#811);
#715=PLANE('',#812);
#716=PLANE('',#813);
#717=PLANE('',#814);
#718=PLANE('',#815);
#719=PLANE('',#816);
#720=PLANE('',#817);
#721=PLANE('',#818);
#722=PLANE('',#819);
#723=PLANE('',#820);
#724=PLANE('',#821);
#725=PLANE('',#822);
#726=PLANE('',#823);
#727=PLANE('',#824);
#728=PLANE('',#825);
#729=PLANE('',#826);
#730=PLANE('',#827);
#731=PLANE('',#828);
#732=PLANE('',#829);
#733=PLANE('',#830);
#734=PLANE('',#831);
#735=PLANE('',#832);
#736=PLANE('',#833);
#737=PLANE('',#834);
#738=PLANE('',#835);
#739=PLANE('',#836);
#740=PLANE('',#837);
#741=PLANE('',#838);
#742=PLANE('',#839);
#743=PLANE('',#840);
#744=PLANE('',#841);
#745=PLANE('',#842);
#746=PLANE('',#843);
#747=PLANE('',#844);
#748=PLANE('',#845);
#749=PLANE('',#846);
#750=PLANE('',#847);
#751=PLANE('',#848);
#752=PLANE('',#849);
#753=PLANE('',#850);
#754=ADVANCED_FACE('',(#18),#713,.F.);
#755=ADVANCED_FACE('',(#19),#714,.T.);
#756=ADVANCED_FACE('',(#20),#715,.T.);
#757=ADVANCED_FACE('',(#21),#716,.T.);
#758=ADVANCED_FACE('',(#22),#717,.T.);
#759=ADVANCED_FACE('',(#23),#718,.T.);
#760=ADVANCED_FACE('',(#24),#719,.T.);
#761=ADVANCED_FACE('',(#25),#720,.T.);
#762=ADVANCED_FACE('',(#26),#721,.T.);
#763=ADVANCED_FACE('',(#27),#722,.T.);
#764=ADVANCED_FACE('',(#28),#723,.T.);
#765=ADVANCED_FACE('',(#29),#724,.T.);
#766=ADVANCED_FACE('',(#30),#725,.T.);
#767=ADVANCED_FACE('',(#31),#726,.T.);
#768=ADVANCED_FACE('',(#32),#727,.F.);
#769=ADVANCED_FACE('',(#33),#728,.F.);
#770=ADVANCED_FACE('',(#34),#729,.F.);
#771=ADVANCED_FACE('',(#35),#730,.F.);
#772=ADVANCED_FACE('',(#36),#731,.F.);
#773=ADVANCED_FACE('',(#37),#732,.F.);
#774=ADVANCED_FACE('',(#38),#733,.F.);
#775=ADVANCED_FACE('',(#39),#734,.F.);
#776=ADVANCED_FACE('',(#40),#735,.F.);
#777=ADVANCED_FACE('',(#41),#736,.F.);
#778=ADVANCED_FACE('',(#42),#737,.F.);
#779=ADVANCED_FACE('',(#43),#738,.F.);
#780=ADVANCED_FACE('',(#44),#739,.F.);
#781=ADVANCED_FACE('',(#45),#740,.T.);
#782=ADVANCED_FACE('',(#46),#741,.T.);
#783=ADVANCED_FACE('',(#47),#742,.T.);
#784=ADVANCED_FACE('',(#48),#743,.T.);
#785=ADVANCED_FACE('',(#49),#744,.T.);
#786=ADVANCED_FACE('',(#50),#745,.T.);
#787=ADVANCED_FACE('',(#51),#746,.T.);
#788=ADVANCED_FACE('',(#52),#747,.T.);
#789=ADVANCED_FACE('',(#53),#748,.T.);
#790=ADVANCED_FACE('',(#54),#749,.T.);
#791=ADVANCED_FACE('',(#55),#750,.T.);
#792=ADVANCED_FACE('',(#56),#751,.T.);
#793=ADVANCED_FACE('',(#57),#752,.T.);
#794=ADVANCED_FACE('',(#58,#13),#753,.F.);
#795=CLOSED_SHELL('',(#754,#755,#756,#757,#758,#759,#760,#761,#762,#763,
#764,#765,#766,#767));
#796=CLOSED_SHELL('',(#768,#769,#770,#771,#772,#773,#774,#775,#776,#777,
#778,#779,#780,#781,#782,#783,#784,#785,#786,#787,#788,#789,#790,#791,#792,
#793,#794));
#797=DERIVED_UNIT_ELEMENT(#799,1.);
#798=DERIVED_UNIT_ELEMENT(#1270,-3.);
#799=(
MASS_UNIT()
NAMED_UNIT(*)
SI_UNIT(.KILO.,.GRAM.)
);
#800=DERIVED_UNIT((#797,#798));
#801=MEASURE_REPRESENTATION_ITEM('density measure',
POSITIVE_RATIO_MEASURE(7850.),#800);
#802=PROPERTY_DEFINITION_REPRESENTATION(#807,#804);
#803=PROPERTY_DEFINITION_REPRESENTATION(#808,#805);
#804=REPRESENTATION('material name',(#806),#1267);
#805=REPRESENTATION('density',(#801),#1267);
#806=DESCRIPTIVE_REPRESENTATION_ITEM('Steel','Steel');
#807=PROPERTY_DEFINITION('material property','material name',#1277);
#808=PROPERTY_DEFINITION('material property','density of part',#1277);
#809=AXIS2_PLACEMENT_3D('',#1043,#851,#852);
#810=AXIS2_PLACEMENT_3D('',#1044,#853,#854);
#811=AXIS2_PLACEMENT_3D('',#1069,#867,#868);
#812=AXIS2_PLACEMENT_3D('',#1075,#872,#873);
#813=AXIS2_PLACEMENT_3D('',#1079,#876,#877);
#814=AXIS2_PLACEMENT_3D('',#1083,#880,#881);
#815=AXIS2_PLACEMENT_3D('',#1087,#884,#885);
#816=AXIS2_PLACEMENT_3D('',#1091,#888,#889);
#817=AXIS2_PLACEMENT_3D('',#1095,#892,#893);
#818=AXIS2_PLACEMENT_3D('',#1099,#896,#897);
#819=AXIS2_PLACEMENT_3D('',#1103,#900,#901);
#820=AXIS2_PLACEMENT_3D('',#1107,#904,#905);
#821=AXIS2_PLACEMENT_3D('',#1111,#908,#909);
#822=AXIS2_PLACEMENT_3D('',#1115,#912,#913);
#823=AXIS2_PLACEMENT_3D('',#1117,#915,#916);
#824=AXIS2_PLACEMENT_3D('',#1118,#917,#918);
#825=AXIS2_PLACEMENT_3D('',#1127,#923,#924);
#826=AXIS2_PLACEMENT_3D('',#1133,#928,#929);
#827=AXIS2_PLACEMENT_3D('',#1139,#933,#934);
#828=AXIS2_PLACEMENT_3D('',#1145,#938,#939);
#829=AXIS2_PLACEMENT_3D('',#1151,#943,#944);
#830=AXIS2_PLACEMENT_3D('',#1157,#948,#949);
#831=AXIS2_PLACEMENT_3D('',#1163,#953,#954);
#832=AXIS2_PLACEMENT_3D('',#1169,#958,#959);
#833=AXIS2_PLACEMENT_3D('',#1175,#963,#964);
#834=AXIS2_PLACEMENT_3D('',#1181,#968,#969);
#835=AXIS2_PLACEMENT_3D('',#1187,#973,#974);
#836=AXIS2_PLACEMENT_3D('',#1190,#977,#978);
#837=AXIS2_PLACEMENT_3D('',#1191,#979,#980);
#838=AXIS2_PLACEMENT_3D('',#1200,#985,#986);
#839=AXIS2_PLACEMENT_3D('',#1206,#990,#991);
#840=AXIS2_PLACEMENT_3D('',#1212,#995,#996);
#841=AXIS2_PLACEMENT_3D('',#1218,#1000,#1001);
#842=AXIS2_PLACEMENT_3D('',#1224,#1005,#1006);
#843=AXIS2_PLACEMENT_3D('',#1230,#1010,#1011);
#844=AXIS2_PLACEMENT_3D('',#1236,#1015,#1016);
#845=AXIS2_PLACEMENT_3D('',#1242,#1020,#1021);
#846=AXIS2_PLACEMENT_3D('',#1248,#1025,#1026);
#847=AXIS2_PLACEMENT_3D('',#1254,#1030,#1031);
#848=AXIS2_PLACEMENT_3D('',#1260,#1035,#1036);
#849=AXIS2_PLACEMENT_3D('',#1263,#1039,#1040);
#850=AXIS2_PLACEMENT_3D('',#1264,#1041,#1042);
#851=DIRECTION('axis',(0.,0.,1.));
#852=DIRECTION('refdir',(1.,0.,0.));
#853=DIRECTION('center_axis',(0.,1.,0.));
#854=DIRECTION('ref_axis',(0.,0.,1.));
#855=DIRECTION('',(1.,0.,4.44089209850063E-16));
#856=DIRECTION('',(0.,0.,1.));
#857=DIRECTION('',(-1.,0.,0.));
#858=DIRECTION('',(0.,0.,-1.));
#859=DIRECTION('',(1.,0.,0.));
#860=DIRECTION('',(0.,0.,-1.));
#861=DIRECTION('',(1.,0.,0.));
#862=DIRECTION('',(0.,0.,-1.));
#863=DIRECTION('',(1.,0.,0.));
#864=DIRECTION('',(0.,0.,1.));
#865=DIRECTION('',(1.,0.,0.));
#866=DIRECTION('',(9.86864910777917E-17,0.,1.));
#867=DIRECTION('center_axis',(1.,0.,0.));
#868=DIRECTION('ref_axis',(0.,0.,-1.));
#869=DIRECTION('',(0.,-1.,0.));
#870=DIRECTION('',(0.,0.,1.));
#871=DIRECTION('',(0.,-1.,0.));
#872=DIRECTION('center_axis',(0.,0.,1.));
#873=DIRECTION('ref_axis',(1.,0.,0.));
#874=DIRECTION('',(0.,1.,0.));
#875=DIRECTION('',(-1.,0.,0.));
#876=DIRECTION('center_axis',(1.,0.,0.));
#877=DIRECTION('ref_axis',(0.,0.,-1.));
#878=DIRECTION('',(0.,1.,0.));
#879=DIRECTION('',(0.,0.,1.));
#880=DIRECTION('center_axis',(0.,0.,-1.));
#881=DIRECTION('ref_axis',(-1.,0.,0.));
#882=DIRECTION('',(0.,-1.,0.));
#883=DIRECTION('',(1.,0.,0.));
#884=DIRECTION('center_axis',(-1.,0.,0.));
#885=DIRECTION('ref_axis',(0.,0.,1.));
#886=DIRECTION('',(0.,-1.,0.));
#887=DIRECTION('',(0.,0.,-1.));
#888=DIRECTION('center_axis',(-4.44089209850063E-16,0.,1.));
#889=DIRECTION('ref_axis',(1.,0.,4.44089209850063E-16));
#890=DIRECTION('',(0.,-1.,0.));
#891=DIRECTION('',(-1.,0.,-4.44089209850063E-16));
#892=DIRECTION('center_axis',(0.,0.,1.));
#893=DIRECTION('ref_axis',(1.,0.,0.));
#894=DIRECTION('',(-1.,0.,0.));
#895=DIRECTION('',(0.,-1.,0.));
#896=DIRECTION('center_axis',(1.,0.,0.));
#897=DIRECTION('ref_axis',(0.,0.,-1.));
#898=DIRECTION('',(0.,0.,1.));
#899=DIRECTION('',(0.,-1.,0.));
#900=DIRECTION('center_axis',(0.,0.,1.));
#901=DIRECTION('ref_axis',(1.,0.,0.));
#902=DIRECTION('',(-1.,0.,0.));
#903=DIRECTION('',(0.,-1.,0.));
#904=DIRECTION('center_axis',(-1.,0.,0.));
#905=DIRECTION('ref_axis',(0.,0.,1.));
#906=DIRECTION('',(0.,0.,-1.));
#907=DIRECTION('',(0.,-1.,0.));
#908=DIRECTION('center_axis',(0.,0.,1.));
#909=DIRECTION('ref_axis',(1.,0.,0.));
#910=DIRECTION('',(-1.,0.,0.));
#911=DIRECTION('',(0.,-1.,0.));
#912=DIRECTION('center_axis',(-1.,0.,9.86864910777917E-17));
#913=DIRECTION('ref_axis',(9.86864910777917E-17,0.,1.));
#914=DIRECTION('',(-9.86864910777917E-17,0.,-1.));
#915=DIRECTION('center_axis',(0.,1.,0.));
#916=DIRECTION('ref_axis',(0.,0.,1.));
#917=DIRECTION('center_axis',(-1.,0.,0.));
#918=DIRECTION('ref_axis',(0.,0.,1.));
#919=DIRECTION('',(0.,0.,1.));
#920=DIRECTION('',(0.,1.,0.));
#921=DIRECTION('',(0.,0.,1.));
#922=DIRECTION('',(0.,1.,0.));
#923=DIRECTION('center_axis',(0.,0.,-1.));
#924=DIRECTION('ref_axis',(-1.,0.,0.));
#925=DIRECTION('',(-1.,0.,0.));
#926=DIRECTION('',(0.,1.,0.));
#927=DIRECTION('',(-1.,0.,0.));
#928=DIRECTION('center_axis',(1.,0.,0.));
#929=DIRECTION('ref_axis',(0.,0.,-1.));
#930=DIRECTION('',(0.,0.,-1.));
#931=DIRECTION('',(0.,1.,0.));
#932=DIRECTION('',(0.,0.,-1.));
#933=DIRECTION('center_axis',(0.,0.,1.));
#934=DIRECTION('ref_axis',(1.,0.,0.));
#935=DIRECTION('',(1.,0.,0.));
#936=DIRECTION('',(0.,1.,0.));
#937=DIRECTION('',(1.,0.,0.));
#938=DIRECTION('center_axis',(1.,0.,0.));
#939=DIRECTION('ref_axis',(0.,0.,-1.));
#940=DIRECTION('',(0.,0.,-1.));
#941=DIRECTION('',(0.,1.,0.));
#942=DIRECTION('',(0.,0.,-1.));
#943=DIRECTION('center_axis',(0.,0.,1.));
#944=DIRECTION('ref_axis',(1.,0.,0.));
#945=DIRECTION('',(1.,0.,0.));
#946=DIRECTION('',(0.,1.,0.));
#947=DIRECTION('',(1.,0.,0.));
#948=DIRECTION('center_axis',(1.,0.,0.));
#949=DIRECTION('ref_axis',(0.,0.,-1.));
#950=DIRECTION('',(0.,0.,-1.));
#951=DIRECTION('',(0.,1.,0.));
#952=DIRECTION('',(0.,0.,-1.));
#953=DIRECTION('center_axis',(0.,0.,1.));
#954=DIRECTION('ref_axis',(1.,0.,0.));
#955=DIRECTION('',(1.,0.,0.));
#956=DIRECTION('',(0.,1.,0.));
#957=DIRECTION('',(1.,0.,0.));
#958=DIRECTION('center_axis',(-1.,0.,0.));
#959=DIRECTION('ref_axis',(0.,0.,1.));
#960=DIRECTION('',(0.,0.,1.));
#961=DIRECTION('',(0.,1.,0.));
#962=DIRECTION('',(0.,0.,1.));
#963=DIRECTION('center_axis',(0.,0.,1.));
#964=DIRECTION('ref_axis',(1.,0.,0.));
#965=DIRECTION('',(1.,0.,0.));
#966=DIRECTION('',(0.,1.,0.));
#967=DIRECTION('',(1.,0.,0.));
#968=DIRECTION('center_axis',(-1.,0.,9.86864910777917E-17));
#969=DIRECTION('ref_axis',(9.86864910777917E-17,0.,1.));
#970=DIRECTION('',(9.86864910777917E-17,0.,1.));
#971=DIRECTION('',(0.,1.,0.));
#972=DIRECTION('',(9.86864910777917E-17,0.,1.));
#973=DIRECTION('center_axis',(-4.44089209850063E-16,0.,1.));
#974=DIRECTION('ref_axis',(1.,0.,4.44089209850063E-16));
#975=DIRECTION('',(1.,0.,4.44089209850063E-16));
#976=DIRECTION('',(1.,0.,4.44089209850063E-16));
#977=DIRECTION('center_axis',(0.,1.,0.));
#978=DIRECTION('ref_axis',(0.,0.,1.));
#979=DIRECTION('center_axis',(-1.,0.,0.));
#980=DIRECTION('ref_axis',(0.,0.,1.));
#981=DIRECTION('',(0.,0.,1.));
#982=DIRECTION('',(0.,1.,0.));
#983=DIRECTION('',(0.,0.,1.));
#984=DIRECTION('',(0.,1.,0.));
#985=DIRECTION('center_axis',(0.,0.,-1.));
#986=DIRECTION('ref_axis',(-1.,0.,0.));
#987=DIRECTION('',(1.,0.,0.));
#988=DIRECTION('',(-1.,0.,0.));
#989=DIRECTION('',(0.,1.,0.));
#990=DIRECTION('center_axis',(1.,0.,0.));
#991=DIRECTION('ref_axis',(0.,0.,-1.));
#992=DIRECTION('',(0.,0.,-1.));
#993=DIRECTION('',(0.,0.,-1.));
#994=DIRECTION('',(0.,1.,0.));
#995=DIRECTION('center_axis',(0.,0.,1.));
#996=DIRECTION('ref_axis',(1.,0.,0.));
#997=DIRECTION('',(1.,0.,0.));
#998=DIRECTION('',(1.,0.,0.));
#999=DIRECTION('',(0.,1.,0.));
#1000=DIRECTION('center_axis',(1.,0.,0.));
#1001=DIRECTION('ref_axis',(0.,0.,-1.));
#1002=DIRECTION('',(0.,0.,-1.));
#1003=DIRECTION('',(0.,0.,-1.));
#1004=DIRECTION('',(0.,1.,0.));
#1005=DIRECTION('center_axis',(0.,0.,1.));
#1006=DIRECTION('ref_axis',(1.,0.,0.));
#1007=DIRECTION('',(1.,0.,0.));
#1008=DIRECTION('',(1.,0.,0.));
#1009=DIRECTION('',(0.,1.,0.));
#1010=DIRECTION('center_axis',(1.,0.,0.));
#1011=DIRECTION('ref_axis',(0.,0.,-1.));
#1012=DIRECTION('',(0.,0.,-1.));
#1013=DIRECTION('',(0.,0.,-1.));
#1014=DIRECTION('',(0.,1.,0.));
#1015=DIRECTION('center_axis',(0.,0.,1.));
#1016=DIRECTION('ref_axis',(1.,0.,0.));
#1017=DIRECTION('',(1.,0.,0.));
#1018=DIRECTION('',(1.,0.,0.));
#1019=DIRECTION('',(0.,1.,0.));
#1020=DIRECTION('center_axis',(-1.,0.,0.));
#1021=DIRECTION('ref_axis',(0.,0.,1.));
#1022=DIRECTION('',(0.,0.,1.));
#1023=DIRECTION('',(0.,0.,1.));
#1024=DIRECTION('',(0.,1.,0.));
#1025=DIRECTION('center_axis',(0.,0.,1.));
#1026=DIRECTION('ref_axis',(1.,0.,0.));
#1027=DIRECTION('',(1.,0.,0.));
#1028=DIRECTION('',(1.,0.,0.));
#1029=DIRECTION('',(0.,1.,0.));
#1030=DIRECTION('center_axis',(-1.,0.,9.86864910777917E-17));
#1031=DIRECTION('ref_axis',(9.86864910777917E-17,0.,1.));
#1032=DIRECTION('',(9.86864910777917E-17,0.,1.));
#1033=DIRECTION('',(9.86864910777917E-17,0.,1.));
#1034=DIRECTION('',(0.,1.,0.));
#1035=DIRECTION('center_axis',(-4.44089209850063E-16,0.,1.));
#1036=DIRECTION('ref_axis',(1.,0.,4.44089209850063E-16));
#1037=DIRECTION('',(1.,0.,4.44089209850063E-16));
#1038=DIRECTION('',(1.,0.,4.44089209850063E-16));
#1039=DIRECTION('center_axis',(0.,1.,0.));
#1040=DIRECTION('ref_axis',(0.,0.,1.));
#1041=DIRECTION('center_axis',(0.,1.,0.));
#1042=DIRECTION('ref_axis',(1.,0.,0.));
#1043=CARTESIAN_POINT('',(0.,0.,0.));
#1044=CARTESIAN_POINT('Origin',(19.3278402880311,14.5,25.499683194527));
#1045=CARTESIAN_POINT('',(-51.1721597119689,14.5,-1.50031680547297));
#1046=CARTESIAN_POINT('',(-21.1721597119689,14.5,-1.50031680547296));
#1047=CARTESIAN_POINT('',(-18.1721597119689,14.5,-1.50031680547296));
#1048=CARTESIAN_POINT('',(-51.1721597119689,14.5,-22.500316805473));
#1049=CARTESIAN_POINT('',(-51.1721597119689,14.5,-0.750316805472977));
#1050=CARTESIAN_POINT('',(89.8278402880311,14.5,-22.500316805473));
#1051=CARTESIAN_POINT('',(56.8278402880311,14.5,-22.500316805473));
#1052=CARTESIAN_POINT('',(89.8278402880311,14.5,-1.50031680547298));
#1053=CARTESIAN_POINT('',(89.8278402880311,14.5,14.249683194527));
#1054=CARTESIAN_POINT('',(59.8278402880311,14.5,-1.50031680547298));
#1055=CARTESIAN_POINT('',(41.8278402880311,14.5,-1.50031680547298));
#1056=CARTESIAN_POINT('',(59.8278402880311,14.5,43.499683194527));
#1057=CARTESIAN_POINT('',(59.8278402880311,14.5,36.749683194527));
#1058=CARTESIAN_POINT('',(29.8278402880311,14.5,43.499683194527));
#1059=CARTESIAN_POINT('',(26.8278402880311,14.5,43.499683194527));
#1060=CARTESIAN_POINT('',(29.8278402880311,14.5,73.499683194527));
#1061=CARTESIAN_POINT('',(29.8278402880311,14.5,51.749683194527));
#1062=CARTESIAN_POINT('',(8.82784028803109,14.5,73.499683194527));
#1063=CARTESIAN_POINT('',(11.8278402880311,14.5,73.499683194527));
#1064=CARTESIAN_POINT('',(8.82784028803109,14.5,43.499683194527));
#1065=CARTESIAN_POINT('',(8.82784028803109,14.5,36.749683194527));
#1066=CARTESIAN_POINT('',(-21.1721597119689,14.5,43.499683194527));
#1067=CARTESIAN_POINT('',(-3.17215971196891,14.5,43.499683194527));
#1068=CARTESIAN_POINT('',(-21.1721597119689,14.5,14.249683194527));
#1069=CARTESIAN_POINT('Origin',(59.8278402880311,0.,47.999683194527));
#1070=CARTESIAN_POINT('',(59.8278402880311,15.,-1.50031680547298));
#1071=CARTESIAN_POINT('',(59.8278402880311,0.,-1.50031680547298));
#1072=CARTESIAN_POINT('',(59.8278402880311,15.,43.499683194527));
#1073=CARTESIAN_POINT('',(59.8278402880311,15.,36.749683194527));
#1074=CARTESIAN_POINT('',(59.8278402880311,0.,43.499683194527));
#1075=CARTESIAN_POINT('Origin',(64.3278402880311,0.,-1.50031680547298));
#1076=CARTESIAN_POINT('',(89.8278402880311,15.,-1.50031680547298));
#1077=CARTESIAN_POINT('',(89.8278402880311,0.,-1.50031680547298));
#1078=CARTESIAN_POINT('',(41.8278402880311,15.,-1.50031680547298));
#1079=CARTESIAN_POINT('Origin',(89.8278402880311,0.,2.99968319452702));
#1080=CARTESIAN_POINT('',(89.8278402880311,15.,-22.500316805473));
#1081=CARTESIAN_POINT('',(89.8278402880311,0.,-22.500316805473));
#1082=CARTESIAN_POINT('',(89.8278402880311,15.,14.249683194527));
#1083=CARTESIAN_POINT('Origin',(94.3278402880311,0.,-22.500316805473));
#1084=CARTESIAN_POINT('',(-51.1721597119689,15.,-22.500316805473));
#1085=CARTESIAN_POINT('',(-51.1721597119689,0.,-22.500316805473));
#1086=CARTESIAN_POINT('',(56.8278402880311,15.,-22.500316805473));
#1087=CARTESIAN_POINT('Origin',(-51.1721597119689,0.,-27.000316805473));
#1088=CARTESIAN_POINT('',(-51.1721597119689,15.,-1.50031680547297));
#1089=CARTESIAN_POINT('',(-51.1721597119689,0.,-1.50031680547298));
#1090=CARTESIAN_POINT('',(-51.1721597119689,15.,-0.750316805472977));
#1091=CARTESIAN_POINT('Origin',(-55.6721597119689,0.,-1.50031680547298));
#1092=CARTESIAN_POINT('',(-21.1721597119689,15.,-1.50031680547296));
#1093=CARTESIAN_POINT('',(-21.1721597119689,0.,-1.50031680547296));
#1094=CARTESIAN_POINT('',(-18.1721597119689,15.,-1.50031680547296));
#1095=CARTESIAN_POINT('Origin',(34.3278402880311,0.,43.499683194527));
#1096=CARTESIAN_POINT('',(29.8278402880311,15.,43.499683194527));
#1097=CARTESIAN_POINT('',(26.8278402880311,15.,43.499683194527));
#1098=CARTESIAN_POINT('',(29.8278402880311,0.,43.499683194527));
#1099=CARTESIAN_POINT('Origin',(29.8278402880311,0.,77.999683194527));
#1100=CARTESIAN_POINT('',(29.8278402880311,15.,73.499683194527));
#1101=CARTESIAN_POINT('',(29.8278402880311,15.,51.749683194527));
#1102=CARTESIAN_POINT('',(29.8278402880311,0.,73.499683194527));
#1103=CARTESIAN_POINT('Origin',(4.32784028803109,0.,73.499683194527));
#1104=CARTESIAN_POINT('',(8.82784028803109,15.,73.499683194527));
#1105=CARTESIAN_POINT('',(11.8278402880311,15.,73.499683194527));
#1106=CARTESIAN_POINT('',(8.82784028803109,0.,73.499683194527));
#1107=CARTESIAN_POINT('Origin',(8.82784028803109,0.,47.999683194527));
#1108=CARTESIAN_POINT('',(8.82784028803109,15.,43.499683194527));
#1109=CARTESIAN_POINT('',(8.82784028803109,15.,36.749683194527));
#1110=CARTESIAN_POINT('',(8.82784028803109,0.,43.499683194527));
#1111=CARTESIAN_POINT('Origin',(-25.6721597119689,0.,43.499683194527));
#1112=CARTESIAN_POINT('',(-21.1721597119689,15.,43.499683194527));
#1113=CARTESIAN_POINT('',(-3.17215971196891,15.,43.499683194527));
#1114=CARTESIAN_POINT('',(-21.1721597119689,0.,43.499683194527));
#1115=CARTESIAN_POINT('Origin',(-21.1721597119689,0.,2.99968319452704));
#1116=CARTESIAN_POINT('',(-21.1721597119689,15.,14.249683194527));
#1117=CARTESIAN_POINT('Origin',(19.3278402880311,15.,25.499683194527));
#1118=CARTESIAN_POINT('Origin',(-51.1721597119689,0.,-22.500316805473));
#1119=CARTESIAN_POINT('',(-51.1721597119689,0.,-22.500316805473));
#1120=CARTESIAN_POINT('',(-51.1721597119689,0.,-1.50031680547297));
#1121=CARTESIAN_POINT('',(-51.1721597119689,0.,1.49968319452702));
#1122=CARTESIAN_POINT('',(-51.1721597119689,14.5,-22.500316805473));
#1123=CARTESIAN_POINT('',(-51.1721597119689,0.,-22.500316805473));
#1124=CARTESIAN_POINT('',(-51.1721597119689,14.5,-1.50031680547297));
#1125=CARTESIAN_POINT('',(-51.1721597119689,14.5,-0.750316805472977));
#1126=CARTESIAN_POINT('',(-51.1721597119689,0.,-1.50031680547297));
#1127=CARTESIAN_POINT('Origin',(89.8278402880311,0.,-22.500316805473));
#1128=CARTESIAN_POINT('',(89.8278402880311,0.,-22.500316805473));
#1129=CARTESIAN_POINT('',(54.5778402880311,0.,-22.500316805473));
#1130=CARTESIAN_POINT('',(89.8278402880311,14.5,-22.500316805473));
#1131=CARTESIAN_POINT('',(89.8278402880311,0.,-22.500316805473));
#1132=CARTESIAN_POINT('',(56.8278402880311,14.5,-22.500316805473));
#1133=CARTESIAN_POINT('Origin',(89.8278402880311,0.,-1.50031680547298));
#1134=CARTESIAN_POINT('',(89.8278402880311,0.,-1.50031680547298));
#1135=CARTESIAN_POINT('',(89.8278402880311,0.,11.999683194527));
#1136=CARTESIAN_POINT('',(89.8278402880311,14.5,-1.50031680547298));
#1137=CARTESIAN_POINT('',(89.8278402880311,0.,-1.50031680547298));
#1138=CARTESIAN_POINT('',(89.8278402880311,14.5,14.249683194527));
#1139=CARTESIAN_POINT('Origin',(59.8278402880311,0.,-1.50031680547298));
#1140=CARTESIAN_POINT('',(59.8278402880311,0.,-1.50031680547298));
#1141=CARTESIAN_POINT('',(39.5778402880311,0.,-1.50031680547298));
#1142=CARTESIAN_POINT('',(59.8278402880311,14.5,-1.50031680547298));
#1143=CARTESIAN_POINT('',(59.8278402880311,0.,-1.50031680547298));
#1144=CARTESIAN_POINT('',(41.8278402880311,14.5,-1.50031680547298));
#1145=CARTESIAN_POINT('Origin',(59.8278402880311,0.,43.499683194527));
#1146=CARTESIAN_POINT('',(59.8278402880311,0.,43.499683194527));
#1147=CARTESIAN_POINT('',(59.8278402880311,0.,34.499683194527));
#1148=CARTESIAN_POINT('',(59.8278402880311,14.5,43.499683194527));
#1149=CARTESIAN_POINT('',(59.8278402880311,0.,43.499683194527));
#1150=CARTESIAN_POINT('',(59.8278402880311,14.5,36.749683194527));
#1151=CARTESIAN_POINT('Origin',(29.8278402880311,0.,43.499683194527));
#1152=CARTESIAN_POINT('',(29.8278402880311,0.,43.499683194527));
#1153=CARTESIAN_POINT('',(24.5778402880311,0.,43.499683194527));
#1154=CARTESIAN_POINT('',(29.8278402880311,14.5,43.499683194527));
#1155=CARTESIAN_POINT('',(29.8278402880311,0.,43.499683194527));
#1156=CARTESIAN_POINT('',(26.8278402880311,14.5,43.499683194527));
#1157=CARTESIAN_POINT('Origin',(29.8278402880311,0.,73.499683194527));
#1158=CARTESIAN_POINT('',(29.8278402880311,0.,73.499683194527));
#1159=CARTESIAN_POINT('',(29.8278402880311,0.,49.499683194527));
#1160=CARTESIAN_POINT('',(29.8278402880311,14.5,73.499683194527));
#1161=CARTESIAN_POINT('',(29.8278402880311,0.,73.499683194527));
#1162=CARTESIAN_POINT('',(29.8278402880311,14.5,51.749683194527));
#1163=CARTESIAN_POINT('Origin',(8.82784028803109,0.,73.499683194527));
#1164=CARTESIAN_POINT('',(8.82784028803109,0.,73.499683194527));
#1165=CARTESIAN_POINT('',(14.0778402880311,0.,73.499683194527));
#1166=CARTESIAN_POINT('',(8.82784028803109,14.5,73.499683194527));
#1167=CARTESIAN_POINT('',(8.82784028803109,0.,73.499683194527));
#1168=CARTESIAN_POINT('',(11.8278402880311,14.5,73.499683194527));
#1169=CARTESIAN_POINT('Origin',(8.82784028803109,0.,43.499683194527));
#1170=CARTESIAN_POINT('',(8.82784028803109,0.,43.499683194527));
#1171=CARTESIAN_POINT('',(8.82784028803109,0.,34.499683194527));
#1172=CARTESIAN_POINT('',(8.82784028803109,14.5,43.499683194527));
#1173=CARTESIAN_POINT('',(8.82784028803109,0.,43.499683194527));
#1174=CARTESIAN_POINT('',(8.82784028803109,14.5,36.749683194527));
#1175=CARTESIAN_POINT('Origin',(-21.1721597119689,0.,43.499683194527));
#1176=CARTESIAN_POINT('',(-21.1721597119689,0.,43.499683194527));
#1177=CARTESIAN_POINT('',(-0.922159711968908,0.,43.499683194527));
#1178=CARTESIAN_POINT('',(-21.1721597119689,14.5,43.499683194527));
#1179=CARTESIAN_POINT('',(-21.1721597119689,0.,43.499683194527));
#1180=CARTESIAN_POINT('',(-3.17215971196891,14.5,43.499683194527));
#1181=CARTESIAN_POINT('Origin',(-21.1721597119689,0.,-1.50031680547296));
#1182=CARTESIAN_POINT('',(-21.1721597119689,0.,-1.50031680547296));
#1183=CARTESIAN_POINT('',(-21.1721597119689,0.,11.999683194527));
#1184=CARTESIAN_POINT('',(-21.1721597119689,14.5,-1.50031680547296));
#1185=CARTESIAN_POINT('',(-21.1721597119689,0.,-1.50031680547296));
#1186=CARTESIAN_POINT('',(-21.1721597119689,14.5,14.249683194527));
#1187=CARTESIAN_POINT('Origin',(-51.1721597119689,0.,-1.50031680547298));
#1188=CARTESIAN_POINT('',(-15.9221597119689,0.,-1.50031680547296));
#1189=CARTESIAN_POINT('',(-18.1721597119689,14.5,-1.50031680547296));
#1190=CARTESIAN_POINT('Origin',(19.3278402880311,14.5,25.499683194527));
#1191=CARTESIAN_POINT('Origin',(-55.6721597119689,0.,-27.000316805473));
#1192=CARTESIAN_POINT('',(-55.6721597119689,0.,-27.000316805473));
#1193=CARTESIAN_POINT('',(-55.6721597119689,0.,2.99968319452702));
#1194=CARTESIAN_POINT('',(-55.6721597119689,0.,-27.000316805473));
#1195=CARTESIAN_POINT('',(-55.6721597119689,15.,2.99968319452702));
#1196=CARTESIAN_POINT('',(-55.6721597119689,0.,2.99968319452702));
#1197=CARTESIAN_POINT('',(-55.6721597119689,15.,-27.000316805473));
#1198=CARTESIAN_POINT('',(-55.6721597119689,15.,-27.000316805473));
#1199=CARTESIAN_POINT('',(-55.6721597119689,0.,-27.000316805473));
#1200=CARTESIAN_POINT('Origin',(94.3278402880311,0.,-27.000316805473));
#1201=CARTESIAN_POINT('',(94.3278402880311,0.,-27.000316805473));
#1202=CARTESIAN_POINT('',(-55.6721597119689,0.,-27.000316805473));
#1203=CARTESIAN_POINT('',(94.3278402880311,15.,-27.000316805473));
#1204=CARTESIAN_POINT('',(-55.6721597119689,15.,-27.000316805473));
#1205=CARTESIAN_POINT('',(94.3278402880311,0.,-27.000316805473));
#1206=CARTESIAN_POINT('Origin',(94.3278402880311,0.,2.99968319452702));
#1207=CARTESIAN_POINT('',(94.3278402880311,0.,2.99968319452702));
#1208=CARTESIAN_POINT('',(94.3278402880311,0.,2.99968319452702));
#1209=CARTESIAN_POINT('',(94.3278402880311,15.,2.99968319452702));
#1210=CARTESIAN_POINT('',(94.3278402880311,15.,2.99968319452702));
#1211=CARTESIAN_POINT('',(94.3278402880311,0.,2.99968319452702));
#1212=CARTESIAN_POINT('Origin',(64.3278402880311,0.,2.99968319452702));
#1213=CARTESIAN_POINT('',(64.3278402880311,0.,2.99968319452702));
#1214=CARTESIAN_POINT('',(64.3278402880311,0.,2.99968319452702));
#1215=CARTESIAN_POINT('',(64.3278402880311,15.,2.99968319452702));
#1216=CARTESIAN_POINT('',(64.3278402880311,15.,2.99968319452702));
#1217=CARTESIAN_POINT('',(64.3278402880311,0.,2.99968319452702));
#1218=CARTESIAN_POINT('Origin',(64.3278402880311,0.,47.999683194527));
#1219=CARTESIAN_POINT('',(64.3278402880311,0.,47.999683194527));
#1220=CARTESIAN_POINT('',(64.3278402880311,0.,47.999683194527));
#1221=CARTESIAN_POINT('',(64.3278402880311,15.,47.999683194527));
#1222=CARTESIAN_POINT('',(64.3278402880311,15.,47.999683194527));
#1223=CARTESIAN_POINT('',(64.3278402880311,0.,47.999683194527));
#1224=CARTESIAN_POINT('Origin',(34.3278402880311,0.,47.999683194527));
#1225=CARTESIAN_POINT('',(34.3278402880311,0.,47.999683194527));
#1226=CARTESIAN_POINT('',(34.3278402880311,0.,47.999683194527));
#1227=CARTESIAN_POINT('',(34.3278402880311,15.,47.999683194527));
#1228=CARTESIAN_POINT('',(34.3278402880311,15.,47.999683194527));
#1229=CARTESIAN_POINT('',(34.3278402880311,0.,47.999683194527));
#1230=CARTESIAN_POINT('Origin',(34.3278402880311,0.,77.999683194527));
#1231=CARTESIAN_POINT('',(34.3278402880311,0.,77.999683194527));
#1232=CARTESIAN_POINT('',(34.3278402880311,0.,77.999683194527));
#1233=CARTESIAN_POINT('',(34.3278402880311,15.,77.999683194527));
#1234=CARTESIAN_POINT('',(34.3278402880311,15.,77.999683194527));
#1235=CARTESIAN_POINT('',(34.3278402880311,0.,77.999683194527));
#1236=CARTESIAN_POINT('Origin',(4.32784028803109,0.,77.999683194527));
#1237=CARTESIAN_POINT('',(4.32784028803109,0.,77.999683194527));
#1238=CARTESIAN_POINT('',(4.32784028803109,0.,77.999683194527));
#1239=CARTESIAN_POINT('',(4.32784028803109,15.,77.999683194527));
#1240=CARTESIAN_POINT('',(4.32784028803109,15.,77.999683194527));
#1241=CARTESIAN_POINT('',(4.32784028803109,0.,77.999683194527));
#1242=CARTESIAN_POINT('Origin',(4.32784028803109,0.,47.999683194527));
#1243=CARTESIAN_POINT('',(4.32784028803109,0.,47.999683194527));
#1244=CARTESIAN_POINT('',(4.32784028803109,0.,47.999683194527));
#1245=CARTESIAN_POINT('',(4.32784028803109,15.,47.999683194527));
#1246=CARTESIAN_POINT('',(4.32784028803109,15.,47.999683194527));
#1247=CARTESIAN_POINT('',(4.32784028803109,0.,47.999683194527));
#1248=CARTESIAN_POINT('Origin',(-25.6721597119689,0.,47.999683194527));
#1249=CARTESIAN_POINT('',(-25.6721597119689,0.,47.999683194527));
#1250=CARTESIAN_POINT('',(-25.6721597119689,0.,47.999683194527));
#1251=CARTESIAN_POINT('',(-25.6721597119689,15.,47.999683194527));
#1252=CARTESIAN_POINT('',(-25.6721597119689,15.,47.999683194527));
#1253=CARTESIAN_POINT('',(-25.6721597119689,0.,47.999683194527));
#1254=CARTESIAN_POINT('Origin',(-25.6721597119689,0.,2.99968319452704));
#1255=CARTESIAN_POINT('',(-25.6721597119689,0.,2.99968319452704));
#1256=CARTESIAN_POINT('',(-25.6721597119689,0.,2.99968319452704));
#1257=CARTESIAN_POINT('',(-25.6721597119689,15.,2.99968319452704));
#1258=CARTESIAN_POINT('',(-25.6721597119689,15.,2.99968319452704));
#1259=CARTESIAN_POINT('',(-25.6721597119689,0.,2.99968319452704));
#1260=CARTESIAN_POINT('Origin',(-55.6721597119689,0.,2.99968319452702));
#1261=CARTESIAN_POINT('',(-55.6721597119689,0.,2.99968319452702));
#1262=CARTESIAN_POINT('',(-55.6721597119689,15.,2.99968319452702));
#1263=CARTESIAN_POINT('Origin',(19.3278402880311,15.,25.499683194527));
#1264=CARTESIAN_POINT('Origin',(19.3278402880311,0.,25.499683194527));
#1265=UNCERTAINTY_MEASURE_WITH_UNIT(LENGTH_MEASURE(0.01),#1269,
'DISTANCE_ACCURACY_VALUE',
'Maximum model space distance between geometric entities at asserted c
onnectivities');
#1266=UNCERTAINTY_MEASURE_WITH_UNIT(LENGTH_MEASURE(0.01),#1269,
'DISTANCE_ACCURACY_VALUE',
'Maximum model space distance between geometric entities at asserted c
onnectivities');
#1267=(
GEOMETRIC_REPRESENTATION_CONTEXT(3)
GLOBAL_UNCERTAINTY_ASSIGNED_CONTEXT((#1265))
GLOBAL_UNIT_ASSIGNED_CONTEXT((#1269,#1271,#1272))
REPRESENTATION_CONTEXT('','3D')
);
#1268=(
GEOMETRIC_REPRESENTATION_CONTEXT(3)
GLOBAL_UNCERTAINTY_ASSIGNED_CONTEXT((#1266))
GLOBAL_UNIT_ASSIGNED_CONTEXT((#1269,#1271,#1272))
REPRESENTATION_CONTEXT('','3D')
);
#1269=(
LENGTH_UNIT()
NAMED_UNIT(*)
SI_UNIT(.MILLI.,.METRE.)
);
#1270=(
LENGTH_UNIT()
NAMED_UNIT(*)
SI_UNIT($,.METRE.)
);
#1271=(
NAMED_UNIT(*)
PLANE_ANGLE_UNIT()
SI_UNIT($,.RADIAN.)
);
#1272=(
NAMED_UNIT(*)
SI_UNIT($,.STERADIAN.)
SOLID_ANGLE_UNIT()
);
#1273=SHAPE_DEFINITION_REPRESENTATION(#1274,#1275);
#1274=PRODUCT_DEFINITION_SHAPE('',$,#1277);
#1275=SHAPE_REPRESENTATION('',(#809),#1267);
#1276=PRODUCT_DEFINITION_CONTEXT('part definition',#1281,'design');
#1277=PRODUCT_DEFINITION('2026-10-07-17-33-41-261','exercise 14',#1278,
#1276);
#1278=PRODUCT_DEFINITION_FORMATION('',$,#1283);
#1279=PRODUCT_RELATED_PRODUCT_CATEGORY('exercise 14','exercise 14',(#1283));
#1280=APPLICATION_PROTOCOL_DEFINITION('international standard',
'automotive_design',2009,#1281);
#1281=APPLICATION_CONTEXT(
'Core Data for Automotive Mechanical Design Process');
#1282=PRODUCT_CONTEXT('part definition',#1281,'mechanical');
#1283=PRODUCT('2026-10-07-17-33-41-261','exercise 14',$,(#1282));
#1284=PRESENTATION_STYLE_ASSIGNMENT((#1285));
#1285=SURFACE_STYLE_USAGE(.BOTH.,#1286);
#1286=SURFACE_SIDE_STYLE('',(#1287));
#1287=SURFACE_STYLE_FILL_AREA(#1288);
#1288=FILL_AREA_STYLE('Steel - Satin',(#1289));
#1289=FILL_AREA_STYLE_COLOUR('Steel - Satin',#1290);
#1290=COLOUR_RGB('Steel - Satin',0.627450980392157,0.627450980392157,0.627450980392157);
ENDSEC;
END-ISO-10303-21;
