ISO-10303-21;
HEADER;
/* Generated by software containing ST-Developer
 * from STEP Tools, Inc. (www.steptools.com) 
 */

FILE_DESCRIPTION(
/* description */ (''),
/* implementation_level */ '2;1');

FILE_NAME(
/* name */ 'exercise 7.step',
/* time_stamp */ '2026-10-04T00:10:18+05:30',
/* author */ (''),
/* organization */ (''),
/* preprocessor_version */ 'ST-DEVELOPER v20.2',
/* originating_system */ 'Autodesk Translation Framework v15.15.0.0',
/* authorisation */ '');

FILE_SCHEMA (('AUTOMOTIVE_DESIGN { 1 0 10303 214 3 1 1 }'));
ENDSEC;

DATA;
#10=MECHANICAL_DESIGN_GEOMETRIC_PRESENTATION_REPRESENTATION('',(#13),#819);
#11=SHAPE_REPRESENTATION_RELATIONSHIP('SRR','None',#826,#12);
#12=ADVANCED_BREP_SHAPE_REPRESENTATION('',(#14),#818);
#13=STYLED_ITEM('',(#835),#14);
#14=MANIFOLD_SOLID_BREP('Body1',#467);
#15=FACE_BOUND('',#56,.T.);
#16=FACE_BOUND('',#79,.T.);
#17=FACE_BOUND('',#81,.T.);
#18=PLANE('',#484);
#19=PLANE('',#488);
#20=PLANE('',#498);
#21=PLANE('',#502);
#22=PLANE('',#506);
#23=PLANE('',#510);
#24=PLANE('',#520);
#25=PLANE('',#524);
#26=PLANE('',#528);
#27=PLANE('',#532);
#28=PLANE('',#533);
#29=FACE_OUTER_BOUND('',#54,.T.);
#30=FACE_OUTER_BOUND('',#55,.T.);
#31=FACE_OUTER_BOUND('',#57,.T.);
#32=FACE_OUTER_BOUND('',#58,.T.);
#33=FACE_OUTER_BOUND('',#59,.T.);
#34=FACE_OUTER_BOUND('',#60,.T.);
#35=FACE_OUTER_BOUND('',#61,.T.);
#36=FACE_OUTER_BOUND('',#62,.T.);
#37=FACE_OUTER_BOUND('',#63,.T.);
#38=FACE_OUTER_BOUND('',#64,.T.);
#39=FACE_OUTER_BOUND('',#65,.T.);
#40=FACE_OUTER_BOUND('',#66,.T.);
#41=FACE_OUTER_BOUND('',#67,.T.);
#42=FACE_OUTER_BOUND('',#68,.T.);
#43=FACE_OUTER_BOUND('',#69,.T.);
#44=FACE_OUTER_BOUND('',#70,.T.);
#45=FACE_OUTER_BOUND('',#71,.T.);
#46=FACE_OUTER_BOUND('',#72,.T.);
#47=FACE_OUTER_BOUND('',#73,.T.);
#48=FACE_OUTER_BOUND('',#74,.T.);
#49=FACE_OUTER_BOUND('',#75,.T.);
#50=FACE_OUTER_BOUND('',#76,.T.);
#51=FACE_OUTER_BOUND('',#77,.T.);
#52=FACE_OUTER_BOUND('',#78,.T.);
#53=FACE_OUTER_BOUND('',#80,.T.);
#54=EDGE_LOOP('',(#296,#297,#298,#299));
#55=EDGE_LOOP('',(#300));
#56=EDGE_LOOP('',(#301));
#57=EDGE_LOOP('',(#302,#303,#304,#305));
#58=EDGE_LOOP('',(#306,#307,#308,#309));
#59=EDGE_LOOP('',(#310,#311,#312,#313));
#60=EDGE_LOOP('',(#314,#315,#316,#317));
#61=EDGE_LOOP('',(#318,#319,#320,#321));
#62=EDGE_LOOP('',(#322,#323,#324,#325));
#63=EDGE_LOOP('',(#326,#327,#328,#329));
#64=EDGE_LOOP('',(#330,#331,#332,#333));
#65=EDGE_LOOP('',(#334,#335,#336,#337));
#66=EDGE_LOOP('',(#338,#339,#340,#341));
#67=EDGE_LOOP('',(#342,#343,#344,#345));
#68=EDGE_LOOP('',(#346,#347,#348,#349));
#69=EDGE_LOOP('',(#350,#351,#352,#353));
#70=EDGE_LOOP('',(#354,#355,#356,#357));
#71=EDGE_LOOP('',(#358,#359,#360,#361));
#72=EDGE_LOOP('',(#362,#363,#364,#365));
#73=EDGE_LOOP('',(#366,#367,#368,#369));
#74=EDGE_LOOP('',(#370,#371,#372,#373));
#75=EDGE_LOOP('',(#374,#375,#376,#377));
#76=EDGE_LOOP('',(#378,#379,#380,#381));
#77=EDGE_LOOP('',(#382,#383,#384,#385));
#78=EDGE_LOOP('',(#386,#387,#388,#389,#390,#391,#392,#393,#394,#395,#396,
#397,#398,#399,#400,#401,#402,#403,#404,#405));
#79=EDGE_LOOP('',(#406));
#80=EDGE_LOOP('',(#407,#408,#409,#410,#411,#412,#413,#414,#415,#416,#417,
#418,#419,#420,#421,#422,#423,#424,#425,#426));
#81=EDGE_LOOP('',(#427));
#82=LINE('',#685,#120);
#83=LINE('',#693,#121);
#84=LINE('',#697,#122);
#85=LINE('',#699,#123);
#86=LINE('',#701,#124);
#87=LINE('',#702,#125);
#88=LINE('',#708,#126);
#89=LINE('',#714,#127);
#90=LINE('',#720,#128);
#91=LINE('',#723,#129);
#92=LINE('',#725,#130);
#93=LINE('',#726,#131);
#94=LINE('',#732,#132);
#95=LINE('',#735,#133);
#96=LINE('',#737,#134);
#97=LINE('',#738,#135);
#98=LINE('',#744,#136);
#99=LINE('',#747,#137);
#100=LINE('',#749,#138);
#101=LINE('',#750,#139);
#102=LINE('',#756,#140);
#103=LINE('',#759,#141);
#104=LINE('',#761,#142);
#105=LINE('',#762,#143);
#106=LINE('',#768,#144);
#107=LINE('',#774,#145);
#108=LINE('',#780,#146);
#109=LINE('',#783,#147);
#110=LINE('',#785,#148);
#111=LINE('',#786,#149);
#112=LINE('',#792,#150);
#113=LINE('',#795,#151);
#114=LINE('',#797,#152);
#115=LINE('',#798,#153);
#116=LINE('',#804,#154);
#117=LINE('',#807,#155);
#118=LINE('',#809,#156);
#119=LINE('',#810,#157);
#120=VECTOR('',#540,50.);
#121=VECTOR('',#551,67.8);
#122=VECTOR('',#554,10.);
#123=VECTOR('',#555,10.);
#124=VECTOR('',#556,10.);
#125=VECTOR('',#557,10.);
#126=VECTOR('',#564,10.);
#127=VECTOR('',#571,10.);
#128=VECTOR('',#578,10.);
#129=VECTOR('',#581,10.);
#130=VECTOR('',#582,10.);
#131=VECTOR('',#583,10.);
#132=VECTOR('',#590,10.);
#133=VECTOR('',#593,10.);
#134=VECTOR('',#594,10.);
#135=VECTOR('',#595,10.);
#136=VECTOR('',#602,10.);
#137=VECTOR('',#605,10.);
#138=VECTOR('',#606,10.);
#139=VECTOR('',#607,10.);
#140=VECTOR('',#614,10.);
#141=VECTOR('',#617,10.);
#142=VECTOR('',#618,10.);
#143=VECTOR('',#619,10.);
#144=VECTOR('',#626,10.);
#145=VECTOR('',#633,10.);
#146=VECTOR('',#640,10.);
#147=VECTOR('',#643,10.);
#148=VECTOR('',#644,10.);
#149=VECTOR('',#645,10.);
#150=VECTOR('',#652,10.);
#151=VECTOR('',#655,10.);
#152=VECTOR('',#656,10.);
#153=VECTOR('',#657,10.);
#154=VECTOR('',#664,10.);
#155=VECTOR('',#667,10.);
#156=VECTOR('',#668,10.);
#157=VECTOR('',#669,10.);
#158=CIRCLE('',#482,50.);
#159=CIRCLE('',#483,50.);
#160=CIRCLE('',#485,67.8);
#161=CIRCLE('',#487,67.8);
#162=CIRCLE('',#490,170.);
#163=CIRCLE('',#491,170.);
#164=CIRCLE('',#493,75.);
#165=CIRCLE('',#494,75.);
#166=CIRCLE('',#496,170.);
#167=CIRCLE('',#497,170.);
#168=CIRCLE('',#500,40.);
#169=CIRCLE('',#501,40.);
#170=CIRCLE('',#504,25.);
#171=CIRCLE('',#505,25.);
#172=CIRCLE('',#508,40.);
#173=CIRCLE('',#509,40.);
#174=CIRCLE('',#512,170.);
#175=CIRCLE('',#513,170.);
#176=CIRCLE('',#515,75.);
#177=CIRCLE('',#516,75.);
#178=CIRCLE('',#518,170.);
#179=CIRCLE('',#519,170.);
#180=CIRCLE('',#522,40.);
#181=CIRCLE('',#523,40.);
#182=CIRCLE('',#526,25.);
#183=CIRCLE('',#527,25.);
#184=CIRCLE('',#530,40.);
#185=CIRCLE('',#531,40.);
#186=VERTEX_POINT('',#682);
#187=VERTEX_POINT('',#684);
#188=VERTEX_POINT('',#688);
#189=VERTEX_POINT('',#691);
#190=VERTEX_POINT('',#695);
#191=VERTEX_POINT('',#696);
#192=VERTEX_POINT('',#698);
#193=VERTEX_POINT('',#700);
#194=VERTEX_POINT('',#704);
#195=VERTEX_POINT('',#706);
#196=VERTEX_POINT('',#710);
#197=VERTEX_POINT('',#712);
#198=VERTEX_POINT('',#716);
#199=VERTEX_POINT('',#718);
#200=VERTEX_POINT('',#722);
#201=VERTEX_POINT('',#724);
#202=VERTEX_POINT('',#728);
#203=VERTEX_POINT('',#730);
#204=VERTEX_POINT('',#734);
#205=VERTEX_POINT('',#736);
#206=VERTEX_POINT('',#740);
#207=VERTEX_POINT('',#742);
#208=VERTEX_POINT('',#746);
#209=VERTEX_POINT('',#748);
#210=VERTEX_POINT('',#752);
#211=VERTEX_POINT('',#754);
#212=VERTEX_POINT('',#758);
#213=VERTEX_POINT('',#760);
#214=VERTEX_POINT('',#764);
#215=VERTEX_POINT('',#766);
#216=VERTEX_POINT('',#770);
#217=VERTEX_POINT('',#772);
#218=VERTEX_POINT('',#776);
#219=VERTEX_POINT('',#778);
#220=VERTEX_POINT('',#782);
#221=VERTEX_POINT('',#784);
#222=VERTEX_POINT('',#788);
#223=VERTEX_POINT('',#790);
#224=VERTEX_POINT('',#794);
#225=VERTEX_POINT('',#796);
#226=VERTEX_POINT('',#800);
#227=VERTEX_POINT('',#802);
#228=VERTEX_POINT('',#806);
#229=VERTEX_POINT('',#808);
#230=EDGE_CURVE('',#186,#186,#158,.T.);
#231=EDGE_CURVE('',#186,#187,#82,.T.);
#232=EDGE_CURVE('',#187,#187,#159,.T.);
#233=EDGE_CURVE('',#188,#188,#160,.T.);
#234=EDGE_CURVE('',#189,#189,#161,.T.);
#235=EDGE_CURVE('',#189,#188,#83,.T.);
#236=EDGE_CURVE('',#190,#191,#84,.T.);
#237=EDGE_CURVE('',#190,#192,#85,.T.);
#238=EDGE_CURVE('',#193,#192,#86,.T.);
#239=EDGE_CURVE('',#191,#193,#87,.T.);
#240=EDGE_CURVE('',#191,#194,#162,.T.);
#241=EDGE_CURVE('',#195,#193,#163,.T.);
#242=EDGE_CURVE('',#194,#195,#88,.T.);
#243=EDGE_CURVE('',#196,#194,#164,.T.);
#244=EDGE_CURVE('',#197,#195,#165,.T.);
#245=EDGE_CURVE('',#196,#197,#89,.T.);
#246=EDGE_CURVE('',#196,#198,#166,.T.);
#247=EDGE_CURVE('',#199,#197,#167,.T.);
#248=EDGE_CURVE('',#198,#199,#90,.T.);
#249=EDGE_CURVE('',#200,#198,#91,.T.);
#250=EDGE_CURVE('',#201,#199,#92,.T.);
#251=EDGE_CURVE('',#200,#201,#93,.T.);
#252=EDGE_CURVE('',#202,#200,#168,.T.);
#253=EDGE_CURVE('',#203,#201,#169,.T.);
#254=EDGE_CURVE('',#202,#203,#94,.T.);
#255=EDGE_CURVE('',#204,#202,#95,.T.);
#256=EDGE_CURVE('',#205,#203,#96,.T.);
#257=EDGE_CURVE('',#204,#205,#97,.T.);
#258=EDGE_CURVE('',#204,#206,#170,.T.);
#259=EDGE_CURVE('',#207,#205,#171,.T.);
#260=EDGE_CURVE('',#206,#207,#98,.T.);
#261=EDGE_CURVE('',#206,#208,#99,.T.);
#262=EDGE_CURVE('',#209,#207,#100,.T.);
#263=EDGE_CURVE('',#208,#209,#101,.T.);
#264=EDGE_CURVE('',#210,#208,#172,.T.);
#265=EDGE_CURVE('',#211,#209,#173,.T.);
#266=EDGE_CURVE('',#210,#211,#102,.T.);
#267=EDGE_CURVE('',#210,#212,#103,.T.);
#268=EDGE_CURVE('',#213,#211,#104,.T.);
#269=EDGE_CURVE('',#212,#213,#105,.T.);
#270=EDGE_CURVE('',#212,#214,#174,.T.);
#271=EDGE_CURVE('',#215,#213,#175,.T.);
#272=EDGE_CURVE('',#214,#215,#106,.T.);
#273=EDGE_CURVE('',#216,#214,#176,.T.);
#274=EDGE_CURVE('',#217,#215,#177,.T.);
#275=EDGE_CURVE('',#216,#217,#107,.T.);
#276=EDGE_CURVE('',#216,#218,#178,.T.);
#277=EDGE_CURVE('',#219,#217,#179,.T.);
#278=EDGE_CURVE('',#218,#219,#108,.T.);
#279=EDGE_CURVE('',#220,#218,#109,.T.);
#280=EDGE_CURVE('',#221,#219,#110,.T.);
#281=EDGE_CURVE('',#220,#221,#111,.T.);
#282=EDGE_CURVE('',#222,#220,#180,.T.);
#283=EDGE_CURVE('',#223,#221,#181,.T.);
#284=EDGE_CURVE('',#222,#223,#112,.T.);
#285=EDGE_CURVE('',#222,#224,#113,.T.);
#286=EDGE_CURVE('',#225,#223,#114,.T.);
#287=EDGE_CURVE('',#224,#225,#115,.T.);
#288=EDGE_CURVE('',#224,#226,#182,.T.);
#289=EDGE_CURVE('',#227,#225,#183,.T.);
#290=EDGE_CURVE('',#226,#227,#116,.T.);
#291=EDGE_CURVE('',#228,#226,#117,.T.);
#292=EDGE_CURVE('',#229,#227,#118,.T.);
#293=EDGE_CURVE('',#228,#229,#119,.T.);
#294=EDGE_CURVE('',#190,#228,#184,.T.);
#295=EDGE_CURVE('',#192,#229,#185,.T.);
#296=ORIENTED_EDGE('',*,*,#230,.F.);
#297=ORIENTED_EDGE('',*,*,#231,.T.);
#298=ORIENTED_EDGE('',*,*,#232,.T.);
#299=ORIENTED_EDGE('',*,*,#231,.F.);
#300=ORIENTED_EDGE('',*,*,#233,.F.);
#301=ORIENTED_EDGE('',*,*,#230,.T.);
#302=ORIENTED_EDGE('',*,*,#234,.F.);
#303=ORIENTED_EDGE('',*,*,#235,.T.);
#304=ORIENTED_EDGE('',*,*,#233,.T.);
#305=ORIENTED_EDGE('',*,*,#235,.F.);
#306=ORIENTED_EDGE('',*,*,#236,.F.);
#307=ORIENTED_EDGE('',*,*,#237,.T.);
#308=ORIENTED_EDGE('',*,*,#238,.F.);
#309=ORIENTED_EDGE('',*,*,#239,.F.);
#310=ORIENTED_EDGE('',*,*,#240,.F.);
#311=ORIENTED_EDGE('',*,*,#239,.T.);
#312=ORIENTED_EDGE('',*,*,#241,.F.);
#313=ORIENTED_EDGE('',*,*,#242,.F.);
#314=ORIENTED_EDGE('',*,*,#243,.T.);
#315=ORIENTED_EDGE('',*,*,#242,.T.);
#316=ORIENTED_EDGE('',*,*,#244,.F.);
#317=ORIENTED_EDGE('',*,*,#245,.F.);
#318=ORIENTED_EDGE('',*,*,#246,.F.);
#319=ORIENTED_EDGE('',*,*,#245,.T.);
#320=ORIENTED_EDGE('',*,*,#247,.F.);
#321=ORIENTED_EDGE('',*,*,#248,.F.);
#322=ORIENTED_EDGE('',*,*,#249,.T.);
#323=ORIENTED_EDGE('',*,*,#248,.T.);
#324=ORIENTED_EDGE('',*,*,#250,.F.);
#325=ORIENTED_EDGE('',*,*,#251,.F.);
#326=ORIENTED_EDGE('',*,*,#252,.T.);
#327=ORIENTED_EDGE('',*,*,#251,.T.);
#328=ORIENTED_EDGE('',*,*,#253,.F.);
#329=ORIENTED_EDGE('',*,*,#254,.F.);
#330=ORIENTED_EDGE('',*,*,#255,.T.);
#331=ORIENTED_EDGE('',*,*,#254,.T.);
#332=ORIENTED_EDGE('',*,*,#256,.F.);
#333=ORIENTED_EDGE('',*,*,#257,.F.);
#334=ORIENTED_EDGE('',*,*,#258,.F.);
#335=ORIENTED_EDGE('',*,*,#257,.T.);
#336=ORIENTED_EDGE('',*,*,#259,.F.);
#337=ORIENTED_EDGE('',*,*,#260,.F.);
#338=ORIENTED_EDGE('',*,*,#261,.F.);
#339=ORIENTED_EDGE('',*,*,#260,.T.);
#340=ORIENTED_EDGE('',*,*,#262,.F.);
#341=ORIENTED_EDGE('',*,*,#263,.F.);
#342=ORIENTED_EDGE('',*,*,#264,.T.);
#343=ORIENTED_EDGE('',*,*,#263,.T.);
#344=ORIENTED_EDGE('',*,*,#265,.F.);
#345=ORIENTED_EDGE('',*,*,#266,.F.);
#346=ORIENTED_EDGE('',*,*,#267,.F.);
#347=ORIENTED_EDGE('',*,*,#266,.T.);
#348=ORIENTED_EDGE('',*,*,#268,.F.);
#349=ORIENTED_EDGE('',*,*,#269,.F.);
#350=ORIENTED_EDGE('',*,*,#270,.F.);
#351=ORIENTED_EDGE('',*,*,#269,.T.);
#352=ORIENTED_EDGE('',*,*,#271,.F.);
#353=ORIENTED_EDGE('',*,*,#272,.F.);
#354=ORIENTED_EDGE('',*,*,#273,.T.);
#355=ORIENTED_EDGE('',*,*,#272,.T.);
#356=ORIENTED_EDGE('',*,*,#274,.F.);
#357=ORIENTED_EDGE('',*,*,#275,.F.);
#358=ORIENTED_EDGE('',*,*,#276,.F.);
#359=ORIENTED_EDGE('',*,*,#275,.T.);
#360=ORIENTED_EDGE('',*,*,#277,.F.);
#361=ORIENTED_EDGE('',*,*,#278,.F.);
#362=ORIENTED_EDGE('',*,*,#279,.T.);
#363=ORIENTED_EDGE('',*,*,#278,.T.);
#364=ORIENTED_EDGE('',*,*,#280,.F.);
#365=ORIENTED_EDGE('',*,*,#281,.F.);
#366=ORIENTED_EDGE('',*,*,#282,.T.);
#367=ORIENTED_EDGE('',*,*,#281,.T.);
#368=ORIENTED_EDGE('',*,*,#283,.F.);
#369=ORIENTED_EDGE('',*,*,#284,.F.);
#370=ORIENTED_EDGE('',*,*,#285,.F.);
#371=ORIENTED_EDGE('',*,*,#284,.T.);
#372=ORIENTED_EDGE('',*,*,#286,.F.);
#373=ORIENTED_EDGE('',*,*,#287,.F.);
#374=ORIENTED_EDGE('',*,*,#288,.F.);
#375=ORIENTED_EDGE('',*,*,#287,.T.);
#376=ORIENTED_EDGE('',*,*,#289,.F.);
#377=ORIENTED_EDGE('',*,*,#290,.F.);
#378=ORIENTED_EDGE('',*,*,#291,.T.);
#379=ORIENTED_EDGE('',*,*,#290,.T.);
#380=ORIENTED_EDGE('',*,*,#292,.F.);
#381=ORIENTED_EDGE('',*,*,#293,.F.);
#382=ORIENTED_EDGE('',*,*,#294,.T.);
#383=ORIENTED_EDGE('',*,*,#293,.T.);
#384=ORIENTED_EDGE('',*,*,#295,.F.);
#385=ORIENTED_EDGE('',*,*,#237,.F.);
#386=ORIENTED_EDGE('',*,*,#295,.T.);
#387=ORIENTED_EDGE('',*,*,#292,.T.);
#388=ORIENTED_EDGE('',*,*,#289,.T.);
#389=ORIENTED_EDGE('',*,*,#286,.T.);
#390=ORIENTED_EDGE('',*,*,#283,.T.);
#391=ORIENTED_EDGE('',*,*,#280,.T.);
#392=ORIENTED_EDGE('',*,*,#277,.T.);
#393=ORIENTED_EDGE('',*,*,#274,.T.);
#394=ORIENTED_EDGE('',*,*,#271,.T.);
#395=ORIENTED_EDGE('',*,*,#268,.T.);
#396=ORIENTED_EDGE('',*,*,#265,.T.);
#397=ORIENTED_EDGE('',*,*,#262,.T.);
#398=ORIENTED_EDGE('',*,*,#259,.T.);
#399=ORIENTED_EDGE('',*,*,#256,.T.);
#400=ORIENTED_EDGE('',*,*,#253,.T.);
#401=ORIENTED_EDGE('',*,*,#250,.T.);
#402=ORIENTED_EDGE('',*,*,#247,.T.);
#403=ORIENTED_EDGE('',*,*,#244,.T.);
#404=ORIENTED_EDGE('',*,*,#241,.T.);
#405=ORIENTED_EDGE('',*,*,#238,.T.);
#406=ORIENTED_EDGE('',*,*,#234,.T.);
#407=ORIENTED_EDGE('',*,*,#294,.F.);
#408=ORIENTED_EDGE('',*,*,#236,.T.);
#409=ORIENTED_EDGE('',*,*,#240,.T.);
#410=ORIENTED_EDGE('',*,*,#243,.F.);
#411=ORIENTED_EDGE('',*,*,#246,.T.);
#412=ORIENTED_EDGE('',*,*,#249,.F.);
#413=ORIENTED_EDGE('',*,*,#252,.F.);
#414=ORIENTED_EDGE('',*,*,#255,.F.);
#415=ORIENTED_EDGE('',*,*,#258,.T.);
#416=ORIENTED_EDGE('',*,*,#261,.T.);
#417=ORIENTED_EDGE('',*,*,#264,.F.);
#418=ORIENTED_EDGE('',*,*,#267,.T.);
#419=ORIENTED_EDGE('',*,*,#270,.T.);
#420=ORIENTED_EDGE('',*,*,#273,.F.);
#421=ORIENTED_EDGE('',*,*,#276,.T.);
#422=ORIENTED_EDGE('',*,*,#279,.F.);
#423=ORIENTED_EDGE('',*,*,#282,.F.);
#424=ORIENTED_EDGE('',*,*,#285,.T.);
#425=ORIENTED_EDGE('',*,*,#288,.T.);
#426=ORIENTED_EDGE('',*,*,#291,.F.);
#427=ORIENTED_EDGE('',*,*,#232,.F.);
#428=CYLINDRICAL_SURFACE('',#481,50.);
#429=CYLINDRICAL_SURFACE('',#486,67.8);
#430=CYLINDRICAL_SURFACE('',#489,170.);
#431=CYLINDRICAL_SURFACE('',#492,75.);
#432=CYLINDRICAL_SURFACE('',#495,170.);
#433=CYLINDRICAL_SURFACE('',#499,40.);
#434=CYLINDRICAL_SURFACE('',#503,25.);
#435=CYLINDRICAL_SURFACE('',#507,40.);
#436=CYLINDRICAL_SURFACE('',#511,170.);
#437=CYLINDRICAL_SURFACE('',#514,75.);
#438=CYLINDRICAL_SURFACE('',#517,170.);
#439=CYLINDRICAL_SURFACE('',#521,40.);
#440=CYLINDRICAL_SURFACE('',#525,25.);
#441=CYLINDRICAL_SURFACE('',#529,40.);
#442=ADVANCED_FACE('',(#29),#428,.F.);
#443=ADVANCED_FACE('',(#30,#15),#18,.T.);
#444=ADVANCED_FACE('',(#31),#429,.F.);
#445=ADVANCED_FACE('',(#32),#19,.T.);
#446=ADVANCED_FACE('',(#33),#430,.F.);
#447=ADVANCED_FACE('',(#34),#431,.T.);
#448=ADVANCED_FACE('',(#35),#432,.F.);
#449=ADVANCED_FACE('',(#36),#20,.T.);
#450=ADVANCED_FACE('',(#37),#433,.T.);
#451=ADVANCED_FACE('',(#38),#21,.T.);
#452=ADVANCED_FACE('',(#39),#434,.F.);
#453=ADVANCED_FACE('',(#40),#22,.T.);
#454=ADVANCED_FACE('',(#41),#435,.T.);
#455=ADVANCED_FACE('',(#42),#23,.T.);
#456=ADVANCED_FACE('',(#43),#436,.F.);
#457=ADVANCED_FACE('',(#44),#437,.T.);
#458=ADVANCED_FACE('',(#45),#438,.F.);
#459=ADVANCED_FACE('',(#46),#24,.T.);
#460=ADVANCED_FACE('',(#47),#439,.T.);
#461=ADVANCED_FACE('',(#48),#25,.T.);
#462=ADVANCED_FACE('',(#49),#440,.F.);
#463=ADVANCED_FACE('',(#50),#26,.T.);
#464=ADVANCED_FACE('',(#51),#441,.T.);
#465=ADVANCED_FACE('',(#52,#16),#27,.T.);
#466=ADVANCED_FACE('',(#53,#17),#28,.F.);
#467=CLOSED_SHELL('',(#442,#443,#444,#445,#446,#447,#448,#449,#450,#451,
#452,#453,#454,#455,#456,#457,#458,#459,#460,#461,#462,#463,#464,#465,#466));
#468=DERIVED_UNIT_ELEMENT(#470,1.);
#469=DERIVED_UNIT_ELEMENT(#821,-3.);
#470=(
MASS_UNIT()
NAMED_UNIT(*)
SI_UNIT(.KILO.,.GRAM.)
);
#471=DERIVED_UNIT((#468,#469));
#472=MEASURE_REPRESENTATION_ITEM('density measure',
POSITIVE_RATIO_MEASURE(7850.),#471);
#473=PROPERTY_DEFINITION_REPRESENTATION(#478,#475);
#474=PROPERTY_DEFINITION_REPRESENTATION(#479,#476);
#475=REPRESENTATION('material name',(#477),#818);
#476=REPRESENTATION('density',(#472),#818);
#477=DESCRIPTIVE_REPRESENTATION_ITEM('Steel','Steel');
#478=PROPERTY_DEFINITION('material property','material name',#828);
#479=PROPERTY_DEFINITION('material property','density of part',#828);
#480=AXIS2_PLACEMENT_3D('',#680,#534,#535);
#481=AXIS2_PLACEMENT_3D('',#681,#536,#537);
#482=AXIS2_PLACEMENT_3D('',#683,#538,#539);
#483=AXIS2_PLACEMENT_3D('',#686,#541,#542);
#484=AXIS2_PLACEMENT_3D('',#687,#543,#544);
#485=AXIS2_PLACEMENT_3D('',#689,#545,#546);
#486=AXIS2_PLACEMENT_3D('',#690,#547,#548);
#487=AXIS2_PLACEMENT_3D('',#692,#549,#550);
#488=AXIS2_PLACEMENT_3D('',#694,#552,#553);
#489=AXIS2_PLACEMENT_3D('',#703,#558,#559);
#490=AXIS2_PLACEMENT_3D('',#705,#560,#561);
#491=AXIS2_PLACEMENT_3D('',#707,#562,#563);
#492=AXIS2_PLACEMENT_3D('',#709,#565,#566);
#493=AXIS2_PLACEMENT_3D('',#711,#567,#568);
#494=AXIS2_PLACEMENT_3D('',#713,#569,#570);
#495=AXIS2_PLACEMENT_3D('',#715,#572,#573);
#496=AXIS2_PLACEMENT_3D('',#717,#574,#575);
#497=AXIS2_PLACEMENT_3D('',#719,#576,#577);
#498=AXIS2_PLACEMENT_3D('',#721,#579,#580);
#499=AXIS2_PLACEMENT_3D('',#727,#584,#585);
#500=AXIS2_PLACEMENT_3D('',#729,#586,#587);
#501=AXIS2_PLACEMENT_3D('',#731,#588,#589);
#502=AXIS2_PLACEMENT_3D('',#733,#591,#592);
#503=AXIS2_PLACEMENT_3D('',#739,#596,#597);
#504=AXIS2_PLACEMENT_3D('',#741,#598,#599);
#505=AXIS2_PLACEMENT_3D('',#743,#600,#601);
#506=AXIS2_PLACEMENT_3D('',#745,#603,#604);
#507=AXIS2_PLACEMENT_3D('',#751,#608,#609);
#508=AXIS2_PLACEMENT_3D('',#753,#610,#611);
#509=AXIS2_PLACEMENT_3D('',#755,#612,#613);
#510=AXIS2_PLACEMENT_3D('',#757,#615,#616);
#511=AXIS2_PLACEMENT_3D('',#763,#620,#621);
#512=AXIS2_PLACEMENT_3D('',#765,#622,#623);
#513=AXIS2_PLACEMENT_3D('',#767,#624,#625);
#514=AXIS2_PLACEMENT_3D('',#769,#627,#628);
#515=AXIS2_PLACEMENT_3D('',#771,#629,#630);
#516=AXIS2_PLACEMENT_3D('',#773,#631,#632);
#517=AXIS2_PLACEMENT_3D('',#775,#634,#635);
#518=AXIS2_PLACEMENT_3D('',#777,#636,#637);
#519=AXIS2_PLACEMENT_3D('',#779,#638,#639);
#520=AXIS2_PLACEMENT_3D('',#781,#641,#642);
#521=AXIS2_PLACEMENT_3D('',#787,#646,#647);
#522=AXIS2_PLACEMENT_3D('',#789,#648,#649);
#523=AXIS2_PLACEMENT_3D('',#791,#650,#651);
#524=AXIS2_PLACEMENT_3D('',#793,#653,#654);
#525=AXIS2_PLACEMENT_3D('',#799,#658,#659);
#526=AXIS2_PLACEMENT_3D('',#801,#660,#661);
#527=AXIS2_PLACEMENT_3D('',#803,#662,#663);
#528=AXIS2_PLACEMENT_3D('',#805,#665,#666);
#529=AXIS2_PLACEMENT_3D('',#811,#670,#671);
#530=AXIS2_PLACEMENT_3D('',#812,#672,#673);
#531=AXIS2_PLACEMENT_3D('',#813,#674,#675);
#532=AXIS2_PLACEMENT_3D('',#814,#676,#677);
#533=AXIS2_PLACEMENT_3D('',#815,#678,#679);
#534=DIRECTION('axis',(0.,0.,1.));
#535=DIRECTION('refdir',(1.,0.,0.));
#536=DIRECTION('center_axis',(0.,0.,1.));
#537=DIRECTION('ref_axis',(1.,0.,0.));
#538=DIRECTION('center_axis',(0.,0.,-1.));
#539=DIRECTION('ref_axis',(1.,0.,0.));
#540=DIRECTION('',(0.,0.,-1.));
#541=DIRECTION('center_axis',(0.,0.,-1.));
#542=DIRECTION('ref_axis',(1.,0.,0.));
#543=DIRECTION('center_axis',(0.,0.,1.));
#544=DIRECTION('ref_axis',(1.,0.,0.));
#545=DIRECTION('center_axis',(0.,0.,-1.));
#546=DIRECTION('ref_axis',(1.,0.,0.));
#547=DIRECTION('center_axis',(0.,0.,1.));
#548=DIRECTION('ref_axis',(1.,0.,0.));
#549=DIRECTION('center_axis',(0.,0.,-1.));
#550=DIRECTION('ref_axis',(1.,0.,0.));
#551=DIRECTION('',(0.,0.,-1.));
#552=DIRECTION('center_axis',(0.,-1.,0.));
#553=DIRECTION('ref_axis',(1.,0.,0.));
#554=DIRECTION('',(-1.,0.,0.));
#555=DIRECTION('',(0.,0.,1.));
#556=DIRECTION('',(1.,0.,0.));
#557=DIRECTION('',(0.,0.,1.));
#558=DIRECTION('center_axis',(0.,0.,1.));
#559=DIRECTION('ref_axis',(6.26949472729501E-16,1.,0.));
#560=DIRECTION('center_axis',(0.,0.,1.));
#561=DIRECTION('ref_axis',(6.26949472729501E-16,1.,0.));
#562=DIRECTION('center_axis',(0.,0.,-1.));
#563=DIRECTION('ref_axis',(6.26949472729501E-16,1.,0.));
#564=DIRECTION('',(0.,0.,1.));
#565=DIRECTION('center_axis',(0.,0.,1.));
#566=DIRECTION('ref_axis',(-0.515078753637712,-0.857142857142858,0.));
#567=DIRECTION('center_axis',(0.,0.,1.));
#568=DIRECTION('ref_axis',(-0.515078753637712,-0.857142857142858,0.));
#569=DIRECTION('center_axis',(0.,0.,1.));
#570=DIRECTION('ref_axis',(-0.515078753637712,-0.857142857142858,0.));
#571=DIRECTION('',(0.,0.,1.));
#572=DIRECTION('center_axis',(0.,0.,1.));
#573=DIRECTION('ref_axis',(0.515078753637714,0.857142857142857,0.));
#574=DIRECTION('center_axis',(0.,0.,1.));
#575=DIRECTION('ref_axis',(0.515078753637714,0.857142857142857,0.));
#576=DIRECTION('center_axis',(0.,0.,-1.));
#577=DIRECTION('ref_axis',(0.515078753637714,0.857142857142857,0.));
#578=DIRECTION('',(0.,0.,1.));
#579=DIRECTION('center_axis',(-1.86547385661328E-16,-1.,0.));
#580=DIRECTION('ref_axis',(1.,-1.86547385661328E-16,0.));
#581=DIRECTION('',(1.,-1.86547385661328E-16,0.));
#582=DIRECTION('',(1.,-1.86547385661328E-16,0.));
#583=DIRECTION('',(0.,0.,1.));
#584=DIRECTION('center_axis',(0.,0.,1.));
#585=DIRECTION('ref_axis',(-0.968245836551854,-0.25,0.));
#586=DIRECTION('center_axis',(0.,0.,1.));
#587=DIRECTION('ref_axis',(-0.968245836551854,-0.25,0.));
#588=DIRECTION('center_axis',(0.,0.,1.));
#589=DIRECTION('ref_axis',(-0.968245836551854,-0.25,0.));
#590=DIRECTION('',(0.,0.,1.));
#591=DIRECTION('center_axis',(0.,1.,0.));
#592=DIRECTION('ref_axis',(-1.,0.,0.));
#593=DIRECTION('',(-1.,0.,0.));
#594=DIRECTION('',(-1.,0.,0.));
#595=DIRECTION('',(0.,0.,1.));
#596=DIRECTION('center_axis',(0.,0.,1.));
#597=DIRECTION('ref_axis',(1.,1.94159904598479E-8,0.));
#598=DIRECTION('center_axis',(0.,0.,1.));
#599=DIRECTION('ref_axis',(-0.916515138991168,-0.4,0.));
#600=DIRECTION('center_axis',(0.,0.,-1.));
#601=DIRECTION('ref_axis',(-0.916515138991168,-0.4,0.));
#602=DIRECTION('',(0.,0.,1.));
#603=DIRECTION('center_axis',(0.,-1.,0.));
#604=DIRECTION('ref_axis',(1.,0.,0.));
#605=DIRECTION('',(-1.,0.,0.));
#606=DIRECTION('',(1.,0.,0.));
#607=DIRECTION('',(0.,0.,1.));
#608=DIRECTION('center_axis',(0.,0.,1.));
#609=DIRECTION('ref_axis',(0.,1.,0.));
#610=DIRECTION('center_axis',(0.,0.,1.));
#611=DIRECTION('ref_axis',(0.,1.,0.));
#612=DIRECTION('center_axis',(0.,0.,1.));
#613=DIRECTION('ref_axis',(0.,1.,0.));
#614=DIRECTION('',(0.,0.,1.));
#615=DIRECTION('center_axis',(0.,1.,0.));
#616=DIRECTION('ref_axis',(-1.,0.,0.));
#617=DIRECTION('',(1.,0.,0.));
#618=DIRECTION('',(-1.,0.,0.));
#619=DIRECTION('',(0.,0.,1.));
#620=DIRECTION('center_axis',(0.,0.,1.));
#621=DIRECTION('ref_axis',(-8.35932630306002E-16,-1.,0.));
#622=DIRECTION('center_axis',(0.,0.,1.));
#623=DIRECTION('ref_axis',(-8.35932630306002E-16,-1.,0.));
#624=DIRECTION('center_axis',(0.,0.,-1.));
#625=DIRECTION('ref_axis',(-8.35932630306002E-16,-1.,0.));
#626=DIRECTION('',(0.,0.,1.));
#627=DIRECTION('center_axis',(0.,0.,1.));
#628=DIRECTION('ref_axis',(0.515078753637713,0.857142857142857,0.));
#629=DIRECTION('center_axis',(0.,0.,1.));
#630=DIRECTION('ref_axis',(0.515078753637713,0.857142857142857,0.));
#631=DIRECTION('center_axis',(0.,0.,1.));
#632=DIRECTION('ref_axis',(0.515078753637713,0.857142857142857,0.));
#633=DIRECTION('',(0.,0.,1.));
#634=DIRECTION('center_axis',(0.,0.,1.));
#635=DIRECTION('ref_axis',(-0.515078753637713,-0.857142857142857,0.));
#636=DIRECTION('center_axis',(0.,0.,1.));
#637=DIRECTION('ref_axis',(-0.515078753637713,-0.857142857142857,0.));
#638=DIRECTION('center_axis',(0.,0.,-1.));
#639=DIRECTION('ref_axis',(-0.515078753637713,-0.857142857142857,0.));
#640=DIRECTION('',(0.,0.,1.));
#641=DIRECTION('center_axis',(-1.86547385661329E-16,1.,0.));
#642=DIRECTION('ref_axis',(-1.,-1.86547385661329E-16,0.));
#643=DIRECTION('',(-1.,-1.86547385661329E-16,0.));
#644=DIRECTION('',(-1.,-1.86547385661329E-16,0.));
#645=DIRECTION('',(0.,0.,1.));
#646=DIRECTION('center_axis',(0.,0.,1.));
#647=DIRECTION('ref_axis',(0.968245836551854,0.25,0.));
#648=DIRECTION('center_axis',(0.,0.,1.));
#649=DIRECTION('ref_axis',(0.968245836551854,0.25,0.));
#650=DIRECTION('center_axis',(0.,0.,1.));
#651=DIRECTION('ref_axis',(0.968245836551854,0.25,0.));
#652=DIRECTION('',(0.,0.,1.));
#653=DIRECTION('center_axis',(0.,-1.,0.));
#654=DIRECTION('ref_axis',(1.,0.,0.));
#655=DIRECTION('',(-1.,0.,0.));
#656=DIRECTION('',(1.,0.,0.));
#657=DIRECTION('',(0.,0.,1.));
#658=DIRECTION('center_axis',(0.,0.,1.));
#659=DIRECTION('ref_axis',(-1.,1.77635683940025E-16,0.));
#660=DIRECTION('center_axis',(0.,0.,1.));
#661=DIRECTION('ref_axis',(0.916515138991168,0.4,0.));
#662=DIRECTION('center_axis',(0.,0.,-1.));
#663=DIRECTION('ref_axis',(0.916515138991168,0.4,0.));
#664=DIRECTION('',(0.,0.,1.));
#665=DIRECTION('center_axis',(0.,1.,0.));
#666=DIRECTION('ref_axis',(-1.,0.,0.));
#667=DIRECTION('',(-1.,0.,0.));
#668=DIRECTION('',(-1.,0.,0.));
#669=DIRECTION('',(0.,0.,1.));
#670=DIRECTION('center_axis',(0.,0.,1.));
#671=DIRECTION('ref_axis',(0.,-1.,0.));
#672=DIRECTION('center_axis',(0.,0.,1.));
#673=DIRECTION('ref_axis',(0.,-1.,0.));
#674=DIRECTION('center_axis',(0.,0.,1.));
#675=DIRECTION('ref_axis',(0.,-1.,0.));
#676=DIRECTION('center_axis',(0.,0.,1.));
#677=DIRECTION('ref_axis',(1.,0.,0.));
#678=DIRECTION('center_axis',(0.,0.,1.));
#679=DIRECTION('ref_axis',(1.,0.,0.));
#680=CARTESIAN_POINT('',(0.,0.,0.));
#681=CARTESIAN_POINT('Origin',(0.,0.,0.));
#682=CARTESIAN_POINT('',(-50.,-6.12323399573677E-15,10.));
#683=CARTESIAN_POINT('Origin',(0.,0.,10.));
#684=CARTESIAN_POINT('',(-50.,-6.12323399573677E-15,0.));
#685=CARTESIAN_POINT('',(-50.,-6.12323399573677E-15,0.));
#686=CARTESIAN_POINT('Origin',(0.,0.,0.));
#687=CARTESIAN_POINT('Origin',(0.,0.,10.));
#688=CARTESIAN_POINT('',(-67.8,-8.30310529821906E-15,10.));
#689=CARTESIAN_POINT('Origin',(0.,0.,10.));
#690=CARTESIAN_POINT('Origin',(0.,0.,0.));
#691=CARTESIAN_POINT('',(-67.8,-8.30310529821906E-15,20.));
#692=CARTESIAN_POINT('Origin',(0.,0.,20.));
#693=CARTESIAN_POINT('',(-67.8,-8.30310529821906E-15,0.));
#694=CARTESIAN_POINT('Origin',(126.19429464124,-40.,0.));
#695=CARTESIAN_POINT('',(150.,-40.,0.));
#696=CARTESIAN_POINT('',(126.19429464124,-40.,0.));
#697=CARTESIAN_POINT('',(150.,-40.,0.));
#698=CARTESIAN_POINT('',(150.,-40.,20.));
#699=CARTESIAN_POINT('',(150.,-40.,0.));
#700=CARTESIAN_POINT('',(126.19429464124,-40.,20.));
#701=CARTESIAN_POINT('',(150.,-40.,20.));
#702=CARTESIAN_POINT('',(126.19429464124,-40.,0.));
#703=CARTESIAN_POINT('Origin',(126.19429464124,-210.,0.));
#704=CARTESIAN_POINT('',(38.6309065228284,-64.2857142857143,0.));
#705=CARTESIAN_POINT('Origin',(126.19429464124,-210.,0.));
#706=CARTESIAN_POINT('',(38.6309065228284,-64.2857142857143,20.));
#707=CARTESIAN_POINT('Origin',(126.19429464124,-210.,20.));
#708=CARTESIAN_POINT('',(38.6309065228284,-64.2857142857143,0.));
#709=CARTESIAN_POINT('Origin',(0.,0.,0.));
#710=CARTESIAN_POINT('',(-38.6309065228284,-64.2857142857143,0.));
#711=CARTESIAN_POINT('Origin',(0.,0.,0.));
#712=CARTESIAN_POINT('',(-38.6309065228284,-64.2857142857143,20.));
#713=CARTESIAN_POINT('Origin',(0.,0.,20.));
#714=CARTESIAN_POINT('',(-38.6309065228284,-64.2857142857143,0.));
#715=CARTESIAN_POINT('Origin',(-126.19429464124,-210.,0.));
#716=CARTESIAN_POINT('',(-126.19429464124,-40.,0.));
#717=CARTESIAN_POINT('Origin',(-126.19429464124,-210.,0.));
#718=CARTESIAN_POINT('',(-126.19429464124,-40.,20.));
#719=CARTESIAN_POINT('Origin',(-126.19429464124,-210.,20.));
#720=CARTESIAN_POINT('',(-126.19429464124,-40.,0.));
#721=CARTESIAN_POINT('Origin',(-150.,-40.,0.));
#722=CARTESIAN_POINT('',(-150.,-40.,0.));
#723=CARTESIAN_POINT('',(-150.,-40.,0.));
#724=CARTESIAN_POINT('',(-150.,-40.,20.));
#725=CARTESIAN_POINT('',(-150.,-40.,20.));
#726=CARTESIAN_POINT('',(-150.,-40.,0.));
#727=CARTESIAN_POINT('Origin',(-150.,0.,0.));
#728=CARTESIAN_POINT('',(-188.729833462074,-10.,0.));
#729=CARTESIAN_POINT('Origin',(-150.,0.,0.));
#730=CARTESIAN_POINT('',(-188.729833462074,-10.,20.));
#731=CARTESIAN_POINT('Origin',(-150.,0.,20.));
#732=CARTESIAN_POINT('',(-188.729833462074,-10.,0.));
#733=CARTESIAN_POINT('Origin',(-172.912878474779,-10.,0.));
#734=CARTESIAN_POINT('',(-172.912878474779,-10.,0.));
#735=CARTESIAN_POINT('',(-172.912878474779,-10.,0.));
#736=CARTESIAN_POINT('',(-172.912878474779,-10.,20.));
#737=CARTESIAN_POINT('',(-172.912878474779,-10.,20.));
#738=CARTESIAN_POINT('',(-172.912878474779,-10.,0.));
#739=CARTESIAN_POINT('Origin',(-150.,0.,0.));
#740=CARTESIAN_POINT('',(-172.912878863099,9.99999911024753,0.));
#741=CARTESIAN_POINT('Origin',(-150.,0.,0.));
#742=CARTESIAN_POINT('',(-172.912878863099,9.99999911024753,20.));
#743=CARTESIAN_POINT('Origin',(-150.,0.,20.));
#744=CARTESIAN_POINT('',(-172.912878863099,9.99999911024753,0.));
#745=CARTESIAN_POINT('Origin',(-188.729833691807,9.99999911024753,0.));
#746=CARTESIAN_POINT('',(-188.729833691807,9.99999911024701,0.));
#747=CARTESIAN_POINT('',(-172.912878863099,9.99999911024753,0.));
#748=CARTESIAN_POINT('',(-188.729833691807,9.99999911024701,20.));
#749=CARTESIAN_POINT('',(-172.912878863099,9.99999911024753,20.));
#750=CARTESIAN_POINT('',(-188.729833691807,9.99999911024701,0.));
#751=CARTESIAN_POINT('Origin',(-150.,0.,0.));
#752=CARTESIAN_POINT('',(-150.,40.,0.));
#753=CARTESIAN_POINT('Origin',(-150.,0.,0.));
#754=CARTESIAN_POINT('',(-150.,40.,20.));
#755=CARTESIAN_POINT('Origin',(-150.,0.,20.));
#756=CARTESIAN_POINT('',(-150.,40.,0.));
#757=CARTESIAN_POINT('Origin',(-126.19429464124,40.,0.));
#758=CARTESIAN_POINT('',(-126.19429464124,40.,0.));
#759=CARTESIAN_POINT('',(-150.,40.,0.));
#760=CARTESIAN_POINT('',(-126.19429464124,40.,20.));
#761=CARTESIAN_POINT('',(-150.,40.,20.));
#762=CARTESIAN_POINT('',(-126.19429464124,40.,0.));
#763=CARTESIAN_POINT('Origin',(-126.19429464124,210.,0.));
#764=CARTESIAN_POINT('',(-38.6309065228285,64.2857142857143,0.));
#765=CARTESIAN_POINT('Origin',(-126.19429464124,210.,0.));
#766=CARTESIAN_POINT('',(-38.6309065228285,64.2857142857143,20.));
#767=CARTESIAN_POINT('Origin',(-126.19429464124,210.,20.));
#768=CARTESIAN_POINT('',(-38.6309065228285,64.2857142857143,0.));
#769=CARTESIAN_POINT('Origin',(0.,0.,0.));
#770=CARTESIAN_POINT('',(38.6309065228285,64.2857142857143,0.));
#771=CARTESIAN_POINT('Origin',(0.,0.,0.));
#772=CARTESIAN_POINT('',(38.6309065228285,64.2857142857143,20.));
#773=CARTESIAN_POINT('Origin',(0.,0.,20.));
#774=CARTESIAN_POINT('',(38.6309065228285,64.2857142857143,0.));
#775=CARTESIAN_POINT('Origin',(126.19429464124,210.,0.));
#776=CARTESIAN_POINT('',(126.19429464124,40.,0.));
#777=CARTESIAN_POINT('Origin',(126.19429464124,210.,0.));
#778=CARTESIAN_POINT('',(126.19429464124,40.,20.));
#779=CARTESIAN_POINT('Origin',(126.19429464124,210.,20.));
#780=CARTESIAN_POINT('',(126.19429464124,40.,0.));
#781=CARTESIAN_POINT('Origin',(150.,40.,0.));
#782=CARTESIAN_POINT('',(150.,40.,0.));
#783=CARTESIAN_POINT('',(150.,40.,0.));
#784=CARTESIAN_POINT('',(150.,40.,20.));
#785=CARTESIAN_POINT('',(150.,40.,20.));
#786=CARTESIAN_POINT('',(150.,40.,0.));
#787=CARTESIAN_POINT('Origin',(150.,0.,0.));
#788=CARTESIAN_POINT('',(188.729833462074,10.,0.));
#789=CARTESIAN_POINT('Origin',(150.,0.,0.));
#790=CARTESIAN_POINT('',(188.729833462074,10.,20.));
#791=CARTESIAN_POINT('Origin',(150.,0.,20.));
#792=CARTESIAN_POINT('',(188.729833462074,10.,0.));
#793=CARTESIAN_POINT('Origin',(172.912878474779,10.,0.));
#794=CARTESIAN_POINT('',(172.912878474779,10.,0.));
#795=CARTESIAN_POINT('',(188.729833462074,10.,0.));
#796=CARTESIAN_POINT('',(172.912878474779,10.,20.));
#797=CARTESIAN_POINT('',(188.729833462074,10.,20.));
#798=CARTESIAN_POINT('',(172.912878474779,10.,0.));
#799=CARTESIAN_POINT('Origin',(150.,0.,0.));
#800=CARTESIAN_POINT('',(172.912878474779,-10.,0.));
#801=CARTESIAN_POINT('Origin',(150.,0.,0.));
#802=CARTESIAN_POINT('',(172.912878474779,-10.,20.));
#803=CARTESIAN_POINT('Origin',(150.,0.,20.));
#804=CARTESIAN_POINT('',(172.912878474779,-10.,0.));
#805=CARTESIAN_POINT('Origin',(188.729833462074,-10.,0.));
#806=CARTESIAN_POINT('',(188.729833462074,-10.,0.));
#807=CARTESIAN_POINT('',(188.729833462074,-10.,0.));
#808=CARTESIAN_POINT('',(188.729833462074,-10.,20.));
#809=CARTESIAN_POINT('',(188.729833462074,-10.,20.));
#810=CARTESIAN_POINT('',(188.729833462074,-10.,0.));
#811=CARTESIAN_POINT('Origin',(150.,0.,0.));
#812=CARTESIAN_POINT('Origin',(150.,0.,0.));
#813=CARTESIAN_POINT('Origin',(150.,0.,20.));
#814=CARTESIAN_POINT('Origin',(-1.14867617639902E-7,8.88178419700125E-15,
20.));
#815=CARTESIAN_POINT('Origin',(-1.14867617639902E-7,8.88178419700125E-15,
0.));
#816=UNCERTAINTY_MEASURE_WITH_UNIT(LENGTH_MEASURE(0.01),#820,
'DISTANCE_ACCURACY_VALUE',
'Maximum model space distance between geometric entities at asserted c
onnectivities');
#817=UNCERTAINTY_MEASURE_WITH_UNIT(LENGTH_MEASURE(0.01),#820,
'DISTANCE_ACCURACY_VALUE',
'Maximum model space distance between geometric entities at asserted c
onnectivities');
#818=(
GEOMETRIC_REPRESENTATION_CONTEXT(3)
GLOBAL_UNCERTAINTY_ASSIGNED_CONTEXT((#816))
GLOBAL_UNIT_ASSIGNED_CONTEXT((#820,#822,#823))
REPRESENTATION_CONTEXT('','3D')
);
#819=(
GEOMETRIC_REPRESENTATION_CONTEXT(3)
GLOBAL_UNCERTAINTY_ASSIGNED_CONTEXT((#817))
GLOBAL_UNIT_ASSIGNED_CONTEXT((#820,#822,#823))
REPRESENTATION_CONTEXT('','3D')
);
#820=(
LENGTH_UNIT()
NAMED_UNIT(*)
SI_UNIT(.MILLI.,.METRE.)
);
#821=(
LENGTH_UNIT()
NAMED_UNIT(*)
SI_UNIT($,.METRE.)
);
#822=(
NAMED_UNIT(*)
PLANE_ANGLE_UNIT()
SI_UNIT($,.RADIAN.)
);
#823=(
NAMED_UNIT(*)
SI_UNIT($,.STERADIAN.)
SOLID_ANGLE_UNIT()
);
#824=SHAPE_DEFINITION_REPRESENTATION(#825,#826);
#825=PRODUCT_DEFINITION_SHAPE('',$,#828);
#826=SHAPE_REPRESENTATION('',(#480),#818);
#827=PRODUCT_DEFINITION_CONTEXT('part definition',#832,'design');
#828=PRODUCT_DEFINITION('2026-10-03-23-49-57-812','exercise 7',#829,#827);
#829=PRODUCT_DEFINITION_FORMATION('',$,#834);
#830=PRODUCT_RELATED_PRODUCT_CATEGORY('exercise 7','exercise 7',(#834));
#831=APPLICATION_PROTOCOL_DEFINITION('international standard',
'automotive_design',2009,#832);
#832=APPLICATION_CONTEXT(
'Core Data for Automotive Mechanical Design Process');
#833=PRODUCT_CONTEXT('part definition',#832,'mechanical');
#834=PRODUCT('2026-10-03-23-49-57-812','exercise 7',$,(#833));
#835=PRESENTATION_STYLE_ASSIGNMENT((#836));
#836=SURFACE_STYLE_USAGE(.BOTH.,#837);
#837=SURFACE_SIDE_STYLE('',(#838));
#838=SURFACE_STYLE_FILL_AREA(#839);
#839=FILL_AREA_STYLE('Steel - Satin',(#840));
#840=FILL_AREA_STYLE_COLOUR('Steel - Satin',#841);
#841=COLOUR_RGB('Steel - Satin',0.627450980392157,0.627450980392157,0.627450980392157);
ENDSEC;
END-ISO-10303-21;
