ISO-10303-21;
HEADER;
/* Generated by software containing ST-Developer
 * from STEP Tools, Inc. (www.steptools.com) 
 */

FILE_DESCRIPTION(
/* description */ (''),
/* implementation_level */ '2;1');

FILE_NAME(
/* name */ 'exercise 11.step',
/* time_stamp */ '2026-10-06T23:03:06+05:30',
/* author */ (''),
/* organization */ (''),
/* preprocessor_version */ 'ST-DEVELOPER v20.2',
/* originating_system */ 'Autodesk Translation Framework v15.15.0.0',
/* authorisation */ '');

FILE_SCHEMA (('AUTOMOTIVE_DESIGN { 1 0 10303 214 3 1 1 }'));
ENDSEC;

DATA;
#10=MECHANICAL_DESIGN_GEOMETRIC_PRESENTATION_REPRESENTATION('',(#13),#714);
#11=SHAPE_REPRESENTATION_RELATIONSHIP('SRR','None',#721,#12);
#12=ADVANCED_BREP_SHAPE_REPRESENTATION('',(#14),#713);
#13=STYLED_ITEM('',(#730),#14);
#14=MANIFOLD_SOLID_BREP('Body1',#418);
#15=FACE_BOUND('',#75,.T.);
#16=FACE_BOUND('',#76,.T.);
#17=FACE_BOUND('',#77,.T.);
#18=FACE_BOUND('',#78,.T.);
#19=FACE_BOUND('',#80,.T.);
#20=FACE_BOUND('',#81,.T.);
#21=FACE_BOUND('',#82,.T.);
#22=FACE_BOUND('',#83,.T.);
#23=PLANE('',#438);
#24=PLANE('',#442);
#25=PLANE('',#449);
#26=PLANE('',#453);
#27=PLANE('',#457);
#28=PLANE('',#461);
#29=PLANE('',#462);
#30=PLANE('',#466);
#31=PLANE('',#467);
#32=PLANE('',#471);
#33=PLANE('',#472);
#34=FACE_OUTER_BOUND('',#55,.T.);
#35=FACE_OUTER_BOUND('',#56,.T.);
#36=FACE_OUTER_BOUND('',#57,.T.);
#37=FACE_OUTER_BOUND('',#58,.T.);
#38=FACE_OUTER_BOUND('',#59,.T.);
#39=FACE_OUTER_BOUND('',#60,.T.);
#40=FACE_OUTER_BOUND('',#61,.T.);
#41=FACE_OUTER_BOUND('',#62,.T.);
#42=FACE_OUTER_BOUND('',#63,.T.);
#43=FACE_OUTER_BOUND('',#64,.T.);
#44=FACE_OUTER_BOUND('',#65,.T.);
#45=FACE_OUTER_BOUND('',#66,.T.);
#46=FACE_OUTER_BOUND('',#67,.T.);
#47=FACE_OUTER_BOUND('',#68,.T.);
#48=FACE_OUTER_BOUND('',#69,.T.);
#49=FACE_OUTER_BOUND('',#70,.T.);
#50=FACE_OUTER_BOUND('',#71,.T.);
#51=FACE_OUTER_BOUND('',#72,.T.);
#52=FACE_OUTER_BOUND('',#73,.T.);
#53=FACE_OUTER_BOUND('',#74,.T.);
#54=FACE_OUTER_BOUND('',#79,.T.);
#55=EDGE_LOOP('',(#273,#274,#275,#276));
#56=EDGE_LOOP('',(#277,#278,#279,#280));
#57=EDGE_LOOP('',(#281,#282,#283,#284));
#58=EDGE_LOOP('',(#285,#286,#287,#288));
#59=EDGE_LOOP('',(#289,#290,#291,#292));
#60=EDGE_LOOP('',(#293,#294,#295,#296));
#61=EDGE_LOOP('',(#297,#298,#299,#300));
#62=EDGE_LOOP('',(#301,#302,#303,#304));
#63=EDGE_LOOP('',(#305,#306,#307,#308));
#64=EDGE_LOOP('',(#309,#310,#311,#312));
#65=EDGE_LOOP('',(#313,#314,#315,#316));
#66=EDGE_LOOP('',(#317,#318,#319,#320));
#67=EDGE_LOOP('',(#321,#322,#323,#324));
#68=EDGE_LOOP('',(#325,#326,#327,#328));
#69=EDGE_LOOP('',(#329,#330,#331,#332));
#70=EDGE_LOOP('',(#333,#334,#335,#336));
#71=EDGE_LOOP('',(#337,#338,#339,#340));
#72=EDGE_LOOP('',(#341,#342,#343,#344));
#73=EDGE_LOOP('',(#345,#346,#347,#348));
#74=EDGE_LOOP('',(#349,#350,#351,#352,#353,#354,#355,#356,#357,#358,#359,
#360));
#75=EDGE_LOOP('',(#361));
#76=EDGE_LOOP('',(#362,#363,#364,#365));
#77=EDGE_LOOP('',(#366));
#78=EDGE_LOOP('',(#367));
#79=EDGE_LOOP('',(#368,#369,#370,#371,#372,#373,#374,#375,#376,#377,#378,
#379));
#80=EDGE_LOOP('',(#380));
#81=EDGE_LOOP('',(#381,#382,#383,#384));
#82=EDGE_LOOP('',(#385));
#83=EDGE_LOOP('',(#386));
#84=LINE('',#599,#121);
#85=LINE('',#605,#122);
#86=LINE('',#610,#123);
#87=LINE('',#612,#124);
#88=LINE('',#614,#125);
#89=LINE('',#615,#126);
#90=LINE('',#621,#127);
#91=LINE('',#624,#128);
#92=LINE('',#626,#129);
#93=LINE('',#627,#130);
#94=LINE('',#635,#131);
#95=LINE('',#640,#132);
#96=LINE('',#642,#133);
#97=LINE('',#644,#134);
#98=LINE('',#645,#135);
#99=LINE('',#651,#136);
#100=LINE('',#654,#137);
#101=LINE('',#656,#138);
#102=LINE('',#657,#139);
#103=LINE('',#663,#140);
#104=LINE('',#666,#141);
#105=LINE('',#668,#142);
#106=LINE('',#669,#143);
#107=LINE('',#675,#144);
#108=LINE('',#678,#145);
#109=LINE('',#680,#146);
#110=LINE('',#681,#147);
#111=LINE('',#684,#148);
#112=LINE('',#686,#149);
#113=LINE('',#687,#150);
#114=LINE('',#693,#151);
#115=LINE('',#696,#152);
#116=LINE('',#698,#153);
#117=LINE('',#699,#154);
#118=LINE('',#702,#155);
#119=LINE('',#704,#156);
#120=LINE('',#705,#157);
#121=VECTOR('',#479,10.);
#122=VECTOR('',#486,10.);
#123=VECTOR('',#491,10.);
#124=VECTOR('',#492,10.);
#125=VECTOR('',#493,10.);
#126=VECTOR('',#494,10.);
#127=VECTOR('',#501,10.);
#128=VECTOR('',#504,10.);
#129=VECTOR('',#505,10.);
#130=VECTOR('',#506,10.);
#131=VECTOR('',#517,10.);
#132=VECTOR('',#522,10.);
#133=VECTOR('',#523,10.);
#134=VECTOR('',#524,10.);
#135=VECTOR('',#525,10.);
#136=VECTOR('',#532,10.);
#137=VECTOR('',#535,10.);
#138=VECTOR('',#536,10.);
#139=VECTOR('',#537,10.);
#140=VECTOR('',#544,10.);
#141=VECTOR('',#547,10.);
#142=VECTOR('',#548,10.);
#143=VECTOR('',#549,10.);
#144=VECTOR('',#556,10.);
#145=VECTOR('',#559,10.);
#146=VECTOR('',#560,10.);
#147=VECTOR('',#561,10.);
#148=VECTOR('',#564,10.);
#149=VECTOR('',#565,10.);
#150=VECTOR('',#566,10.);
#151=VECTOR('',#573,10.);
#152=VECTOR('',#576,10.);
#153=VECTOR('',#577,10.);
#154=VECTOR('',#578,10.);
#155=VECTOR('',#581,10.);
#156=VECTOR('',#582,10.);
#157=VECTOR('',#583,10.);
#158=CIRCLE('',#433,10.);
#159=CIRCLE('',#434,10.);
#160=CIRCLE('',#436,10.);
#161=CIRCLE('',#437,10.);
#162=CIRCLE('',#440,7.5);
#163=CIRCLE('',#441,7.5);
#164=CIRCLE('',#444,7.5);
#165=CIRCLE('',#445,7.5);
#166=CIRCLE('',#447,10.);
#167=CIRCLE('',#448,10.);
#168=CIRCLE('',#451,15.);
#169=CIRCLE('',#452,15.);
#170=CIRCLE('',#455,15.);
#171=CIRCLE('',#456,15.);
#172=CIRCLE('',#459,15.);
#173=CIRCLE('',#460,15.);
#174=CIRCLE('',#464,15.);
#175=CIRCLE('',#465,15.);
#176=CIRCLE('',#469,15.);
#177=CIRCLE('',#470,15.);
#178=VERTEX_POINT('',#596);
#179=VERTEX_POINT('',#598);
#180=VERTEX_POINT('',#602);
#181=VERTEX_POINT('',#604);
#182=VERTEX_POINT('',#608);
#183=VERTEX_POINT('',#609);
#184=VERTEX_POINT('',#611);
#185=VERTEX_POINT('',#613);
#186=VERTEX_POINT('',#617);
#187=VERTEX_POINT('',#619);
#188=VERTEX_POINT('',#623);
#189=VERTEX_POINT('',#625);
#190=VERTEX_POINT('',#632);
#191=VERTEX_POINT('',#634);
#192=VERTEX_POINT('',#638);
#193=VERTEX_POINT('',#639);
#194=VERTEX_POINT('',#641);
#195=VERTEX_POINT('',#643);
#196=VERTEX_POINT('',#647);
#197=VERTEX_POINT('',#649);
#198=VERTEX_POINT('',#653);
#199=VERTEX_POINT('',#655);
#200=VERTEX_POINT('',#659);
#201=VERTEX_POINT('',#661);
#202=VERTEX_POINT('',#665);
#203=VERTEX_POINT('',#667);
#204=VERTEX_POINT('',#671);
#205=VERTEX_POINT('',#673);
#206=VERTEX_POINT('',#677);
#207=VERTEX_POINT('',#679);
#208=VERTEX_POINT('',#683);
#209=VERTEX_POINT('',#685);
#210=VERTEX_POINT('',#689);
#211=VERTEX_POINT('',#691);
#212=VERTEX_POINT('',#695);
#213=VERTEX_POINT('',#697);
#214=VERTEX_POINT('',#701);
#215=VERTEX_POINT('',#703);
#216=EDGE_CURVE('',#178,#178,#158,.T.);
#217=EDGE_CURVE('',#178,#179,#84,.T.);
#218=EDGE_CURVE('',#179,#179,#159,.T.);
#219=EDGE_CURVE('',#180,#180,#160,.T.);
#220=EDGE_CURVE('',#180,#181,#85,.T.);
#221=EDGE_CURVE('',#181,#181,#161,.T.);
#222=EDGE_CURVE('',#182,#183,#86,.T.);
#223=EDGE_CURVE('',#183,#184,#87,.T.);
#224=EDGE_CURVE('',#185,#184,#88,.T.);
#225=EDGE_CURVE('',#182,#185,#89,.T.);
#226=EDGE_CURVE('',#186,#182,#162,.T.);
#227=EDGE_CURVE('',#187,#185,#163,.T.);
#228=EDGE_CURVE('',#186,#187,#90,.T.);
#229=EDGE_CURVE('',#188,#186,#91,.T.);
#230=EDGE_CURVE('',#189,#187,#92,.T.);
#231=EDGE_CURVE('',#188,#189,#93,.T.);
#232=EDGE_CURVE('',#183,#188,#164,.T.);
#233=EDGE_CURVE('',#184,#189,#165,.T.);
#234=EDGE_CURVE('',#190,#190,#166,.T.);
#235=EDGE_CURVE('',#190,#191,#94,.T.);
#236=EDGE_CURVE('',#191,#191,#167,.T.);
#237=EDGE_CURVE('',#192,#193,#95,.T.);
#238=EDGE_CURVE('',#192,#194,#96,.T.);
#239=EDGE_CURVE('',#195,#194,#97,.T.);
#240=EDGE_CURVE('',#193,#195,#98,.T.);
#241=EDGE_CURVE('',#196,#193,#168,.T.);
#242=EDGE_CURVE('',#197,#195,#169,.T.);
#243=EDGE_CURVE('',#196,#197,#99,.T.);
#244=EDGE_CURVE('',#198,#196,#100,.T.);
#245=EDGE_CURVE('',#199,#197,#101,.T.);
#246=EDGE_CURVE('',#198,#199,#102,.T.);
#247=EDGE_CURVE('',#200,#198,#170,.T.);
#248=EDGE_CURVE('',#201,#199,#171,.T.);
#249=EDGE_CURVE('',#200,#201,#103,.T.);
#250=EDGE_CURVE('',#202,#200,#104,.T.);
#251=EDGE_CURVE('',#203,#201,#105,.T.);
#252=EDGE_CURVE('',#202,#203,#106,.T.);
#253=EDGE_CURVE('',#204,#202,#172,.T.);
#254=EDGE_CURVE('',#205,#203,#173,.T.);
#255=EDGE_CURVE('',#204,#205,#107,.T.);
#256=EDGE_CURVE('',#204,#206,#108,.T.);
#257=EDGE_CURVE('',#207,#205,#109,.T.);
#258=EDGE_CURVE('',#206,#207,#110,.T.);
#259=EDGE_CURVE('',#208,#206,#111,.T.);
#260=EDGE_CURVE('',#209,#207,#112,.T.);
#261=EDGE_CURVE('',#208,#209,#113,.T.);
#262=EDGE_CURVE('',#210,#208,#174,.T.);
#263=EDGE_CURVE('',#211,#209,#175,.T.);
#264=EDGE_CURVE('',#210,#211,#114,.T.);
#265=EDGE_CURVE('',#210,#212,#115,.T.);
#266=EDGE_CURVE('',#213,#211,#116,.T.);
#267=EDGE_CURVE('',#212,#213,#117,.T.);
#268=EDGE_CURVE('',#214,#212,#118,.T.);
#269=EDGE_CURVE('',#215,#213,#119,.T.);
#270=EDGE_CURVE('',#214,#215,#120,.T.);
#271=EDGE_CURVE('',#192,#214,#176,.T.);
#272=EDGE_CURVE('',#194,#215,#177,.T.);
#273=ORIENTED_EDGE('',*,*,#216,.F.);
#274=ORIENTED_EDGE('',*,*,#217,.T.);
#275=ORIENTED_EDGE('',*,*,#218,.T.);
#276=ORIENTED_EDGE('',*,*,#217,.F.);
#277=ORIENTED_EDGE('',*,*,#219,.F.);
#278=ORIENTED_EDGE('',*,*,#220,.T.);
#279=ORIENTED_EDGE('',*,*,#221,.T.);
#280=ORIENTED_EDGE('',*,*,#220,.F.);
#281=ORIENTED_EDGE('',*,*,#222,.T.);
#282=ORIENTED_EDGE('',*,*,#223,.T.);
#283=ORIENTED_EDGE('',*,*,#224,.F.);
#284=ORIENTED_EDGE('',*,*,#225,.F.);
#285=ORIENTED_EDGE('',*,*,#226,.T.);
#286=ORIENTED_EDGE('',*,*,#225,.T.);
#287=ORIENTED_EDGE('',*,*,#227,.F.);
#288=ORIENTED_EDGE('',*,*,#228,.F.);
#289=ORIENTED_EDGE('',*,*,#229,.T.);
#290=ORIENTED_EDGE('',*,*,#228,.T.);
#291=ORIENTED_EDGE('',*,*,#230,.F.);
#292=ORIENTED_EDGE('',*,*,#231,.F.);
#293=ORIENTED_EDGE('',*,*,#232,.T.);
#294=ORIENTED_EDGE('',*,*,#231,.T.);
#295=ORIENTED_EDGE('',*,*,#233,.F.);
#296=ORIENTED_EDGE('',*,*,#223,.F.);
#297=ORIENTED_EDGE('',*,*,#234,.F.);
#298=ORIENTED_EDGE('',*,*,#235,.T.);
#299=ORIENTED_EDGE('',*,*,#236,.T.);
#300=ORIENTED_EDGE('',*,*,#235,.F.);
#301=ORIENTED_EDGE('',*,*,#237,.F.);
#302=ORIENTED_EDGE('',*,*,#238,.T.);
#303=ORIENTED_EDGE('',*,*,#239,.F.);
#304=ORIENTED_EDGE('',*,*,#240,.F.);
#305=ORIENTED_EDGE('',*,*,#241,.T.);
#306=ORIENTED_EDGE('',*,*,#240,.T.);
#307=ORIENTED_EDGE('',*,*,#242,.F.);
#308=ORIENTED_EDGE('',*,*,#243,.F.);
#309=ORIENTED_EDGE('',*,*,#244,.T.);
#310=ORIENTED_EDGE('',*,*,#243,.T.);
#311=ORIENTED_EDGE('',*,*,#245,.F.);
#312=ORIENTED_EDGE('',*,*,#246,.F.);
#313=ORIENTED_EDGE('',*,*,#247,.T.);
#314=ORIENTED_EDGE('',*,*,#246,.T.);
#315=ORIENTED_EDGE('',*,*,#248,.F.);
#316=ORIENTED_EDGE('',*,*,#249,.F.);
#317=ORIENTED_EDGE('',*,*,#250,.T.);
#318=ORIENTED_EDGE('',*,*,#249,.T.);
#319=ORIENTED_EDGE('',*,*,#251,.F.);
#320=ORIENTED_EDGE('',*,*,#252,.F.);
#321=ORIENTED_EDGE('',*,*,#253,.T.);
#322=ORIENTED_EDGE('',*,*,#252,.T.);
#323=ORIENTED_EDGE('',*,*,#254,.F.);
#324=ORIENTED_EDGE('',*,*,#255,.F.);
#325=ORIENTED_EDGE('',*,*,#256,.F.);
#326=ORIENTED_EDGE('',*,*,#255,.T.);
#327=ORIENTED_EDGE('',*,*,#257,.F.);
#328=ORIENTED_EDGE('',*,*,#258,.F.);
#329=ORIENTED_EDGE('',*,*,#259,.T.);
#330=ORIENTED_EDGE('',*,*,#258,.T.);
#331=ORIENTED_EDGE('',*,*,#260,.F.);
#332=ORIENTED_EDGE('',*,*,#261,.F.);
#333=ORIENTED_EDGE('',*,*,#262,.T.);
#334=ORIENTED_EDGE('',*,*,#261,.T.);
#335=ORIENTED_EDGE('',*,*,#263,.F.);
#336=ORIENTED_EDGE('',*,*,#264,.F.);
#337=ORIENTED_EDGE('',*,*,#265,.F.);
#338=ORIENTED_EDGE('',*,*,#264,.T.);
#339=ORIENTED_EDGE('',*,*,#266,.F.);
#340=ORIENTED_EDGE('',*,*,#267,.F.);
#341=ORIENTED_EDGE('',*,*,#268,.T.);
#342=ORIENTED_EDGE('',*,*,#267,.T.);
#343=ORIENTED_EDGE('',*,*,#269,.F.);
#344=ORIENTED_EDGE('',*,*,#270,.F.);
#345=ORIENTED_EDGE('',*,*,#271,.T.);
#346=ORIENTED_EDGE('',*,*,#270,.T.);
#347=ORIENTED_EDGE('',*,*,#272,.F.);
#348=ORIENTED_EDGE('',*,*,#238,.F.);
#349=ORIENTED_EDGE('',*,*,#272,.T.);
#350=ORIENTED_EDGE('',*,*,#269,.T.);
#351=ORIENTED_EDGE('',*,*,#266,.T.);
#352=ORIENTED_EDGE('',*,*,#263,.T.);
#353=ORIENTED_EDGE('',*,*,#260,.T.);
#354=ORIENTED_EDGE('',*,*,#257,.T.);
#355=ORIENTED_EDGE('',*,*,#254,.T.);
#356=ORIENTED_EDGE('',*,*,#251,.T.);
#357=ORIENTED_EDGE('',*,*,#248,.T.);
#358=ORIENTED_EDGE('',*,*,#245,.T.);
#359=ORIENTED_EDGE('',*,*,#242,.T.);
#360=ORIENTED_EDGE('',*,*,#239,.T.);
#361=ORIENTED_EDGE('',*,*,#234,.T.);
#362=ORIENTED_EDGE('',*,*,#233,.T.);
#363=ORIENTED_EDGE('',*,*,#230,.T.);
#364=ORIENTED_EDGE('',*,*,#227,.T.);
#365=ORIENTED_EDGE('',*,*,#224,.T.);
#366=ORIENTED_EDGE('',*,*,#219,.T.);
#367=ORIENTED_EDGE('',*,*,#216,.T.);
#368=ORIENTED_EDGE('',*,*,#271,.F.);
#369=ORIENTED_EDGE('',*,*,#237,.T.);
#370=ORIENTED_EDGE('',*,*,#241,.F.);
#371=ORIENTED_EDGE('',*,*,#244,.F.);
#372=ORIENTED_EDGE('',*,*,#247,.F.);
#373=ORIENTED_EDGE('',*,*,#250,.F.);
#374=ORIENTED_EDGE('',*,*,#253,.F.);
#375=ORIENTED_EDGE('',*,*,#256,.T.);
#376=ORIENTED_EDGE('',*,*,#259,.F.);
#377=ORIENTED_EDGE('',*,*,#262,.F.);
#378=ORIENTED_EDGE('',*,*,#265,.T.);
#379=ORIENTED_EDGE('',*,*,#268,.F.);
#380=ORIENTED_EDGE('',*,*,#236,.F.);
#381=ORIENTED_EDGE('',*,*,#232,.F.);
#382=ORIENTED_EDGE('',*,*,#222,.F.);
#383=ORIENTED_EDGE('',*,*,#226,.F.);
#384=ORIENTED_EDGE('',*,*,#229,.F.);
#385=ORIENTED_EDGE('',*,*,#221,.F.);
#386=ORIENTED_EDGE('',*,*,#218,.F.);
#387=CYLINDRICAL_SURFACE('',#432,10.);
#388=CYLINDRICAL_SURFACE('',#435,10.);
#389=CYLINDRICAL_SURFACE('',#439,7.5);
#390=CYLINDRICAL_SURFACE('',#443,7.5);
#391=CYLINDRICAL_SURFACE('',#446,10.);
#392=CYLINDRICAL_SURFACE('',#450,15.);
#393=CYLINDRICAL_SURFACE('',#454,15.);
#394=CYLINDRICAL_SURFACE('',#458,15.);
#395=CYLINDRICAL_SURFACE('',#463,15.);
#396=CYLINDRICAL_SURFACE('',#468,15.);
#397=ADVANCED_FACE('',(#34),#387,.F.);
#398=ADVANCED_FACE('',(#35),#388,.F.);
#399=ADVANCED_FACE('',(#36),#23,.T.);
#400=ADVANCED_FACE('',(#37),#389,.F.);
#401=ADVANCED_FACE('',(#38),#24,.T.);
#402=ADVANCED_FACE('',(#39),#390,.F.);
#403=ADVANCED_FACE('',(#40),#391,.F.);
#404=ADVANCED_FACE('',(#41),#25,.T.);
#405=ADVANCED_FACE('',(#42),#392,.T.);
#406=ADVANCED_FACE('',(#43),#26,.T.);
#407=ADVANCED_FACE('',(#44),#393,.T.);
#408=ADVANCED_FACE('',(#45),#27,.T.);
#409=ADVANCED_FACE('',(#46),#394,.T.);
#410=ADVANCED_FACE('',(#47),#28,.T.);
#411=ADVANCED_FACE('',(#48),#29,.T.);
#412=ADVANCED_FACE('',(#49),#395,.T.);
#413=ADVANCED_FACE('',(#50),#30,.T.);
#414=ADVANCED_FACE('',(#51),#31,.T.);
#415=ADVANCED_FACE('',(#52),#396,.T.);
#416=ADVANCED_FACE('',(#53,#15,#16,#17,#18),#32,.T.);
#417=ADVANCED_FACE('',(#54,#19,#20,#21,#22),#33,.F.);
#418=CLOSED_SHELL('',(#397,#398,#399,#400,#401,#402,#403,#404,#405,#406,
#407,#408,#409,#410,#411,#412,#413,#414,#415,#416,#417));
#419=DERIVED_UNIT_ELEMENT(#421,1.);
#420=DERIVED_UNIT_ELEMENT(#716,-3.);
#421=(
MASS_UNIT()
NAMED_UNIT(*)
SI_UNIT(.KILO.,.GRAM.)
);
#422=DERIVED_UNIT((#419,#420));
#423=MEASURE_REPRESENTATION_ITEM('density measure',
POSITIVE_RATIO_MEASURE(7850.),#422);
#424=PROPERTY_DEFINITION_REPRESENTATION(#429,#426);
#425=PROPERTY_DEFINITION_REPRESENTATION(#430,#427);
#426=REPRESENTATION('material name',(#428),#713);
#427=REPRESENTATION('density',(#423),#713);
#428=DESCRIPTIVE_REPRESENTATION_ITEM('Steel','Steel');
#429=PROPERTY_DEFINITION('material property','material name',#723);
#430=PROPERTY_DEFINITION('material property','density of part',#723);
#431=AXIS2_PLACEMENT_3D('',#594,#473,#474);
#432=AXIS2_PLACEMENT_3D('',#595,#475,#476);
#433=AXIS2_PLACEMENT_3D('',#597,#477,#478);
#434=AXIS2_PLACEMENT_3D('',#600,#480,#481);
#435=AXIS2_PLACEMENT_3D('',#601,#482,#483);
#436=AXIS2_PLACEMENT_3D('',#603,#484,#485);
#437=AXIS2_PLACEMENT_3D('',#606,#487,#488);
#438=AXIS2_PLACEMENT_3D('',#607,#489,#490);
#439=AXIS2_PLACEMENT_3D('',#616,#495,#496);
#440=AXIS2_PLACEMENT_3D('',#618,#497,#498);
#441=AXIS2_PLACEMENT_3D('',#620,#499,#500);
#442=AXIS2_PLACEMENT_3D('',#622,#502,#503);
#443=AXIS2_PLACEMENT_3D('',#628,#507,#508);
#444=AXIS2_PLACEMENT_3D('',#629,#509,#510);
#445=AXIS2_PLACEMENT_3D('',#630,#511,#512);
#446=AXIS2_PLACEMENT_3D('',#631,#513,#514);
#447=AXIS2_PLACEMENT_3D('',#633,#515,#516);
#448=AXIS2_PLACEMENT_3D('',#636,#518,#519);
#449=AXIS2_PLACEMENT_3D('',#637,#520,#521);
#450=AXIS2_PLACEMENT_3D('',#646,#526,#527);
#451=AXIS2_PLACEMENT_3D('',#648,#528,#529);
#452=AXIS2_PLACEMENT_3D('',#650,#530,#531);
#453=AXIS2_PLACEMENT_3D('',#652,#533,#534);
#454=AXIS2_PLACEMENT_3D('',#658,#538,#539);
#455=AXIS2_PLACEMENT_3D('',#660,#540,#541);
#456=AXIS2_PLACEMENT_3D('',#662,#542,#543);
#457=AXIS2_PLACEMENT_3D('',#664,#545,#546);
#458=AXIS2_PLACEMENT_3D('',#670,#550,#551);
#459=AXIS2_PLACEMENT_3D('',#672,#552,#553);
#460=AXIS2_PLACEMENT_3D('',#674,#554,#555);
#461=AXIS2_PLACEMENT_3D('',#676,#557,#558);
#462=AXIS2_PLACEMENT_3D('',#682,#562,#563);
#463=AXIS2_PLACEMENT_3D('',#688,#567,#568);
#464=AXIS2_PLACEMENT_3D('',#690,#569,#570);
#465=AXIS2_PLACEMENT_3D('',#692,#571,#572);
#466=AXIS2_PLACEMENT_3D('',#694,#574,#575);
#467=AXIS2_PLACEMENT_3D('',#700,#579,#580);
#468=AXIS2_PLACEMENT_3D('',#706,#584,#585);
#469=AXIS2_PLACEMENT_3D('',#707,#586,#587);
#470=AXIS2_PLACEMENT_3D('',#708,#588,#589);
#471=AXIS2_PLACEMENT_3D('',#709,#590,#591);
#472=AXIS2_PLACEMENT_3D('',#710,#592,#593);
#473=DIRECTION('axis',(0.,0.,1.));
#474=DIRECTION('refdir',(1.,0.,0.));
#475=DIRECTION('center_axis',(0.,1.,0.));
#476=DIRECTION('ref_axis',(1.,0.,0.));
#477=DIRECTION('center_axis',(0.,-1.,0.));
#478=DIRECTION('ref_axis',(1.,0.,0.));
#479=DIRECTION('',(0.,-1.,0.));
#480=DIRECTION('center_axis',(0.,-1.,0.));
#481=DIRECTION('ref_axis',(1.,0.,0.));
#482=DIRECTION('center_axis',(0.,1.,0.));
#483=DIRECTION('ref_axis',(1.,0.,0.));
#484=DIRECTION('center_axis',(0.,-1.,0.));
#485=DIRECTION('ref_axis',(1.,0.,0.));
#486=DIRECTION('',(0.,-1.,0.));
#487=DIRECTION('center_axis',(0.,-1.,0.));
#488=DIRECTION('ref_axis',(1.,0.,0.));
#489=DIRECTION('center_axis',(1.,0.,0.));
#490=DIRECTION('ref_axis',(0.,0.,-1.));
#491=DIRECTION('',(0.,0.,-1.));
#492=DIRECTION('',(0.,1.,0.));
#493=DIRECTION('',(0.,0.,-1.));
#494=DIRECTION('',(0.,1.,0.));
#495=DIRECTION('center_axis',(0.,1.,0.));
#496=DIRECTION('ref_axis',(-1.,0.,0.));
#497=DIRECTION('center_axis',(0.,-1.,0.));
#498=DIRECTION('ref_axis',(-1.,0.,0.));
#499=DIRECTION('center_axis',(0.,-1.,0.));
#500=DIRECTION('ref_axis',(-1.,0.,0.));
#501=DIRECTION('',(0.,1.,0.));
#502=DIRECTION('center_axis',(-1.,0.,0.));
#503=DIRECTION('ref_axis',(0.,0.,1.));
#504=DIRECTION('',(0.,0.,1.));
#505=DIRECTION('',(0.,0.,1.));
#506=DIRECTION('',(0.,1.,0.));
#507=DIRECTION('center_axis',(0.,1.,0.));
#508=DIRECTION('ref_axis',(1.,0.,0.));
#509=DIRECTION('center_axis',(0.,-1.,0.));
#510=DIRECTION('ref_axis',(1.,0.,0.));
#511=DIRECTION('center_axis',(0.,-1.,0.));
#512=DIRECTION('ref_axis',(1.,0.,0.));
#513=DIRECTION('center_axis',(0.,1.,0.));
#514=DIRECTION('ref_axis',(1.,0.,0.));
#515=DIRECTION('center_axis',(0.,-1.,0.));
#516=DIRECTION('ref_axis',(1.,0.,0.));
#517=DIRECTION('',(0.,-1.,0.));
#518=DIRECTION('center_axis',(0.,-1.,0.));
#519=DIRECTION('ref_axis',(1.,0.,0.));
#520=DIRECTION('center_axis',(-0.999996449578472,0.,-0.00266473834564194));
#521=DIRECTION('ref_axis',(-0.00266473834564194,0.,0.999996449578472));
#522=DIRECTION('',(0.00266473834564194,0.,-0.999996449578472));
#523=DIRECTION('',(0.,1.,0.));
#524=DIRECTION('',(-0.00266473834564194,0.,0.999996449578472));
#525=DIRECTION('',(0.,1.,0.));
#526=DIRECTION('center_axis',(0.,1.,0.));
#527=DIRECTION('ref_axis',(-1.,0.,0.));
#528=DIRECTION('center_axis',(0.,1.,0.));
#529=DIRECTION('ref_axis',(-1.,0.,0.));
#530=DIRECTION('center_axis',(0.,1.,0.));
#531=DIRECTION('ref_axis',(-1.,0.,0.));
#532=DIRECTION('',(0.,1.,0.));
#533=DIRECTION('center_axis',(-1.,0.,0.));
#534=DIRECTION('ref_axis',(0.,0.,1.));
#535=DIRECTION('',(0.,0.,1.));
#536=DIRECTION('',(0.,0.,1.));
#537=DIRECTION('',(0.,1.,0.));
#538=DIRECTION('center_axis',(0.,1.,0.));
#539=DIRECTION('ref_axis',(0.33128104468945,0.,-0.943532124217012));
#540=DIRECTION('center_axis',(0.,1.,0.));
#541=DIRECTION('ref_axis',(0.33128104468945,0.,-0.943532124217012));
#542=DIRECTION('center_axis',(0.,1.,0.));
#543=DIRECTION('ref_axis',(0.33128104468945,0.,-0.943532124217012));
#544=DIRECTION('',(0.,1.,0.));
#545=DIRECTION('center_axis',(-0.999995972773552,0.,-0.00283803394579969));
#546=DIRECTION('ref_axis',(-0.00283803394579969,0.,0.999995972773552));
#547=DIRECTION('',(-0.00283803394579969,0.,0.999995972773552));
#548=DIRECTION('',(-0.00283803394579969,0.,0.999995972773552));
#549=DIRECTION('',(0.,1.,0.));
#550=DIRECTION('center_axis',(0.,1.,0.));
#551=DIRECTION('ref_axis',(7.46393687596954E-15,0.,-1.));
#552=DIRECTION('center_axis',(0.,1.,0.));
#553=DIRECTION('ref_axis',(0.999954081164897,0.,0.00958308727216315));
#554=DIRECTION('center_axis',(0.,1.,0.));
#555=DIRECTION('ref_axis',(0.999954081164897,0.,0.00958308727216315));
#556=DIRECTION('',(0.,1.,0.));
#557=DIRECTION('center_axis',(0.999988520225332,0.,0.00479159864257294));
#558=DIRECTION('ref_axis',(0.00479159864257294,0.,-0.999988520225332));
#559=DIRECTION('',(-0.00479159864257294,0.,0.999988520225332));
#560=DIRECTION('',(0.00479159864257294,0.,-0.999988520225332));
#561=DIRECTION('',(0.,1.,0.));
#562=DIRECTION('center_axis',(0.,0.,-1.));
#563=DIRECTION('ref_axis',(-1.,0.,0.));
#564=DIRECTION('',(-1.,0.,0.));
#565=DIRECTION('',(-1.,0.,0.));
#566=DIRECTION('',(0.,1.,0.));
#567=DIRECTION('center_axis',(0.,1.,0.));
#568=DIRECTION('ref_axis',(0.,0.,1.));
#569=DIRECTION('center_axis',(0.,1.,0.));
#570=DIRECTION('ref_axis',(0.,0.,1.));
#571=DIRECTION('center_axis',(0.,1.,0.));
#572=DIRECTION('ref_axis',(0.,0.,1.));
#573=DIRECTION('',(0.,1.,0.));
#574=DIRECTION('center_axis',(0.,0.,1.));
#575=DIRECTION('ref_axis',(1.,0.,0.));
#576=DIRECTION('',(-1.,0.,0.));
#577=DIRECTION('',(1.,0.,0.));
#578=DIRECTION('',(0.,1.,0.));
#579=DIRECTION('center_axis',(1.,0.,0.));
#580=DIRECTION('ref_axis',(0.,0.,-1.));
#581=DIRECTION('',(0.,0.,-1.));
#582=DIRECTION('',(0.,0.,-1.));
#583=DIRECTION('',(0.,1.,0.));
#584=DIRECTION('center_axis',(0.,1.,0.));
#585=DIRECTION('ref_axis',(-0.0013323703554413,0.,0.999999112394224));
#586=DIRECTION('center_axis',(0.,1.,0.));
#587=DIRECTION('ref_axis',(-0.999996449578472,0.,-0.00266473834564174));
#588=DIRECTION('center_axis',(0.,1.,0.));
#589=DIRECTION('ref_axis',(-0.999996449578472,0.,-0.00266473834564174));
#590=DIRECTION('center_axis',(0.,1.,0.));
#591=DIRECTION('ref_axis',(1.,0.,0.));
#592=DIRECTION('center_axis',(0.,1.,0.));
#593=DIRECTION('ref_axis',(1.,0.,0.));
#594=CARTESIAN_POINT('',(0.,0.,0.));
#595=CARTESIAN_POINT('Origin',(-0.19672001209056,0.,80.));
#596=CARTESIAN_POINT('',(-10.1967200120906,20.,80.));
#597=CARTESIAN_POINT('Origin',(-0.19672001209056,20.,80.));
#598=CARTESIAN_POINT('',(-10.1967200120906,0.,80.));
#599=CARTESIAN_POINT('',(-10.1967200120906,0.,80.));
#600=CARTESIAN_POINT('Origin',(-0.19672001209056,0.,80.));
#601=CARTESIAN_POINT('Origin',(70.,0.,40.));
#602=CARTESIAN_POINT('',(60.,20.,40.));
#603=CARTESIAN_POINT('Origin',(70.,20.,40.));
#604=CARTESIAN_POINT('',(60.,0.,40.));
#605=CARTESIAN_POINT('',(60.,0.,40.));
#606=CARTESIAN_POINT('Origin',(70.,0.,40.));
#607=CARTESIAN_POINT('Origin',(-27.5,0.,50.));
#608=CARTESIAN_POINT('',(-27.5,0.,50.));
#609=CARTESIAN_POINT('',(-27.5,0.,30.));
#610=CARTESIAN_POINT('',(-27.5,0.,30.));
#611=CARTESIAN_POINT('',(-27.5,20.,30.));
#612=CARTESIAN_POINT('',(-27.5,0.,30.));
#613=CARTESIAN_POINT('',(-27.5,20.,50.));
#614=CARTESIAN_POINT('',(-27.5,20.,30.));
#615=CARTESIAN_POINT('',(-27.5,0.,50.));
#616=CARTESIAN_POINT('Origin',(-20.,0.,50.));
#617=CARTESIAN_POINT('',(-12.5,0.,50.));
#618=CARTESIAN_POINT('Origin',(-20.,0.,50.));
#619=CARTESIAN_POINT('',(-12.5,20.,50.));
#620=CARTESIAN_POINT('Origin',(-20.,20.,50.));
#621=CARTESIAN_POINT('',(-12.5,0.,50.));
#622=CARTESIAN_POINT('Origin',(-12.5,0.,30.));
#623=CARTESIAN_POINT('',(-12.5,0.,30.));
#624=CARTESIAN_POINT('',(-12.5,0.,50.));
#625=CARTESIAN_POINT('',(-12.5,20.,30.));
#626=CARTESIAN_POINT('',(-12.5,20.,50.));
#627=CARTESIAN_POINT('',(-12.5,0.,30.));
#628=CARTESIAN_POINT('Origin',(-20.,0.,30.));
#629=CARTESIAN_POINT('Origin',(-20.,0.,30.));
#630=CARTESIAN_POINT('Origin',(-20.,20.,30.));
#631=CARTESIAN_POINT('Origin',(0.,0.,0.));
#632=CARTESIAN_POINT('',(-10.,20.,1.22464679914735E-15));
#633=CARTESIAN_POINT('Origin',(0.,20.,0.));
#634=CARTESIAN_POINT('',(-10.,0.,1.22464679914735E-15));
#635=CARTESIAN_POINT('',(-10.,0.,1.22464679914735E-15));
#636=CARTESIAN_POINT('Origin',(0.,0.,0.));
#637=CARTESIAN_POINT('Origin',(-15.1679950927574,0.,69.2004129720365));
#638=CARTESIAN_POINT('',(-15.1966667557676,0.,79.9600289248154));
#639=CARTESIAN_POINT('',(-15.1679950927574,0.,69.2004129720365));
#640=CARTESIAN_POINT('',(-15.1966667557676,0.,79.9600289248154));
#641=CARTESIAN_POINT('',(-15.1966667557676,20.,79.9600289248154));
#642=CARTESIAN_POINT('',(-15.1966667557676,0.,79.9600289248154));
#643=CARTESIAN_POINT('',(-15.1679950927574,20.,69.2004129720365));
#644=CARTESIAN_POINT('',(-15.1966667557676,20.,79.9600289248154));
#645=CARTESIAN_POINT('',(-15.1679950927574,0.,69.2004129720365));
#646=CARTESIAN_POINT('Origin',(-20.,0.,55.));
#647=CARTESIAN_POINT('',(-35.,0.,55.));
#648=CARTESIAN_POINT('Origin',(-20.,0.,55.));
#649=CARTESIAN_POINT('',(-35.,20.,55.));
#650=CARTESIAN_POINT('Origin',(-20.,20.,55.));
#651=CARTESIAN_POINT('',(-35.,0.,55.));
#652=CARTESIAN_POINT('Origin',(-35.,0.,25.));
#653=CARTESIAN_POINT('',(-35.,0.,25.));
#654=CARTESIAN_POINT('',(-35.,0.,25.));
#655=CARTESIAN_POINT('',(-35.,20.,25.));
#656=CARTESIAN_POINT('',(-35.,20.,25.));
#657=CARTESIAN_POINT('',(-35.,0.,25.));
#658=CARTESIAN_POINT('Origin',(-20.,0.,25.));
#659=CARTESIAN_POINT('',(-15.0307843296583,0.,10.8470181367448));
#660=CARTESIAN_POINT('Origin',(-20.,0.,25.));
#661=CARTESIAN_POINT('',(-15.0307843296583,20.,10.8470181367448));
#662=CARTESIAN_POINT('Origin',(-20.,20.,25.));
#663=CARTESIAN_POINT('',(-15.0307843296583,0.,10.8470181367448));
#664=CARTESIAN_POINT('Origin',(-15.,0.,0.));
#665=CARTESIAN_POINT('',(-15.,0.,-2.19459866945826E-13));
#666=CARTESIAN_POINT('',(-15.,0.,0.));
#667=CARTESIAN_POINT('',(-15.,20.,-2.19459866945826E-13));
#668=CARTESIAN_POINT('',(-15.,20.,0.));
#669=CARTESIAN_POINT('',(-15.,0.,-2.19459866945826E-13));
#670=CARTESIAN_POINT('Origin',(0.,0.,0.));
#671=CARTESIAN_POINT('',(15.,0.,0.));
#672=CARTESIAN_POINT('Origin',(0.,0.,0.));
#673=CARTESIAN_POINT('',(15.,20.,0.));
#674=CARTESIAN_POINT('Origin',(0.,20.,0.));
#675=CARTESIAN_POINT('',(15.,0.,0.));
#676=CARTESIAN_POINT('Origin',(14.8802086587581,0.,25.));
#677=CARTESIAN_POINT('',(14.8802086587581,0.,25.));
#678=CARTESIAN_POINT('',(15.,0.,0.));
#679=CARTESIAN_POINT('',(14.8802086587581,20.,25.));
#680=CARTESIAN_POINT('',(15.,20.,0.));
#681=CARTESIAN_POINT('',(14.8802086587581,0.,25.));
#682=CARTESIAN_POINT('Origin',(70.,0.,25.));
#683=CARTESIAN_POINT('',(70.,0.,25.));
#684=CARTESIAN_POINT('',(70.,0.,25.));
#685=CARTESIAN_POINT('',(70.,20.,25.));
#686=CARTESIAN_POINT('',(70.,20.,25.));
#687=CARTESIAN_POINT('',(70.,0.,25.));
#688=CARTESIAN_POINT('Origin',(70.,0.,40.));
#689=CARTESIAN_POINT('',(70.,0.,55.));
#690=CARTESIAN_POINT('Origin',(70.,0.,40.));
#691=CARTESIAN_POINT('',(70.,20.,55.));
#692=CARTESIAN_POINT('Origin',(70.,20.,40.));
#693=CARTESIAN_POINT('',(70.,0.,55.));
#694=CARTESIAN_POINT('Origin',(14.8032799879094,0.,55.));
#695=CARTESIAN_POINT('',(14.8032799879094,0.,55.));
#696=CARTESIAN_POINT('',(70.,0.,55.));
#697=CARTESIAN_POINT('',(14.8032799879094,20.,55.));
#698=CARTESIAN_POINT('',(70.,20.,55.));
#699=CARTESIAN_POINT('',(14.8032799879094,0.,55.));
#700=CARTESIAN_POINT('Origin',(14.8032799879094,0.,80.));
#701=CARTESIAN_POINT('',(14.8032799879094,0.,80.));
#702=CARTESIAN_POINT('',(14.8032799879094,0.,80.));
#703=CARTESIAN_POINT('',(14.8032799879094,20.,80.));
#704=CARTESIAN_POINT('',(14.8032799879094,20.,80.));
#705=CARTESIAN_POINT('',(14.8032799879094,0.,80.));
#706=CARTESIAN_POINT('Origin',(-0.19672001209056,0.,80.));
#707=CARTESIAN_POINT('Origin',(-0.19672001209056,0.,80.));
#708=CARTESIAN_POINT('Origin',(-0.19672001209056,20.,80.));
#709=CARTESIAN_POINT('Origin',(25.,20.,40.));
#710=CARTESIAN_POINT('Origin',(25.,0.,40.));
#711=UNCERTAINTY_MEASURE_WITH_UNIT(LENGTH_MEASURE(0.01),#715,
'DISTANCE_ACCURACY_VALUE',
'Maximum model space distance between geometric entities at asserted c
onnectivities');
#712=UNCERTAINTY_MEASURE_WITH_UNIT(LENGTH_MEASURE(0.01),#715,
'DISTANCE_ACCURACY_VALUE',
'Maximum model space distance between geometric entities at asserted c
onnectivities');
#713=(
GEOMETRIC_REPRESENTATION_CONTEXT(3)
GLOBAL_UNCERTAINTY_ASSIGNED_CONTEXT((#711))
GLOBAL_UNIT_ASSIGNED_CONTEXT((#715,#717,#718))
REPRESENTATION_CONTEXT('','3D')
);
#714=(
GEOMETRIC_REPRESENTATION_CONTEXT(3)
GLOBAL_UNCERTAINTY_ASSIGNED_CONTEXT((#712))
GLOBAL_UNIT_ASSIGNED_CONTEXT((#715,#717,#718))
REPRESENTATION_CONTEXT('','3D')
);
#715=(
LENGTH_UNIT()
NAMED_UNIT(*)
SI_UNIT(.MILLI.,.METRE.)
);
#716=(
LENGTH_UNIT()
NAMED_UNIT(*)
SI_UNIT($,.METRE.)
);
#717=(
NAMED_UNIT(*)
PLANE_ANGLE_UNIT()
SI_UNIT($,.RADIAN.)
);
#718=(
NAMED_UNIT(*)
SI_UNIT($,.STERADIAN.)
SOLID_ANGLE_UNIT()
);
#719=SHAPE_DEFINITION_REPRESENTATION(#720,#721);
#720=PRODUCT_DEFINITION_SHAPE('',$,#723);
#721=SHAPE_REPRESENTATION('',(#431),#713);
#722=PRODUCT_DEFINITION_CONTEXT('part definition',#727,'design');
#723=PRODUCT_DEFINITION('2026-10-06-22-45-53-690','exercise 11',#724,#722);
#724=PRODUCT_DEFINITION_FORMATION('',$,#729);
#725=PRODUCT_RELATED_PRODUCT_CATEGORY('exercise 11','exercise 11',(#729));
#726=APPLICATION_PROTOCOL_DEFINITION('international standard',
'automotive_design',2009,#727);
#727=APPLICATION_CONTEXT(
'Core Data for Automotive Mechanical Design Process');
#728=PRODUCT_CONTEXT('part definition',#727,'mechanical');
#729=PRODUCT('2026-10-06-22-45-53-690','exercise 11',$,(#728));
#730=PRESENTATION_STYLE_ASSIGNMENT((#731));
#731=SURFACE_STYLE_USAGE(.BOTH.,#732);
#732=SURFACE_SIDE_STYLE('',(#733));
#733=SURFACE_STYLE_FILL_AREA(#734);
#734=FILL_AREA_STYLE('Steel - Satin',(#735));
#735=FILL_AREA_STYLE_COLOUR('Steel - Satin',#736);
#736=COLOUR_RGB('Steel - Satin',0.627450980392157,0.627450980392157,0.627450980392157);
ENDSEC;
END-ISO-10303-21;
