ISO-10303-21;
HEADER;
/* Generated by software containing ST-Developer
 * from STEP Tools, Inc. (www.steptools.com) 
 */

FILE_DESCRIPTION(
/* description */ (''),
/* implementation_level */ '2;1');

FILE_NAME(
/* name */ 'exercise 5.step',
/* time_stamp */ '2026-10-03T02:06:37+05:30',
/* author */ (''),
/* organization */ (''),
/* preprocessor_version */ 'ST-DEVELOPER v20.2',
/* originating_system */ 'Autodesk Translation Framework v15.15.0.0',
/* authorisation */ '');

FILE_SCHEMA (('AUTOMOTIVE_DESIGN { 1 0 10303 214 3 1 1 }'));
ENDSEC;

DATA;
#10=MECHANICAL_DESIGN_GEOMETRIC_PRESENTATION_REPRESENTATION('',(#13),#681);
#11=SHAPE_REPRESENTATION_RELATIONSHIP('SRR','None',#688,#12);
#12=ADVANCED_BREP_SHAPE_REPRESENTATION('',(#14),#680);
#13=STYLED_ITEM('',(#697),#14);
#14=MANIFOLD_SOLID_BREP('Body1',#406);
#15=FACE_BOUND('',#70,.T.);
#16=FACE_BOUND('',#75,.T.);
#17=FACE_BOUND('',#77,.T.);
#18=FACE_BOUND('',#79,.T.);
#19=FACE_BOUND('',#83,.T.);
#20=CIRCLE('',#422,7.58814219024346);
#21=CIRCLE('',#423,7.58814219024346);
#22=CIRCLE('',#426,7.58814219024346);
#23=CIRCLE('',#427,7.58814219024346);
#24=CIRCLE('',#429,25.);
#25=CIRCLE('',#430,25.);
#26=CIRCLE('',#432,15.);
#27=CIRCLE('',#435,15.);
#28=CIRCLE('',#436,15.);
#29=CIRCLE('',#444,25.);
#30=CIRCLE('',#445,15.);
#31=CIRCLE('',#447,25.);
#32=CIRCLE('',#448,15.);
#33=CYLINDRICAL_SURFACE('',#421,7.58814219024346);
#34=CYLINDRICAL_SURFACE('',#425,7.58814219024346);
#35=CYLINDRICAL_SURFACE('',#428,25.);
#36=CYLINDRICAL_SURFACE('',#434,15.);
#37=CYLINDRICAL_SURFACE('',#449,25.);
#38=CYLINDRICAL_SURFACE('',#450,15.);
#39=FACE_OUTER_BOUND('',#60,.T.);
#40=FACE_OUTER_BOUND('',#61,.T.);
#41=FACE_OUTER_BOUND('',#62,.T.);
#42=FACE_OUTER_BOUND('',#63,.T.);
#43=FACE_OUTER_BOUND('',#64,.T.);
#44=FACE_OUTER_BOUND('',#65,.T.);
#45=FACE_OUTER_BOUND('',#66,.T.);
#46=FACE_OUTER_BOUND('',#67,.T.);
#47=FACE_OUTER_BOUND('',#68,.T.);
#48=FACE_OUTER_BOUND('',#69,.T.);
#49=FACE_OUTER_BOUND('',#71,.T.);
#50=FACE_OUTER_BOUND('',#72,.T.);
#51=FACE_OUTER_BOUND('',#73,.T.);
#52=FACE_OUTER_BOUND('',#74,.T.);
#53=FACE_OUTER_BOUND('',#76,.T.);
#54=FACE_OUTER_BOUND('',#78,.T.);
#55=FACE_OUTER_BOUND('',#80,.T.);
#56=FACE_OUTER_BOUND('',#81,.T.);
#57=FACE_OUTER_BOUND('',#82,.T.);
#58=FACE_OUTER_BOUND('',#84,.T.);
#59=FACE_OUTER_BOUND('',#85,.T.);
#60=EDGE_LOOP('',(#260,#261,#262,#263));
#61=EDGE_LOOP('',(#264,#265,#266,#267));
#62=EDGE_LOOP('',(#268,#269,#270,#271));
#63=EDGE_LOOP('',(#272,#273,#274,#275));
#64=EDGE_LOOP('',(#276,#277,#278,#279));
#65=EDGE_LOOP('',(#280,#281,#282,#283));
#66=EDGE_LOOP('',(#284,#285,#286,#287,#288,#289));
#67=EDGE_LOOP('',(#290,#291,#292,#293,#294));
#68=EDGE_LOOP('',(#295,#296));
#69=EDGE_LOOP('',(#297,#298,#299,#300,#301,#302));
#70=EDGE_LOOP('',(#303));
#71=EDGE_LOOP('',(#304,#305,#306,#307));
#72=EDGE_LOOP('',(#308,#309,#310,#311,#312));
#73=EDGE_LOOP('',(#313,#314,#315,#316));
#74=EDGE_LOOP('',(#317,#318,#319,#320,#321,#322,#323,#324));
#75=EDGE_LOOP('',(#325,#326,#327,#328));
#76=EDGE_LOOP('',(#329,#330,#331,#332));
#77=EDGE_LOOP('',(#333));
#78=EDGE_LOOP('',(#334,#335,#336,#337,#338,#339));
#79=EDGE_LOOP('',(#340));
#80=EDGE_LOOP('',(#341,#342,#343,#344));
#81=EDGE_LOOP('',(#345,#346,#347,#348));
#82=EDGE_LOOP('',(#349,#350,#351,#352));
#83=EDGE_LOOP('',(#353,#354,#355,#356));
#84=EDGE_LOOP('',(#357,#358,#359,#360));
#85=EDGE_LOOP('',(#361,#362,#363,#364,#365,#366,#367,#368,#369));
#86=LINE('',#570,#128);
#87=LINE('',#572,#129);
#88=LINE('',#574,#130);
#89=LINE('',#575,#131);
#90=LINE('',#581,#132);
#91=LINE('',#584,#133);
#92=LINE('',#586,#134);
#93=LINE('',#587,#135);
#94=LINE('',#596,#136);
#95=LINE('',#599,#137);
#96=LINE('',#602,#138);
#97=LINE('',#605,#139);
#98=LINE('',#607,#140);
#99=LINE('',#609,#141);
#100=LINE('',#611,#142);
#101=LINE('',#612,#143);
#102=LINE('',#616,#144);
#103=LINE('',#621,#145);
#104=LINE('',#623,#146);
#105=LINE('',#625,#147);
#106=LINE('',#627,#148);
#107=LINE('',#628,#149);
#108=LINE('',#632,#150);
#109=LINE('',#634,#151);
#110=LINE('',#636,#152);
#111=LINE('',#637,#153);
#112=LINE('',#640,#154);
#113=LINE('',#641,#155);
#114=LINE('',#644,#156);
#115=LINE('',#645,#157);
#116=LINE('',#648,#158);
#117=LINE('',#649,#159);
#118=LINE('',#651,#160);
#119=LINE('',#652,#161);
#120=LINE('',#656,#162);
#121=LINE('',#661,#163);
#122=LINE('',#663,#164);
#123=LINE('',#665,#165);
#124=LINE('',#670,#166);
#125=LINE('',#672,#167);
#126=LINE('',#674,#168);
#127=LINE('',#675,#169);
#128=VECTOR('',#458,10.);
#129=VECTOR('',#459,10.);
#130=VECTOR('',#460,10.);
#131=VECTOR('',#461,10.);
#132=VECTOR('',#468,10.);
#133=VECTOR('',#471,10.);
#134=VECTOR('',#472,10.);
#135=VECTOR('',#473,10.);
#136=VECTOR('',#484,10.);
#137=VECTOR('',#487,10.);
#138=VECTOR('',#490,10.);
#139=VECTOR('',#493,10.);
#140=VECTOR('',#496,10.);
#141=VECTOR('',#497,10.);
#142=VECTOR('',#498,10.);
#143=VECTOR('',#499,10.);
#144=VECTOR('',#504,15.);
#145=VECTOR('',#511,10.);
#146=VECTOR('',#512,10.);
#147=VECTOR('',#513,10.);
#148=VECTOR('',#514,10.);
#149=VECTOR('',#515,10.);
#150=VECTOR('',#518,10.);
#151=VECTOR('',#519,10.);
#152=VECTOR('',#520,10.);
#153=VECTOR('',#521,10.);
#154=VECTOR('',#524,10.);
#155=VECTOR('',#525,10.);
#156=VECTOR('',#528,10.);
#157=VECTOR('',#529,10.);
#158=VECTOR('',#532,10.);
#159=VECTOR('',#533,10.);
#160=VECTOR('',#534,10.);
#161=VECTOR('',#535,10.);
#162=VECTOR('',#540,10.);
#163=VECTOR('',#545,10.);
#164=VECTOR('',#546,10.);
#165=VECTOR('',#547,10.);
#166=VECTOR('',#554,10.);
#167=VECTOR('',#557,15.);
#168=VECTOR('',#560,10.);
#169=VECTOR('',#561,10.);
#170=VERTEX_POINT('',#568);
#171=VERTEX_POINT('',#569);
#172=VERTEX_POINT('',#571);
#173=VERTEX_POINT('',#573);
#174=VERTEX_POINT('',#577);
#175=VERTEX_POINT('',#579);
#176=VERTEX_POINT('',#583);
#177=VERTEX_POINT('',#585);
#178=VERTEX_POINT('',#592);
#179=VERTEX_POINT('',#593);
#180=VERTEX_POINT('',#595);
#181=VERTEX_POINT('',#597);
#182=VERTEX_POINT('',#601);
#183=VERTEX_POINT('',#603);
#184=VERTEX_POINT('',#608);
#185=VERTEX_POINT('',#610);
#186=VERTEX_POINT('',#614);
#187=VERTEX_POINT('',#620);
#188=VERTEX_POINT('',#622);
#189=VERTEX_POINT('',#624);
#190=VERTEX_POINT('',#626);
#191=VERTEX_POINT('',#630);
#192=VERTEX_POINT('',#631);
#193=VERTEX_POINT('',#633);
#194=VERTEX_POINT('',#635);
#195=VERTEX_POINT('',#639);
#196=VERTEX_POINT('',#643);
#197=VERTEX_POINT('',#647);
#198=VERTEX_POINT('',#650);
#199=VERTEX_POINT('',#654);
#200=VERTEX_POINT('',#657);
#201=VERTEX_POINT('',#660);
#202=VERTEX_POINT('',#662);
#203=VERTEX_POINT('',#664);
#204=VERTEX_POINT('',#667);
#205=EDGE_CURVE('',#170,#171,#86,.T.);
#206=EDGE_CURVE('',#172,#170,#87,.T.);
#207=EDGE_CURVE('',#173,#172,#88,.T.);
#208=EDGE_CURVE('',#173,#171,#89,.T.);
#209=EDGE_CURVE('',#171,#174,#20,.T.);
#210=EDGE_CURVE('',#175,#173,#21,.T.);
#211=EDGE_CURVE('',#175,#174,#90,.T.);
#212=EDGE_CURVE('',#174,#176,#91,.T.);
#213=EDGE_CURVE('',#177,#175,#92,.T.);
#214=EDGE_CURVE('',#177,#176,#93,.T.);
#215=EDGE_CURVE('',#176,#170,#22,.T.);
#216=EDGE_CURVE('',#172,#177,#23,.T.);
#217=EDGE_CURVE('',#178,#179,#24,.T.);
#218=EDGE_CURVE('',#178,#180,#94,.T.);
#219=EDGE_CURVE('',#181,#180,#25,.T.);
#220=EDGE_CURVE('',#181,#179,#95,.T.);
#221=EDGE_CURVE('',#182,#180,#96,.T.);
#222=EDGE_CURVE('',#182,#183,#26,.T.);
#223=EDGE_CURVE('',#181,#183,#97,.T.);
#224=EDGE_CURVE('',#183,#182,#98,.T.);
#225=EDGE_CURVE('',#180,#184,#99,.T.);
#226=EDGE_CURVE('',#185,#184,#100,.T.);
#227=EDGE_CURVE('',#185,#181,#101,.T.);
#228=EDGE_CURVE('',#186,#186,#27,.T.);
#229=EDGE_CURVE('',#186,#183,#102,.T.);
#230=EDGE_CURVE('',#182,#183,#28,.T.);
#231=EDGE_CURVE('',#179,#187,#103,.T.);
#232=EDGE_CURVE('',#187,#188,#104,.T.);
#233=EDGE_CURVE('',#189,#188,#105,.T.);
#234=EDGE_CURVE('',#189,#190,#106,.T.);
#235=EDGE_CURVE('',#190,#178,#107,.T.);
#236=EDGE_CURVE('',#191,#192,#108,.T.);
#237=EDGE_CURVE('',#193,#191,#109,.T.);
#238=EDGE_CURVE('',#194,#193,#110,.T.);
#239=EDGE_CURVE('',#194,#192,#111,.T.);
#240=EDGE_CURVE('',#195,#190,#112,.T.);
#241=EDGE_CURVE('',#184,#195,#113,.T.);
#242=EDGE_CURVE('',#196,#195,#114,.T.);
#243=EDGE_CURVE('',#196,#185,#115,.T.);
#244=EDGE_CURVE('',#197,#191,#116,.T.);
#245=EDGE_CURVE('',#197,#196,#117,.T.);
#246=EDGE_CURVE('',#198,#189,#118,.T.);
#247=EDGE_CURVE('',#193,#198,#119,.T.);
#248=EDGE_CURVE('',#192,#199,#29,.T.);
#249=EDGE_CURVE('',#199,#197,#120,.T.);
#250=EDGE_CURVE('',#200,#200,#30,.T.);
#251=EDGE_CURVE('',#198,#201,#121,.T.);
#252=EDGE_CURVE('',#202,#201,#122,.T.);
#253=EDGE_CURVE('',#202,#203,#123,.T.);
#254=EDGE_CURVE('',#203,#194,#31,.T.);
#255=EDGE_CURVE('',#204,#204,#32,.T.);
#256=EDGE_CURVE('',#203,#199,#124,.T.);
#257=EDGE_CURVE('',#200,#204,#125,.T.);
#258=EDGE_CURVE('',#187,#202,#126,.T.);
#259=EDGE_CURVE('',#188,#201,#127,.T.);
#260=ORIENTED_EDGE('',*,*,#205,.F.);
#261=ORIENTED_EDGE('',*,*,#206,.F.);
#262=ORIENTED_EDGE('',*,*,#207,.F.);
#263=ORIENTED_EDGE('',*,*,#208,.T.);
#264=ORIENTED_EDGE('',*,*,#209,.F.);
#265=ORIENTED_EDGE('',*,*,#208,.F.);
#266=ORIENTED_EDGE('',*,*,#210,.F.);
#267=ORIENTED_EDGE('',*,*,#211,.T.);
#268=ORIENTED_EDGE('',*,*,#212,.F.);
#269=ORIENTED_EDGE('',*,*,#211,.F.);
#270=ORIENTED_EDGE('',*,*,#213,.F.);
#271=ORIENTED_EDGE('',*,*,#214,.T.);
#272=ORIENTED_EDGE('',*,*,#215,.F.);
#273=ORIENTED_EDGE('',*,*,#214,.F.);
#274=ORIENTED_EDGE('',*,*,#216,.F.);
#275=ORIENTED_EDGE('',*,*,#206,.T.);
#276=ORIENTED_EDGE('',*,*,#217,.F.);
#277=ORIENTED_EDGE('',*,*,#218,.T.);
#278=ORIENTED_EDGE('',*,*,#219,.F.);
#279=ORIENTED_EDGE('',*,*,#220,.T.);
#280=ORIENTED_EDGE('',*,*,#221,.F.);
#281=ORIENTED_EDGE('',*,*,#222,.T.);
#282=ORIENTED_EDGE('',*,*,#223,.F.);
#283=ORIENTED_EDGE('',*,*,#219,.T.);
#284=ORIENTED_EDGE('',*,*,#223,.T.);
#285=ORIENTED_EDGE('',*,*,#224,.T.);
#286=ORIENTED_EDGE('',*,*,#221,.T.);
#287=ORIENTED_EDGE('',*,*,#225,.T.);
#288=ORIENTED_EDGE('',*,*,#226,.F.);
#289=ORIENTED_EDGE('',*,*,#227,.T.);
#290=ORIENTED_EDGE('',*,*,#228,.F.);
#291=ORIENTED_EDGE('',*,*,#229,.T.);
#292=ORIENTED_EDGE('',*,*,#222,.F.);
#293=ORIENTED_EDGE('',*,*,#230,.T.);
#294=ORIENTED_EDGE('',*,*,#229,.F.);
#295=ORIENTED_EDGE('',*,*,#224,.F.);
#296=ORIENTED_EDGE('',*,*,#230,.F.);
#297=ORIENTED_EDGE('',*,*,#231,.T.);
#298=ORIENTED_EDGE('',*,*,#232,.T.);
#299=ORIENTED_EDGE('',*,*,#233,.F.);
#300=ORIENTED_EDGE('',*,*,#234,.T.);
#301=ORIENTED_EDGE('',*,*,#235,.T.);
#302=ORIENTED_EDGE('',*,*,#217,.T.);
#303=ORIENTED_EDGE('',*,*,#228,.T.);
#304=ORIENTED_EDGE('',*,*,#236,.F.);
#305=ORIENTED_EDGE('',*,*,#237,.F.);
#306=ORIENTED_EDGE('',*,*,#238,.F.);
#307=ORIENTED_EDGE('',*,*,#239,.T.);
#308=ORIENTED_EDGE('',*,*,#235,.F.);
#309=ORIENTED_EDGE('',*,*,#240,.F.);
#310=ORIENTED_EDGE('',*,*,#241,.F.);
#311=ORIENTED_EDGE('',*,*,#225,.F.);
#312=ORIENTED_EDGE('',*,*,#218,.F.);
#313=ORIENTED_EDGE('',*,*,#241,.T.);
#314=ORIENTED_EDGE('',*,*,#242,.F.);
#315=ORIENTED_EDGE('',*,*,#243,.T.);
#316=ORIENTED_EDGE('',*,*,#226,.T.);
#317=ORIENTED_EDGE('',*,*,#244,.F.);
#318=ORIENTED_EDGE('',*,*,#245,.T.);
#319=ORIENTED_EDGE('',*,*,#242,.T.);
#320=ORIENTED_EDGE('',*,*,#240,.T.);
#321=ORIENTED_EDGE('',*,*,#234,.F.);
#322=ORIENTED_EDGE('',*,*,#246,.F.);
#323=ORIENTED_EDGE('',*,*,#247,.F.);
#324=ORIENTED_EDGE('',*,*,#237,.T.);
#325=ORIENTED_EDGE('',*,*,#213,.T.);
#326=ORIENTED_EDGE('',*,*,#210,.T.);
#327=ORIENTED_EDGE('',*,*,#207,.T.);
#328=ORIENTED_EDGE('',*,*,#216,.T.);
#329=ORIENTED_EDGE('',*,*,#236,.T.);
#330=ORIENTED_EDGE('',*,*,#248,.T.);
#331=ORIENTED_EDGE('',*,*,#249,.T.);
#332=ORIENTED_EDGE('',*,*,#244,.T.);
#333=ORIENTED_EDGE('',*,*,#250,.T.);
#334=ORIENTED_EDGE('',*,*,#247,.T.);
#335=ORIENTED_EDGE('',*,*,#251,.T.);
#336=ORIENTED_EDGE('',*,*,#252,.F.);
#337=ORIENTED_EDGE('',*,*,#253,.T.);
#338=ORIENTED_EDGE('',*,*,#254,.T.);
#339=ORIENTED_EDGE('',*,*,#238,.T.);
#340=ORIENTED_EDGE('',*,*,#255,.F.);
#341=ORIENTED_EDGE('',*,*,#254,.F.);
#342=ORIENTED_EDGE('',*,*,#256,.T.);
#343=ORIENTED_EDGE('',*,*,#248,.F.);
#344=ORIENTED_EDGE('',*,*,#239,.F.);
#345=ORIENTED_EDGE('',*,*,#250,.F.);
#346=ORIENTED_EDGE('',*,*,#257,.T.);
#347=ORIENTED_EDGE('',*,*,#255,.T.);
#348=ORIENTED_EDGE('',*,*,#257,.F.);
#349=ORIENTED_EDGE('',*,*,#258,.T.);
#350=ORIENTED_EDGE('',*,*,#252,.T.);
#351=ORIENTED_EDGE('',*,*,#259,.F.);
#352=ORIENTED_EDGE('',*,*,#232,.F.);
#353=ORIENTED_EDGE('',*,*,#212,.T.);
#354=ORIENTED_EDGE('',*,*,#215,.T.);
#355=ORIENTED_EDGE('',*,*,#205,.T.);
#356=ORIENTED_EDGE('',*,*,#209,.T.);
#357=ORIENTED_EDGE('',*,*,#246,.T.);
#358=ORIENTED_EDGE('',*,*,#233,.T.);
#359=ORIENTED_EDGE('',*,*,#259,.T.);
#360=ORIENTED_EDGE('',*,*,#251,.F.);
#361=ORIENTED_EDGE('',*,*,#227,.F.);
#362=ORIENTED_EDGE('',*,*,#243,.F.);
#363=ORIENTED_EDGE('',*,*,#245,.F.);
#364=ORIENTED_EDGE('',*,*,#249,.F.);
#365=ORIENTED_EDGE('',*,*,#256,.F.);
#366=ORIENTED_EDGE('',*,*,#253,.F.);
#367=ORIENTED_EDGE('',*,*,#258,.F.);
#368=ORIENTED_EDGE('',*,*,#231,.F.);
#369=ORIENTED_EDGE('',*,*,#220,.F.);
#370=PLANE('',#420);
#371=PLANE('',#424);
#372=PLANE('',#431);
#373=PLANE('',#433);
#374=PLANE('',#437);
#375=PLANE('',#438);
#376=PLANE('',#439);
#377=PLANE('',#440);
#378=PLANE('',#441);
#379=PLANE('',#442);
#380=PLANE('',#443);
#381=PLANE('',#446);
#382=PLANE('',#451);
#383=PLANE('',#452);
#384=PLANE('',#453);
#385=ADVANCED_FACE('',(#39),#370,.F.);
#386=ADVANCED_FACE('',(#40),#33,.F.);
#387=ADVANCED_FACE('',(#41),#371,.F.);
#388=ADVANCED_FACE('',(#42),#34,.F.);
#389=ADVANCED_FACE('',(#43),#35,.T.);
#390=ADVANCED_FACE('',(#44),#372,.F.);
#391=ADVANCED_FACE('',(#45),#373,.T.);
#392=ADVANCED_FACE('',(#46),#36,.F.);
#393=ADVANCED_FACE('',(#47),#374,.T.);
#394=ADVANCED_FACE('',(#48,#15),#375,.T.);
#395=ADVANCED_FACE('',(#49),#376,.F.);
#396=ADVANCED_FACE('',(#50),#377,.F.);
#397=ADVANCED_FACE('',(#51),#378,.T.);
#398=ADVANCED_FACE('',(#52,#16),#379,.T.);
#399=ADVANCED_FACE('',(#53,#17),#380,.T.);
#400=ADVANCED_FACE('',(#54,#18),#381,.T.);
#401=ADVANCED_FACE('',(#55),#37,.T.);
#402=ADVANCED_FACE('',(#56),#38,.F.);
#403=ADVANCED_FACE('',(#57,#19),#382,.T.);
#404=ADVANCED_FACE('',(#58),#383,.T.);
#405=ADVANCED_FACE('',(#59),#384,.F.);
#406=CLOSED_SHELL('',(#385,#386,#387,#388,#389,#390,#391,#392,#393,#394,
#395,#396,#397,#398,#399,#400,#401,#402,#403,#404,#405));
#407=DERIVED_UNIT_ELEMENT(#409,1.);
#408=DERIVED_UNIT_ELEMENT(#683,-3.);
#409=(
MASS_UNIT()
NAMED_UNIT(*)
SI_UNIT(.KILO.,.GRAM.)
);
#410=DERIVED_UNIT((#407,#408));
#411=MEASURE_REPRESENTATION_ITEM('density measure',
POSITIVE_RATIO_MEASURE(7850.),#410);
#412=PROPERTY_DEFINITION_REPRESENTATION(#417,#414);
#413=PROPERTY_DEFINITION_REPRESENTATION(#418,#415);
#414=REPRESENTATION('material name',(#416),#680);
#415=REPRESENTATION('density',(#411),#680);
#416=DESCRIPTIVE_REPRESENTATION_ITEM('Steel','Steel');
#417=PROPERTY_DEFINITION('material property','material name',#690);
#418=PROPERTY_DEFINITION('material property','density of part',#690);
#419=AXIS2_PLACEMENT_3D('',#566,#454,#455);
#420=AXIS2_PLACEMENT_3D('',#567,#456,#457);
#421=AXIS2_PLACEMENT_3D('',#576,#462,#463);
#422=AXIS2_PLACEMENT_3D('',#578,#464,#465);
#423=AXIS2_PLACEMENT_3D('',#580,#466,#467);
#424=AXIS2_PLACEMENT_3D('',#582,#469,#470);
#425=AXIS2_PLACEMENT_3D('',#588,#474,#475);
#426=AXIS2_PLACEMENT_3D('',#589,#476,#477);
#427=AXIS2_PLACEMENT_3D('',#590,#478,#479);
#428=AXIS2_PLACEMENT_3D('',#591,#480,#481);
#429=AXIS2_PLACEMENT_3D('',#594,#482,#483);
#430=AXIS2_PLACEMENT_3D('',#598,#485,#486);
#431=AXIS2_PLACEMENT_3D('',#600,#488,#489);
#432=AXIS2_PLACEMENT_3D('',#604,#491,#492);
#433=AXIS2_PLACEMENT_3D('',#606,#494,#495);
#434=AXIS2_PLACEMENT_3D('',#613,#500,#501);
#435=AXIS2_PLACEMENT_3D('',#615,#502,#503);
#436=AXIS2_PLACEMENT_3D('',#617,#505,#506);
#437=AXIS2_PLACEMENT_3D('',#618,#507,#508);
#438=AXIS2_PLACEMENT_3D('',#619,#509,#510);
#439=AXIS2_PLACEMENT_3D('',#629,#516,#517);
#440=AXIS2_PLACEMENT_3D('',#638,#522,#523);
#441=AXIS2_PLACEMENT_3D('',#642,#526,#527);
#442=AXIS2_PLACEMENT_3D('',#646,#530,#531);
#443=AXIS2_PLACEMENT_3D('',#653,#536,#537);
#444=AXIS2_PLACEMENT_3D('',#655,#538,#539);
#445=AXIS2_PLACEMENT_3D('',#658,#541,#542);
#446=AXIS2_PLACEMENT_3D('',#659,#543,#544);
#447=AXIS2_PLACEMENT_3D('',#666,#548,#549);
#448=AXIS2_PLACEMENT_3D('',#668,#550,#551);
#449=AXIS2_PLACEMENT_3D('',#669,#552,#553);
#450=AXIS2_PLACEMENT_3D('',#671,#555,#556);
#451=AXIS2_PLACEMENT_3D('',#673,#558,#559);
#452=AXIS2_PLACEMENT_3D('',#676,#562,#563);
#453=AXIS2_PLACEMENT_3D('',#677,#564,#565);
#454=DIRECTION('axis',(0.,0.,1.));
#455=DIRECTION('refdir',(1.,0.,0.));
#456=DIRECTION('center_axis',(-1.,0.,0.));
#457=DIRECTION('ref_axis',(0.,1.,0.));
#458=DIRECTION('',(0.,-1.,0.));
#459=DIRECTION('',(0.,0.,-1.));
#460=DIRECTION('',(0.,1.,0.));
#461=DIRECTION('',(0.,0.,-1.));
#462=DIRECTION('center_axis',(0.,0.,-1.));
#463=DIRECTION('ref_axis',(-1.,0.,0.));
#464=DIRECTION('center_axis',(-1.23259516440783E-32,0.,1.));
#465=DIRECTION('ref_axis',(-1.,0.,0.));
#466=DIRECTION('center_axis',(0.,0.,-1.));
#467=DIRECTION('ref_axis',(-1.,0.,0.));
#468=DIRECTION('',(0.,0.,-1.));
#469=DIRECTION('center_axis',(1.,0.,0.));
#470=DIRECTION('ref_axis',(0.,-1.,0.));
#471=DIRECTION('',(0.,1.,0.));
#472=DIRECTION('',(0.,-1.,0.));
#473=DIRECTION('',(0.,0.,-1.));
#474=DIRECTION('center_axis',(0.,0.,-1.));
#475=DIRECTION('ref_axis',(1.,0.,0.));
#476=DIRECTION('center_axis',(-1.23259516440783E-32,0.,1.));
#477=DIRECTION('ref_axis',(1.,0.,0.));
#478=DIRECTION('center_axis',(0.,0.,-1.));
#479=DIRECTION('ref_axis',(1.,0.,0.));
#480=DIRECTION('center_axis',(-1.,0.,0.));
#481=DIRECTION('ref_axis',(0.,1.,0.));
#482=DIRECTION('center_axis',(1.,0.,0.));
#483=DIRECTION('ref_axis',(0.,1.,0.));
#484=DIRECTION('',(-1.,0.,0.));
#485=DIRECTION('center_axis',(-1.,0.,0.));
#486=DIRECTION('ref_axis',(0.,1.,0.));
#487=DIRECTION('',(1.,0.,0.));
#488=DIRECTION('center_axis',(1.,0.,0.));
#489=DIRECTION('ref_axis',(0.,1.,0.));
#490=DIRECTION('',(0.,1.,0.));
#491=DIRECTION('center_axis',(1.,0.,0.));
#492=DIRECTION('ref_axis',(0.,1.,0.));
#493=DIRECTION('',(0.,1.,0.));
#494=DIRECTION('center_axis',(0.,0.,1.));
#495=DIRECTION('ref_axis',(1.,0.,0.));
#496=DIRECTION('',(0.,1.,0.));
#497=DIRECTION('',(-1.,0.,0.));
#498=DIRECTION('',(0.,1.,0.));
#499=DIRECTION('',(1.,0.,0.));
#500=DIRECTION('center_axis',(-1.,0.,0.));
#501=DIRECTION('ref_axis',(0.,1.,0.));
#502=DIRECTION('center_axis',(-1.,0.,0.));
#503=DIRECTION('ref_axis',(0.,1.,0.));
#504=DIRECTION('',(-1.,0.,0.));
#505=DIRECTION('center_axis',(-1.,0.,0.));
#506=DIRECTION('ref_axis',(0.,1.,0.));
#507=DIRECTION('center_axis',(1.,0.,0.));
#508=DIRECTION('ref_axis',(0.,1.,0.));
#509=DIRECTION('center_axis',(1.,0.,0.));
#510=DIRECTION('ref_axis',(0.,0.,-1.));
#511=DIRECTION('',(0.,0.,-1.));
#512=DIRECTION('',(0.,1.,0.));
#513=DIRECTION('',(0.,0.,-1.));
#514=DIRECTION('',(0.,-1.,0.));
#515=DIRECTION('',(0.,0.,1.));
#516=DIRECTION('center_axis',(0.,-1.,0.));
#517=DIRECTION('ref_axis',(0.,0.,-1.));
#518=DIRECTION('',(0.,0.,1.));
#519=DIRECTION('',(1.,0.,0.));
#520=DIRECTION('',(0.,0.,-1.));
#521=DIRECTION('',(1.,0.,0.));
#522=DIRECTION('center_axis',(0.,-1.,0.));
#523=DIRECTION('ref_axis',(0.,0.,-1.));
#524=DIRECTION('',(1.,0.,0.));
#525=DIRECTION('',(-7.40148683083438E-17,0.,-1.));
#526=DIRECTION('center_axis',(-1.,0.,7.40148683083438E-17));
#527=DIRECTION('ref_axis',(7.40148683083438E-17,0.,1.));
#528=DIRECTION('',(0.,1.,0.));
#529=DIRECTION('',(7.40148683083438E-17,0.,1.));
#530=DIRECTION('center_axis',(0.,0.,1.));
#531=DIRECTION('ref_axis',(1.,0.,0.));
#532=DIRECTION('',(0.,1.,0.));
#533=DIRECTION('',(1.,0.,0.));
#534=DIRECTION('',(1.,0.,0.));
#535=DIRECTION('',(0.,1.,0.));
#536=DIRECTION('center_axis',(1.,0.,0.));
#537=DIRECTION('ref_axis',(0.,0.,-1.));
#538=DIRECTION('center_axis',(1.,0.,0.));
#539=DIRECTION('ref_axis',(0.,-1.,0.));
#540=DIRECTION('',(0.,0.,-1.));
#541=DIRECTION('center_axis',(-1.,0.,0.));
#542=DIRECTION('ref_axis',(0.,-1.,0.));
#543=DIRECTION('center_axis',(-1.,0.,0.));
#544=DIRECTION('ref_axis',(0.,0.,1.));
#545=DIRECTION('',(0.,0.,-1.));
#546=DIRECTION('',(0.,1.,0.));
#547=DIRECTION('',(0.,0.,1.));
#548=DIRECTION('center_axis',(-1.,0.,0.));
#549=DIRECTION('ref_axis',(0.,-1.,0.));
#550=DIRECTION('center_axis',(-1.,0.,0.));
#551=DIRECTION('ref_axis',(0.,-1.,0.));
#552=DIRECTION('center_axis',(1.,0.,0.));
#553=DIRECTION('ref_axis',(0.,-1.,0.));
#554=DIRECTION('',(1.,0.,8.88178419700125E-16));
#555=DIRECTION('center_axis',(1.,0.,0.));
#556=DIRECTION('ref_axis',(0.,-1.,0.));
#557=DIRECTION('',(-1.,0.,0.));
#558=DIRECTION('center_axis',(1.23259516440783E-32,0.,-1.));
#559=DIRECTION('ref_axis',(-1.,0.,-1.23259516440783E-32));
#560=DIRECTION('',(-1.,0.,-1.23259516440783E-32));
#561=DIRECTION('',(-1.,0.,-1.23259516440783E-32));
#562=DIRECTION('center_axis',(0.,1.,0.));
#563=DIRECTION('ref_axis',(0.,0.,1.));
#564=DIRECTION('center_axis',(0.,1.,0.));
#565=DIRECTION('ref_axis',(1.,0.,0.));
#566=CARTESIAN_POINT('',(0.,0.,0.));
#567=CARTESIAN_POINT('Origin',(-27.5881421902435,75.,10.));
#568=CARTESIAN_POINT('',(-27.5881421902435,115.,0.));
#569=CARTESIAN_POINT('',(-27.5881421902435,75.,0.));
#570=CARTESIAN_POINT('',(-27.5881421902435,37.5,0.));
#571=CARTESIAN_POINT('',(-27.5881421902435,115.,10.));
#572=CARTESIAN_POINT('',(-27.5881421902435,115.,10.));
#573=CARTESIAN_POINT('',(-27.5881421902435,75.,10.));
#574=CARTESIAN_POINT('',(-27.5881421902435,37.5,10.));
#575=CARTESIAN_POINT('',(-27.5881421902435,75.,10.));
#576=CARTESIAN_POINT('Origin',(-20.,75.,10.));
#577=CARTESIAN_POINT('',(-12.4118578097565,75.,0.));
#578=CARTESIAN_POINT('Origin',(-20.,75.,0.));
#579=CARTESIAN_POINT('',(-12.4118578097565,75.,10.));
#580=CARTESIAN_POINT('Origin',(-20.,75.,10.));
#581=CARTESIAN_POINT('',(-12.4118578097565,75.,10.));
#582=CARTESIAN_POINT('Origin',(-12.4118578097565,115.,10.));
#583=CARTESIAN_POINT('',(-12.4118578097565,115.,0.));
#584=CARTESIAN_POINT('',(-12.4118578097565,57.5,0.));
#585=CARTESIAN_POINT('',(-12.4118578097565,115.,10.));
#586=CARTESIAN_POINT('',(-12.4118578097565,57.5,10.));
#587=CARTESIAN_POINT('',(-12.4118578097565,115.,10.));
#588=CARTESIAN_POINT('Origin',(-20.,115.,10.));
#589=CARTESIAN_POINT('Origin',(-20.,115.,0.));
#590=CARTESIAN_POINT('Origin',(-20.,115.,10.));
#591=CARTESIAN_POINT('Origin',(0.,25.,40.));
#592=CARTESIAN_POINT('',(0.,50.,40.));
#593=CARTESIAN_POINT('',(0.,0.,40.));
#594=CARTESIAN_POINT('Origin',(0.,25.,40.));
#595=CARTESIAN_POINT('',(-10.,50.,40.));
#596=CARTESIAN_POINT('',(-25.8032403862236,50.,40.));
#597=CARTESIAN_POINT('',(-10.,0.,40.));
#598=CARTESIAN_POINT('Origin',(-10.,25.,40.));
#599=CARTESIAN_POINT('',(-11.6064807724472,0.,40.));
#600=CARTESIAN_POINT('Origin',(-10.,25.,52.5));
#601=CARTESIAN_POINT('',(-10.,40.,40.));
#602=CARTESIAN_POINT('',(-10.,12.5,40.));
#603=CARTESIAN_POINT('',(-10.,10.,40.));
#604=CARTESIAN_POINT('Origin',(-10.,25.,40.));
#605=CARTESIAN_POINT('',(-10.,12.5,40.));
#606=CARTESIAN_POINT('Origin',(-11.6064807724472,0.,40.));
#607=CARTESIAN_POINT('',(-10.,12.5,40.));
#608=CARTESIAN_POINT('',(-11.6064807724472,50.,40.));
#609=CARTESIAN_POINT('',(-25.8032403862236,50.,40.));
#610=CARTESIAN_POINT('',(-11.6064807724472,0.,40.));
#611=CARTESIAN_POINT('',(-11.6064807724472,0.,40.));
#612=CARTESIAN_POINT('',(-11.6064807724472,0.,40.));
#613=CARTESIAN_POINT('Origin',(0.,25.,40.));
#614=CARTESIAN_POINT('',(0.,10.,40.));
#615=CARTESIAN_POINT('Origin',(0.,25.,40.));
#616=CARTESIAN_POINT('',(0.,10.,40.));
#617=CARTESIAN_POINT('Origin',(-10.,25.,40.));
#618=CARTESIAN_POINT('Origin',(-10.,25.,45.));
#619=CARTESIAN_POINT('Origin',(0.,0.,40.));
#620=CARTESIAN_POINT('',(0.,0.,0.));
#621=CARTESIAN_POINT('',(0.,0.,40.));
#622=CARTESIAN_POINT('',(0.,130.,0.));
#623=CARTESIAN_POINT('',(0.,0.,0.));
#624=CARTESIAN_POINT('',(0.,130.,10.));
#625=CARTESIAN_POINT('',(0.,130.,40.));
#626=CARTESIAN_POINT('',(0.,50.,10.));
#627=CARTESIAN_POINT('',(0.,25.,10.));
#628=CARTESIAN_POINT('',(0.,50.,40.));
#629=CARTESIAN_POINT('Origin',(-40.,50.,40.));
#630=CARTESIAN_POINT('',(-30.,50.,10.));
#631=CARTESIAN_POINT('',(-30.,50.,40.));
#632=CARTESIAN_POINT('',(-30.,50.,40.));
#633=CARTESIAN_POINT('',(-40.,50.,10.));
#634=CARTESIAN_POINT('',(-40.,50.,10.));
#635=CARTESIAN_POINT('',(-40.,50.,40.));
#636=CARTESIAN_POINT('',(-40.,50.,20.));
#637=CARTESIAN_POINT('',(-40.,50.,40.));
#638=CARTESIAN_POINT('Origin',(-40.,50.,40.));
#639=CARTESIAN_POINT('',(-11.6064807724472,50.,10.));
#640=CARTESIAN_POINT('',(-40.,50.,10.));
#641=CARTESIAN_POINT('',(-11.6064807724472,50.,25.));
#642=CARTESIAN_POINT('Origin',(-11.6064807724472,0.,10.));
#643=CARTESIAN_POINT('',(-11.6064807724472,0.,10.));
#644=CARTESIAN_POINT('',(-11.6064807724472,0.,10.));
#645=CARTESIAN_POINT('',(-11.6064807724472,0.,10.));
#646=CARTESIAN_POINT('Origin',(-30.,0.,10.));
#647=CARTESIAN_POINT('',(-30.,0.,10.));
#648=CARTESIAN_POINT('',(-30.,0.,10.));
#649=CARTESIAN_POINT('',(-30.,0.,10.));
#650=CARTESIAN_POINT('',(-40.,130.,10.));
#651=CARTESIAN_POINT('',(-30.,130.,10.));
#652=CARTESIAN_POINT('',(-40.,25.,10.));
#653=CARTESIAN_POINT('Origin',(-30.,0.,40.));
#654=CARTESIAN_POINT('',(-30.,0.,40.));
#655=CARTESIAN_POINT('Origin',(-30.,25.,40.));
#656=CARTESIAN_POINT('',(-30.,0.,40.));
#657=CARTESIAN_POINT('',(-30.,40.,40.));
#658=CARTESIAN_POINT('Origin',(-30.,25.,40.));
#659=CARTESIAN_POINT('Origin',(-40.,0.,-4.93038065763132E-31));
#660=CARTESIAN_POINT('',(-40.,130.,0.));
#661=CARTESIAN_POINT('',(-40.,130.,40.));
#662=CARTESIAN_POINT('',(-40.,0.,-4.93038065763132E-31));
#663=CARTESIAN_POINT('',(-40.,0.,-4.93038065763132E-31));
#664=CARTESIAN_POINT('',(-40.,0.,40.));
#665=CARTESIAN_POINT('',(-40.,0.,-4.93038065763132E-31));
#666=CARTESIAN_POINT('Origin',(-40.,25.,40.));
#667=CARTESIAN_POINT('',(-40.,40.,40.));
#668=CARTESIAN_POINT('Origin',(-40.,25.,40.));
#669=CARTESIAN_POINT('Origin',(-40.,25.,40.));
#670=CARTESIAN_POINT('',(-40.,0.,40.));
#671=CARTESIAN_POINT('Origin',(-40.,25.,40.));
#672=CARTESIAN_POINT('',(-40.,40.,40.));
#673=CARTESIAN_POINT('Origin',(0.,0.,0.));
#674=CARTESIAN_POINT('',(0.,0.,0.));
#675=CARTESIAN_POINT('',(0.,130.,0.));
#676=CARTESIAN_POINT('Origin',(-20.,130.,20.));
#677=CARTESIAN_POINT('Origin',(-20.,0.,20.));
#678=UNCERTAINTY_MEASURE_WITH_UNIT(LENGTH_MEASURE(0.01),#682,
'DISTANCE_ACCURACY_VALUE',
'Maximum model space distance between geometric entities at asserted c
onnectivities');
#679=UNCERTAINTY_MEASURE_WITH_UNIT(LENGTH_MEASURE(0.01),#682,
'DISTANCE_ACCURACY_VALUE',
'Maximum model space distance between geometric entities at asserted c
onnectivities');
#680=(
GEOMETRIC_REPRESENTATION_CONTEXT(3)
GLOBAL_UNCERTAINTY_ASSIGNED_CONTEXT((#678))
GLOBAL_UNIT_ASSIGNED_CONTEXT((#682,#684,#685))
REPRESENTATION_CONTEXT('','3D')
);
#681=(
GEOMETRIC_REPRESENTATION_CONTEXT(3)
GLOBAL_UNCERTAINTY_ASSIGNED_CONTEXT((#679))
GLOBAL_UNIT_ASSIGNED_CONTEXT((#682,#684,#685))
REPRESENTATION_CONTEXT('','3D')
);
#682=(
LENGTH_UNIT()
NAMED_UNIT(*)
SI_UNIT(.MILLI.,.METRE.)
);
#683=(
LENGTH_UNIT()
NAMED_UNIT(*)
SI_UNIT($,.METRE.)
);
#684=(
NAMED_UNIT(*)
PLANE_ANGLE_UNIT()
SI_UNIT($,.RADIAN.)
);
#685=(
NAMED_UNIT(*)
SI_UNIT($,.STERADIAN.)
SOLID_ANGLE_UNIT()
);
#686=SHAPE_DEFINITION_REPRESENTATION(#687,#688);
#687=PRODUCT_DEFINITION_SHAPE('',$,#690);
#688=SHAPE_REPRESENTATION('',(#419),#680);
#689=PRODUCT_DEFINITION_CONTEXT('part definition',#694,'design');
#690=PRODUCT_DEFINITION('2026-10-01-22-51-15-792','exercise 1',#691,#689);
#691=PRODUCT_DEFINITION_FORMATION('',$,#696);
#692=PRODUCT_RELATED_PRODUCT_CATEGORY('exercise 1','exercise 1',(#696));
#693=APPLICATION_PROTOCOL_DEFINITION('international standard',
'automotive_design',2009,#694);
#694=APPLICATION_CONTEXT(
'Core Data for Automotive Mechanical Design Process');
#695=PRODUCT_CONTEXT('part definition',#694,'mechanical');
#696=PRODUCT('2026-10-01-22-51-15-792','exercise 1',$,(#695));
#697=PRESENTATION_STYLE_ASSIGNMENT((#698));
#698=SURFACE_STYLE_USAGE(.BOTH.,#699);
#699=SURFACE_SIDE_STYLE('',(#700));
#700=SURFACE_STYLE_FILL_AREA(#701);
#701=FILL_AREA_STYLE('Steel - Satin',(#702));
#702=FILL_AREA_STYLE_COLOUR('Steel - Satin',#703);
#703=COLOUR_RGB('Steel - Satin',0.627450980392157,0.627450980392157,0.627450980392157);
ENDSEC;
END-ISO-10303-21;
