ISO-10303-21;
HEADER;
/* Generated by software containing ST-Developer
 * from STEP Tools, Inc. (www.steptools.com) 
 */

FILE_DESCRIPTION(
/* description */ (''),
/* implementation_level */ '2;1');

FILE_NAME(
/* name */ 'exercise 13.step',
/* time_stamp */ '2026-10-07T17:31:08+05:30',
/* author */ (''),
/* organization */ (''),
/* preprocessor_version */ 'ST-DEVELOPER v20.2',
/* originating_system */ 'Autodesk Translation Framework v15.15.0.0',
/* authorisation */ '');

FILE_SCHEMA (('AUTOMOTIVE_DESIGN { 1 0 10303 214 3 1 1 }'));
ENDSEC;

DATA;
#10=MECHANICAL_DESIGN_GEOMETRIC_PRESENTATION_REPRESENTATION('',(#13),#599);
#11=SHAPE_REPRESENTATION_RELATIONSHIP('SRR','None',#606,#12);
#12=ADVANCED_BREP_SHAPE_REPRESENTATION('',(#14),#598);
#13=STYLED_ITEM('',(#615),#14);
#14=MANIFOLD_SOLID_BREP('Body1',#355);
#15=FACE_BOUND('',#66,.T.);
#16=FACE_BOUND('',#67,.T.);
#17=FACE_BOUND('',#69,.T.);
#18=FACE_BOUND('',#70,.T.);
#19=PLANE('',#375);
#20=PLANE('',#379);
#21=PLANE('',#383);
#22=PLANE('',#384);
#23=PLANE('',#388);
#24=PLANE('',#389);
#25=PLANE('',#390);
#26=PLANE('',#391);
#27=PLANE('',#392);
#28=PLANE('',#396);
#29=PLANE('',#397);
#30=PLANE('',#398);
#31=FACE_OUTER_BOUND('',#49,.T.);
#32=FACE_OUTER_BOUND('',#50,.T.);
#33=FACE_OUTER_BOUND('',#51,.T.);
#34=FACE_OUTER_BOUND('',#52,.T.);
#35=FACE_OUTER_BOUND('',#53,.T.);
#36=FACE_OUTER_BOUND('',#54,.T.);
#37=FACE_OUTER_BOUND('',#55,.T.);
#38=FACE_OUTER_BOUND('',#56,.T.);
#39=FACE_OUTER_BOUND('',#57,.T.);
#40=FACE_OUTER_BOUND('',#58,.T.);
#41=FACE_OUTER_BOUND('',#59,.T.);
#42=FACE_OUTER_BOUND('',#60,.T.);
#43=FACE_OUTER_BOUND('',#61,.T.);
#44=FACE_OUTER_BOUND('',#62,.T.);
#45=FACE_OUTER_BOUND('',#63,.T.);
#46=FACE_OUTER_BOUND('',#64,.T.);
#47=FACE_OUTER_BOUND('',#65,.T.);
#48=FACE_OUTER_BOUND('',#68,.T.);
#49=EDGE_LOOP('',(#235,#236,#237,#238));
#50=EDGE_LOOP('',(#239,#240,#241,#242));
#51=EDGE_LOOP('',(#243,#244,#245,#246));
#52=EDGE_LOOP('',(#247,#248,#249,#250));
#53=EDGE_LOOP('',(#251,#252,#253,#254));
#54=EDGE_LOOP('',(#255,#256,#257,#258));
#55=EDGE_LOOP('',(#259,#260,#261,#262));
#56=EDGE_LOOP('',(#263,#264,#265,#266));
#57=EDGE_LOOP('',(#267,#268,#269,#270));
#58=EDGE_LOOP('',(#271,#272,#273,#274));
#59=EDGE_LOOP('',(#275,#276,#277,#278));
#60=EDGE_LOOP('',(#279,#280,#281,#282));
#61=EDGE_LOOP('',(#283,#284,#285,#286));
#62=EDGE_LOOP('',(#287,#288,#289,#290));
#63=EDGE_LOOP('',(#291,#292,#293,#294));
#64=EDGE_LOOP('',(#295,#296,#297,#298));
#65=EDGE_LOOP('',(#299,#300,#301,#302,#303,#304,#305,#306,#307,#308,#309,
#310,#311,#312));
#66=EDGE_LOOP('',(#313));
#67=EDGE_LOOP('',(#314));
#68=EDGE_LOOP('',(#315,#316,#317,#318,#319,#320,#321,#322,#323,#324,#325,
#326,#327,#328));
#69=EDGE_LOOP('',(#329));
#70=EDGE_LOOP('',(#330));
#71=LINE('',#502,#107);
#72=LINE('',#508,#108);
#73=LINE('',#513,#109);
#74=LINE('',#515,#110);
#75=LINE('',#517,#111);
#76=LINE('',#518,#112);
#77=LINE('',#524,#113);
#78=LINE('',#527,#114);
#79=LINE('',#529,#115);
#80=LINE('',#530,#116);
#81=LINE('',#536,#117);
#82=LINE('',#539,#118);
#83=LINE('',#541,#119);
#84=LINE('',#542,#120);
#85=LINE('',#545,#121);
#86=LINE('',#547,#122);
#87=LINE('',#548,#123);
#88=LINE('',#554,#124);
#89=LINE('',#557,#125);
#90=LINE('',#559,#126);
#91=LINE('',#560,#127);
#92=LINE('',#563,#128);
#93=LINE('',#565,#129);
#94=LINE('',#566,#130);
#95=LINE('',#569,#131);
#96=LINE('',#571,#132);
#97=LINE('',#572,#133);
#98=LINE('',#575,#134);
#99=LINE('',#577,#135);
#100=LINE('',#578,#136);
#101=LINE('',#581,#137);
#102=LINE('',#583,#138);
#103=LINE('',#584,#139);
#104=LINE('',#590,#140);
#105=LINE('',#592,#141);
#106=LINE('',#593,#142);
#107=VECTOR('',#405,5.);
#108=VECTOR('',#412,5.);
#109=VECTOR('',#417,10.);
#110=VECTOR('',#418,10.);
#111=VECTOR('',#419,10.);
#112=VECTOR('',#420,10.);
#113=VECTOR('',#427,10.);
#114=VECTOR('',#430,10.);
#115=VECTOR('',#431,10.);
#116=VECTOR('',#432,10.);
#117=VECTOR('',#439,10.);
#118=VECTOR('',#442,10.);
#119=VECTOR('',#443,10.);
#120=VECTOR('',#444,10.);
#121=VECTOR('',#447,10.);
#122=VECTOR('',#448,10.);
#123=VECTOR('',#449,10.);
#124=VECTOR('',#456,10.);
#125=VECTOR('',#459,10.);
#126=VECTOR('',#460,10.);
#127=VECTOR('',#461,10.);
#128=VECTOR('',#464,10.);
#129=VECTOR('',#465,10.);
#130=VECTOR('',#466,10.);
#131=VECTOR('',#469,10.);
#132=VECTOR('',#470,10.);
#133=VECTOR('',#471,10.);
#134=VECTOR('',#474,10.);
#135=VECTOR('',#475,10.);
#136=VECTOR('',#476,10.);
#137=VECTOR('',#479,10.);
#138=VECTOR('',#480,10.);
#139=VECTOR('',#481,10.);
#140=VECTOR('',#488,10.);
#141=VECTOR('',#491,10.);
#142=VECTOR('',#492,10.);
#143=CIRCLE('',#370,5.);
#144=CIRCLE('',#371,5.);
#145=CIRCLE('',#373,5.);
#146=CIRCLE('',#374,5.);
#147=CIRCLE('',#377,9.99999999999999);
#148=CIRCLE('',#378,9.99999999999999);
#149=CIRCLE('',#381,10.);
#150=CIRCLE('',#382,10.);
#151=CIRCLE('',#386,5.);
#152=CIRCLE('',#387,5.);
#153=CIRCLE('',#394,5.);
#154=CIRCLE('',#395,5.);
#155=VERTEX_POINT('',#499);
#156=VERTEX_POINT('',#501);
#157=VERTEX_POINT('',#505);
#158=VERTEX_POINT('',#507);
#159=VERTEX_POINT('',#511);
#160=VERTEX_POINT('',#512);
#161=VERTEX_POINT('',#514);
#162=VERTEX_POINT('',#516);
#163=VERTEX_POINT('',#520);
#164=VERTEX_POINT('',#522);
#165=VERTEX_POINT('',#526);
#166=VERTEX_POINT('',#528);
#167=VERTEX_POINT('',#532);
#168=VERTEX_POINT('',#534);
#169=VERTEX_POINT('',#538);
#170=VERTEX_POINT('',#540);
#171=VERTEX_POINT('',#544);
#172=VERTEX_POINT('',#546);
#173=VERTEX_POINT('',#550);
#174=VERTEX_POINT('',#552);
#175=VERTEX_POINT('',#556);
#176=VERTEX_POINT('',#558);
#177=VERTEX_POINT('',#562);
#178=VERTEX_POINT('',#564);
#179=VERTEX_POINT('',#568);
#180=VERTEX_POINT('',#570);
#181=VERTEX_POINT('',#574);
#182=VERTEX_POINT('',#576);
#183=VERTEX_POINT('',#580);
#184=VERTEX_POINT('',#582);
#185=VERTEX_POINT('',#586);
#186=VERTEX_POINT('',#588);
#187=EDGE_CURVE('',#155,#155,#143,.T.);
#188=EDGE_CURVE('',#155,#156,#71,.T.);
#189=EDGE_CURVE('',#156,#156,#144,.T.);
#190=EDGE_CURVE('',#157,#157,#145,.T.);
#191=EDGE_CURVE('',#157,#158,#72,.T.);
#192=EDGE_CURVE('',#158,#158,#146,.T.);
#193=EDGE_CURVE('',#159,#160,#73,.T.);
#194=EDGE_CURVE('',#160,#161,#74,.T.);
#195=EDGE_CURVE('',#162,#161,#75,.T.);
#196=EDGE_CURVE('',#159,#162,#76,.T.);
#197=EDGE_CURVE('',#159,#163,#147,.T.);
#198=EDGE_CURVE('',#164,#162,#148,.T.);
#199=EDGE_CURVE('',#163,#164,#77,.T.);
#200=EDGE_CURVE('',#165,#163,#78,.T.);
#201=EDGE_CURVE('',#166,#164,#79,.T.);
#202=EDGE_CURVE('',#165,#166,#80,.T.);
#203=EDGE_CURVE('',#165,#167,#149,.T.);
#204=EDGE_CURVE('',#168,#166,#150,.T.);
#205=EDGE_CURVE('',#167,#168,#81,.T.);
#206=EDGE_CURVE('',#169,#167,#82,.T.);
#207=EDGE_CURVE('',#170,#168,#83,.T.);
#208=EDGE_CURVE('',#169,#170,#84,.T.);
#209=EDGE_CURVE('',#171,#169,#85,.T.);
#210=EDGE_CURVE('',#172,#170,#86,.T.);
#211=EDGE_CURVE('',#171,#172,#87,.T.);
#212=EDGE_CURVE('',#173,#171,#151,.T.);
#213=EDGE_CURVE('',#174,#172,#152,.T.);
#214=EDGE_CURVE('',#173,#174,#88,.T.);
#215=EDGE_CURVE('',#175,#173,#89,.T.);
#216=EDGE_CURVE('',#176,#174,#90,.T.);
#217=EDGE_CURVE('',#175,#176,#91,.T.);
#218=EDGE_CURVE('',#177,#175,#92,.T.);
#219=EDGE_CURVE('',#178,#176,#93,.T.);
#220=EDGE_CURVE('',#177,#178,#94,.T.);
#221=EDGE_CURVE('',#179,#177,#95,.T.);
#222=EDGE_CURVE('',#180,#178,#96,.T.);
#223=EDGE_CURVE('',#179,#180,#97,.T.);
#224=EDGE_CURVE('',#181,#179,#98,.T.);
#225=EDGE_CURVE('',#182,#180,#99,.T.);
#226=EDGE_CURVE('',#181,#182,#100,.T.);
#227=EDGE_CURVE('',#183,#181,#101,.T.);
#228=EDGE_CURVE('',#184,#182,#102,.T.);
#229=EDGE_CURVE('',#183,#184,#103,.T.);
#230=EDGE_CURVE('',#185,#183,#153,.T.);
#231=EDGE_CURVE('',#186,#184,#154,.T.);
#232=EDGE_CURVE('',#185,#186,#104,.T.);
#233=EDGE_CURVE('',#160,#185,#105,.T.);
#234=EDGE_CURVE('',#161,#186,#106,.T.);
#235=ORIENTED_EDGE('',*,*,#187,.F.);
#236=ORIENTED_EDGE('',*,*,#188,.T.);
#237=ORIENTED_EDGE('',*,*,#189,.T.);
#238=ORIENTED_EDGE('',*,*,#188,.F.);
#239=ORIENTED_EDGE('',*,*,#190,.F.);
#240=ORIENTED_EDGE('',*,*,#191,.T.);
#241=ORIENTED_EDGE('',*,*,#192,.T.);
#242=ORIENTED_EDGE('',*,*,#191,.F.);
#243=ORIENTED_EDGE('',*,*,#193,.T.);
#244=ORIENTED_EDGE('',*,*,#194,.T.);
#245=ORIENTED_EDGE('',*,*,#195,.F.);
#246=ORIENTED_EDGE('',*,*,#196,.F.);
#247=ORIENTED_EDGE('',*,*,#197,.F.);
#248=ORIENTED_EDGE('',*,*,#196,.T.);
#249=ORIENTED_EDGE('',*,*,#198,.F.);
#250=ORIENTED_EDGE('',*,*,#199,.F.);
#251=ORIENTED_EDGE('',*,*,#200,.T.);
#252=ORIENTED_EDGE('',*,*,#199,.T.);
#253=ORIENTED_EDGE('',*,*,#201,.F.);
#254=ORIENTED_EDGE('',*,*,#202,.F.);
#255=ORIENTED_EDGE('',*,*,#203,.F.);
#256=ORIENTED_EDGE('',*,*,#202,.T.);
#257=ORIENTED_EDGE('',*,*,#204,.F.);
#258=ORIENTED_EDGE('',*,*,#205,.F.);
#259=ORIENTED_EDGE('',*,*,#206,.T.);
#260=ORIENTED_EDGE('',*,*,#205,.T.);
#261=ORIENTED_EDGE('',*,*,#207,.F.);
#262=ORIENTED_EDGE('',*,*,#208,.F.);
#263=ORIENTED_EDGE('',*,*,#209,.T.);
#264=ORIENTED_EDGE('',*,*,#208,.T.);
#265=ORIENTED_EDGE('',*,*,#210,.F.);
#266=ORIENTED_EDGE('',*,*,#211,.F.);
#267=ORIENTED_EDGE('',*,*,#212,.T.);
#268=ORIENTED_EDGE('',*,*,#211,.T.);
#269=ORIENTED_EDGE('',*,*,#213,.F.);
#270=ORIENTED_EDGE('',*,*,#214,.F.);
#271=ORIENTED_EDGE('',*,*,#215,.T.);
#272=ORIENTED_EDGE('',*,*,#214,.T.);
#273=ORIENTED_EDGE('',*,*,#216,.F.);
#274=ORIENTED_EDGE('',*,*,#217,.F.);
#275=ORIENTED_EDGE('',*,*,#218,.T.);
#276=ORIENTED_EDGE('',*,*,#217,.T.);
#277=ORIENTED_EDGE('',*,*,#219,.F.);
#278=ORIENTED_EDGE('',*,*,#220,.F.);
#279=ORIENTED_EDGE('',*,*,#221,.T.);
#280=ORIENTED_EDGE('',*,*,#220,.T.);
#281=ORIENTED_EDGE('',*,*,#222,.F.);
#282=ORIENTED_EDGE('',*,*,#223,.F.);
#283=ORIENTED_EDGE('',*,*,#224,.T.);
#284=ORIENTED_EDGE('',*,*,#223,.T.);
#285=ORIENTED_EDGE('',*,*,#225,.F.);
#286=ORIENTED_EDGE('',*,*,#226,.F.);
#287=ORIENTED_EDGE('',*,*,#227,.T.);
#288=ORIENTED_EDGE('',*,*,#226,.T.);
#289=ORIENTED_EDGE('',*,*,#228,.F.);
#290=ORIENTED_EDGE('',*,*,#229,.F.);
#291=ORIENTED_EDGE('',*,*,#230,.T.);
#292=ORIENTED_EDGE('',*,*,#229,.T.);
#293=ORIENTED_EDGE('',*,*,#231,.F.);
#294=ORIENTED_EDGE('',*,*,#232,.F.);
#295=ORIENTED_EDGE('',*,*,#233,.T.);
#296=ORIENTED_EDGE('',*,*,#232,.T.);
#297=ORIENTED_EDGE('',*,*,#234,.F.);
#298=ORIENTED_EDGE('',*,*,#194,.F.);
#299=ORIENTED_EDGE('',*,*,#234,.T.);
#300=ORIENTED_EDGE('',*,*,#231,.T.);
#301=ORIENTED_EDGE('',*,*,#228,.T.);
#302=ORIENTED_EDGE('',*,*,#225,.T.);
#303=ORIENTED_EDGE('',*,*,#222,.T.);
#304=ORIENTED_EDGE('',*,*,#219,.T.);
#305=ORIENTED_EDGE('',*,*,#216,.T.);
#306=ORIENTED_EDGE('',*,*,#213,.T.);
#307=ORIENTED_EDGE('',*,*,#210,.T.);
#308=ORIENTED_EDGE('',*,*,#207,.T.);
#309=ORIENTED_EDGE('',*,*,#204,.T.);
#310=ORIENTED_EDGE('',*,*,#201,.T.);
#311=ORIENTED_EDGE('',*,*,#198,.T.);
#312=ORIENTED_EDGE('',*,*,#195,.T.);
#313=ORIENTED_EDGE('',*,*,#190,.T.);
#314=ORIENTED_EDGE('',*,*,#187,.T.);
#315=ORIENTED_EDGE('',*,*,#233,.F.);
#316=ORIENTED_EDGE('',*,*,#193,.F.);
#317=ORIENTED_EDGE('',*,*,#197,.T.);
#318=ORIENTED_EDGE('',*,*,#200,.F.);
#319=ORIENTED_EDGE('',*,*,#203,.T.);
#320=ORIENTED_EDGE('',*,*,#206,.F.);
#321=ORIENTED_EDGE('',*,*,#209,.F.);
#322=ORIENTED_EDGE('',*,*,#212,.F.);
#323=ORIENTED_EDGE('',*,*,#215,.F.);
#324=ORIENTED_EDGE('',*,*,#218,.F.);
#325=ORIENTED_EDGE('',*,*,#221,.F.);
#326=ORIENTED_EDGE('',*,*,#224,.F.);
#327=ORIENTED_EDGE('',*,*,#227,.F.);
#328=ORIENTED_EDGE('',*,*,#230,.F.);
#329=ORIENTED_EDGE('',*,*,#192,.F.);
#330=ORIENTED_EDGE('',*,*,#189,.F.);
#331=CYLINDRICAL_SURFACE('',#369,5.);
#332=CYLINDRICAL_SURFACE('',#372,5.);
#333=CYLINDRICAL_SURFACE('',#376,9.99999999999999);
#334=CYLINDRICAL_SURFACE('',#380,10.);
#335=CYLINDRICAL_SURFACE('',#385,5.);
#336=CYLINDRICAL_SURFACE('',#393,5.);
#337=ADVANCED_FACE('',(#31),#331,.F.);
#338=ADVANCED_FACE('',(#32),#332,.F.);
#339=ADVANCED_FACE('',(#33),#19,.T.);
#340=ADVANCED_FACE('',(#34),#333,.F.);
#341=ADVANCED_FACE('',(#35),#20,.T.);
#342=ADVANCED_FACE('',(#36),#334,.F.);
#343=ADVANCED_FACE('',(#37),#21,.T.);
#344=ADVANCED_FACE('',(#38),#22,.T.);
#345=ADVANCED_FACE('',(#39),#335,.T.);
#346=ADVANCED_FACE('',(#40),#23,.T.);
#347=ADVANCED_FACE('',(#41),#24,.T.);
#348=ADVANCED_FACE('',(#42),#25,.T.);
#349=ADVANCED_FACE('',(#43),#26,.T.);
#350=ADVANCED_FACE('',(#44),#27,.T.);
#351=ADVANCED_FACE('',(#45),#336,.T.);
#352=ADVANCED_FACE('',(#46),#28,.T.);
#353=ADVANCED_FACE('',(#47,#15,#16),#29,.T.);
#354=ADVANCED_FACE('',(#48,#17,#18),#30,.F.);
#355=CLOSED_SHELL('',(#337,#338,#339,#340,#341,#342,#343,#344,#345,#346,
#347,#348,#349,#350,#351,#352,#353,#354));
#356=DERIVED_UNIT_ELEMENT(#358,1.);
#357=DERIVED_UNIT_ELEMENT(#601,-3.);
#358=(
MASS_UNIT()
NAMED_UNIT(*)
SI_UNIT(.KILO.,.GRAM.)
);
#359=DERIVED_UNIT((#356,#357));
#360=MEASURE_REPRESENTATION_ITEM('density measure',
POSITIVE_RATIO_MEASURE(7850.),#359);
#361=PROPERTY_DEFINITION_REPRESENTATION(#366,#363);
#362=PROPERTY_DEFINITION_REPRESENTATION(#367,#364);
#363=REPRESENTATION('material name',(#365),#598);
#364=REPRESENTATION('density',(#360),#598);
#365=DESCRIPTIVE_REPRESENTATION_ITEM('Steel','Steel');
#366=PROPERTY_DEFINITION('material property','material name',#608);
#367=PROPERTY_DEFINITION('material property','density of part',#608);
#368=AXIS2_PLACEMENT_3D('',#497,#399,#400);
#369=AXIS2_PLACEMENT_3D('',#498,#401,#402);
#370=AXIS2_PLACEMENT_3D('',#500,#403,#404);
#371=AXIS2_PLACEMENT_3D('',#503,#406,#407);
#372=AXIS2_PLACEMENT_3D('',#504,#408,#409);
#373=AXIS2_PLACEMENT_3D('',#506,#410,#411);
#374=AXIS2_PLACEMENT_3D('',#509,#413,#414);
#375=AXIS2_PLACEMENT_3D('',#510,#415,#416);
#376=AXIS2_PLACEMENT_3D('',#519,#421,#422);
#377=AXIS2_PLACEMENT_3D('',#521,#423,#424);
#378=AXIS2_PLACEMENT_3D('',#523,#425,#426);
#379=AXIS2_PLACEMENT_3D('',#525,#428,#429);
#380=AXIS2_PLACEMENT_3D('',#531,#433,#434);
#381=AXIS2_PLACEMENT_3D('',#533,#435,#436);
#382=AXIS2_PLACEMENT_3D('',#535,#437,#438);
#383=AXIS2_PLACEMENT_3D('',#537,#440,#441);
#384=AXIS2_PLACEMENT_3D('',#543,#445,#446);
#385=AXIS2_PLACEMENT_3D('',#549,#450,#451);
#386=AXIS2_PLACEMENT_3D('',#551,#452,#453);
#387=AXIS2_PLACEMENT_3D('',#553,#454,#455);
#388=AXIS2_PLACEMENT_3D('',#555,#457,#458);
#389=AXIS2_PLACEMENT_3D('',#561,#462,#463);
#390=AXIS2_PLACEMENT_3D('',#567,#467,#468);
#391=AXIS2_PLACEMENT_3D('',#573,#472,#473);
#392=AXIS2_PLACEMENT_3D('',#579,#477,#478);
#393=AXIS2_PLACEMENT_3D('',#585,#482,#483);
#394=AXIS2_PLACEMENT_3D('',#587,#484,#485);
#395=AXIS2_PLACEMENT_3D('',#589,#486,#487);
#396=AXIS2_PLACEMENT_3D('',#591,#489,#490);
#397=AXIS2_PLACEMENT_3D('',#594,#493,#494);
#398=AXIS2_PLACEMENT_3D('',#595,#495,#496);
#399=DIRECTION('axis',(0.,0.,1.));
#400=DIRECTION('refdir',(1.,0.,0.));
#401=DIRECTION('center_axis',(0.,1.,0.));
#402=DIRECTION('ref_axis',(1.,0.,0.));
#403=DIRECTION('center_axis',(0.,-1.,0.));
#404=DIRECTION('ref_axis',(1.,0.,0.));
#405=DIRECTION('',(0.,-1.,0.));
#406=DIRECTION('center_axis',(0.,-1.,0.));
#407=DIRECTION('ref_axis',(1.,0.,0.));
#408=DIRECTION('center_axis',(0.,1.,0.));
#409=DIRECTION('ref_axis',(1.,0.,0.));
#410=DIRECTION('center_axis',(0.,-1.,0.));
#411=DIRECTION('ref_axis',(1.,0.,0.));
#412=DIRECTION('',(0.,-1.,0.));
#413=DIRECTION('center_axis',(0.,-1.,0.));
#414=DIRECTION('ref_axis',(1.,0.,0.));
#415=DIRECTION('center_axis',(-1.,0.,2.22044604925031E-16));
#416=DIRECTION('ref_axis',(2.22044604925031E-16,0.,1.));
#417=DIRECTION('',(2.22044604925031E-16,0.,1.));
#418=DIRECTION('',(0.,1.,0.));
#419=DIRECTION('',(2.22044604925031E-16,0.,1.));
#420=DIRECTION('',(0.,1.,0.));
#421=DIRECTION('center_axis',(0.,1.,0.));
#422=DIRECTION('ref_axis',(1.,0.,4.44089209850063E-16));
#423=DIRECTION('center_axis',(0.,1.,0.));
#424=DIRECTION('ref_axis',(1.,0.,4.44089209850063E-16));
#425=DIRECTION('center_axis',(0.,-1.,0.));
#426=DIRECTION('ref_axis',(1.,0.,4.44089209850063E-16));
#427=DIRECTION('',(0.,1.,0.));
#428=DIRECTION('center_axis',(4.44089209850063E-16,0.,1.));
#429=DIRECTION('ref_axis',(1.,0.,-4.44089209850063E-16));
#430=DIRECTION('',(1.,0.,-4.44089209850063E-16));
#431=DIRECTION('',(1.,0.,-4.44089209850063E-16));
#432=DIRECTION('',(0.,1.,0.));
#433=DIRECTION('center_axis',(0.,1.,0.));
#434=DIRECTION('ref_axis',(0.,0.,-1.));
#435=DIRECTION('center_axis',(0.,1.,0.));
#436=DIRECTION('ref_axis',(0.,0.,-1.));
#437=DIRECTION('center_axis',(0.,-1.,0.));
#438=DIRECTION('ref_axis',(0.,0.,-1.));
#439=DIRECTION('',(0.,1.,0.));
#440=DIRECTION('center_axis',(1.,0.,0.));
#441=DIRECTION('ref_axis',(0.,0.,-1.));
#442=DIRECTION('',(0.,0.,-1.));
#443=DIRECTION('',(0.,0.,-1.));
#444=DIRECTION('',(0.,1.,0.));
#445=DIRECTION('center_axis',(0.,0.,1.));
#446=DIRECTION('ref_axis',(1.,0.,0.));
#447=DIRECTION('',(1.,0.,0.));
#448=DIRECTION('',(1.,0.,0.));
#449=DIRECTION('',(0.,1.,0.));
#450=DIRECTION('center_axis',(0.,1.,0.));
#451=DIRECTION('ref_axis',(-1.,0.,-4.44089209850063E-16));
#452=DIRECTION('center_axis',(0.,1.,0.));
#453=DIRECTION('ref_axis',(-1.,0.,-4.44089209850063E-16));
#454=DIRECTION('center_axis',(0.,1.,0.));
#455=DIRECTION('ref_axis',(-1.,0.,-4.44089209850063E-16));
#456=DIRECTION('',(0.,1.,0.));
#457=DIRECTION('center_axis',(-1.,0.,0.));
#458=DIRECTION('ref_axis',(0.,0.,1.));
#459=DIRECTION('',(0.,0.,1.));
#460=DIRECTION('',(0.,0.,1.));
#461=DIRECTION('',(0.,1.,0.));
#462=DIRECTION('center_axis',(-0.707106781186548,0.,-0.707106781186547));
#463=DIRECTION('ref_axis',(-0.707106781186547,0.,0.707106781186548));
#464=DIRECTION('',(-0.707106781186547,0.,0.707106781186548));
#465=DIRECTION('',(-0.707106781186547,0.,0.707106781186548));
#466=DIRECTION('',(0.,1.,0.));
#467=DIRECTION('center_axis',(1.48029736616688E-16,0.,-1.));
#468=DIRECTION('ref_axis',(-1.,0.,-1.48029736616688E-16));
#469=DIRECTION('',(-1.,0.,-1.48029736616688E-16));
#470=DIRECTION('',(-1.,0.,-1.48029736616688E-16));
#471=DIRECTION('',(0.,1.,0.));
#472=DIRECTION('center_axis',(0.694007917556505,0.,-0.719967367572228));
#473=DIRECTION('ref_axis',(-0.719967367572228,0.,-0.694007917556505));
#474=DIRECTION('',(-0.719967367572228,0.,-0.694007917556505));
#475=DIRECTION('',(-0.719967367572228,0.,-0.694007917556505));
#476=DIRECTION('',(0.,1.,0.));
#477=DIRECTION('center_axis',(1.,0.,0.));
#478=DIRECTION('ref_axis',(0.,0.,-1.));
#479=DIRECTION('',(0.,0.,-1.));
#480=DIRECTION('',(0.,0.,-1.));
#481=DIRECTION('',(0.,1.,0.));
#482=DIRECTION('center_axis',(0.,1.,0.));
#483=DIRECTION('ref_axis',(0.,0.,1.));
#484=DIRECTION('center_axis',(0.,1.,0.));
#485=DIRECTION('ref_axis',(0.,0.,1.));
#486=DIRECTION('center_axis',(0.,1.,0.));
#487=DIRECTION('ref_axis',(0.,0.,1.));
#488=DIRECTION('',(0.,1.,0.));
#489=DIRECTION('center_axis',(0.,0.,1.));
#490=DIRECTION('ref_axis',(1.,0.,0.));
#491=DIRECTION('',(1.,0.,0.));
#492=DIRECTION('',(1.,0.,0.));
#493=DIRECTION('center_axis',(0.,1.,0.));
#494=DIRECTION('ref_axis',(1.,0.,0.));
#495=DIRECTION('center_axis',(0.,1.,0.));
#496=DIRECTION('ref_axis',(1.,0.,0.));
#497=CARTESIAN_POINT('',(0.,0.,0.));
#498=CARTESIAN_POINT('Origin',(9.81031907680546,0.,9.99999999999999));
#499=CARTESIAN_POINT('',(4.81031907680546,5.,9.99999999999999));
#500=CARTESIAN_POINT('Origin',(9.81031907680546,5.,9.99999999999999));
#501=CARTESIAN_POINT('',(4.81031907680546,0.,9.99999999999999));
#502=CARTESIAN_POINT('',(4.81031907680546,0.,9.99999999999999));
#503=CARTESIAN_POINT('Origin',(9.81031907680546,0.,9.99999999999999));
#504=CARTESIAN_POINT('Origin',(-40.1896809231945,0.,9.99999999999999));
#505=CARTESIAN_POINT('',(-45.1896809231945,5.,9.99999999999999));
#506=CARTESIAN_POINT('Origin',(-40.1896809231945,5.,9.99999999999999));
#507=CARTESIAN_POINT('',(-45.1896809231945,0.,9.99999999999999));
#508=CARTESIAN_POINT('',(-45.1896809231945,0.,9.99999999999999));
#509=CARTESIAN_POINT('Origin',(-40.1896809231945,0.,9.99999999999999));
#510=CARTESIAN_POINT('Origin',(-0.189680923194544,0.,15.));
#511=CARTESIAN_POINT('',(-0.189680923194544,0.,15.));
#512=CARTESIAN_POINT('',(-0.189680923194543,0.,20.));
#513=CARTESIAN_POINT('',(-0.189680923194544,0.,15.));
#514=CARTESIAN_POINT('',(-0.189680923194544,5.,20.));
#515=CARTESIAN_POINT('',(-0.189680923194543,0.,20.));
#516=CARTESIAN_POINT('',(-0.189680923194544,5.,15.));
#517=CARTESIAN_POINT('',(-0.189680923194544,5.,15.));
#518=CARTESIAN_POINT('',(-0.189680923194544,0.,15.));
#519=CARTESIAN_POINT('Origin',(-10.1896809231945,0.,15.));
#520=CARTESIAN_POINT('',(-10.1896809231945,0.,5.));
#521=CARTESIAN_POINT('Origin',(-10.1896809231945,0.,15.));
#522=CARTESIAN_POINT('',(-10.1896809231945,5.,5.));
#523=CARTESIAN_POINT('Origin',(-10.1896809231945,5.,15.));
#524=CARTESIAN_POINT('',(-10.1896809231945,0.,5.));
#525=CARTESIAN_POINT('Origin',(-20.1896809231945,0.,5.00000000000001));
#526=CARTESIAN_POINT('',(-20.1896809231945,0.,5.00000000000001));
#527=CARTESIAN_POINT('',(-20.1896809231945,0.,5.00000000000001));
#528=CARTESIAN_POINT('',(-20.1896809231945,5.,5.00000000000001));
#529=CARTESIAN_POINT('',(-20.1896809231945,5.,5.00000000000001));
#530=CARTESIAN_POINT('',(-20.1896809231945,0.,5.00000000000001));
#531=CARTESIAN_POINT('Origin',(-20.1896809231945,0.,15.));
#532=CARTESIAN_POINT('',(-30.1896809231945,0.,15.));
#533=CARTESIAN_POINT('Origin',(-20.1896809231945,0.,15.));
#534=CARTESIAN_POINT('',(-30.1896809231945,5.,15.));
#535=CARTESIAN_POINT('Origin',(-20.1896809231945,5.,15.));
#536=CARTESIAN_POINT('',(-30.1896809231945,0.,15.));
#537=CARTESIAN_POINT('Origin',(-30.1896809231945,0.,20.));
#538=CARTESIAN_POINT('',(-30.1896809231945,0.,20.));
#539=CARTESIAN_POINT('',(-30.1896809231945,0.,20.));
#540=CARTESIAN_POINT('',(-30.1896809231945,5.,20.));
#541=CARTESIAN_POINT('',(-30.1896809231945,5.,20.));
#542=CARTESIAN_POINT('',(-30.1896809231945,0.,20.));
#543=CARTESIAN_POINT('Origin',(-45.1896809231945,0.,20.));
#544=CARTESIAN_POINT('',(-45.1896809231945,0.,20.));
#545=CARTESIAN_POINT('',(-45.1896809231945,0.,20.));
#546=CARTESIAN_POINT('',(-45.1896809231945,5.,20.));
#547=CARTESIAN_POINT('',(-45.1896809231945,5.,20.));
#548=CARTESIAN_POINT('',(-45.1896809231945,0.,20.));
#549=CARTESIAN_POINT('Origin',(-45.1896809231945,0.,15.));
#550=CARTESIAN_POINT('',(-50.1896809231945,0.,15.));
#551=CARTESIAN_POINT('Origin',(-45.1896809231945,0.,15.));
#552=CARTESIAN_POINT('',(-50.1896809231945,5.,15.));
#553=CARTESIAN_POINT('Origin',(-45.1896809231945,5.,15.));
#554=CARTESIAN_POINT('',(-50.1896809231945,0.,15.));
#555=CARTESIAN_POINT('Origin',(-50.1896809231945,0.,0.));
#556=CARTESIAN_POINT('',(-50.1896809231945,0.,0.));
#557=CARTESIAN_POINT('',(-50.1896809231945,0.,0.));
#558=CARTESIAN_POINT('',(-50.1896809231945,5.,0.));
#559=CARTESIAN_POINT('',(-50.1896809231945,5.,0.));
#560=CARTESIAN_POINT('',(-50.1896809231945,0.,0.));
#561=CARTESIAN_POINT('Origin',(-30.1896809231945,0.,-20.));
#562=CARTESIAN_POINT('',(-30.1896809231945,0.,-20.));
#563=CARTESIAN_POINT('',(-30.1896809231945,0.,-20.));
#564=CARTESIAN_POINT('',(-30.1896809231945,5.,-20.));
#565=CARTESIAN_POINT('',(-30.1896809231945,5.,-20.));
#566=CARTESIAN_POINT('',(-30.1896809231945,0.,-20.));
#567=CARTESIAN_POINT('Origin',(-0.189680923194536,0.,-20.));
#568=CARTESIAN_POINT('',(-0.189680923194536,0.,-20.));
#569=CARTESIAN_POINT('',(-0.189680923194536,0.,-20.));
#570=CARTESIAN_POINT('',(-0.189680923194535,5.,-20.));
#571=CARTESIAN_POINT('',(-0.189680923194536,5.,-20.));
#572=CARTESIAN_POINT('',(-0.189680923194536,0.,-20.));
#573=CARTESIAN_POINT('Origin',(19.8103190768055,0.,-0.72112851734544));
#574=CARTESIAN_POINT('',(19.8103190768055,0.,-0.72112851734544));
#575=CARTESIAN_POINT('',(19.8103190768055,0.,-0.72112851734544));
#576=CARTESIAN_POINT('',(19.8103190768055,5.,-0.721128517345441));
#577=CARTESIAN_POINT('',(19.8103190768055,5.,-0.72112851734544));
#578=CARTESIAN_POINT('',(19.8103190768055,0.,-0.72112851734544));
#579=CARTESIAN_POINT('Origin',(19.8103190768055,0.,15.));
#580=CARTESIAN_POINT('',(19.8103190768055,0.,15.));
#581=CARTESIAN_POINT('',(19.8103190768055,0.,15.));
#582=CARTESIAN_POINT('',(19.8103190768055,5.,15.));
#583=CARTESIAN_POINT('',(19.8103190768055,5.,15.));
#584=CARTESIAN_POINT('',(19.8103190768055,0.,15.));
#585=CARTESIAN_POINT('Origin',(14.8103190768055,0.,15.));
#586=CARTESIAN_POINT('',(14.8103190768055,0.,20.));
#587=CARTESIAN_POINT('Origin',(14.8103190768055,0.,15.));
#588=CARTESIAN_POINT('',(14.8103190768055,5.,20.));
#589=CARTESIAN_POINT('Origin',(14.8103190768055,5.,15.));
#590=CARTESIAN_POINT('',(14.8103190768055,0.,20.));
#591=CARTESIAN_POINT('Origin',(-0.189680923194543,0.,20.));
#592=CARTESIAN_POINT('',(-0.189680923194543,0.,20.));
#593=CARTESIAN_POINT('',(-0.189680923194543,5.,20.));
#594=CARTESIAN_POINT('Origin',(-15.1896809231945,5.,-4.44089209850063E-15));
#595=CARTESIAN_POINT('Origin',(-15.1896809231945,0.,-4.44089209850063E-15));
#596=UNCERTAINTY_MEASURE_WITH_UNIT(LENGTH_MEASURE(0.01),#600,
'DISTANCE_ACCURACY_VALUE',
'Maximum model space distance between geometric entities at asserted c
onnectivities');
#597=UNCERTAINTY_MEASURE_WITH_UNIT(LENGTH_MEASURE(0.01),#600,
'DISTANCE_ACCURACY_VALUE',
'Maximum model space distance between geometric entities at asserted c
onnectivities');
#598=(
GEOMETRIC_REPRESENTATION_CONTEXT(3)
GLOBAL_UNCERTAINTY_ASSIGNED_CONTEXT((#596))
GLOBAL_UNIT_ASSIGNED_CONTEXT((#600,#602,#603))
REPRESENTATION_CONTEXT('','3D')
);
#599=(
GEOMETRIC_REPRESENTATION_CONTEXT(3)
GLOBAL_UNCERTAINTY_ASSIGNED_CONTEXT((#597))
GLOBAL_UNIT_ASSIGNED_CONTEXT((#600,#602,#603))
REPRESENTATION_CONTEXT('','3D')
);
#600=(
LENGTH_UNIT()
NAMED_UNIT(*)
SI_UNIT(.MILLI.,.METRE.)
);
#601=(
LENGTH_UNIT()
NAMED_UNIT(*)
SI_UNIT($,.METRE.)
);
#602=(
NAMED_UNIT(*)
PLANE_ANGLE_UNIT()
SI_UNIT($,.RADIAN.)
);
#603=(
NAMED_UNIT(*)
SI_UNIT($,.STERADIAN.)
SOLID_ANGLE_UNIT()
);
#604=SHAPE_DEFINITION_REPRESENTATION(#605,#606);
#605=PRODUCT_DEFINITION_SHAPE('',$,#608);
#606=SHAPE_REPRESENTATION('',(#368),#598);
#607=PRODUCT_DEFINITION_CONTEXT('part definition',#612,'design');
#608=PRODUCT_DEFINITION('2026-10-07-17-22-23-943','exercise 13',#609,#607);
#609=PRODUCT_DEFINITION_FORMATION('',$,#614);
#610=PRODUCT_RELATED_PRODUCT_CATEGORY('exercise 13','exercise 13',(#614));
#611=APPLICATION_PROTOCOL_DEFINITION('international standard',
'automotive_design',2009,#612);
#612=APPLICATION_CONTEXT(
'Core Data for Automotive Mechanical Design Process');
#613=PRODUCT_CONTEXT('part definition',#612,'mechanical');
#614=PRODUCT('2026-10-07-17-22-23-943','exercise 13',$,(#613));
#615=PRESENTATION_STYLE_ASSIGNMENT((#616));
#616=SURFACE_STYLE_USAGE(.BOTH.,#617);
#617=SURFACE_SIDE_STYLE('',(#618));
#618=SURFACE_STYLE_FILL_AREA(#619);
#619=FILL_AREA_STYLE('Steel - Satin',(#620));
#620=FILL_AREA_STYLE_COLOUR('Steel - Satin',#621);
#621=COLOUR_RGB('Steel - Satin',0.627450980392157,0.627450980392157,0.627450980392157);
ENDSEC;
END-ISO-10303-21;
