ISO-10303-21;
HEADER;
/* Generated by software containing ST-Developer
 * from STEP Tools, Inc. (www.steptools.com) 
 */

FILE_DESCRIPTION(
/* description */ (''),
/* implementation_level */ '2;1');

FILE_NAME(
/* name */ 'exercise 8.step',
/* time_stamp */ '2026-10-04T12:19:43+05:30',
/* author */ (''),
/* organization */ (''),
/* preprocessor_version */ 'ST-DEVELOPER v20.2',
/* originating_system */ 'Autodesk Translation Framework v15.15.0.0',
/* authorisation */ '');

FILE_SCHEMA (('AUTOMOTIVE_DESIGN { 1 0 10303 214 3 1 1 }'));
ENDSEC;

DATA;
#10=MECHANICAL_DESIGN_GEOMETRIC_PRESENTATION_REPRESENTATION('',(#13),#665);
#11=SHAPE_REPRESENTATION_RELATIONSHIP('SRR','None',#672,#12);
#12=ADVANCED_BREP_SHAPE_REPRESENTATION('',(#14),#664);
#13=STYLED_ITEM('',(#681),#14);
#14=MANIFOLD_SOLID_BREP('Body1',#397);
#15=FACE_BOUND('',#76,.T.);
#16=FACE_BOUND('',#77,.T.);
#17=FACE_BOUND('',#79,.T.);
#18=FACE_BOUND('',#80,.T.);
#19=CIRCLE('',#417,10.);
#20=CIRCLE('',#418,10.);
#21=CIRCLE('',#420,10.);
#22=CIRCLE('',#421,10.);
#23=CIRCLE('',#423,25.0000000000026);
#24=CIRCLE('',#424,25.0000000000026);
#25=CIRCLE('',#432,25.);
#26=CIRCLE('',#433,25.);
#27=CIRCLE('',#435,17.5000000000046);
#28=CIRCLE('',#436,17.5000000000046);
#29=CIRCLE('',#439,17.4999999999997);
#30=CIRCLE('',#440,17.4999999999997);
#31=CYLINDRICAL_SURFACE('',#416,10.);
#32=CYLINDRICAL_SURFACE('',#419,10.);
#33=CYLINDRICAL_SURFACE('',#422,25.0000000000026);
#34=CYLINDRICAL_SURFACE('',#431,25.);
#35=CYLINDRICAL_SURFACE('',#434,17.5000000000046);
#36=CYLINDRICAL_SURFACE('',#438,17.4999999999997);
#37=FACE_OUTER_BOUND('',#57,.T.);
#38=FACE_OUTER_BOUND('',#58,.T.);
#39=FACE_OUTER_BOUND('',#59,.T.);
#40=FACE_OUTER_BOUND('',#60,.T.);
#41=FACE_OUTER_BOUND('',#61,.T.);
#42=FACE_OUTER_BOUND('',#62,.T.);
#43=FACE_OUTER_BOUND('',#63,.T.);
#44=FACE_OUTER_BOUND('',#64,.T.);
#45=FACE_OUTER_BOUND('',#65,.T.);
#46=FACE_OUTER_BOUND('',#66,.T.);
#47=FACE_OUTER_BOUND('',#67,.T.);
#48=FACE_OUTER_BOUND('',#68,.T.);
#49=FACE_OUTER_BOUND('',#69,.T.);
#50=FACE_OUTER_BOUND('',#70,.T.);
#51=FACE_OUTER_BOUND('',#71,.T.);
#52=FACE_OUTER_BOUND('',#72,.T.);
#53=FACE_OUTER_BOUND('',#73,.T.);
#54=FACE_OUTER_BOUND('',#74,.T.);
#55=FACE_OUTER_BOUND('',#75,.T.);
#56=FACE_OUTER_BOUND('',#78,.T.);
#57=EDGE_LOOP('',(#255,#256,#257,#258));
#58=EDGE_LOOP('',(#259,#260,#261,#262));
#59=EDGE_LOOP('',(#263,#264,#265,#266));
#60=EDGE_LOOP('',(#267,#268,#269,#270,#271,#272,#273,#274));
#61=EDGE_LOOP('',(#275,#276,#277,#278));
#62=EDGE_LOOP('',(#279,#280,#281,#282));
#63=EDGE_LOOP('',(#283,#284,#285,#286));
#64=EDGE_LOOP('',(#287,#288,#289,#290));
#65=EDGE_LOOP('',(#291,#292,#293,#294));
#66=EDGE_LOOP('',(#295,#296,#297,#298));
#67=EDGE_LOOP('',(#299,#300,#301,#302,#303,#304,#305,#306));
#68=EDGE_LOOP('',(#307,#308,#309,#310));
#69=EDGE_LOOP('',(#311,#312,#313,#314));
#70=EDGE_LOOP('',(#315,#316,#317,#318));
#71=EDGE_LOOP('',(#319,#320,#321,#322));
#72=EDGE_LOOP('',(#323,#324,#325,#326));
#73=EDGE_LOOP('',(#327,#328,#329,#330));
#74=EDGE_LOOP('',(#331,#332,#333,#334));
#75=EDGE_LOOP('',(#335,#336,#337,#338,#339,#340,#341,#342,#343,#344,#345,
#346));
#76=EDGE_LOOP('',(#347));
#77=EDGE_LOOP('',(#348));
#78=EDGE_LOOP('',(#349,#350,#351,#352,#353,#354,#355,#356,#357,#358,#359,
#360));
#79=EDGE_LOOP('',(#361));
#80=EDGE_LOOP('',(#362));
#81=LINE('',#555,#123);
#82=LINE('',#557,#124);
#83=LINE('',#559,#125);
#84=LINE('',#560,#126);
#85=LINE('',#563,#127);
#86=LINE('',#565,#128);
#87=LINE('',#566,#129);
#88=LINE('',#569,#130);
#89=LINE('',#571,#131);
#90=LINE('',#572,#132);
#91=LINE('',#575,#133);
#92=LINE('',#577,#134);
#93=LINE('',#579,#135);
#94=LINE('',#581,#136);
#95=LINE('',#582,#137);
#96=LINE('',#585,#138);
#97=LINE('',#586,#139);
#98=LINE('',#591,#140);
#99=LINE('',#597,#141);
#100=LINE('',#604,#142);
#101=LINE('',#607,#143);
#102=LINE('',#610,#144);
#103=LINE('',#612,#145);
#104=LINE('',#613,#146);
#105=LINE('',#616,#147);
#106=LINE('',#618,#148);
#107=LINE('',#619,#149);
#108=LINE('',#622,#150);
#109=LINE('',#623,#151);
#110=LINE('',#624,#152);
#111=LINE('',#626,#153);
#112=LINE('',#629,#154);
#113=LINE('',#631,#155);
#114=LINE('',#632,#156);
#115=LINE('',#635,#157);
#116=LINE('',#637,#158);
#117=LINE('',#638,#159);
#118=LINE('',#644,#160);
#119=LINE('',#650,#161);
#120=LINE('',#653,#162);
#121=LINE('',#655,#163);
#122=LINE('',#656,#164);
#123=VECTOR('',#447,10.);
#124=VECTOR('',#448,10.);
#125=VECTOR('',#449,10.);
#126=VECTOR('',#450,10.);
#127=VECTOR('',#453,10.);
#128=VECTOR('',#454,10.);
#129=VECTOR('',#455,10.);
#130=VECTOR('',#458,10.);
#131=VECTOR('',#459,10.);
#132=VECTOR('',#460,10.);
#133=VECTOR('',#463,10.);
#134=VECTOR('',#464,10.);
#135=VECTOR('',#465,10.);
#136=VECTOR('',#466,10.);
#137=VECTOR('',#467,10.);
#138=VECTOR('',#470,10.);
#139=VECTOR('',#471,10.);
#140=VECTOR('',#476,10.);
#141=VECTOR('',#483,10.);
#142=VECTOR('',#490,10.);
#143=VECTOR('',#493,10.);
#144=VECTOR('',#496,10.);
#145=VECTOR('',#497,10.);
#146=VECTOR('',#498,10.);
#147=VECTOR('',#501,10.);
#148=VECTOR('',#502,10.);
#149=VECTOR('',#503,10.);
#150=VECTOR('',#506,10.);
#151=VECTOR('',#507,10.);
#152=VECTOR('',#508,10.);
#153=VECTOR('',#511,10.);
#154=VECTOR('',#514,10.);
#155=VECTOR('',#515,10.);
#156=VECTOR('',#516,10.);
#157=VECTOR('',#519,10.);
#158=VECTOR('',#520,10.);
#159=VECTOR('',#521,10.);
#160=VECTOR('',#528,10.);
#161=VECTOR('',#535,10.);
#162=VECTOR('',#538,10.);
#163=VECTOR('',#539,10.);
#164=VECTOR('',#540,10.);
#165=VERTEX_POINT('',#553);
#166=VERTEX_POINT('',#554);
#167=VERTEX_POINT('',#556);
#168=VERTEX_POINT('',#558);
#169=VERTEX_POINT('',#562);
#170=VERTEX_POINT('',#564);
#171=VERTEX_POINT('',#568);
#172=VERTEX_POINT('',#570);
#173=VERTEX_POINT('',#574);
#174=VERTEX_POINT('',#576);
#175=VERTEX_POINT('',#578);
#176=VERTEX_POINT('',#580);
#177=VERTEX_POINT('',#584);
#178=VERTEX_POINT('',#588);
#179=VERTEX_POINT('',#590);
#180=VERTEX_POINT('',#594);
#181=VERTEX_POINT('',#596);
#182=VERTEX_POINT('',#600);
#183=VERTEX_POINT('',#601);
#184=VERTEX_POINT('',#603);
#185=VERTEX_POINT('',#605);
#186=VERTEX_POINT('',#609);
#187=VERTEX_POINT('',#611);
#188=VERTEX_POINT('',#615);
#189=VERTEX_POINT('',#617);
#190=VERTEX_POINT('',#621);
#191=VERTEX_POINT('',#628);
#192=VERTEX_POINT('',#630);
#193=VERTEX_POINT('',#634);
#194=VERTEX_POINT('',#636);
#195=VERTEX_POINT('',#640);
#196=VERTEX_POINT('',#642);
#197=VERTEX_POINT('',#646);
#198=VERTEX_POINT('',#648);
#199=VERTEX_POINT('',#652);
#200=VERTEX_POINT('',#654);
#201=EDGE_CURVE('',#165,#166,#81,.T.);
#202=EDGE_CURVE('',#167,#165,#82,.T.);
#203=EDGE_CURVE('',#168,#167,#83,.T.);
#204=EDGE_CURVE('',#168,#166,#84,.T.);
#205=EDGE_CURVE('',#166,#169,#85,.T.);
#206=EDGE_CURVE('',#170,#168,#86,.T.);
#207=EDGE_CURVE('',#170,#169,#87,.T.);
#208=EDGE_CURVE('',#169,#171,#88,.T.);
#209=EDGE_CURVE('',#172,#170,#89,.T.);
#210=EDGE_CURVE('',#171,#172,#90,.T.);
#211=EDGE_CURVE('',#167,#173,#91,.T.);
#212=EDGE_CURVE('',#174,#173,#92,.T.);
#213=EDGE_CURVE('',#175,#174,#93,.T.);
#214=EDGE_CURVE('',#175,#176,#94,.T.);
#215=EDGE_CURVE('',#176,#172,#95,.T.);
#216=EDGE_CURVE('',#165,#177,#96,.T.);
#217=EDGE_CURVE('',#173,#177,#97,.T.);
#218=EDGE_CURVE('',#178,#178,#19,.T.);
#219=EDGE_CURVE('',#178,#179,#98,.T.);
#220=EDGE_CURVE('',#179,#179,#20,.T.);
#221=EDGE_CURVE('',#180,#180,#21,.T.);
#222=EDGE_CURVE('',#180,#181,#99,.T.);
#223=EDGE_CURVE('',#181,#181,#22,.T.);
#224=EDGE_CURVE('',#182,#183,#23,.T.);
#225=EDGE_CURVE('',#182,#184,#100,.T.);
#226=EDGE_CURVE('',#185,#184,#24,.T.);
#227=EDGE_CURVE('',#183,#185,#101,.T.);
#228=EDGE_CURVE('',#183,#186,#102,.T.);
#229=EDGE_CURVE('',#187,#185,#103,.T.);
#230=EDGE_CURVE('',#186,#187,#104,.T.);
#231=EDGE_CURVE('',#186,#188,#105,.T.);
#232=EDGE_CURVE('',#189,#187,#106,.T.);
#233=EDGE_CURVE('',#188,#189,#107,.T.);
#234=EDGE_CURVE('',#190,#171,#108,.T.);
#235=EDGE_CURVE('',#190,#188,#109,.T.);
#236=EDGE_CURVE('',#177,#189,#110,.T.);
#237=EDGE_CURVE('',#190,#176,#111,.T.);
#238=EDGE_CURVE('',#175,#191,#112,.T.);
#239=EDGE_CURVE('',#192,#174,#113,.T.);
#240=EDGE_CURVE('',#191,#192,#114,.T.);
#241=EDGE_CURVE('',#193,#191,#115,.T.);
#242=EDGE_CURVE('',#194,#192,#116,.T.);
#243=EDGE_CURVE('',#193,#194,#117,.T.);
#244=EDGE_CURVE('',#193,#195,#25,.T.);
#245=EDGE_CURVE('',#196,#194,#26,.T.);
#246=EDGE_CURVE('',#195,#196,#118,.T.);
#247=EDGE_CURVE('',#197,#195,#27,.T.);
#248=EDGE_CURVE('',#198,#196,#28,.T.);
#249=EDGE_CURVE('',#197,#198,#119,.T.);
#250=EDGE_CURVE('',#199,#197,#120,.T.);
#251=EDGE_CURVE('',#200,#198,#121,.T.);
#252=EDGE_CURVE('',#199,#200,#122,.T.);
#253=EDGE_CURVE('',#182,#199,#29,.T.);
#254=EDGE_CURVE('',#184,#200,#30,.T.);
#255=ORIENTED_EDGE('',*,*,#201,.F.);
#256=ORIENTED_EDGE('',*,*,#202,.F.);
#257=ORIENTED_EDGE('',*,*,#203,.F.);
#258=ORIENTED_EDGE('',*,*,#204,.T.);
#259=ORIENTED_EDGE('',*,*,#205,.F.);
#260=ORIENTED_EDGE('',*,*,#204,.F.);
#261=ORIENTED_EDGE('',*,*,#206,.F.);
#262=ORIENTED_EDGE('',*,*,#207,.T.);
#263=ORIENTED_EDGE('',*,*,#208,.F.);
#264=ORIENTED_EDGE('',*,*,#207,.F.);
#265=ORIENTED_EDGE('',*,*,#209,.F.);
#266=ORIENTED_EDGE('',*,*,#210,.F.);
#267=ORIENTED_EDGE('',*,*,#209,.T.);
#268=ORIENTED_EDGE('',*,*,#206,.T.);
#269=ORIENTED_EDGE('',*,*,#203,.T.);
#270=ORIENTED_EDGE('',*,*,#211,.T.);
#271=ORIENTED_EDGE('',*,*,#212,.F.);
#272=ORIENTED_EDGE('',*,*,#213,.F.);
#273=ORIENTED_EDGE('',*,*,#214,.T.);
#274=ORIENTED_EDGE('',*,*,#215,.T.);
#275=ORIENTED_EDGE('',*,*,#202,.T.);
#276=ORIENTED_EDGE('',*,*,#216,.T.);
#277=ORIENTED_EDGE('',*,*,#217,.F.);
#278=ORIENTED_EDGE('',*,*,#211,.F.);
#279=ORIENTED_EDGE('',*,*,#218,.F.);
#280=ORIENTED_EDGE('',*,*,#219,.T.);
#281=ORIENTED_EDGE('',*,*,#220,.T.);
#282=ORIENTED_EDGE('',*,*,#219,.F.);
#283=ORIENTED_EDGE('',*,*,#221,.F.);
#284=ORIENTED_EDGE('',*,*,#222,.T.);
#285=ORIENTED_EDGE('',*,*,#223,.T.);
#286=ORIENTED_EDGE('',*,*,#222,.F.);
#287=ORIENTED_EDGE('',*,*,#224,.F.);
#288=ORIENTED_EDGE('',*,*,#225,.T.);
#289=ORIENTED_EDGE('',*,*,#226,.F.);
#290=ORIENTED_EDGE('',*,*,#227,.F.);
#291=ORIENTED_EDGE('',*,*,#228,.F.);
#292=ORIENTED_EDGE('',*,*,#227,.T.);
#293=ORIENTED_EDGE('',*,*,#229,.F.);
#294=ORIENTED_EDGE('',*,*,#230,.F.);
#295=ORIENTED_EDGE('',*,*,#231,.F.);
#296=ORIENTED_EDGE('',*,*,#230,.T.);
#297=ORIENTED_EDGE('',*,*,#232,.F.);
#298=ORIENTED_EDGE('',*,*,#233,.F.);
#299=ORIENTED_EDGE('',*,*,#208,.T.);
#300=ORIENTED_EDGE('',*,*,#234,.F.);
#301=ORIENTED_EDGE('',*,*,#235,.T.);
#302=ORIENTED_EDGE('',*,*,#233,.T.);
#303=ORIENTED_EDGE('',*,*,#236,.F.);
#304=ORIENTED_EDGE('',*,*,#216,.F.);
#305=ORIENTED_EDGE('',*,*,#201,.T.);
#306=ORIENTED_EDGE('',*,*,#205,.T.);
#307=ORIENTED_EDGE('',*,*,#210,.T.);
#308=ORIENTED_EDGE('',*,*,#215,.F.);
#309=ORIENTED_EDGE('',*,*,#237,.F.);
#310=ORIENTED_EDGE('',*,*,#234,.T.);
#311=ORIENTED_EDGE('',*,*,#238,.F.);
#312=ORIENTED_EDGE('',*,*,#213,.T.);
#313=ORIENTED_EDGE('',*,*,#239,.F.);
#314=ORIENTED_EDGE('',*,*,#240,.F.);
#315=ORIENTED_EDGE('',*,*,#241,.T.);
#316=ORIENTED_EDGE('',*,*,#240,.T.);
#317=ORIENTED_EDGE('',*,*,#242,.F.);
#318=ORIENTED_EDGE('',*,*,#243,.F.);
#319=ORIENTED_EDGE('',*,*,#244,.F.);
#320=ORIENTED_EDGE('',*,*,#243,.T.);
#321=ORIENTED_EDGE('',*,*,#245,.F.);
#322=ORIENTED_EDGE('',*,*,#246,.F.);
#323=ORIENTED_EDGE('',*,*,#247,.T.);
#324=ORIENTED_EDGE('',*,*,#246,.T.);
#325=ORIENTED_EDGE('',*,*,#248,.F.);
#326=ORIENTED_EDGE('',*,*,#249,.F.);
#327=ORIENTED_EDGE('',*,*,#250,.T.);
#328=ORIENTED_EDGE('',*,*,#249,.T.);
#329=ORIENTED_EDGE('',*,*,#251,.F.);
#330=ORIENTED_EDGE('',*,*,#252,.F.);
#331=ORIENTED_EDGE('',*,*,#253,.T.);
#332=ORIENTED_EDGE('',*,*,#252,.T.);
#333=ORIENTED_EDGE('',*,*,#254,.F.);
#334=ORIENTED_EDGE('',*,*,#225,.F.);
#335=ORIENTED_EDGE('',*,*,#254,.T.);
#336=ORIENTED_EDGE('',*,*,#251,.T.);
#337=ORIENTED_EDGE('',*,*,#248,.T.);
#338=ORIENTED_EDGE('',*,*,#245,.T.);
#339=ORIENTED_EDGE('',*,*,#242,.T.);
#340=ORIENTED_EDGE('',*,*,#239,.T.);
#341=ORIENTED_EDGE('',*,*,#212,.T.);
#342=ORIENTED_EDGE('',*,*,#217,.T.);
#343=ORIENTED_EDGE('',*,*,#236,.T.);
#344=ORIENTED_EDGE('',*,*,#232,.T.);
#345=ORIENTED_EDGE('',*,*,#229,.T.);
#346=ORIENTED_EDGE('',*,*,#226,.T.);
#347=ORIENTED_EDGE('',*,*,#221,.T.);
#348=ORIENTED_EDGE('',*,*,#218,.T.);
#349=ORIENTED_EDGE('',*,*,#253,.F.);
#350=ORIENTED_EDGE('',*,*,#224,.T.);
#351=ORIENTED_EDGE('',*,*,#228,.T.);
#352=ORIENTED_EDGE('',*,*,#231,.T.);
#353=ORIENTED_EDGE('',*,*,#235,.F.);
#354=ORIENTED_EDGE('',*,*,#237,.T.);
#355=ORIENTED_EDGE('',*,*,#214,.F.);
#356=ORIENTED_EDGE('',*,*,#238,.T.);
#357=ORIENTED_EDGE('',*,*,#241,.F.);
#358=ORIENTED_EDGE('',*,*,#244,.T.);
#359=ORIENTED_EDGE('',*,*,#247,.F.);
#360=ORIENTED_EDGE('',*,*,#250,.F.);
#361=ORIENTED_EDGE('',*,*,#223,.F.);
#362=ORIENTED_EDGE('',*,*,#220,.F.);
#363=PLANE('',#411);
#364=PLANE('',#412);
#365=PLANE('',#413);
#366=PLANE('',#414);
#367=PLANE('',#415);
#368=PLANE('',#425);
#369=PLANE('',#426);
#370=PLANE('',#427);
#371=PLANE('',#428);
#372=PLANE('',#429);
#373=PLANE('',#430);
#374=PLANE('',#437);
#375=PLANE('',#441);
#376=PLANE('',#442);
#377=ADVANCED_FACE('',(#37),#363,.F.);
#378=ADVANCED_FACE('',(#38),#364,.F.);
#379=ADVANCED_FACE('',(#39),#365,.F.);
#380=ADVANCED_FACE('',(#40),#366,.T.);
#381=ADVANCED_FACE('',(#41),#367,.T.);
#382=ADVANCED_FACE('',(#42),#31,.F.);
#383=ADVANCED_FACE('',(#43),#32,.F.);
#384=ADVANCED_FACE('',(#44),#33,.F.);
#385=ADVANCED_FACE('',(#45),#368,.T.);
#386=ADVANCED_FACE('',(#46),#369,.T.);
#387=ADVANCED_FACE('',(#47),#370,.T.);
#388=ADVANCED_FACE('',(#48),#371,.T.);
#389=ADVANCED_FACE('',(#49),#372,.T.);
#390=ADVANCED_FACE('',(#50),#373,.T.);
#391=ADVANCED_FACE('',(#51),#34,.F.);
#392=ADVANCED_FACE('',(#52),#35,.T.);
#393=ADVANCED_FACE('',(#53),#374,.T.);
#394=ADVANCED_FACE('',(#54),#36,.T.);
#395=ADVANCED_FACE('',(#55,#15,#16),#375,.T.);
#396=ADVANCED_FACE('',(#56,#17,#18),#376,.F.);
#397=CLOSED_SHELL('',(#377,#378,#379,#380,#381,#382,#383,#384,#385,#386,
#387,#388,#389,#390,#391,#392,#393,#394,#395,#396));
#398=DERIVED_UNIT_ELEMENT(#400,1.);
#399=DERIVED_UNIT_ELEMENT(#667,-3.);
#400=(
MASS_UNIT()
NAMED_UNIT(*)
SI_UNIT(.KILO.,.GRAM.)
);
#401=DERIVED_UNIT((#398,#399));
#402=MEASURE_REPRESENTATION_ITEM('density measure',
POSITIVE_RATIO_MEASURE(7850.),#401);
#403=PROPERTY_DEFINITION_REPRESENTATION(#408,#405);
#404=PROPERTY_DEFINITION_REPRESENTATION(#409,#406);
#405=REPRESENTATION('material name',(#407),#664);
#406=REPRESENTATION('density',(#402),#664);
#407=DESCRIPTIVE_REPRESENTATION_ITEM('Steel','Steel');
#408=PROPERTY_DEFINITION('material property','material name',#674);
#409=PROPERTY_DEFINITION('material property','density of part',#674);
#410=AXIS2_PLACEMENT_3D('',#551,#443,#444);
#411=AXIS2_PLACEMENT_3D('',#552,#445,#446);
#412=AXIS2_PLACEMENT_3D('',#561,#451,#452);
#413=AXIS2_PLACEMENT_3D('',#567,#456,#457);
#414=AXIS2_PLACEMENT_3D('',#573,#461,#462);
#415=AXIS2_PLACEMENT_3D('',#583,#468,#469);
#416=AXIS2_PLACEMENT_3D('',#587,#472,#473);
#417=AXIS2_PLACEMENT_3D('',#589,#474,#475);
#418=AXIS2_PLACEMENT_3D('',#592,#477,#478);
#419=AXIS2_PLACEMENT_3D('',#593,#479,#480);
#420=AXIS2_PLACEMENT_3D('',#595,#481,#482);
#421=AXIS2_PLACEMENT_3D('',#598,#484,#485);
#422=AXIS2_PLACEMENT_3D('',#599,#486,#487);
#423=AXIS2_PLACEMENT_3D('',#602,#488,#489);
#424=AXIS2_PLACEMENT_3D('',#606,#491,#492);
#425=AXIS2_PLACEMENT_3D('',#608,#494,#495);
#426=AXIS2_PLACEMENT_3D('',#614,#499,#500);
#427=AXIS2_PLACEMENT_3D('',#620,#504,#505);
#428=AXIS2_PLACEMENT_3D('',#625,#509,#510);
#429=AXIS2_PLACEMENT_3D('',#627,#512,#513);
#430=AXIS2_PLACEMENT_3D('',#633,#517,#518);
#431=AXIS2_PLACEMENT_3D('',#639,#522,#523);
#432=AXIS2_PLACEMENT_3D('',#641,#524,#525);
#433=AXIS2_PLACEMENT_3D('',#643,#526,#527);
#434=AXIS2_PLACEMENT_3D('',#645,#529,#530);
#435=AXIS2_PLACEMENT_3D('',#647,#531,#532);
#436=AXIS2_PLACEMENT_3D('',#649,#533,#534);
#437=AXIS2_PLACEMENT_3D('',#651,#536,#537);
#438=AXIS2_PLACEMENT_3D('',#657,#541,#542);
#439=AXIS2_PLACEMENT_3D('',#658,#543,#544);
#440=AXIS2_PLACEMENT_3D('',#659,#545,#546);
#441=AXIS2_PLACEMENT_3D('',#660,#547,#548);
#442=AXIS2_PLACEMENT_3D('',#661,#549,#550);
#443=DIRECTION('axis',(0.,0.,1.));
#444=DIRECTION('refdir',(1.,0.,0.));
#445=DIRECTION('center_axis',(0.,1.,0.));
#446=DIRECTION('ref_axis',(0.,0.,-1.));
#447=DIRECTION('',(0.,0.,1.));
#448=DIRECTION('',(-1.,0.,0.));
#449=DIRECTION('',(0.,0.,-1.));
#450=DIRECTION('',(-1.,0.,0.));
#451=DIRECTION('center_axis',(0.,0.,1.));
#452=DIRECTION('ref_axis',(0.,1.,0.));
#453=DIRECTION('',(0.,-1.,0.));
#454=DIRECTION('',(0.,1.,0.));
#455=DIRECTION('',(-1.,0.,0.));
#456=DIRECTION('center_axis',(0.,-1.,0.));
#457=DIRECTION('ref_axis',(0.,0.,1.));
#458=DIRECTION('',(0.,0.,-1.));
#459=DIRECTION('',(0.,0.,1.));
#460=DIRECTION('',(1.,0.,0.));
#461=DIRECTION('center_axis',(1.,0.,0.));
#462=DIRECTION('ref_axis',(0.,0.,-1.));
#463=DIRECTION('',(0.,1.,0.));
#464=DIRECTION('',(0.,0.,-1.));
#465=DIRECTION('',(0.,1.,0.));
#466=DIRECTION('',(0.,0.,-1.));
#467=DIRECTION('',(0.,1.,0.));
#468=DIRECTION('center_axis',(0.,0.,-1.));
#469=DIRECTION('ref_axis',(-1.,0.,0.));
#470=DIRECTION('',(0.,1.,0.));
#471=DIRECTION('',(-1.,0.,0.));
#472=DIRECTION('center_axis',(0.,1.,0.));
#473=DIRECTION('ref_axis',(1.,0.,0.));
#474=DIRECTION('center_axis',(0.,-1.,0.));
#475=DIRECTION('ref_axis',(1.,0.,0.));
#476=DIRECTION('',(0.,-1.,0.));
#477=DIRECTION('center_axis',(0.,-1.,0.));
#478=DIRECTION('ref_axis',(1.,0.,0.));
#479=DIRECTION('center_axis',(0.,1.,0.));
#480=DIRECTION('ref_axis',(1.,0.,0.));
#481=DIRECTION('center_axis',(0.,-1.,0.));
#482=DIRECTION('ref_axis',(1.,0.,0.));
#483=DIRECTION('',(0.,-1.,0.));
#484=DIRECTION('center_axis',(0.,-1.,0.));
#485=DIRECTION('ref_axis',(1.,0.,0.));
#486=DIRECTION('center_axis',(0.,1.,0.));
#487=DIRECTION('ref_axis',(0.353396917796364,0.,0.935473472895961));
#488=DIRECTION('center_axis',(0.,1.,0.));
#489=DIRECTION('ref_axis',(0.353396917796364,0.,0.935473472895961));
#490=DIRECTION('',(0.,1.,0.));
#491=DIRECTION('center_axis',(0.,-1.,0.));
#492=DIRECTION('ref_axis',(0.353396917796364,0.,0.935473472895961));
#493=DIRECTION('',(0.,1.,0.));
#494=DIRECTION('center_axis',(-1.,0.,4.87530760123436E-13));
#495=DIRECTION('ref_axis',(4.87530760123436E-13,0.,1.));
#496=DIRECTION('',(-4.87530760123436E-13,0.,-1.));
#497=DIRECTION('',(4.87530760123436E-13,0.,1.));
#498=DIRECTION('',(0.,1.,0.));
#499=DIRECTION('center_axis',(0.,0.,-1.));
#500=DIRECTION('ref_axis',(-1.,0.,0.));
#501=DIRECTION('',(1.,0.,0.));
#502=DIRECTION('',(-1.,0.,0.));
#503=DIRECTION('',(0.,1.,0.));
#504=DIRECTION('center_axis',(-1.,0.,0.));
#505=DIRECTION('ref_axis',(0.,0.,1.));
#506=DIRECTION('',(0.,1.,0.));
#507=DIRECTION('',(0.,0.,1.));
#508=DIRECTION('',(0.,0.,1.));
#509=DIRECTION('center_axis',(0.,0.,-1.));
#510=DIRECTION('ref_axis',(-1.,0.,0.));
#511=DIRECTION('',(1.,0.,0.));
#512=DIRECTION('center_axis',(0.,0.,-1.));
#513=DIRECTION('ref_axis',(-1.,0.,0.));
#514=DIRECTION('',(1.,0.,0.));
#515=DIRECTION('',(-1.,0.,0.));
#516=DIRECTION('',(0.,1.,0.));
#517=DIRECTION('center_axis',(1.,0.,0.));
#518=DIRECTION('ref_axis',(0.,0.,-1.));
#519=DIRECTION('',(0.,0.,-1.));
#520=DIRECTION('',(0.,0.,-1.));
#521=DIRECTION('',(0.,1.,0.));
#522=DIRECTION('center_axis',(0.,1.,0.));
#523=DIRECTION('ref_axis',(-1.,0.,0.));
#524=DIRECTION('center_axis',(0.,1.,0.));
#525=DIRECTION('ref_axis',(-1.,0.,0.));
#526=DIRECTION('center_axis',(0.,-1.,0.));
#527=DIRECTION('ref_axis',(-1.,0.,0.));
#528=DIRECTION('',(0.,1.,0.));
#529=DIRECTION('center_axis',(0.,1.,0.));
#530=DIRECTION('ref_axis',(0.885572243912058,0.,0.464501669332374));
#531=DIRECTION('center_axis',(0.,1.,0.));
#532=DIRECTION('ref_axis',(-0.569070181684604,0.,0.82228895670406));
#533=DIRECTION('center_axis',(0.,1.,0.));
#534=DIRECTION('ref_axis',(-0.569070181684604,0.,0.82228895670406));
#535=DIRECTION('',(0.,1.,0.));
#536=DIRECTION('center_axis',(-7.54498416120847E-17,0.,1.));
#537=DIRECTION('ref_axis',(1.,0.,7.54498416120847E-17));
#538=DIRECTION('',(1.,0.,7.54498416120847E-17));
#539=DIRECTION('',(1.,0.,7.54498416120847E-17));
#540=DIRECTION('',(0.,1.,0.));
#541=DIRECTION('center_axis',(0.,1.,0.));
#542=DIRECTION('ref_axis',(-0.87455620722437,0.,0.484924159436633));
#543=DIRECTION('center_axis',(0.,1.,0.));
#544=DIRECTION('ref_axis',(-0.353396917796363,0.,-0.935473472895961));
#545=DIRECTION('center_axis',(0.,1.,0.));
#546=DIRECTION('ref_axis',(-0.353396917796363,0.,-0.935473472895961));
#547=DIRECTION('center_axis',(0.,1.,0.));
#548=DIRECTION('ref_axis',(1.,0.,0.));
#549=DIRECTION('center_axis',(0.,1.,0.));
#550=DIRECTION('ref_axis',(1.,0.,0.));
#551=CARTESIAN_POINT('',(0.,0.,0.));
#552=CARTESIAN_POINT('Origin',(-0.409602356618315,15.,-52.));
#553=CARTESIAN_POINT('',(-20.4096023566183,15.,-87.));
#554=CARTESIAN_POINT('',(-20.4096023566183,15.,-52.));
#555=CARTESIAN_POINT('',(-20.4096023566183,15.,-69.5));
#556=CARTESIAN_POINT('',(-0.409602356618315,15.,-87.));
#557=CARTESIAN_POINT('',(-0.409602356618315,15.,-87.));
#558=CARTESIAN_POINT('',(-0.409602356618315,15.,-52.));
#559=CARTESIAN_POINT('',(-0.409602356618315,15.,-47.));
#560=CARTESIAN_POINT('',(-0.409602356618315,15.,-52.));
#561=CARTESIAN_POINT('Origin',(-0.409602356618315,5.,-52.));
#562=CARTESIAN_POINT('',(-20.4096023566183,5.,-52.));
#563=CARTESIAN_POINT('',(-20.4096023566183,2.5,-52.));
#564=CARTESIAN_POINT('',(-0.409602356618315,5.,-52.));
#565=CARTESIAN_POINT('',(-0.409602356618315,2.5,-52.));
#566=CARTESIAN_POINT('',(-0.409602356618315,5.,-52.));
#567=CARTESIAN_POINT('Origin',(-0.409602356618315,5.,-87.));
#568=CARTESIAN_POINT('',(-20.4096023566183,5.,-87.));
#569=CARTESIAN_POINT('',(-20.4096023566183,5.,-87.));
#570=CARTESIAN_POINT('',(-0.409602356618315,5.,-87.));
#571=CARTESIAN_POINT('',(-0.409602356618315,5.,-64.5));
#572=CARTESIAN_POINT('',(-0.409602356618315,5.,-87.));
#573=CARTESIAN_POINT('Origin',(-0.409602356618315,0.,-42.));
#574=CARTESIAN_POINT('',(-0.409602356618315,20.,-87.));
#575=CARTESIAN_POINT('',(-0.409602356618315,0.,-87.));
#576=CARTESIAN_POINT('',(-0.409602356618315,20.,-42.));
#577=CARTESIAN_POINT('',(-0.409602356618315,20.,-42.));
#578=CARTESIAN_POINT('',(-0.409602356618315,0.,-42.));
#579=CARTESIAN_POINT('',(-0.409602356618315,0.,-42.));
#580=CARTESIAN_POINT('',(-0.409602356618315,0.,-87.));
#581=CARTESIAN_POINT('',(-0.409602356618315,0.,-42.));
#582=CARTESIAN_POINT('',(-0.409602356618315,0.,-87.));
#583=CARTESIAN_POINT('Origin',(-0.409602356618315,0.,-87.));
#584=CARTESIAN_POINT('',(-20.4096023566183,20.,-87.));
#585=CARTESIAN_POINT('',(-20.4096023566183,0.,-87.));
#586=CARTESIAN_POINT('',(-20.4096023566183,20.,-87.));
#587=CARTESIAN_POINT('Origin',(14.5881609395541,0.,-0.000843793999004054));
#588=CARTESIAN_POINT('',(4.58816093955414,20.,-0.00084379399900282));
#589=CARTESIAN_POINT('Origin',(14.5881609395541,20.,-0.000843793999004054));
#590=CARTESIAN_POINT('',(4.58816093955414,0.,-0.00084379399900283));
#591=CARTESIAN_POINT('',(4.58816093955414,0.,-0.00084379399900283));
#592=CARTESIAN_POINT('Origin',(14.5881609395541,0.,-0.000843793999004054));
#593=CARTESIAN_POINT('Origin',(-35.4096023566183,0.,0.472088953020056));
#594=CARTESIAN_POINT('',(-45.4096023566183,20.,0.472088953020057));
#595=CARTESIAN_POINT('Origin',(-35.4096023566183,20.,0.472088953020056));
#596=CARTESIAN_POINT('',(-45.4096023566183,0.,0.472088953020057));
#597=CARTESIAN_POINT('',(-45.4096023566183,0.,0.472088953020057));
#598=CARTESIAN_POINT('Origin',(-35.4096023566183,0.,0.472088953020056));
#599=CARTESIAN_POINT('Origin',(-50.4289713629646,0.,-39.2855336450604));
#600=CARTESIAN_POINT('',(-41.5940484180546,0.,-15.898696822659));
#601=CARTESIAN_POINT('',(-25.428971362962,0.,-39.2855336450604));
#602=CARTESIAN_POINT('Origin',(-50.4289713629646,0.,-39.2855336450604));
#603=CARTESIAN_POINT('',(-41.5940484180546,20.,-15.898696822659));
#604=CARTESIAN_POINT('',(-41.5940484180546,0.,-15.898696822659));
#605=CARTESIAN_POINT('',(-25.428971362962,20.,-39.2855336450604));
#606=CARTESIAN_POINT('Origin',(-50.4289713629646,20.,-39.2855336450604));
#607=CARTESIAN_POINT('',(-25.428971362962,0.,-39.2855336450604));
#608=CARTESIAN_POINT('Origin',(-25.4289713629629,0.,-42.));
#609=CARTESIAN_POINT('',(-25.4289713629629,0.,-42.));
#610=CARTESIAN_POINT('',(-25.4289713629616,0.,-39.2855336450604));
#611=CARTESIAN_POINT('',(-25.4289713629629,20.,-42.));
#612=CARTESIAN_POINT('',(-25.4289713629616,20.,-39.2855336450604));
#613=CARTESIAN_POINT('',(-25.4289713629629,0.,-42.));
#614=CARTESIAN_POINT('Origin',(-20.4096023566183,0.,-42.));
#615=CARTESIAN_POINT('',(-20.4096023566183,0.,-42.));
#616=CARTESIAN_POINT('',(-25.4289713629629,0.,-42.));
#617=CARTESIAN_POINT('',(-20.4096023566183,20.,-42.));
#618=CARTESIAN_POINT('',(-25.4289713629629,20.,-42.));
#619=CARTESIAN_POINT('',(-20.4096023566183,0.,-42.));
#620=CARTESIAN_POINT('Origin',(-20.4096023566183,0.,-87.));
#621=CARTESIAN_POINT('',(-20.4096023566183,0.,-87.));
#622=CARTESIAN_POINT('',(-20.4096023566183,0.,-87.));
#623=CARTESIAN_POINT('',(-20.4096023566183,0.,-87.));
#624=CARTESIAN_POINT('',(-20.4096023566183,20.,-87.));
#625=CARTESIAN_POINT('Origin',(-0.409602356618315,0.,-87.));
#626=CARTESIAN_POINT('',(-20.4096023566183,0.,-87.));
#627=CARTESIAN_POINT('Origin',(4.59039764338169,0.,-42.));
#628=CARTESIAN_POINT('',(4.59039764338169,0.,-42.));
#629=CARTESIAN_POINT('',(-0.409602356618315,0.,-42.));
#630=CARTESIAN_POINT('',(4.59039764338169,20.,-42.));
#631=CARTESIAN_POINT('',(-0.409602356618315,20.,-42.));
#632=CARTESIAN_POINT('',(4.59039764338169,0.,-42.));
#633=CARTESIAN_POINT('Origin',(4.59039764338169,0.,-39.7649343014672));
#634=CARTESIAN_POINT('',(4.59039764338169,0.,-39.7649343014672));
#635=CARTESIAN_POINT('',(4.59039764338169,0.,-39.7649343014672));
#636=CARTESIAN_POINT('',(4.59039764338169,20.,-39.7649343014672));
#637=CARTESIAN_POINT('',(4.59039764338169,20.,-39.7649343014672));
#638=CARTESIAN_POINT('',(4.59039764338169,0.,-39.7649343014672));
#639=CARTESIAN_POINT('Origin',(29.5903976433817,0.,-39.7649343014672));
#640=CARTESIAN_POINT('',(20.7655525234885,0.,-16.3742928265119));
#641=CARTESIAN_POINT('Origin',(29.5903976433817,0.,-39.7649343014672));
#642=CARTESIAN_POINT('',(20.7655525234885,20.,-16.3742928265119));
#643=CARTESIAN_POINT('Origin',(29.5903976433817,20.,-39.7649343014672));
#644=CARTESIAN_POINT('',(20.7655525234885,0.,-16.3742928265119));
#645=CARTESIAN_POINT('Origin',(14.5881609395541,0.,-0.000843793999004054));
#646=CARTESIAN_POINT('',(4.62943276007095,0.,14.3892129483258));
#647=CARTESIAN_POINT('Origin',(14.5881609395541,0.,-0.000843793999004054));
#648=CARTESIAN_POINT('',(4.62943276007096,20.,14.3892129483258));
#649=CARTESIAN_POINT('Origin',(14.5881609395541,20.,-0.000843793999004054));
#650=CARTESIAN_POINT('',(4.62943276007095,0.,14.3892129483258));
#651=CARTESIAN_POINT('Origin',(-24.8000001162291,0.,14.3892129483258));
#652=CARTESIAN_POINT('',(-24.8000001162291,0.,14.3892129483258));
#653=CARTESIAN_POINT('',(-24.8000001162291,0.,14.3892129483258));
#654=CARTESIAN_POINT('',(-24.8000001162291,20.,14.3892129483258));
#655=CARTESIAN_POINT('',(-24.8000001162291,20.,14.3892129483258));
#656=CARTESIAN_POINT('',(-24.8000001162291,0.,14.3892129483258));
#657=CARTESIAN_POINT('Origin',(-35.4096023566183,0.,0.472088953020056));
#658=CARTESIAN_POINT('Origin',(-35.4096023566183,0.,0.472088953020056));
#659=CARTESIAN_POINT('Origin',(-35.4096023566183,20.,0.472088953020056));
#660=CARTESIAN_POINT('Origin',(-10.4107207085296,20.,-34.5139555234901));
#661=CARTESIAN_POINT('Origin',(-10.4107207085296,0.,-34.5139555234901));
#662=UNCERTAINTY_MEASURE_WITH_UNIT(LENGTH_MEASURE(0.01),#666,
'DISTANCE_ACCURACY_VALUE',
'Maximum model space distance between geometric entities at asserted c
onnectivities');
#663=UNCERTAINTY_MEASURE_WITH_UNIT(LENGTH_MEASURE(0.01),#666,
'DISTANCE_ACCURACY_VALUE',
'Maximum model space distance between geometric entities at asserted c
onnectivities');
#664=(
GEOMETRIC_REPRESENTATION_CONTEXT(3)
GLOBAL_UNCERTAINTY_ASSIGNED_CONTEXT((#662))
GLOBAL_UNIT_ASSIGNED_CONTEXT((#666,#668,#669))
REPRESENTATION_CONTEXT('','3D')
);
#665=(
GEOMETRIC_REPRESENTATION_CONTEXT(3)
GLOBAL_UNCERTAINTY_ASSIGNED_CONTEXT((#663))
GLOBAL_UNIT_ASSIGNED_CONTEXT((#666,#668,#669))
REPRESENTATION_CONTEXT('','3D')
);
#666=(
LENGTH_UNIT()
NAMED_UNIT(*)
SI_UNIT(.MILLI.,.METRE.)
);
#667=(
LENGTH_UNIT()
NAMED_UNIT(*)
SI_UNIT($,.METRE.)
);
#668=(
NAMED_UNIT(*)
PLANE_ANGLE_UNIT()
SI_UNIT($,.RADIAN.)
);
#669=(
NAMED_UNIT(*)
SI_UNIT($,.STERADIAN.)
SOLID_ANGLE_UNIT()
);
#670=SHAPE_DEFINITION_REPRESENTATION(#671,#672);
#671=PRODUCT_DEFINITION_SHAPE('',$,#674);
#672=SHAPE_REPRESENTATION('',(#410),#664);
#673=PRODUCT_DEFINITION_CONTEXT('part definition',#678,'design');
#674=PRODUCT_DEFINITION('2026-10-04-11-06-58-206','exercise 8',#675,#673);
#675=PRODUCT_DEFINITION_FORMATION('',$,#680);
#676=PRODUCT_RELATED_PRODUCT_CATEGORY('exercise 8','exercise 8',(#680));
#677=APPLICATION_PROTOCOL_DEFINITION('international standard',
'automotive_design',2009,#678);
#678=APPLICATION_CONTEXT(
'Core Data for Automotive Mechanical Design Process');
#679=PRODUCT_CONTEXT('part definition',#678,'mechanical');
#680=PRODUCT('2026-10-04-11-06-58-206','exercise 8',$,(#679));
#681=PRESENTATION_STYLE_ASSIGNMENT((#682));
#682=SURFACE_STYLE_USAGE(.BOTH.,#683);
#683=SURFACE_SIDE_STYLE('',(#684));
#684=SURFACE_STYLE_FILL_AREA(#685);
#685=FILL_AREA_STYLE('Steel - Satin',(#686));
#686=FILL_AREA_STYLE_COLOUR('Steel - Satin',#687);
#687=COLOUR_RGB('Steel - Satin',0.627450980392157,0.627450980392157,0.627450980392157);
ENDSEC;
END-ISO-10303-21;
