ISO-10303-21;
HEADER;
/* Generated by software containing ST-Developer
 * from STEP Tools, Inc. (www.steptools.com) 
 */

FILE_DESCRIPTION(
/* description */ (''),
/* implementation_level */ '2;1');

FILE_NAME(
/* name */ 'exercise 2.step',
/* time_stamp */ '2026-10-03T23:12:30+05:30',
/* author */ (''),
/* organization */ (''),
/* preprocessor_version */ 'ST-DEVELOPER v20.2',
/* originating_system */ 'Autodesk Translation Framework v15.15.0.0',
/* authorisation */ '');

FILE_SCHEMA (('AUTOMOTIVE_DESIGN { 1 0 10303 214 3 1 1 }'));
ENDSEC;

DATA;
#10=MECHANICAL_DESIGN_GEOMETRIC_PRESENTATION_REPRESENTATION('',(#13),#669);
#11=SHAPE_REPRESENTATION_RELATIONSHIP('SRR','None',#676,#12);
#12=ADVANCED_BREP_SHAPE_REPRESENTATION('',(#14),#668);
#13=STYLED_ITEM('',(#685),#14);
#14=MANIFOLD_SOLID_BREP('Body1',#393);
#15=FACE_BOUND('',#70,.T.);
#16=FACE_BOUND('',#80,.T.);
#17=FACE_BOUND('',#84,.T.);
#18=FACE_BOUND('',#86,.T.);
#19=CIRCLE('',#409,8.0562429908861);
#20=CIRCLE('',#410,8.0562429908861);
#21=CIRCLE('',#413,8.0562429908861);
#22=CIRCLE('',#414,8.0562429908861);
#23=CIRCLE('',#416,30.);
#24=CIRCLE('',#417,30.);
#25=CIRCLE('',#420,30.);
#26=CIRCLE('',#422,30.);
#27=CIRCLE('',#425,5.70488035062656);
#28=CIRCLE('',#426,5.70488035062656);
#29=CIRCLE('',#429,5.70488035062656);
#30=CIRCLE('',#430,5.70488035062656);
#31=CIRCLE('',#433,20.);
#32=CIRCLE('',#434,20.);
#33=CIRCLE('',#439,20.);
#34=CIRCLE('',#440,20.);
#35=CYLINDRICAL_SURFACE('',#408,8.0562429908861);
#36=CYLINDRICAL_SURFACE('',#412,8.0562429908861);
#37=CYLINDRICAL_SURFACE('',#415,30.);
#38=CYLINDRICAL_SURFACE('',#421,30.);
#39=CYLINDRICAL_SURFACE('',#424,5.70488035062656);
#40=CYLINDRICAL_SURFACE('',#428,5.70488035062656);
#41=CYLINDRICAL_SURFACE('',#432,20.);
#42=CYLINDRICAL_SURFACE('',#438,20.);
#43=FACE_OUTER_BOUND('',#63,.T.);
#44=FACE_OUTER_BOUND('',#64,.T.);
#45=FACE_OUTER_BOUND('',#65,.T.);
#46=FACE_OUTER_BOUND('',#66,.T.);
#47=FACE_OUTER_BOUND('',#67,.T.);
#48=FACE_OUTER_BOUND('',#68,.T.);
#49=FACE_OUTER_BOUND('',#69,.T.);
#50=FACE_OUTER_BOUND('',#71,.T.);
#51=FACE_OUTER_BOUND('',#72,.T.);
#52=FACE_OUTER_BOUND('',#73,.T.);
#53=FACE_OUTER_BOUND('',#74,.T.);
#54=FACE_OUTER_BOUND('',#75,.T.);
#55=FACE_OUTER_BOUND('',#76,.T.);
#56=FACE_OUTER_BOUND('',#77,.T.);
#57=FACE_OUTER_BOUND('',#78,.T.);
#58=FACE_OUTER_BOUND('',#79,.T.);
#59=FACE_OUTER_BOUND('',#81,.T.);
#60=FACE_OUTER_BOUND('',#82,.T.);
#61=FACE_OUTER_BOUND('',#83,.T.);
#62=FACE_OUTER_BOUND('',#85,.T.);
#63=EDGE_LOOP('',(#253,#254,#255,#256));
#64=EDGE_LOOP('',(#257,#258,#259,#260));
#65=EDGE_LOOP('',(#261,#262,#263,#264));
#66=EDGE_LOOP('',(#265,#266,#267,#268));
#67=EDGE_LOOP('',(#269,#270,#271,#272));
#68=EDGE_LOOP('',(#273,#274,#275,#276));
#69=EDGE_LOOP('',(#277,#278,#279,#280,#281,#282));
#70=EDGE_LOOP('',(#283,#284,#285,#286));
#71=EDGE_LOOP('',(#287,#288,#289,#290));
#72=EDGE_LOOP('',(#291,#292,#293,#294));
#73=EDGE_LOOP('',(#295,#296,#297,#298));
#74=EDGE_LOOP('',(#299,#300,#301,#302));
#75=EDGE_LOOP('',(#303,#304,#305,#306));
#76=EDGE_LOOP('',(#307,#308,#309,#310));
#77=EDGE_LOOP('',(#311,#312,#313,#314));
#78=EDGE_LOOP('',(#315,#316,#317,#318,#319,#320));
#79=EDGE_LOOP('',(#321,#322,#323,#324,#325,#326));
#80=EDGE_LOOP('',(#327,#328,#329,#330));
#81=EDGE_LOOP('',(#331,#332,#333,#334,#335,#336));
#82=EDGE_LOOP('',(#337,#338,#339,#340));
#83=EDGE_LOOP('',(#341,#342,#343,#344,#345,#346));
#84=EDGE_LOOP('',(#347,#348,#349,#350));
#85=EDGE_LOOP('',(#351,#352,#353,#354,#355,#356));
#86=EDGE_LOOP('',(#357,#358,#359,#360));
#87=LINE('',#559,#125);
#88=LINE('',#561,#126);
#89=LINE('',#563,#127);
#90=LINE('',#564,#128);
#91=LINE('',#570,#129);
#92=LINE('',#573,#130);
#93=LINE('',#575,#131);
#94=LINE('',#576,#132);
#95=LINE('',#585,#133);
#96=LINE('',#588,#134);
#97=LINE('',#591,#135);
#98=LINE('',#593,#136);
#99=LINE('',#594,#137);
#100=LINE('',#597,#138);
#101=LINE('',#599,#139);
#102=LINE('',#601,#140);
#103=LINE('',#605,#141);
#104=LINE('',#610,#142);
#105=LINE('',#612,#143);
#106=LINE('',#614,#144);
#107=LINE('',#615,#145);
#108=LINE('',#621,#146);
#109=LINE('',#624,#147);
#110=LINE('',#626,#148);
#111=LINE('',#627,#149);
#112=LINE('',#634,#150);
#113=LINE('',#636,#151);
#114=LINE('',#638,#152);
#115=LINE('',#639,#153);
#116=LINE('',#645,#154);
#117=LINE('',#647,#155);
#118=LINE('',#649,#156);
#119=LINE('',#650,#157);
#120=LINE('',#653,#158);
#121=LINE('',#654,#159);
#122=LINE('',#657,#160);
#123=LINE('',#659,#161);
#124=LINE('',#660,#162);
#125=VECTOR('',#447,10.);
#126=VECTOR('',#448,10.);
#127=VECTOR('',#449,10.);
#128=VECTOR('',#450,10.);
#129=VECTOR('',#457,10.);
#130=VECTOR('',#460,10.);
#131=VECTOR('',#461,10.);
#132=VECTOR('',#462,10.);
#133=VECTOR('',#473,10.);
#134=VECTOR('',#476,10.);
#135=VECTOR('',#479,10.);
#136=VECTOR('',#480,10.);
#137=VECTOR('',#481,10.);
#138=VECTOR('',#484,10.);
#139=VECTOR('',#485,10.);
#140=VECTOR('',#486,10.);
#141=VECTOR('',#491,10.);
#142=VECTOR('',#496,10.);
#143=VECTOR('',#497,10.);
#144=VECTOR('',#498,10.);
#145=VECTOR('',#499,10.);
#146=VECTOR('',#506,10.);
#147=VECTOR('',#509,10.);
#148=VECTOR('',#510,10.);
#149=VECTOR('',#511,10.);
#150=VECTOR('',#520,10.);
#151=VECTOR('',#521,10.);
#152=VECTOR('',#522,10.);
#153=VECTOR('',#523,10.);
#154=VECTOR('',#530,10.);
#155=VECTOR('',#533,10.);
#156=VECTOR('',#534,10.);
#157=VECTOR('',#535,10.);
#158=VECTOR('',#538,10.);
#159=VECTOR('',#539,10.);
#160=VECTOR('',#542,10.);
#161=VECTOR('',#543,10.);
#162=VECTOR('',#544,10.);
#163=VERTEX_POINT('',#557);
#164=VERTEX_POINT('',#558);
#165=VERTEX_POINT('',#560);
#166=VERTEX_POINT('',#562);
#167=VERTEX_POINT('',#566);
#168=VERTEX_POINT('',#568);
#169=VERTEX_POINT('',#572);
#170=VERTEX_POINT('',#574);
#171=VERTEX_POINT('',#581);
#172=VERTEX_POINT('',#582);
#173=VERTEX_POINT('',#584);
#174=VERTEX_POINT('',#586);
#175=VERTEX_POINT('',#590);
#176=VERTEX_POINT('',#592);
#177=VERTEX_POINT('',#596);
#178=VERTEX_POINT('',#598);
#179=VERTEX_POINT('',#600);
#180=VERTEX_POINT('',#604);
#181=VERTEX_POINT('',#608);
#182=VERTEX_POINT('',#609);
#183=VERTEX_POINT('',#611);
#184=VERTEX_POINT('',#613);
#185=VERTEX_POINT('',#617);
#186=VERTEX_POINT('',#619);
#187=VERTEX_POINT('',#623);
#188=VERTEX_POINT('',#625);
#189=VERTEX_POINT('',#632);
#190=VERTEX_POINT('',#633);
#191=VERTEX_POINT('',#635);
#192=VERTEX_POINT('',#637);
#193=VERTEX_POINT('',#641);
#194=VERTEX_POINT('',#643);
#195=VERTEX_POINT('',#648);
#196=VERTEX_POINT('',#652);
#197=VERTEX_POINT('',#656);
#198=VERTEX_POINT('',#658);
#199=EDGE_CURVE('',#163,#164,#87,.T.);
#200=EDGE_CURVE('',#165,#163,#88,.T.);
#201=EDGE_CURVE('',#166,#165,#89,.T.);
#202=EDGE_CURVE('',#166,#164,#90,.T.);
#203=EDGE_CURVE('',#164,#167,#19,.T.);
#204=EDGE_CURVE('',#168,#166,#20,.T.);
#205=EDGE_CURVE('',#168,#167,#91,.T.);
#206=EDGE_CURVE('',#167,#169,#92,.T.);
#207=EDGE_CURVE('',#170,#168,#93,.T.);
#208=EDGE_CURVE('',#170,#169,#94,.T.);
#209=EDGE_CURVE('',#169,#163,#21,.T.);
#210=EDGE_CURVE('',#165,#170,#22,.T.);
#211=EDGE_CURVE('',#171,#172,#23,.T.);
#212=EDGE_CURVE('',#172,#173,#95,.T.);
#213=EDGE_CURVE('',#173,#174,#24,.T.);
#214=EDGE_CURVE('',#174,#171,#96,.T.);
#215=EDGE_CURVE('',#175,#174,#97,.T.);
#216=EDGE_CURVE('',#176,#175,#98,.T.);
#217=EDGE_CURVE('',#176,#171,#99,.T.);
#218=EDGE_CURVE('',#177,#173,#100,.T.);
#219=EDGE_CURVE('',#178,#177,#101,.T.);
#220=EDGE_CURVE('',#179,#178,#102,.T.);
#221=EDGE_CURVE('',#175,#179,#25,.T.);
#222=EDGE_CURVE('',#179,#180,#103,.T.);
#223=EDGE_CURVE('',#180,#176,#26,.T.);
#224=EDGE_CURVE('',#181,#182,#104,.T.);
#225=EDGE_CURVE('',#182,#183,#105,.T.);
#226=EDGE_CURVE('',#184,#183,#106,.T.);
#227=EDGE_CURVE('',#181,#184,#107,.T.);
#228=EDGE_CURVE('',#185,#181,#27,.T.);
#229=EDGE_CURVE('',#186,#184,#28,.T.);
#230=EDGE_CURVE('',#185,#186,#108,.T.);
#231=EDGE_CURVE('',#187,#185,#109,.T.);
#232=EDGE_CURVE('',#188,#186,#110,.T.);
#233=EDGE_CURVE('',#187,#188,#111,.T.);
#234=EDGE_CURVE('',#182,#187,#29,.T.);
#235=EDGE_CURVE('',#183,#188,#30,.T.);
#236=EDGE_CURVE('',#189,#190,#112,.T.);
#237=EDGE_CURVE('',#190,#191,#113,.T.);
#238=EDGE_CURVE('',#192,#191,#114,.T.);
#239=EDGE_CURVE('',#189,#192,#115,.T.);
#240=EDGE_CURVE('',#193,#189,#31,.T.);
#241=EDGE_CURVE('',#194,#192,#32,.T.);
#242=EDGE_CURVE('',#193,#194,#116,.T.);
#243=EDGE_CURVE('',#178,#193,#117,.T.);
#244=EDGE_CURVE('',#195,#194,#118,.T.);
#245=EDGE_CURVE('',#180,#195,#119,.T.);
#246=EDGE_CURVE('',#196,#195,#120,.T.);
#247=EDGE_CURVE('',#172,#196,#121,.T.);
#248=EDGE_CURVE('',#197,#196,#122,.T.);
#249=EDGE_CURVE('',#198,#197,#123,.T.);
#250=EDGE_CURVE('',#198,#177,#124,.T.);
#251=EDGE_CURVE('',#190,#198,#33,.T.);
#252=EDGE_CURVE('',#191,#197,#34,.T.);
#253=ORIENTED_EDGE('',*,*,#199,.F.);
#254=ORIENTED_EDGE('',*,*,#200,.F.);
#255=ORIENTED_EDGE('',*,*,#201,.F.);
#256=ORIENTED_EDGE('',*,*,#202,.T.);
#257=ORIENTED_EDGE('',*,*,#203,.F.);
#258=ORIENTED_EDGE('',*,*,#202,.F.);
#259=ORIENTED_EDGE('',*,*,#204,.F.);
#260=ORIENTED_EDGE('',*,*,#205,.T.);
#261=ORIENTED_EDGE('',*,*,#206,.F.);
#262=ORIENTED_EDGE('',*,*,#205,.F.);
#263=ORIENTED_EDGE('',*,*,#207,.F.);
#264=ORIENTED_EDGE('',*,*,#208,.T.);
#265=ORIENTED_EDGE('',*,*,#209,.F.);
#266=ORIENTED_EDGE('',*,*,#208,.F.);
#267=ORIENTED_EDGE('',*,*,#210,.F.);
#268=ORIENTED_EDGE('',*,*,#200,.T.);
#269=ORIENTED_EDGE('',*,*,#211,.T.);
#270=ORIENTED_EDGE('',*,*,#212,.T.);
#271=ORIENTED_EDGE('',*,*,#213,.T.);
#272=ORIENTED_EDGE('',*,*,#214,.T.);
#273=ORIENTED_EDGE('',*,*,#214,.F.);
#274=ORIENTED_EDGE('',*,*,#215,.F.);
#275=ORIENTED_EDGE('',*,*,#216,.F.);
#276=ORIENTED_EDGE('',*,*,#217,.T.);
#277=ORIENTED_EDGE('',*,*,#213,.F.);
#278=ORIENTED_EDGE('',*,*,#218,.F.);
#279=ORIENTED_EDGE('',*,*,#219,.F.);
#280=ORIENTED_EDGE('',*,*,#220,.F.);
#281=ORIENTED_EDGE('',*,*,#221,.F.);
#282=ORIENTED_EDGE('',*,*,#215,.T.);
#283=ORIENTED_EDGE('',*,*,#207,.T.);
#284=ORIENTED_EDGE('',*,*,#204,.T.);
#285=ORIENTED_EDGE('',*,*,#201,.T.);
#286=ORIENTED_EDGE('',*,*,#210,.T.);
#287=ORIENTED_EDGE('',*,*,#221,.T.);
#288=ORIENTED_EDGE('',*,*,#222,.T.);
#289=ORIENTED_EDGE('',*,*,#223,.T.);
#290=ORIENTED_EDGE('',*,*,#216,.T.);
#291=ORIENTED_EDGE('',*,*,#224,.T.);
#292=ORIENTED_EDGE('',*,*,#225,.T.);
#293=ORIENTED_EDGE('',*,*,#226,.F.);
#294=ORIENTED_EDGE('',*,*,#227,.F.);
#295=ORIENTED_EDGE('',*,*,#228,.T.);
#296=ORIENTED_EDGE('',*,*,#227,.T.);
#297=ORIENTED_EDGE('',*,*,#229,.F.);
#298=ORIENTED_EDGE('',*,*,#230,.F.);
#299=ORIENTED_EDGE('',*,*,#231,.T.);
#300=ORIENTED_EDGE('',*,*,#230,.T.);
#301=ORIENTED_EDGE('',*,*,#232,.F.);
#302=ORIENTED_EDGE('',*,*,#233,.F.);
#303=ORIENTED_EDGE('',*,*,#234,.T.);
#304=ORIENTED_EDGE('',*,*,#233,.T.);
#305=ORIENTED_EDGE('',*,*,#235,.F.);
#306=ORIENTED_EDGE('',*,*,#225,.F.);
#307=ORIENTED_EDGE('',*,*,#236,.T.);
#308=ORIENTED_EDGE('',*,*,#237,.T.);
#309=ORIENTED_EDGE('',*,*,#238,.F.);
#310=ORIENTED_EDGE('',*,*,#239,.F.);
#311=ORIENTED_EDGE('',*,*,#240,.T.);
#312=ORIENTED_EDGE('',*,*,#239,.T.);
#313=ORIENTED_EDGE('',*,*,#241,.F.);
#314=ORIENTED_EDGE('',*,*,#242,.F.);
#315=ORIENTED_EDGE('',*,*,#222,.F.);
#316=ORIENTED_EDGE('',*,*,#220,.T.);
#317=ORIENTED_EDGE('',*,*,#243,.T.);
#318=ORIENTED_EDGE('',*,*,#242,.T.);
#319=ORIENTED_EDGE('',*,*,#244,.F.);
#320=ORIENTED_EDGE('',*,*,#245,.F.);
#321=ORIENTED_EDGE('',*,*,#211,.F.);
#322=ORIENTED_EDGE('',*,*,#217,.F.);
#323=ORIENTED_EDGE('',*,*,#223,.F.);
#324=ORIENTED_EDGE('',*,*,#245,.T.);
#325=ORIENTED_EDGE('',*,*,#246,.F.);
#326=ORIENTED_EDGE('',*,*,#247,.F.);
#327=ORIENTED_EDGE('',*,*,#206,.T.);
#328=ORIENTED_EDGE('',*,*,#209,.T.);
#329=ORIENTED_EDGE('',*,*,#199,.T.);
#330=ORIENTED_EDGE('',*,*,#203,.T.);
#331=ORIENTED_EDGE('',*,*,#212,.F.);
#332=ORIENTED_EDGE('',*,*,#247,.T.);
#333=ORIENTED_EDGE('',*,*,#248,.F.);
#334=ORIENTED_EDGE('',*,*,#249,.F.);
#335=ORIENTED_EDGE('',*,*,#250,.T.);
#336=ORIENTED_EDGE('',*,*,#218,.T.);
#337=ORIENTED_EDGE('',*,*,#251,.T.);
#338=ORIENTED_EDGE('',*,*,#249,.T.);
#339=ORIENTED_EDGE('',*,*,#252,.F.);
#340=ORIENTED_EDGE('',*,*,#237,.F.);
#341=ORIENTED_EDGE('',*,*,#252,.T.);
#342=ORIENTED_EDGE('',*,*,#248,.T.);
#343=ORIENTED_EDGE('',*,*,#246,.T.);
#344=ORIENTED_EDGE('',*,*,#244,.T.);
#345=ORIENTED_EDGE('',*,*,#241,.T.);
#346=ORIENTED_EDGE('',*,*,#238,.T.);
#347=ORIENTED_EDGE('',*,*,#235,.T.);
#348=ORIENTED_EDGE('',*,*,#232,.T.);
#349=ORIENTED_EDGE('',*,*,#229,.T.);
#350=ORIENTED_EDGE('',*,*,#226,.T.);
#351=ORIENTED_EDGE('',*,*,#219,.T.);
#352=ORIENTED_EDGE('',*,*,#250,.F.);
#353=ORIENTED_EDGE('',*,*,#251,.F.);
#354=ORIENTED_EDGE('',*,*,#236,.F.);
#355=ORIENTED_EDGE('',*,*,#240,.F.);
#356=ORIENTED_EDGE('',*,*,#243,.F.);
#357=ORIENTED_EDGE('',*,*,#234,.F.);
#358=ORIENTED_EDGE('',*,*,#224,.F.);
#359=ORIENTED_EDGE('',*,*,#228,.F.);
#360=ORIENTED_EDGE('',*,*,#231,.F.);
#361=PLANE('',#407);
#362=PLANE('',#411);
#363=PLANE('',#418);
#364=PLANE('',#419);
#365=PLANE('',#423);
#366=PLANE('',#427);
#367=PLANE('',#431);
#368=PLANE('',#435);
#369=PLANE('',#436);
#370=PLANE('',#437);
#371=PLANE('',#441);
#372=PLANE('',#442);
#373=ADVANCED_FACE('',(#43),#361,.F.);
#374=ADVANCED_FACE('',(#44),#35,.F.);
#375=ADVANCED_FACE('',(#45),#362,.F.);
#376=ADVANCED_FACE('',(#46),#36,.F.);
#377=ADVANCED_FACE('',(#47),#37,.T.);
#378=ADVANCED_FACE('',(#48),#363,.T.);
#379=ADVANCED_FACE('',(#49,#15),#364,.T.);
#380=ADVANCED_FACE('',(#50),#38,.T.);
#381=ADVANCED_FACE('',(#51),#365,.T.);
#382=ADVANCED_FACE('',(#52),#39,.F.);
#383=ADVANCED_FACE('',(#53),#366,.T.);
#384=ADVANCED_FACE('',(#54),#40,.F.);
#385=ADVANCED_FACE('',(#55),#367,.T.);
#386=ADVANCED_FACE('',(#56),#41,.T.);
#387=ADVANCED_FACE('',(#57),#368,.T.);
#388=ADVANCED_FACE('',(#58,#16),#369,.T.);
#389=ADVANCED_FACE('',(#59),#370,.T.);
#390=ADVANCED_FACE('',(#60),#42,.T.);
#391=ADVANCED_FACE('',(#61,#17),#371,.T.);
#392=ADVANCED_FACE('',(#62,#18),#372,.F.);
#393=CLOSED_SHELL('',(#373,#374,#375,#376,#377,#378,#379,#380,#381,#382,
#383,#384,#385,#386,#387,#388,#389,#390,#391,#392));
#394=DERIVED_UNIT_ELEMENT(#396,1.);
#395=DERIVED_UNIT_ELEMENT(#671,-3.);
#396=(
MASS_UNIT()
NAMED_UNIT(*)
SI_UNIT(.KILO.,.GRAM.)
);
#397=DERIVED_UNIT((#394,#395));
#398=MEASURE_REPRESENTATION_ITEM('density measure',
POSITIVE_RATIO_MEASURE(7850.),#397);
#399=PROPERTY_DEFINITION_REPRESENTATION(#404,#401);
#400=PROPERTY_DEFINITION_REPRESENTATION(#405,#402);
#401=REPRESENTATION('material name',(#403),#668);
#402=REPRESENTATION('density',(#398),#668);
#403=DESCRIPTIVE_REPRESENTATION_ITEM('Steel','Steel');
#404=PROPERTY_DEFINITION('material property','material name',#678);
#405=PROPERTY_DEFINITION('material property','density of part',#678);
#406=AXIS2_PLACEMENT_3D('',#555,#443,#444);
#407=AXIS2_PLACEMENT_3D('',#556,#445,#446);
#408=AXIS2_PLACEMENT_3D('',#565,#451,#452);
#409=AXIS2_PLACEMENT_3D('',#567,#453,#454);
#410=AXIS2_PLACEMENT_3D('',#569,#455,#456);
#411=AXIS2_PLACEMENT_3D('',#571,#458,#459);
#412=AXIS2_PLACEMENT_3D('',#577,#463,#464);
#413=AXIS2_PLACEMENT_3D('',#578,#465,#466);
#414=AXIS2_PLACEMENT_3D('',#579,#467,#468);
#415=AXIS2_PLACEMENT_3D('',#580,#469,#470);
#416=AXIS2_PLACEMENT_3D('',#583,#471,#472);
#417=AXIS2_PLACEMENT_3D('',#587,#474,#475);
#418=AXIS2_PLACEMENT_3D('',#589,#477,#478);
#419=AXIS2_PLACEMENT_3D('',#595,#482,#483);
#420=AXIS2_PLACEMENT_3D('',#602,#487,#488);
#421=AXIS2_PLACEMENT_3D('',#603,#489,#490);
#422=AXIS2_PLACEMENT_3D('',#606,#492,#493);
#423=AXIS2_PLACEMENT_3D('',#607,#494,#495);
#424=AXIS2_PLACEMENT_3D('',#616,#500,#501);
#425=AXIS2_PLACEMENT_3D('',#618,#502,#503);
#426=AXIS2_PLACEMENT_3D('',#620,#504,#505);
#427=AXIS2_PLACEMENT_3D('',#622,#507,#508);
#428=AXIS2_PLACEMENT_3D('',#628,#512,#513);
#429=AXIS2_PLACEMENT_3D('',#629,#514,#515);
#430=AXIS2_PLACEMENT_3D('',#630,#516,#517);
#431=AXIS2_PLACEMENT_3D('',#631,#518,#519);
#432=AXIS2_PLACEMENT_3D('',#640,#524,#525);
#433=AXIS2_PLACEMENT_3D('',#642,#526,#527);
#434=AXIS2_PLACEMENT_3D('',#644,#528,#529);
#435=AXIS2_PLACEMENT_3D('',#646,#531,#532);
#436=AXIS2_PLACEMENT_3D('',#651,#536,#537);
#437=AXIS2_PLACEMENT_3D('',#655,#540,#541);
#438=AXIS2_PLACEMENT_3D('',#661,#545,#546);
#439=AXIS2_PLACEMENT_3D('',#662,#547,#548);
#440=AXIS2_PLACEMENT_3D('',#663,#549,#550);
#441=AXIS2_PLACEMENT_3D('',#664,#551,#552);
#442=AXIS2_PLACEMENT_3D('',#665,#553,#554);
#443=DIRECTION('axis',(0.,0.,1.));
#444=DIRECTION('refdir',(1.,0.,0.));
#445=DIRECTION('center_axis',(0.,-1.,0.));
#446=DIRECTION('ref_axis',(-1.,0.,0.));
#447=DIRECTION('',(1.,0.,0.));
#448=DIRECTION('',(0.,0.,-1.));
#449=DIRECTION('',(-1.,0.,0.));
#450=DIRECTION('',(0.,0.,-1.));
#451=DIRECTION('center_axis',(0.,0.,-1.));
#452=DIRECTION('ref_axis',(0.,-1.,0.));
#453=DIRECTION('center_axis',(0.,0.,1.));
#454=DIRECTION('ref_axis',(0.,-1.,0.));
#455=DIRECTION('center_axis',(0.,0.,-1.));
#456=DIRECTION('ref_axis',(0.,-1.,0.));
#457=DIRECTION('',(0.,0.,-1.));
#458=DIRECTION('center_axis',(0.,1.,0.));
#459=DIRECTION('ref_axis',(1.,0.,0.));
#460=DIRECTION('',(-1.,0.,0.));
#461=DIRECTION('',(1.,0.,0.));
#462=DIRECTION('',(0.,0.,-1.));
#463=DIRECTION('center_axis',(0.,0.,-1.));
#464=DIRECTION('ref_axis',(0.,1.,0.));
#465=DIRECTION('center_axis',(0.,0.,1.));
#466=DIRECTION('ref_axis',(0.,1.,0.));
#467=DIRECTION('center_axis',(0.,0.,-1.));
#468=DIRECTION('ref_axis',(0.,1.,0.));
#469=DIRECTION('center_axis',(-8.88178419700124E-16,0.,-1.));
#470=DIRECTION('ref_axis',(0.707106781186548,-0.707106781186547,-6.2803698347351E-16));
#471=DIRECTION('center_axis',(0.,0.,1.));
#472=DIRECTION('ref_axis',(0.707106781186548,-0.707106781186547,-6.2803698347351E-16));
#473=DIRECTION('',(8.88178419700124E-16,0.,1.));
#474=DIRECTION('center_axis',(0.,0.,-1.));
#475=DIRECTION('ref_axis',(0.707106781186548,-0.707106781186547,-6.2803698347351E-16));
#476=DIRECTION('',(-8.88178419700124E-16,0.,-1.));
#477=DIRECTION('center_axis',(0.,-1.,0.));
#478=DIRECTION('ref_axis',(0.,0.,-1.));
#479=DIRECTION('',(1.,0.,0.));
#480=DIRECTION('',(0.,0.,1.));
#481=DIRECTION('',(1.,0.,0.));
#482=DIRECTION('center_axis',(0.,0.,1.));
#483=DIRECTION('ref_axis',(0.,-1.,0.));
#484=DIRECTION('',(0.,-1.,0.));
#485=DIRECTION('',(1.,0.,0.));
#486=DIRECTION('',(0.,1.,0.));
#487=DIRECTION('center_axis',(0.,0.,-1.));
#488=DIRECTION('ref_axis',(-0.707106781186547,-0.707106781186547,0.));
#489=DIRECTION('center_axis',(0.,0.,1.));
#490=DIRECTION('ref_axis',(-0.707106781186547,-0.707106781186547,0.));
#491=DIRECTION('',(0.,0.,-1.));
#492=DIRECTION('center_axis',(0.,0.,1.));
#493=DIRECTION('ref_axis',(-0.707106781186547,-0.707106781186547,0.));
#494=DIRECTION('center_axis',(0.,0.,1.));
#495=DIRECTION('ref_axis',(1.,0.,0.));
#496=DIRECTION('',(1.,0.,0.));
#497=DIRECTION('',(0.,1.,0.));
#498=DIRECTION('',(1.,0.,0.));
#499=DIRECTION('',(0.,1.,0.));
#500=DIRECTION('center_axis',(0.,1.,0.));
#501=DIRECTION('ref_axis',(0.,0.,-1.));
#502=DIRECTION('center_axis',(0.,-1.,0.));
#503=DIRECTION('ref_axis',(0.,0.,-1.));
#504=DIRECTION('center_axis',(0.,-1.,0.));
#505=DIRECTION('ref_axis',(0.,0.,-1.));
#506=DIRECTION('',(0.,1.,0.));
#507=DIRECTION('center_axis',(0.,0.,-1.));
#508=DIRECTION('ref_axis',(-1.,0.,0.));
#509=DIRECTION('',(-1.,0.,0.));
#510=DIRECTION('',(-1.,0.,0.));
#511=DIRECTION('',(0.,1.,0.));
#512=DIRECTION('center_axis',(0.,1.,0.));
#513=DIRECTION('ref_axis',(0.,0.,1.));
#514=DIRECTION('center_axis',(0.,-1.,0.));
#515=DIRECTION('ref_axis',(0.,0.,1.));
#516=DIRECTION('center_axis',(0.,-1.,0.));
#517=DIRECTION('ref_axis',(0.,0.,1.));
#518=DIRECTION('center_axis',(0.,0.,1.));
#519=DIRECTION('ref_axis',(1.,0.,0.));
#520=DIRECTION('',(1.,0.,0.));
#521=DIRECTION('',(0.,1.,0.));
#522=DIRECTION('',(1.,0.,0.));
#523=DIRECTION('',(0.,1.,0.));
#524=DIRECTION('center_axis',(0.,1.,0.));
#525=DIRECTION('ref_axis',(-1.,0.,-1.11022302462516E-15));
#526=DIRECTION('center_axis',(0.,1.,0.));
#527=DIRECTION('ref_axis',(-1.,0.,-1.11022302462516E-15));
#528=DIRECTION('center_axis',(0.,1.,0.));
#529=DIRECTION('ref_axis',(-1.,0.,-1.11022302462516E-15));
#530=DIRECTION('',(0.,1.,0.));
#531=DIRECTION('center_axis',(-1.,0.,0.));
#532=DIRECTION('ref_axis',(0.,0.,1.));
#533=DIRECTION('',(0.,0.,1.));
#534=DIRECTION('',(0.,0.,1.));
#535=DIRECTION('',(0.,1.,0.));
#536=DIRECTION('center_axis',(0.,0.,-1.));
#537=DIRECTION('ref_axis',(-1.,0.,0.));
#538=DIRECTION('',(-1.,0.,0.));
#539=DIRECTION('',(0.,1.,0.));
#540=DIRECTION('center_axis',(1.,0.,-8.88178419700124E-16));
#541=DIRECTION('ref_axis',(-8.88178419700124E-16,0.,-1.));
#542=DIRECTION('',(-8.88178419700124E-16,0.,-1.));
#543=DIRECTION('',(0.,1.,0.));
#544=DIRECTION('',(-8.88178419700124E-16,0.,-1.));
#545=DIRECTION('center_axis',(0.,1.,0.));
#546=DIRECTION('ref_axis',(-1.33226762955019E-15,0.,1.));
#547=DIRECTION('center_axis',(0.,1.,0.));
#548=DIRECTION('ref_axis',(-1.33226762955019E-15,0.,1.));
#549=DIRECTION('center_axis',(0.,1.,0.));
#550=DIRECTION('ref_axis',(-1.33226762955019E-15,0.,1.));
#551=DIRECTION('center_axis',(0.,1.,0.));
#552=DIRECTION('ref_axis',(1.,0.,0.));
#553=DIRECTION('center_axis',(0.,1.,0.));
#554=DIRECTION('ref_axis',(1.,0.,0.));
#555=CARTESIAN_POINT('',(0.,0.,0.));
#556=CARTESIAN_POINT('Origin',(30.,-58.0562429908861,10.));
#557=CARTESIAN_POINT('',(-30.,-58.0562429908861,-10.));
#558=CARTESIAN_POINT('',(30.,-58.0562429908861,-10.));
#559=CARTESIAN_POINT('',(45.,-58.0562429908861,-10.));
#560=CARTESIAN_POINT('',(-30.,-58.0562429908861,10.));
#561=CARTESIAN_POINT('',(-30.,-58.0562429908861,10.));
#562=CARTESIAN_POINT('',(30.,-58.0562429908861,10.));
#563=CARTESIAN_POINT('',(-15.,-58.0562429908861,10.));
#564=CARTESIAN_POINT('',(30.,-58.0562429908861,10.));
#565=CARTESIAN_POINT('Origin',(30.,-50.,10.));
#566=CARTESIAN_POINT('',(30.,-41.9437570091139,-10.));
#567=CARTESIAN_POINT('Origin',(30.,-50.,-10.));
#568=CARTESIAN_POINT('',(30.,-41.9437570091139,10.));
#569=CARTESIAN_POINT('Origin',(30.,-50.,10.));
#570=CARTESIAN_POINT('',(30.,-41.9437570091139,10.));
#571=CARTESIAN_POINT('Origin',(-30.,-41.9437570091139,10.));
#572=CARTESIAN_POINT('',(-30.,-41.9437570091139,-10.));
#573=CARTESIAN_POINT('',(15.,-41.9437570091139,-10.));
#574=CARTESIAN_POINT('',(-30.,-41.9437570091139,10.));
#575=CARTESIAN_POINT('',(-45.,-41.9437570091139,10.));
#576=CARTESIAN_POINT('',(-30.,-41.9437570091139,10.));
#577=CARTESIAN_POINT('Origin',(-30.,-50.,10.));
#578=CARTESIAN_POINT('Origin',(-30.,-50.,-10.));
#579=CARTESIAN_POINT('Origin',(-30.,-50.,10.));
#580=CARTESIAN_POINT('Origin',(30.,-50.,15.));
#581=CARTESIAN_POINT('',(30.,-80.,-10.));
#582=CARTESIAN_POINT('',(60.,-50.,-10.));
#583=CARTESIAN_POINT('Origin',(30.,-50.,-9.99999999999997));
#584=CARTESIAN_POINT('',(60.,-50.,10.));
#585=CARTESIAN_POINT('',(60.,-50.,15.));
#586=CARTESIAN_POINT('',(30.,-80.,10.));
#587=CARTESIAN_POINT('Origin',(30.,-50.,9.99999999999992));
#588=CARTESIAN_POINT('',(30.,-80.,15.));
#589=CARTESIAN_POINT('Origin',(-60.,-80.,10.));
#590=CARTESIAN_POINT('',(-30.,-80.,10.));
#591=CARTESIAN_POINT('',(-60.,-80.,10.));
#592=CARTESIAN_POINT('',(-30.,-80.,-10.));
#593=CARTESIAN_POINT('',(-30.,-80.,5.55111512312578E-16));
#594=CARTESIAN_POINT('',(-60.,-80.,-10.));
#595=CARTESIAN_POINT('Origin',(-60.,0.,10.));
#596=CARTESIAN_POINT('',(60.,0.,10.));
#597=CARTESIAN_POINT('',(60.,-80.,10.));
#598=CARTESIAN_POINT('',(-60.,0.,10.));
#599=CARTESIAN_POINT('',(-30.,0.,10.));
#600=CARTESIAN_POINT('',(-60.,-50.,10.));
#601=CARTESIAN_POINT('',(-60.,-80.,10.));
#602=CARTESIAN_POINT('Origin',(-30.,-50.,10.));
#603=CARTESIAN_POINT('Origin',(-30.,-50.,5.55111512312578E-16));
#604=CARTESIAN_POINT('',(-60.,-50.,-10.));
#605=CARTESIAN_POINT('',(-60.,-50.,5.55111512312578E-16));
#606=CARTESIAN_POINT('Origin',(-30.,-50.,-10.));
#607=CARTESIAN_POINT('Origin',(-40.,0.,14.2951196493734));
#608=CARTESIAN_POINT('',(-40.,0.,14.2951196493734));
#609=CARTESIAN_POINT('',(39.2131199516378,0.,14.2951196493734));
#610=CARTESIAN_POINT('',(39.2131199516378,0.,14.2951196493734));
#611=CARTESIAN_POINT('',(39.2131199516378,20.,14.2951196493734));
#612=CARTESIAN_POINT('',(39.2131199516378,0.,14.2951196493734));
#613=CARTESIAN_POINT('',(-40.,20.,14.2951196493734));
#614=CARTESIAN_POINT('',(39.2131199516378,20.,14.2951196493734));
#615=CARTESIAN_POINT('',(-40.,0.,14.2951196493734));
#616=CARTESIAN_POINT('Origin',(-40.,0.,20.));
#617=CARTESIAN_POINT('',(-40.,0.,25.7048803506266));
#618=CARTESIAN_POINT('Origin',(-40.,0.,20.));
#619=CARTESIAN_POINT('',(-40.,20.,25.7048803506266));
#620=CARTESIAN_POINT('Origin',(-40.,20.,20.));
#621=CARTESIAN_POINT('',(-40.,0.,25.7048803506266));
#622=CARTESIAN_POINT('Origin',(39.2131199516378,0.,25.7048803506266));
#623=CARTESIAN_POINT('',(39.2131199516378,0.,25.7048803506266));
#624=CARTESIAN_POINT('',(-40.,0.,25.7048803506266));
#625=CARTESIAN_POINT('',(39.2131199516378,20.,25.7048803506266));
#626=CARTESIAN_POINT('',(-40.,20.,25.7048803506266));
#627=CARTESIAN_POINT('',(39.2131199516378,0.,25.7048803506266));
#628=CARTESIAN_POINT('Origin',(39.2131199516378,0.,20.));
#629=CARTESIAN_POINT('Origin',(39.2131199516378,0.,20.));
#630=CARTESIAN_POINT('Origin',(39.2131199516378,20.,20.));
#631=CARTESIAN_POINT('Origin',(-40.,0.,40.));
#632=CARTESIAN_POINT('',(-40.,0.,40.));
#633=CARTESIAN_POINT('',(40.,0.,40.));
#634=CARTESIAN_POINT('',(-40.,0.,40.));
#635=CARTESIAN_POINT('',(40.,20.,40.));
#636=CARTESIAN_POINT('',(40.,0.,40.));
#637=CARTESIAN_POINT('',(-40.,20.,40.));
#638=CARTESIAN_POINT('',(-40.,20.,40.));
#639=CARTESIAN_POINT('',(-40.,0.,40.));
#640=CARTESIAN_POINT('Origin',(-40.,0.,20.));
#641=CARTESIAN_POINT('',(-60.,0.,20.));
#642=CARTESIAN_POINT('Origin',(-40.,0.,20.));
#643=CARTESIAN_POINT('',(-60.,20.,20.));
#644=CARTESIAN_POINT('Origin',(-40.,20.,20.));
#645=CARTESIAN_POINT('',(-60.,0.,20.));
#646=CARTESIAN_POINT('Origin',(-60.,0.,-10.));
#647=CARTESIAN_POINT('',(-60.,0.,-10.));
#648=CARTESIAN_POINT('',(-60.,20.,-10.));
#649=CARTESIAN_POINT('',(-60.,20.,-10.));
#650=CARTESIAN_POINT('',(-60.,0.,-10.));
#651=CARTESIAN_POINT('Origin',(60.,0.,-10.));
#652=CARTESIAN_POINT('',(60.,20.,-10.));
#653=CARTESIAN_POINT('',(60.,20.,-10.));
#654=CARTESIAN_POINT('',(60.,0.,-10.));
#655=CARTESIAN_POINT('Origin',(60.,0.,20.));
#656=CARTESIAN_POINT('',(60.,20.,20.));
#657=CARTESIAN_POINT('',(60.,20.,20.));
#658=CARTESIAN_POINT('',(60.,0.,20.));
#659=CARTESIAN_POINT('',(60.,0.,20.));
#660=CARTESIAN_POINT('',(60.,0.,20.));
#661=CARTESIAN_POINT('Origin',(40.,0.,20.));
#662=CARTESIAN_POINT('Origin',(40.,0.,20.));
#663=CARTESIAN_POINT('Origin',(40.,20.,20.));
#664=CARTESIAN_POINT('Origin',(-8.88178419700125E-15,20.,15.));
#665=CARTESIAN_POINT('Origin',(-8.88178419700125E-15,0.,15.));
#666=UNCERTAINTY_MEASURE_WITH_UNIT(LENGTH_MEASURE(0.01),#670,
'DISTANCE_ACCURACY_VALUE',
'Maximum model space distance between geometric entities at asserted c
onnectivities');
#667=UNCERTAINTY_MEASURE_WITH_UNIT(LENGTH_MEASURE(0.01),#670,
'DISTANCE_ACCURACY_VALUE',
'Maximum model space distance between geometric entities at asserted c
onnectivities');
#668=(
GEOMETRIC_REPRESENTATION_CONTEXT(3)
GLOBAL_UNCERTAINTY_ASSIGNED_CONTEXT((#666))
GLOBAL_UNIT_ASSIGNED_CONTEXT((#670,#672,#673))
REPRESENTATION_CONTEXT('','3D')
);
#669=(
GEOMETRIC_REPRESENTATION_CONTEXT(3)
GLOBAL_UNCERTAINTY_ASSIGNED_CONTEXT((#667))
GLOBAL_UNIT_ASSIGNED_CONTEXT((#670,#672,#673))
REPRESENTATION_CONTEXT('','3D')
);
#670=(
LENGTH_UNIT()
NAMED_UNIT(*)
SI_UNIT(.MILLI.,.METRE.)
);
#671=(
LENGTH_UNIT()
NAMED_UNIT(*)
SI_UNIT($,.METRE.)
);
#672=(
NAMED_UNIT(*)
PLANE_ANGLE_UNIT()
SI_UNIT($,.RADIAN.)
);
#673=(
NAMED_UNIT(*)
SI_UNIT($,.STERADIAN.)
SOLID_ANGLE_UNIT()
);
#674=SHAPE_DEFINITION_REPRESENTATION(#675,#676);
#675=PRODUCT_DEFINITION_SHAPE('',$,#678);
#676=SHAPE_REPRESENTATION('',(#406),#668);
#677=PRODUCT_DEFINITION_CONTEXT('part definition',#682,'design');
#678=PRODUCT_DEFINITION('2026-10-01-22-08-37-260','exercise 2',#679,#677);
#679=PRODUCT_DEFINITION_FORMATION('',$,#684);
#680=PRODUCT_RELATED_PRODUCT_CATEGORY('exercise 2','exercise 2',(#684));
#681=APPLICATION_PROTOCOL_DEFINITION('international standard',
'automotive_design',2009,#682);
#682=APPLICATION_CONTEXT(
'Core Data for Automotive Mechanical Design Process');
#683=PRODUCT_CONTEXT('part definition',#682,'mechanical');
#684=PRODUCT('2026-10-01-22-08-37-260','exercise 2',$,(#683));
#685=PRESENTATION_STYLE_ASSIGNMENT((#686));
#686=SURFACE_STYLE_USAGE(.BOTH.,#687);
#687=SURFACE_SIDE_STYLE('',(#688));
#688=SURFACE_STYLE_FILL_AREA(#689);
#689=FILL_AREA_STYLE('Steel - Satin',(#690));
#690=FILL_AREA_STYLE_COLOUR('Steel - Satin',#691);
#691=COLOUR_RGB('Steel - Satin',0.627450980392157,0.627450980392157,0.627450980392157);
ENDSEC;
END-ISO-10303-21;
