ISO-10303-21;
HEADER;
/* Generated by software containing ST-Developer
 * from STEP Tools, Inc. (www.steptools.com) 
 */

FILE_DESCRIPTION(
/* description */ (''),
/* implementation_level */ '2;1');

FILE_NAME(
/* name */ 'exercise 15.step',
/* time_stamp */ '2026-10-09T22:38:49+05:30',
/* author */ (''),
/* organization */ (''),
/* preprocessor_version */ 'ST-DEVELOPER v20.2',
/* originating_system */ 'Autodesk Translation Framework v15.15.0.0',
/* authorisation */ '');

FILE_SCHEMA (('AUTOMOTIVE_DESIGN { 1 0 10303 214 3 1 1 }'));
ENDSEC;

DATA;
#10=MECHANICAL_DESIGN_GEOMETRIC_PRESENTATION_REPRESENTATION('',(#13),#1147);
#11=SHAPE_REPRESENTATION_RELATIONSHIP('SRR','None',#1154,#12);
#12=ADVANCED_BREP_SHAPE_REPRESENTATION('',(#14),#1146);
#13=STYLED_ITEM('',(#1163),#14);
#14=MANIFOLD_SOLID_BREP('Body1',#687);
#15=FACE_BOUND('',#112,.T.);
#16=FACE_BOUND('',#113,.T.);
#17=FACE_BOUND('',#114,.T.);
#18=FACE_BOUND('',#115,.T.);
#19=FACE_BOUND('',#117,.T.);
#20=FACE_BOUND('',#118,.T.);
#21=FACE_BOUND('',#119,.T.);
#22=FACE_BOUND('',#120,.T.);
#23=PLANE('',#713);
#24=PLANE('',#717);
#25=PLANE('',#721);
#26=PLANE('',#722);
#27=PLANE('',#723);
#28=PLANE('',#724);
#29=PLANE('',#728);
#30=PLANE('',#729);
#31=PLANE('',#730);
#32=PLANE('',#731);
#33=PLANE('',#735);
#34=PLANE('',#739);
#35=PLANE('',#743);
#36=PLANE('',#744);
#37=PLANE('',#745);
#38=PLANE('',#746);
#39=PLANE('',#750);
#40=PLANE('',#751);
#41=PLANE('',#752);
#42=PLANE('',#753);
#43=PLANE('',#757);
#44=PLANE('',#758);
#45=FACE_OUTER_BOUND('',#79,.T.);
#46=FACE_OUTER_BOUND('',#80,.T.);
#47=FACE_OUTER_BOUND('',#81,.T.);
#48=FACE_OUTER_BOUND('',#82,.T.);
#49=FACE_OUTER_BOUND('',#83,.T.);
#50=FACE_OUTER_BOUND('',#84,.T.);
#51=FACE_OUTER_BOUND('',#85,.T.);
#52=FACE_OUTER_BOUND('',#86,.T.);
#53=FACE_OUTER_BOUND('',#87,.T.);
#54=FACE_OUTER_BOUND('',#88,.T.);
#55=FACE_OUTER_BOUND('',#89,.T.);
#56=FACE_OUTER_BOUND('',#90,.T.);
#57=FACE_OUTER_BOUND('',#91,.T.);
#58=FACE_OUTER_BOUND('',#92,.T.);
#59=FACE_OUTER_BOUND('',#93,.T.);
#60=FACE_OUTER_BOUND('',#94,.T.);
#61=FACE_OUTER_BOUND('',#95,.T.);
#62=FACE_OUTER_BOUND('',#96,.T.);
#63=FACE_OUTER_BOUND('',#97,.T.);
#64=FACE_OUTER_BOUND('',#98,.T.);
#65=FACE_OUTER_BOUND('',#99,.T.);
#66=FACE_OUTER_BOUND('',#100,.T.);
#67=FACE_OUTER_BOUND('',#101,.T.);
#68=FACE_OUTER_BOUND('',#102,.T.);
#69=FACE_OUTER_BOUND('',#103,.T.);
#70=FACE_OUTER_BOUND('',#104,.T.);
#71=FACE_OUTER_BOUND('',#105,.T.);
#72=FACE_OUTER_BOUND('',#106,.T.);
#73=FACE_OUTER_BOUND('',#107,.T.);
#74=FACE_OUTER_BOUND('',#108,.T.);
#75=FACE_OUTER_BOUND('',#109,.T.);
#76=FACE_OUTER_BOUND('',#110,.T.);
#77=FACE_OUTER_BOUND('',#111,.T.);
#78=FACE_OUTER_BOUND('',#116,.T.);
#79=EDGE_LOOP('',(#449,#450,#451,#452));
#80=EDGE_LOOP('',(#453,#454,#455,#456));
#81=EDGE_LOOP('',(#457,#458,#459,#460));
#82=EDGE_LOOP('',(#461,#462,#463,#464));
#83=EDGE_LOOP('',(#465,#466,#467,#468));
#84=EDGE_LOOP('',(#469,#470,#471,#472));
#85=EDGE_LOOP('',(#473,#474,#475,#476));
#86=EDGE_LOOP('',(#477,#478,#479,#480));
#87=EDGE_LOOP('',(#481,#482,#483,#484));
#88=EDGE_LOOP('',(#485,#486,#487,#488));
#89=EDGE_LOOP('',(#489,#490,#491,#492));
#90=EDGE_LOOP('',(#493,#494,#495,#496));
#91=EDGE_LOOP('',(#497,#498,#499,#500));
#92=EDGE_LOOP('',(#501,#502,#503,#504));
#93=EDGE_LOOP('',(#505,#506,#507,#508));
#94=EDGE_LOOP('',(#509,#510,#511,#512));
#95=EDGE_LOOP('',(#513,#514,#515,#516));
#96=EDGE_LOOP('',(#517,#518,#519,#520));
#97=EDGE_LOOP('',(#521,#522,#523,#524));
#98=EDGE_LOOP('',(#525,#526,#527,#528));
#99=EDGE_LOOP('',(#529,#530,#531,#532));
#100=EDGE_LOOP('',(#533,#534,#535,#536));
#101=EDGE_LOOP('',(#537,#538,#539,#540));
#102=EDGE_LOOP('',(#541,#542,#543,#544));
#103=EDGE_LOOP('',(#545,#546,#547,#548));
#104=EDGE_LOOP('',(#549,#550,#551,#552));
#105=EDGE_LOOP('',(#553,#554,#555,#556));
#106=EDGE_LOOP('',(#557,#558,#559,#560));
#107=EDGE_LOOP('',(#561,#562,#563,#564));
#108=EDGE_LOOP('',(#565,#566,#567,#568));
#109=EDGE_LOOP('',(#569,#570,#571,#572));
#110=EDGE_LOOP('',(#573,#574,#575,#576));
#111=EDGE_LOOP('',(#577,#578,#579,#580,#581,#582,#583,#584,#585,#586,#587,
#588,#589,#590,#591,#592,#593,#594,#595,#596,#597,#598,#599,#600,#601,#602,
#603,#604));
#112=EDGE_LOOP('',(#605));
#113=EDGE_LOOP('',(#606));
#114=EDGE_LOOP('',(#607));
#115=EDGE_LOOP('',(#608));
#116=EDGE_LOOP('',(#609,#610,#611,#612,#613,#614,#615,#616,#617,#618,#619,
#620,#621,#622,#623,#624,#625,#626,#627,#628,#629,#630,#631,#632,#633,#634,
#635,#636));
#117=EDGE_LOOP('',(#637));
#118=EDGE_LOOP('',(#638));
#119=EDGE_LOOP('',(#639));
#120=EDGE_LOOP('',(#640));
#121=LINE('',#954,#193);
#122=LINE('',#960,#194);
#123=LINE('',#966,#195);
#124=LINE('',#972,#196);
#125=LINE('',#977,#197);
#126=LINE('',#979,#198);
#127=LINE('',#981,#199);
#128=LINE('',#982,#200);
#129=LINE('',#988,#201);
#130=LINE('',#991,#202);
#131=LINE('',#993,#203);
#132=LINE('',#994,#204);
#133=LINE('',#1000,#205);
#134=LINE('',#1003,#206);
#135=LINE('',#1005,#207);
#136=LINE('',#1006,#208);
#137=LINE('',#1009,#209);
#138=LINE('',#1011,#210);
#139=LINE('',#1012,#211);
#140=LINE('',#1015,#212);
#141=LINE('',#1017,#213);
#142=LINE('',#1018,#214);
#143=LINE('',#1021,#215);
#144=LINE('',#1023,#216);
#145=LINE('',#1024,#217);
#146=LINE('',#1030,#218);
#147=LINE('',#1033,#219);
#148=LINE('',#1035,#220);
#149=LINE('',#1036,#221);
#150=LINE('',#1039,#222);
#151=LINE('',#1041,#223);
#152=LINE('',#1042,#224);
#153=LINE('',#1045,#225);
#154=LINE('',#1047,#226);
#155=LINE('',#1048,#227);
#156=LINE('',#1051,#228);
#157=LINE('',#1053,#229);
#158=LINE('',#1054,#230);
#159=LINE('',#1060,#231);
#160=LINE('',#1063,#232);
#161=LINE('',#1065,#233);
#162=LINE('',#1066,#234);
#163=LINE('',#1072,#235);
#164=LINE('',#1075,#236);
#165=LINE('',#1077,#237);
#166=LINE('',#1078,#238);
#167=LINE('',#1084,#239);
#168=LINE('',#1087,#240);
#169=LINE('',#1089,#241);
#170=LINE('',#1090,#242);
#171=LINE('',#1093,#243);
#172=LINE('',#1095,#244);
#173=LINE('',#1096,#245);
#174=LINE('',#1099,#246);
#175=LINE('',#1101,#247);
#176=LINE('',#1102,#248);
#177=LINE('',#1105,#249);
#178=LINE('',#1107,#250);
#179=LINE('',#1108,#251);
#180=LINE('',#1114,#252);
#181=LINE('',#1117,#253);
#182=LINE('',#1119,#254);
#183=LINE('',#1120,#255);
#184=LINE('',#1123,#256);
#185=LINE('',#1125,#257);
#186=LINE('',#1126,#258);
#187=LINE('',#1129,#259);
#188=LINE('',#1131,#260);
#189=LINE('',#1132,#261);
#190=LINE('',#1135,#262);
#191=LINE('',#1137,#263);
#192=LINE('',#1138,#264);
#193=VECTOR('',#765,30.);
#194=VECTOR('',#772,30.);
#195=VECTOR('',#779,30.);
#196=VECTOR('',#786,30.);
#197=VECTOR('',#791,10.);
#198=VECTOR('',#792,10.);
#199=VECTOR('',#793,10.);
#200=VECTOR('',#794,10.);
#201=VECTOR('',#801,10.);
#202=VECTOR('',#804,10.);
#203=VECTOR('',#805,10.);
#204=VECTOR('',#806,10.);
#205=VECTOR('',#813,10.);
#206=VECTOR('',#816,10.);
#207=VECTOR('',#817,10.);
#208=VECTOR('',#818,10.);
#209=VECTOR('',#821,10.);
#210=VECTOR('',#822,10.);
#211=VECTOR('',#823,10.);
#212=VECTOR('',#826,10.);
#213=VECTOR('',#827,10.);
#214=VECTOR('',#828,10.);
#215=VECTOR('',#831,10.);
#216=VECTOR('',#832,10.);
#217=VECTOR('',#833,10.);
#218=VECTOR('',#840,10.);
#219=VECTOR('',#843,10.);
#220=VECTOR('',#844,10.);
#221=VECTOR('',#845,10.);
#222=VECTOR('',#848,10.);
#223=VECTOR('',#849,10.);
#224=VECTOR('',#850,10.);
#225=VECTOR('',#853,10.);
#226=VECTOR('',#854,10.);
#227=VECTOR('',#855,10.);
#228=VECTOR('',#858,10.);
#229=VECTOR('',#859,10.);
#230=VECTOR('',#860,10.);
#231=VECTOR('',#867,10.);
#232=VECTOR('',#870,10.);
#233=VECTOR('',#871,10.);
#234=VECTOR('',#872,10.);
#235=VECTOR('',#879,10.);
#236=VECTOR('',#882,10.);
#237=VECTOR('',#883,10.);
#238=VECTOR('',#884,10.);
#239=VECTOR('',#891,10.);
#240=VECTOR('',#894,10.);
#241=VECTOR('',#895,10.);
#242=VECTOR('',#896,10.);
#243=VECTOR('',#899,10.);
#244=VECTOR('',#900,10.);
#245=VECTOR('',#901,10.);
#246=VECTOR('',#904,10.);
#247=VECTOR('',#905,10.);
#248=VECTOR('',#906,10.);
#249=VECTOR('',#909,10.);
#250=VECTOR('',#910,10.);
#251=VECTOR('',#911,10.);
#252=VECTOR('',#918,10.);
#253=VECTOR('',#921,10.);
#254=VECTOR('',#922,10.);
#255=VECTOR('',#923,10.);
#256=VECTOR('',#926,10.);
#257=VECTOR('',#927,10.);
#258=VECTOR('',#928,10.);
#259=VECTOR('',#931,10.);
#260=VECTOR('',#932,10.);
#261=VECTOR('',#933,10.);
#262=VECTOR('',#936,10.);
#263=VECTOR('',#937,10.);
#264=VECTOR('',#938,10.);
#265=CIRCLE('',#702,30.);
#266=CIRCLE('',#703,30.);
#267=CIRCLE('',#705,30.);
#268=CIRCLE('',#706,30.);
#269=CIRCLE('',#708,30.);
#270=CIRCLE('',#709,30.);
#271=CIRCLE('',#711,30.);
#272=CIRCLE('',#712,30.);
#273=CIRCLE('',#715,43.4352168322147);
#274=CIRCLE('',#716,43.4352168322147);
#275=CIRCLE('',#719,39.9999999999999);
#276=CIRCLE('',#720,39.9999999999999);
#277=CIRCLE('',#726,17.7985459692042);
#278=CIRCLE('',#727,17.7985459692042);
#279=CIRCLE('',#733,39.9999999999999);
#280=CIRCLE('',#734,39.9999999999999);
#281=CIRCLE('',#737,45.5111680164233);
#282=CIRCLE('',#738,45.5111680164233);
#283=CIRCLE('',#741,40.);
#284=CIRCLE('',#742,40.);
#285=CIRCLE('',#748,17.7985459692042);
#286=CIRCLE('',#749,17.7985459692042);
#287=CIRCLE('',#755,40.);
#288=CIRCLE('',#756,40.);
#289=VERTEX_POINT('',#951);
#290=VERTEX_POINT('',#953);
#291=VERTEX_POINT('',#957);
#292=VERTEX_POINT('',#959);
#293=VERTEX_POINT('',#963);
#294=VERTEX_POINT('',#965);
#295=VERTEX_POINT('',#969);
#296=VERTEX_POINT('',#971);
#297=VERTEX_POINT('',#975);
#298=VERTEX_POINT('',#976);
#299=VERTEX_POINT('',#978);
#300=VERTEX_POINT('',#980);
#301=VERTEX_POINT('',#984);
#302=VERTEX_POINT('',#986);
#303=VERTEX_POINT('',#990);
#304=VERTEX_POINT('',#992);
#305=VERTEX_POINT('',#996);
#306=VERTEX_POINT('',#998);
#307=VERTEX_POINT('',#1002);
#308=VERTEX_POINT('',#1004);
#309=VERTEX_POINT('',#1008);
#310=VERTEX_POINT('',#1010);
#311=VERTEX_POINT('',#1014);
#312=VERTEX_POINT('',#1016);
#313=VERTEX_POINT('',#1020);
#314=VERTEX_POINT('',#1022);
#315=VERTEX_POINT('',#1026);
#316=VERTEX_POINT('',#1028);
#317=VERTEX_POINT('',#1032);
#318=VERTEX_POINT('',#1034);
#319=VERTEX_POINT('',#1038);
#320=VERTEX_POINT('',#1040);
#321=VERTEX_POINT('',#1044);
#322=VERTEX_POINT('',#1046);
#323=VERTEX_POINT('',#1050);
#324=VERTEX_POINT('',#1052);
#325=VERTEX_POINT('',#1056);
#326=VERTEX_POINT('',#1058);
#327=VERTEX_POINT('',#1062);
#328=VERTEX_POINT('',#1064);
#329=VERTEX_POINT('',#1068);
#330=VERTEX_POINT('',#1070);
#331=VERTEX_POINT('',#1074);
#332=VERTEX_POINT('',#1076);
#333=VERTEX_POINT('',#1080);
#334=VERTEX_POINT('',#1082);
#335=VERTEX_POINT('',#1086);
#336=VERTEX_POINT('',#1088);
#337=VERTEX_POINT('',#1092);
#338=VERTEX_POINT('',#1094);
#339=VERTEX_POINT('',#1098);
#340=VERTEX_POINT('',#1100);
#341=VERTEX_POINT('',#1104);
#342=VERTEX_POINT('',#1106);
#343=VERTEX_POINT('',#1110);
#344=VERTEX_POINT('',#1112);
#345=VERTEX_POINT('',#1116);
#346=VERTEX_POINT('',#1118);
#347=VERTEX_POINT('',#1122);
#348=VERTEX_POINT('',#1124);
#349=VERTEX_POINT('',#1128);
#350=VERTEX_POINT('',#1130);
#351=VERTEX_POINT('',#1134);
#352=VERTEX_POINT('',#1136);
#353=EDGE_CURVE('',#289,#289,#265,.T.);
#354=EDGE_CURVE('',#289,#290,#121,.T.);
#355=EDGE_CURVE('',#290,#290,#266,.T.);
#356=EDGE_CURVE('',#291,#291,#267,.T.);
#357=EDGE_CURVE('',#291,#292,#122,.T.);
#358=EDGE_CURVE('',#292,#292,#268,.T.);
#359=EDGE_CURVE('',#293,#293,#269,.T.);
#360=EDGE_CURVE('',#293,#294,#123,.T.);
#361=EDGE_CURVE('',#294,#294,#270,.T.);
#362=EDGE_CURVE('',#295,#295,#271,.T.);
#363=EDGE_CURVE('',#295,#296,#124,.T.);
#364=EDGE_CURVE('',#296,#296,#272,.T.);
#365=EDGE_CURVE('',#297,#298,#125,.T.);
#366=EDGE_CURVE('',#297,#299,#126,.T.);
#367=EDGE_CURVE('',#300,#299,#127,.T.);
#368=EDGE_CURVE('',#298,#300,#128,.T.);
#369=EDGE_CURVE('',#298,#301,#273,.T.);
#370=EDGE_CURVE('',#302,#300,#274,.T.);
#371=EDGE_CURVE('',#301,#302,#129,.T.);
#372=EDGE_CURVE('',#301,#303,#130,.T.);
#373=EDGE_CURVE('',#304,#302,#131,.T.);
#374=EDGE_CURVE('',#303,#304,#132,.T.);
#375=EDGE_CURVE('',#305,#303,#275,.T.);
#376=EDGE_CURVE('',#306,#304,#276,.T.);
#377=EDGE_CURVE('',#305,#306,#133,.T.);
#378=EDGE_CURVE('',#305,#307,#134,.T.);
#379=EDGE_CURVE('',#308,#306,#135,.T.);
#380=EDGE_CURVE('',#307,#308,#136,.T.);
#381=EDGE_CURVE('',#307,#309,#137,.T.);
#382=EDGE_CURVE('',#310,#308,#138,.T.);
#383=EDGE_CURVE('',#309,#310,#139,.T.);
#384=EDGE_CURVE('',#309,#311,#140,.T.);
#385=EDGE_CURVE('',#312,#310,#141,.T.);
#386=EDGE_CURVE('',#311,#312,#142,.T.);
#387=EDGE_CURVE('',#311,#313,#143,.T.);
#388=EDGE_CURVE('',#314,#312,#144,.T.);
#389=EDGE_CURVE('',#313,#314,#145,.T.);
#390=EDGE_CURVE('',#313,#315,#277,.T.);
#391=EDGE_CURVE('',#316,#314,#278,.T.);
#392=EDGE_CURVE('',#315,#316,#146,.T.);
#393=EDGE_CURVE('',#317,#315,#147,.T.);
#394=EDGE_CURVE('',#318,#316,#148,.T.);
#395=EDGE_CURVE('',#317,#318,#149,.T.);
#396=EDGE_CURVE('',#319,#317,#150,.T.);
#397=EDGE_CURVE('',#320,#318,#151,.T.);
#398=EDGE_CURVE('',#319,#320,#152,.T.);
#399=EDGE_CURVE('',#321,#319,#153,.T.);
#400=EDGE_CURVE('',#322,#320,#154,.T.);
#401=EDGE_CURVE('',#321,#322,#155,.T.);
#402=EDGE_CURVE('',#321,#323,#156,.T.);
#403=EDGE_CURVE('',#324,#322,#157,.T.);
#404=EDGE_CURVE('',#323,#324,#158,.T.);
#405=EDGE_CURVE('',#325,#323,#279,.T.);
#406=EDGE_CURVE('',#326,#324,#280,.T.);
#407=EDGE_CURVE('',#325,#326,#159,.T.);
#408=EDGE_CURVE('',#325,#327,#160,.T.);
#409=EDGE_CURVE('',#328,#326,#161,.T.);
#410=EDGE_CURVE('',#327,#328,#162,.T.);
#411=EDGE_CURVE('',#327,#329,#281,.T.);
#412=EDGE_CURVE('',#330,#328,#282,.T.);
#413=EDGE_CURVE('',#329,#330,#163,.T.);
#414=EDGE_CURVE('',#329,#331,#164,.T.);
#415=EDGE_CURVE('',#332,#330,#165,.T.);
#416=EDGE_CURVE('',#331,#332,#166,.T.);
#417=EDGE_CURVE('',#333,#331,#283,.T.);
#418=EDGE_CURVE('',#334,#332,#284,.T.);
#419=EDGE_CURVE('',#333,#334,#167,.T.);
#420=EDGE_CURVE('',#333,#335,#168,.T.);
#421=EDGE_CURVE('',#336,#334,#169,.T.);
#422=EDGE_CURVE('',#335,#336,#170,.T.);
#423=EDGE_CURVE('',#335,#337,#171,.T.);
#424=EDGE_CURVE('',#338,#336,#172,.T.);
#425=EDGE_CURVE('',#337,#338,#173,.T.);
#426=EDGE_CURVE('',#337,#339,#174,.T.);
#427=EDGE_CURVE('',#340,#338,#175,.T.);
#428=EDGE_CURVE('',#339,#340,#176,.T.);
#429=EDGE_CURVE('',#339,#341,#177,.T.);
#430=EDGE_CURVE('',#342,#340,#178,.T.);
#431=EDGE_CURVE('',#341,#342,#179,.T.);
#432=EDGE_CURVE('',#341,#343,#285,.T.);
#433=EDGE_CURVE('',#344,#342,#286,.T.);
#434=EDGE_CURVE('',#343,#344,#180,.T.);
#435=EDGE_CURVE('',#345,#343,#181,.T.);
#436=EDGE_CURVE('',#346,#344,#182,.T.);
#437=EDGE_CURVE('',#345,#346,#183,.T.);
#438=EDGE_CURVE('',#347,#345,#184,.T.);
#439=EDGE_CURVE('',#348,#346,#185,.T.);
#440=EDGE_CURVE('',#347,#348,#186,.T.);
#441=EDGE_CURVE('',#349,#347,#187,.T.);
#442=EDGE_CURVE('',#350,#348,#188,.T.);
#443=EDGE_CURVE('',#349,#350,#189,.T.);
#444=EDGE_CURVE('',#349,#351,#190,.T.);
#445=EDGE_CURVE('',#352,#350,#191,.T.);
#446=EDGE_CURVE('',#351,#352,#192,.T.);
#447=EDGE_CURVE('',#297,#351,#287,.T.);
#448=EDGE_CURVE('',#299,#352,#288,.T.);
#449=ORIENTED_EDGE('',*,*,#353,.F.);
#450=ORIENTED_EDGE('',*,*,#354,.T.);
#451=ORIENTED_EDGE('',*,*,#355,.T.);
#452=ORIENTED_EDGE('',*,*,#354,.F.);
#453=ORIENTED_EDGE('',*,*,#356,.F.);
#454=ORIENTED_EDGE('',*,*,#357,.T.);
#455=ORIENTED_EDGE('',*,*,#358,.T.);
#456=ORIENTED_EDGE('',*,*,#357,.F.);
#457=ORIENTED_EDGE('',*,*,#359,.F.);
#458=ORIENTED_EDGE('',*,*,#360,.T.);
#459=ORIENTED_EDGE('',*,*,#361,.T.);
#460=ORIENTED_EDGE('',*,*,#360,.F.);
#461=ORIENTED_EDGE('',*,*,#362,.F.);
#462=ORIENTED_EDGE('',*,*,#363,.T.);
#463=ORIENTED_EDGE('',*,*,#364,.T.);
#464=ORIENTED_EDGE('',*,*,#363,.F.);
#465=ORIENTED_EDGE('',*,*,#365,.F.);
#466=ORIENTED_EDGE('',*,*,#366,.T.);
#467=ORIENTED_EDGE('',*,*,#367,.F.);
#468=ORIENTED_EDGE('',*,*,#368,.F.);
#469=ORIENTED_EDGE('',*,*,#369,.F.);
#470=ORIENTED_EDGE('',*,*,#368,.T.);
#471=ORIENTED_EDGE('',*,*,#370,.F.);
#472=ORIENTED_EDGE('',*,*,#371,.F.);
#473=ORIENTED_EDGE('',*,*,#372,.F.);
#474=ORIENTED_EDGE('',*,*,#371,.T.);
#475=ORIENTED_EDGE('',*,*,#373,.F.);
#476=ORIENTED_EDGE('',*,*,#374,.F.);
#477=ORIENTED_EDGE('',*,*,#375,.T.);
#478=ORIENTED_EDGE('',*,*,#374,.T.);
#479=ORIENTED_EDGE('',*,*,#376,.F.);
#480=ORIENTED_EDGE('',*,*,#377,.F.);
#481=ORIENTED_EDGE('',*,*,#378,.F.);
#482=ORIENTED_EDGE('',*,*,#377,.T.);
#483=ORIENTED_EDGE('',*,*,#379,.F.);
#484=ORIENTED_EDGE('',*,*,#380,.F.);
#485=ORIENTED_EDGE('',*,*,#381,.F.);
#486=ORIENTED_EDGE('',*,*,#380,.T.);
#487=ORIENTED_EDGE('',*,*,#382,.F.);
#488=ORIENTED_EDGE('',*,*,#383,.F.);
#489=ORIENTED_EDGE('',*,*,#384,.F.);
#490=ORIENTED_EDGE('',*,*,#383,.T.);
#491=ORIENTED_EDGE('',*,*,#385,.F.);
#492=ORIENTED_EDGE('',*,*,#386,.F.);
#493=ORIENTED_EDGE('',*,*,#387,.F.);
#494=ORIENTED_EDGE('',*,*,#386,.T.);
#495=ORIENTED_EDGE('',*,*,#388,.F.);
#496=ORIENTED_EDGE('',*,*,#389,.F.);
#497=ORIENTED_EDGE('',*,*,#390,.F.);
#498=ORIENTED_EDGE('',*,*,#389,.T.);
#499=ORIENTED_EDGE('',*,*,#391,.F.);
#500=ORIENTED_EDGE('',*,*,#392,.F.);
#501=ORIENTED_EDGE('',*,*,#393,.T.);
#502=ORIENTED_EDGE('',*,*,#392,.T.);
#503=ORIENTED_EDGE('',*,*,#394,.F.);
#504=ORIENTED_EDGE('',*,*,#395,.F.);
#505=ORIENTED_EDGE('',*,*,#396,.T.);
#506=ORIENTED_EDGE('',*,*,#395,.T.);
#507=ORIENTED_EDGE('',*,*,#397,.F.);
#508=ORIENTED_EDGE('',*,*,#398,.F.);
#509=ORIENTED_EDGE('',*,*,#399,.T.);
#510=ORIENTED_EDGE('',*,*,#398,.T.);
#511=ORIENTED_EDGE('',*,*,#400,.F.);
#512=ORIENTED_EDGE('',*,*,#401,.F.);
#513=ORIENTED_EDGE('',*,*,#402,.F.);
#514=ORIENTED_EDGE('',*,*,#401,.T.);
#515=ORIENTED_EDGE('',*,*,#403,.F.);
#516=ORIENTED_EDGE('',*,*,#404,.F.);
#517=ORIENTED_EDGE('',*,*,#405,.T.);
#518=ORIENTED_EDGE('',*,*,#404,.T.);
#519=ORIENTED_EDGE('',*,*,#406,.F.);
#520=ORIENTED_EDGE('',*,*,#407,.F.);
#521=ORIENTED_EDGE('',*,*,#408,.F.);
#522=ORIENTED_EDGE('',*,*,#407,.T.);
#523=ORIENTED_EDGE('',*,*,#409,.F.);
#524=ORIENTED_EDGE('',*,*,#410,.F.);
#525=ORIENTED_EDGE('',*,*,#411,.F.);
#526=ORIENTED_EDGE('',*,*,#410,.T.);
#527=ORIENTED_EDGE('',*,*,#412,.F.);
#528=ORIENTED_EDGE('',*,*,#413,.F.);
#529=ORIENTED_EDGE('',*,*,#414,.F.);
#530=ORIENTED_EDGE('',*,*,#413,.T.);
#531=ORIENTED_EDGE('',*,*,#415,.F.);
#532=ORIENTED_EDGE('',*,*,#416,.F.);
#533=ORIENTED_EDGE('',*,*,#417,.T.);
#534=ORIENTED_EDGE('',*,*,#416,.T.);
#535=ORIENTED_EDGE('',*,*,#418,.F.);
#536=ORIENTED_EDGE('',*,*,#419,.F.);
#537=ORIENTED_EDGE('',*,*,#420,.F.);
#538=ORIENTED_EDGE('',*,*,#419,.T.);
#539=ORIENTED_EDGE('',*,*,#421,.F.);
#540=ORIENTED_EDGE('',*,*,#422,.F.);
#541=ORIENTED_EDGE('',*,*,#423,.F.);
#542=ORIENTED_EDGE('',*,*,#422,.T.);
#543=ORIENTED_EDGE('',*,*,#424,.F.);
#544=ORIENTED_EDGE('',*,*,#425,.F.);
#545=ORIENTED_EDGE('',*,*,#426,.F.);
#546=ORIENTED_EDGE('',*,*,#425,.T.);
#547=ORIENTED_EDGE('',*,*,#427,.F.);
#548=ORIENTED_EDGE('',*,*,#428,.F.);
#549=ORIENTED_EDGE('',*,*,#429,.F.);
#550=ORIENTED_EDGE('',*,*,#428,.T.);
#551=ORIENTED_EDGE('',*,*,#430,.F.);
#552=ORIENTED_EDGE('',*,*,#431,.F.);
#553=ORIENTED_EDGE('',*,*,#432,.F.);
#554=ORIENTED_EDGE('',*,*,#431,.T.);
#555=ORIENTED_EDGE('',*,*,#433,.F.);
#556=ORIENTED_EDGE('',*,*,#434,.F.);
#557=ORIENTED_EDGE('',*,*,#435,.T.);
#558=ORIENTED_EDGE('',*,*,#434,.T.);
#559=ORIENTED_EDGE('',*,*,#436,.F.);
#560=ORIENTED_EDGE('',*,*,#437,.F.);
#561=ORIENTED_EDGE('',*,*,#438,.T.);
#562=ORIENTED_EDGE('',*,*,#437,.T.);
#563=ORIENTED_EDGE('',*,*,#439,.F.);
#564=ORIENTED_EDGE('',*,*,#440,.F.);
#565=ORIENTED_EDGE('',*,*,#441,.T.);
#566=ORIENTED_EDGE('',*,*,#440,.T.);
#567=ORIENTED_EDGE('',*,*,#442,.F.);
#568=ORIENTED_EDGE('',*,*,#443,.F.);
#569=ORIENTED_EDGE('',*,*,#444,.F.);
#570=ORIENTED_EDGE('',*,*,#443,.T.);
#571=ORIENTED_EDGE('',*,*,#445,.F.);
#572=ORIENTED_EDGE('',*,*,#446,.F.);
#573=ORIENTED_EDGE('',*,*,#447,.T.);
#574=ORIENTED_EDGE('',*,*,#446,.T.);
#575=ORIENTED_EDGE('',*,*,#448,.F.);
#576=ORIENTED_EDGE('',*,*,#366,.F.);
#577=ORIENTED_EDGE('',*,*,#448,.T.);
#578=ORIENTED_EDGE('',*,*,#445,.T.);
#579=ORIENTED_EDGE('',*,*,#442,.T.);
#580=ORIENTED_EDGE('',*,*,#439,.T.);
#581=ORIENTED_EDGE('',*,*,#436,.T.);
#582=ORIENTED_EDGE('',*,*,#433,.T.);
#583=ORIENTED_EDGE('',*,*,#430,.T.);
#584=ORIENTED_EDGE('',*,*,#427,.T.);
#585=ORIENTED_EDGE('',*,*,#424,.T.);
#586=ORIENTED_EDGE('',*,*,#421,.T.);
#587=ORIENTED_EDGE('',*,*,#418,.T.);
#588=ORIENTED_EDGE('',*,*,#415,.T.);
#589=ORIENTED_EDGE('',*,*,#412,.T.);
#590=ORIENTED_EDGE('',*,*,#409,.T.);
#591=ORIENTED_EDGE('',*,*,#406,.T.);
#592=ORIENTED_EDGE('',*,*,#403,.T.);
#593=ORIENTED_EDGE('',*,*,#400,.T.);
#594=ORIENTED_EDGE('',*,*,#397,.T.);
#595=ORIENTED_EDGE('',*,*,#394,.T.);
#596=ORIENTED_EDGE('',*,*,#391,.T.);
#597=ORIENTED_EDGE('',*,*,#388,.T.);
#598=ORIENTED_EDGE('',*,*,#385,.T.);
#599=ORIENTED_EDGE('',*,*,#382,.T.);
#600=ORIENTED_EDGE('',*,*,#379,.T.);
#601=ORIENTED_EDGE('',*,*,#376,.T.);
#602=ORIENTED_EDGE('',*,*,#373,.T.);
#603=ORIENTED_EDGE('',*,*,#370,.T.);
#604=ORIENTED_EDGE('',*,*,#367,.T.);
#605=ORIENTED_EDGE('',*,*,#362,.T.);
#606=ORIENTED_EDGE('',*,*,#359,.T.);
#607=ORIENTED_EDGE('',*,*,#356,.T.);
#608=ORIENTED_EDGE('',*,*,#353,.T.);
#609=ORIENTED_EDGE('',*,*,#447,.F.);
#610=ORIENTED_EDGE('',*,*,#365,.T.);
#611=ORIENTED_EDGE('',*,*,#369,.T.);
#612=ORIENTED_EDGE('',*,*,#372,.T.);
#613=ORIENTED_EDGE('',*,*,#375,.F.);
#614=ORIENTED_EDGE('',*,*,#378,.T.);
#615=ORIENTED_EDGE('',*,*,#381,.T.);
#616=ORIENTED_EDGE('',*,*,#384,.T.);
#617=ORIENTED_EDGE('',*,*,#387,.T.);
#618=ORIENTED_EDGE('',*,*,#390,.T.);
#619=ORIENTED_EDGE('',*,*,#393,.F.);
#620=ORIENTED_EDGE('',*,*,#396,.F.);
#621=ORIENTED_EDGE('',*,*,#399,.F.);
#622=ORIENTED_EDGE('',*,*,#402,.T.);
#623=ORIENTED_EDGE('',*,*,#405,.F.);
#624=ORIENTED_EDGE('',*,*,#408,.T.);
#625=ORIENTED_EDGE('',*,*,#411,.T.);
#626=ORIENTED_EDGE('',*,*,#414,.T.);
#627=ORIENTED_EDGE('',*,*,#417,.F.);
#628=ORIENTED_EDGE('',*,*,#420,.T.);
#629=ORIENTED_EDGE('',*,*,#423,.T.);
#630=ORIENTED_EDGE('',*,*,#426,.T.);
#631=ORIENTED_EDGE('',*,*,#429,.T.);
#632=ORIENTED_EDGE('',*,*,#432,.T.);
#633=ORIENTED_EDGE('',*,*,#435,.F.);
#634=ORIENTED_EDGE('',*,*,#438,.F.);
#635=ORIENTED_EDGE('',*,*,#441,.F.);
#636=ORIENTED_EDGE('',*,*,#444,.T.);
#637=ORIENTED_EDGE('',*,*,#364,.F.);
#638=ORIENTED_EDGE('',*,*,#361,.F.);
#639=ORIENTED_EDGE('',*,*,#358,.F.);
#640=ORIENTED_EDGE('',*,*,#355,.F.);
#641=CYLINDRICAL_SURFACE('',#701,30.);
#642=CYLINDRICAL_SURFACE('',#704,30.);
#643=CYLINDRICAL_SURFACE('',#707,30.);
#644=CYLINDRICAL_SURFACE('',#710,30.);
#645=CYLINDRICAL_SURFACE('',#714,43.4352168322147);
#646=CYLINDRICAL_SURFACE('',#718,39.9999999999999);
#647=CYLINDRICAL_SURFACE('',#725,17.7985459692042);
#648=CYLINDRICAL_SURFACE('',#732,39.9999999999999);
#649=CYLINDRICAL_SURFACE('',#736,45.5111680164233);
#650=CYLINDRICAL_SURFACE('',#740,40.);
#651=CYLINDRICAL_SURFACE('',#747,17.7985459692042);
#652=CYLINDRICAL_SURFACE('',#754,40.);
#653=ADVANCED_FACE('',(#45),#641,.F.);
#654=ADVANCED_FACE('',(#46),#642,.F.);
#655=ADVANCED_FACE('',(#47),#643,.F.);
#656=ADVANCED_FACE('',(#48),#644,.F.);
#657=ADVANCED_FACE('',(#49),#23,.T.);
#658=ADVANCED_FACE('',(#50),#645,.F.);
#659=ADVANCED_FACE('',(#51),#24,.T.);
#660=ADVANCED_FACE('',(#52),#646,.T.);
#661=ADVANCED_FACE('',(#53),#25,.T.);
#662=ADVANCED_FACE('',(#54),#26,.T.);
#663=ADVANCED_FACE('',(#55),#27,.T.);
#664=ADVANCED_FACE('',(#56),#28,.T.);
#665=ADVANCED_FACE('',(#57),#647,.F.);
#666=ADVANCED_FACE('',(#58),#29,.T.);
#667=ADVANCED_FACE('',(#59),#30,.T.);
#668=ADVANCED_FACE('',(#60),#31,.T.);
#669=ADVANCED_FACE('',(#61),#32,.T.);
#670=ADVANCED_FACE('',(#62),#648,.T.);
#671=ADVANCED_FACE('',(#63),#33,.T.);
#672=ADVANCED_FACE('',(#64),#649,.F.);
#673=ADVANCED_FACE('',(#65),#34,.T.);
#674=ADVANCED_FACE('',(#66),#650,.T.);
#675=ADVANCED_FACE('',(#67),#35,.T.);
#676=ADVANCED_FACE('',(#68),#36,.T.);
#677=ADVANCED_FACE('',(#69),#37,.T.);
#678=ADVANCED_FACE('',(#70),#38,.T.);
#679=ADVANCED_FACE('',(#71),#651,.F.);
#680=ADVANCED_FACE('',(#72),#39,.T.);
#681=ADVANCED_FACE('',(#73),#40,.T.);
#682=ADVANCED_FACE('',(#74),#41,.T.);
#683=ADVANCED_FACE('',(#75),#42,.T.);
#684=ADVANCED_FACE('',(#76),#652,.T.);
#685=ADVANCED_FACE('',(#77,#15,#16,#17,#18),#43,.T.);
#686=ADVANCED_FACE('',(#78,#19,#20,#21,#22),#44,.F.);
#687=CLOSED_SHELL('',(#653,#654,#655,#656,#657,#658,#659,#660,#661,#662,
#663,#664,#665,#666,#667,#668,#669,#670,#671,#672,#673,#674,#675,#676,#677,
#678,#679,#680,#681,#682,#683,#684,#685,#686));
#688=DERIVED_UNIT_ELEMENT(#690,1.);
#689=DERIVED_UNIT_ELEMENT(#1149,-3.);
#690=(
MASS_UNIT()
NAMED_UNIT(*)
SI_UNIT(.KILO.,.GRAM.)
);
#691=DERIVED_UNIT((#688,#689));
#692=MEASURE_REPRESENTATION_ITEM('density measure',
POSITIVE_RATIO_MEASURE(7850.),#691);
#693=PROPERTY_DEFINITION_REPRESENTATION(#698,#695);
#694=PROPERTY_DEFINITION_REPRESENTATION(#699,#696);
#695=REPRESENTATION('material name',(#697),#1146);
#696=REPRESENTATION('density',(#692),#1146);
#697=DESCRIPTIVE_REPRESENTATION_ITEM('Steel','Steel');
#698=PROPERTY_DEFINITION('material property','material name',#1156);
#699=PROPERTY_DEFINITION('material property','density of part',#1156);
#700=AXIS2_PLACEMENT_3D('',#949,#759,#760);
#701=AXIS2_PLACEMENT_3D('',#950,#761,#762);
#702=AXIS2_PLACEMENT_3D('',#952,#763,#764);
#703=AXIS2_PLACEMENT_3D('',#955,#766,#767);
#704=AXIS2_PLACEMENT_3D('',#956,#768,#769);
#705=AXIS2_PLACEMENT_3D('',#958,#770,#771);
#706=AXIS2_PLACEMENT_3D('',#961,#773,#774);
#707=AXIS2_PLACEMENT_3D('',#962,#775,#776);
#708=AXIS2_PLACEMENT_3D('',#964,#777,#778);
#709=AXIS2_PLACEMENT_3D('',#967,#780,#781);
#710=AXIS2_PLACEMENT_3D('',#968,#782,#783);
#711=AXIS2_PLACEMENT_3D('',#970,#784,#785);
#712=AXIS2_PLACEMENT_3D('',#973,#787,#788);
#713=AXIS2_PLACEMENT_3D('',#974,#789,#790);
#714=AXIS2_PLACEMENT_3D('',#983,#795,#796);
#715=AXIS2_PLACEMENT_3D('',#985,#797,#798);
#716=AXIS2_PLACEMENT_3D('',#987,#799,#800);
#717=AXIS2_PLACEMENT_3D('',#989,#802,#803);
#718=AXIS2_PLACEMENT_3D('',#995,#807,#808);
#719=AXIS2_PLACEMENT_3D('',#997,#809,#810);
#720=AXIS2_PLACEMENT_3D('',#999,#811,#812);
#721=AXIS2_PLACEMENT_3D('',#1001,#814,#815);
#722=AXIS2_PLACEMENT_3D('',#1007,#819,#820);
#723=AXIS2_PLACEMENT_3D('',#1013,#824,#825);
#724=AXIS2_PLACEMENT_3D('',#1019,#829,#830);
#725=AXIS2_PLACEMENT_3D('',#1025,#834,#835);
#726=AXIS2_PLACEMENT_3D('',#1027,#836,#837);
#727=AXIS2_PLACEMENT_3D('',#1029,#838,#839);
#728=AXIS2_PLACEMENT_3D('',#1031,#841,#842);
#729=AXIS2_PLACEMENT_3D('',#1037,#846,#847);
#730=AXIS2_PLACEMENT_3D('',#1043,#851,#852);
#731=AXIS2_PLACEMENT_3D('',#1049,#856,#857);
#732=AXIS2_PLACEMENT_3D('',#1055,#861,#862);
#733=AXIS2_PLACEMENT_3D('',#1057,#863,#864);
#734=AXIS2_PLACEMENT_3D('',#1059,#865,#866);
#735=AXIS2_PLACEMENT_3D('',#1061,#868,#869);
#736=AXIS2_PLACEMENT_3D('',#1067,#873,#874);
#737=AXIS2_PLACEMENT_3D('',#1069,#875,#876);
#738=AXIS2_PLACEMENT_3D('',#1071,#877,#878);
#739=AXIS2_PLACEMENT_3D('',#1073,#880,#881);
#740=AXIS2_PLACEMENT_3D('',#1079,#885,#886);
#741=AXIS2_PLACEMENT_3D('',#1081,#887,#888);
#742=AXIS2_PLACEMENT_3D('',#1083,#889,#890);
#743=AXIS2_PLACEMENT_3D('',#1085,#892,#893);
#744=AXIS2_PLACEMENT_3D('',#1091,#897,#898);
#745=AXIS2_PLACEMENT_3D('',#1097,#902,#903);
#746=AXIS2_PLACEMENT_3D('',#1103,#907,#908);
#747=AXIS2_PLACEMENT_3D('',#1109,#912,#913);
#748=AXIS2_PLACEMENT_3D('',#1111,#914,#915);
#749=AXIS2_PLACEMENT_3D('',#1113,#916,#917);
#750=AXIS2_PLACEMENT_3D('',#1115,#919,#920);
#751=AXIS2_PLACEMENT_3D('',#1121,#924,#925);
#752=AXIS2_PLACEMENT_3D('',#1127,#929,#930);
#753=AXIS2_PLACEMENT_3D('',#1133,#934,#935);
#754=AXIS2_PLACEMENT_3D('',#1139,#939,#940);
#755=AXIS2_PLACEMENT_3D('',#1140,#941,#942);
#756=AXIS2_PLACEMENT_3D('',#1141,#943,#944);
#757=AXIS2_PLACEMENT_3D('',#1142,#945,#946);
#758=AXIS2_PLACEMENT_3D('',#1143,#947,#948);
#759=DIRECTION('axis',(0.,0.,1.));
#760=DIRECTION('refdir',(1.,0.,0.));
#761=DIRECTION('center_axis',(0.,0.,1.));
#762=DIRECTION('ref_axis',(1.,0.,0.));
#763=DIRECTION('center_axis',(0.,0.,-1.));
#764=DIRECTION('ref_axis',(1.,0.,0.));
#765=DIRECTION('',(0.,0.,-1.));
#766=DIRECTION('center_axis',(0.,0.,-1.));
#767=DIRECTION('ref_axis',(1.,0.,0.));
#768=DIRECTION('center_axis',(0.,0.,1.));
#769=DIRECTION('ref_axis',(1.,0.,0.));
#770=DIRECTION('center_axis',(0.,0.,-1.));
#771=DIRECTION('ref_axis',(1.,0.,0.));
#772=DIRECTION('',(0.,0.,-1.));
#773=DIRECTION('center_axis',(0.,0.,-1.));
#774=DIRECTION('ref_axis',(1.,0.,0.));
#775=DIRECTION('center_axis',(0.,0.,1.));
#776=DIRECTION('ref_axis',(1.,0.,0.));
#777=DIRECTION('center_axis',(0.,0.,-1.));
#778=DIRECTION('ref_axis',(1.,0.,0.));
#779=DIRECTION('',(0.,0.,-1.));
#780=DIRECTION('center_axis',(0.,0.,-1.));
#781=DIRECTION('ref_axis',(1.,0.,0.));
#782=DIRECTION('center_axis',(0.,0.,1.));
#783=DIRECTION('ref_axis',(1.,0.,0.));
#784=DIRECTION('center_axis',(0.,0.,-1.));
#785=DIRECTION('ref_axis',(1.,0.,0.));
#786=DIRECTION('',(0.,0.,-1.));
#787=DIRECTION('center_axis',(0.,0.,-1.));
#788=DIRECTION('ref_axis',(1.,0.,0.));
#789=DIRECTION('center_axis',(1.,0.,0.));
#790=DIRECTION('ref_axis',(0.,1.,0.));
#791=DIRECTION('',(0.,-1.,0.));
#792=DIRECTION('',(0.,0.,1.));
#793=DIRECTION('',(0.,1.,0.));
#794=DIRECTION('',(0.,0.,1.));
#795=DIRECTION('center_axis',(0.,0.,1.));
#796=DIRECTION('ref_axis',(-1.,1.0224173890176E-16,0.));
#797=DIRECTION('center_axis',(0.,0.,1.));
#798=DIRECTION('ref_axis',(0.230227928609839,0.973136732883937,0.));
#799=DIRECTION('center_axis',(0.,0.,-1.));
#800=DIRECTION('ref_axis',(0.230227928609839,0.973136732883937,0.));
#801=DIRECTION('',(0.,0.,1.));
#802=DIRECTION('center_axis',(1.,0.,0.));
#803=DIRECTION('ref_axis',(0.,1.,0.));
#804=DIRECTION('',(0.,-1.,0.));
#805=DIRECTION('',(0.,1.,0.));
#806=DIRECTION('',(0.,0.,1.));
#807=DIRECTION('center_axis',(0.,0.,1.));
#808=DIRECTION('ref_axis',(-1.33226762955019E-15,-1.,0.));
#809=DIRECTION('center_axis',(0.,0.,1.));
#810=DIRECTION('ref_axis',(-1.33226762955019E-15,-1.,0.));
#811=DIRECTION('center_axis',(0.,0.,1.));
#812=DIRECTION('ref_axis',(-1.33226762955019E-15,-1.,0.));
#813=DIRECTION('',(0.,0.,1.));
#814=DIRECTION('center_axis',(0.,-1.,0.));
#815=DIRECTION('ref_axis',(1.,0.,0.));
#816=DIRECTION('',(-1.,0.,0.));
#817=DIRECTION('',(1.,0.,0.));
#818=DIRECTION('',(0.,0.,1.));
#819=DIRECTION('center_axis',(-1.,0.,0.));
#820=DIRECTION('ref_axis',(0.,-1.,0.));
#821=DIRECTION('',(0.,1.,0.));
#822=DIRECTION('',(0.,-1.,0.));
#823=DIRECTION('',(0.,0.,1.));
#824=DIRECTION('center_axis',(0.,-1.,0.));
#825=DIRECTION('ref_axis',(1.,0.,0.));
#826=DIRECTION('',(-1.,0.,0.));
#827=DIRECTION('',(1.,0.,0.));
#828=DIRECTION('',(0.,0.,1.));
#829=DIRECTION('center_axis',(-1.,0.,0.));
#830=DIRECTION('ref_axis',(0.,-1.,0.));
#831=DIRECTION('',(0.,1.,0.));
#832=DIRECTION('',(0.,-1.,0.));
#833=DIRECTION('',(0.,0.,1.));
#834=DIRECTION('center_axis',(0.,0.,1.));
#835=DIRECTION('ref_axis',(2.05844678975584E-15,1.,0.));
#836=DIRECTION('center_axis',(0.,0.,1.));
#837=DIRECTION('ref_axis',(0.561843648200385,-0.827243443598607,0.));
#838=DIRECTION('center_axis',(0.,0.,-1.));
#839=DIRECTION('ref_axis',(0.561843648200385,-0.827243443598607,0.));
#840=DIRECTION('',(0.,0.,1.));
#841=DIRECTION('center_axis',(1.,0.,0.));
#842=DIRECTION('ref_axis',(0.,1.,0.));
#843=DIRECTION('',(0.,1.,0.));
#844=DIRECTION('',(0.,1.,0.));
#845=DIRECTION('',(0.,0.,1.));
#846=DIRECTION('center_axis',(0.,-1.,0.));
#847=DIRECTION('ref_axis',(1.,0.,0.));
#848=DIRECTION('',(1.,0.,0.));
#849=DIRECTION('',(1.,0.,0.));
#850=DIRECTION('',(0.,0.,1.));
#851=DIRECTION('center_axis',(1.,0.,0.));
#852=DIRECTION('ref_axis',(0.,1.,0.));
#853=DIRECTION('',(0.,1.,0.));
#854=DIRECTION('',(0.,1.,0.));
#855=DIRECTION('',(0.,0.,1.));
#856=DIRECTION('center_axis',(0.,-1.,0.));
#857=DIRECTION('ref_axis',(1.,0.,0.));
#858=DIRECTION('',(-1.,0.,0.));
#859=DIRECTION('',(1.,0.,0.));
#860=DIRECTION('',(0.,0.,1.));
#861=DIRECTION('center_axis',(0.,0.,1.));
#862=DIRECTION('ref_axis',(-1.,1.77635683940025E-15,0.));
#863=DIRECTION('center_axis',(0.,0.,1.));
#864=DIRECTION('ref_axis',(-1.,1.77635683940025E-15,0.));
#865=DIRECTION('center_axis',(0.,0.,1.));
#866=DIRECTION('ref_axis',(-1.,1.77635683940025E-15,0.));
#867=DIRECTION('',(0.,0.,1.));
#868=DIRECTION('center_axis',(-1.,0.,0.));
#869=DIRECTION('ref_axis',(0.,-1.,0.));
#870=DIRECTION('',(0.,1.,0.));
#871=DIRECTION('',(0.,-1.,0.));
#872=DIRECTION('',(0.,0.,1.));
#873=DIRECTION('center_axis',(0.,0.,1.));
#874=DIRECTION('ref_axis',(1.,-1.95156147031782E-16,0.));
#875=DIRECTION('center_axis',(0.,0.,1.));
#876=DIRECTION('ref_axis',(-0.219726287762848,-0.975561560572144,0.));
#877=DIRECTION('center_axis',(0.,0.,-1.));
#878=DIRECTION('ref_axis',(-0.219726287762848,-0.975561560572144,0.));
#879=DIRECTION('',(0.,0.,1.));
#880=DIRECTION('center_axis',(-1.,0.,0.));
#881=DIRECTION('ref_axis',(0.,-1.,0.));
#882=DIRECTION('',(0.,1.,0.));
#883=DIRECTION('',(0.,-1.,0.));
#884=DIRECTION('',(0.,0.,1.));
#885=DIRECTION('center_axis',(0.,0.,1.));
#886=DIRECTION('ref_axis',(6.66133814775095E-16,1.,0.));
#887=DIRECTION('center_axis',(0.,0.,1.));
#888=DIRECTION('ref_axis',(6.66133814775095E-16,1.,0.));
#889=DIRECTION('center_axis',(0.,0.,1.));
#890=DIRECTION('ref_axis',(6.66133814775095E-16,1.,0.));
#891=DIRECTION('',(0.,0.,1.));
#892=DIRECTION('center_axis',(4.44089209850063E-17,1.,0.));
#893=DIRECTION('ref_axis',(-1.,4.44089209850063E-17,0.));
#894=DIRECTION('',(1.,-4.44089209850063E-17,0.));
#895=DIRECTION('',(-1.,4.44089209850063E-17,0.));
#896=DIRECTION('',(0.,0.,1.));
#897=DIRECTION('center_axis',(1.,0.,0.));
#898=DIRECTION('ref_axis',(0.,1.,0.));
#899=DIRECTION('',(0.,-1.,0.));
#900=DIRECTION('',(0.,1.,0.));
#901=DIRECTION('',(0.,0.,1.));
#902=DIRECTION('center_axis',(0.,1.,0.));
#903=DIRECTION('ref_axis',(-1.,0.,0.));
#904=DIRECTION('',(1.,0.,0.));
#905=DIRECTION('',(-1.,0.,0.));
#906=DIRECTION('',(0.,0.,1.));
#907=DIRECTION('center_axis',(1.,0.,0.));
#908=DIRECTION('ref_axis',(0.,1.,0.));
#909=DIRECTION('',(0.,-1.,0.));
#910=DIRECTION('',(0.,1.,0.));
#911=DIRECTION('',(0.,0.,1.));
#912=DIRECTION('center_axis',(0.,0.,1.));
#913=DIRECTION('ref_axis',(2.30795549154442E-15,-1.,0.));
#914=DIRECTION('center_axis',(0.,0.,1.));
#915=DIRECTION('ref_axis',(-0.561843648200389,0.827243443598604,0.));
#916=DIRECTION('center_axis',(0.,0.,-1.));
#917=DIRECTION('ref_axis',(-0.561843648200389,0.827243443598604,0.));
#918=DIRECTION('',(0.,0.,1.));
#919=DIRECTION('center_axis',(-1.,0.,0.));
#920=DIRECTION('ref_axis',(0.,-1.,0.));
#921=DIRECTION('',(0.,-1.,0.));
#922=DIRECTION('',(0.,-1.,0.));
#923=DIRECTION('',(0.,0.,1.));
#924=DIRECTION('center_axis',(8.88178419700125E-16,1.,0.));
#925=DIRECTION('ref_axis',(-1.,8.88178419700125E-16,0.));
#926=DIRECTION('',(-1.,8.88178419700125E-16,0.));
#927=DIRECTION('',(-1.,8.88178419700125E-16,0.));
#928=DIRECTION('',(0.,0.,1.));
#929=DIRECTION('center_axis',(-1.,0.,0.));
#930=DIRECTION('ref_axis',(0.,-1.,0.));
#931=DIRECTION('',(0.,-1.,0.));
#932=DIRECTION('',(0.,-1.,0.));
#933=DIRECTION('',(0.,0.,1.));
#934=DIRECTION('center_axis',(4.44089209850063E-17,1.,0.));
#935=DIRECTION('ref_axis',(-1.,4.44089209850063E-17,0.));
#936=DIRECTION('',(1.,-4.44089209850063E-17,0.));
#937=DIRECTION('',(-1.,4.44089209850063E-17,0.));
#938=DIRECTION('',(0.,0.,1.));
#939=DIRECTION('center_axis',(0.,0.,1.));
#940=DIRECTION('ref_axis',(1.,-5.55111512312579E-16,0.));
#941=DIRECTION('center_axis',(0.,0.,1.));
#942=DIRECTION('ref_axis',(1.,-5.55111512312579E-16,0.));
#943=DIRECTION('center_axis',(0.,0.,1.));
#944=DIRECTION('ref_axis',(1.,-5.55111512312579E-16,0.));
#945=DIRECTION('center_axis',(0.,0.,1.));
#946=DIRECTION('ref_axis',(1.,0.,0.));
#947=DIRECTION('center_axis',(0.,0.,1.));
#948=DIRECTION('ref_axis',(1.,0.,0.));
#949=CARTESIAN_POINT('',(0.,0.,0.));
#950=CARTESIAN_POINT('Origin',(144.524956307965,-225.,0.));
#951=CARTESIAN_POINT('',(114.524956307965,-225.,25.));
#952=CARTESIAN_POINT('Origin',(144.524956307965,-225.,25.));
#953=CARTESIAN_POINT('',(114.524956307965,-225.,0.));
#954=CARTESIAN_POINT('',(114.524956307965,-225.,0.));
#955=CARTESIAN_POINT('Origin',(144.524956307965,-225.,0.));
#956=CARTESIAN_POINT('Origin',(-55.4750436920354,-225.,0.));
#957=CARTESIAN_POINT('',(-85.4750436920354,-225.,25.));
#958=CARTESIAN_POINT('Origin',(-55.4750436920354,-225.,25.));
#959=CARTESIAN_POINT('',(-85.4750436920354,-225.,0.));
#960=CARTESIAN_POINT('',(-85.4750436920354,-225.,0.));
#961=CARTESIAN_POINT('Origin',(-55.4750436920354,-225.,0.));
#962=CARTESIAN_POINT('Origin',(144.524956307965,-25.,0.));
#963=CARTESIAN_POINT('',(114.524956307965,-25.,25.));
#964=CARTESIAN_POINT('Origin',(144.524956307965,-25.,25.));
#965=CARTESIAN_POINT('',(114.524956307965,-25.,0.));
#966=CARTESIAN_POINT('',(114.524956307965,-25.,0.));
#967=CARTESIAN_POINT('Origin',(144.524956307965,-25.,0.));
#968=CARTESIAN_POINT('Origin',(-55.4750436920354,-25.,0.));
#969=CARTESIAN_POINT('',(-85.4750436920354,-25.,25.));
#970=CARTESIAN_POINT('Origin',(-55.4750436920354,-25.,25.));
#971=CARTESIAN_POINT('',(-85.4750436920354,-25.,0.));
#972=CARTESIAN_POINT('',(-85.4750436920354,-25.,0.));
#973=CARTESIAN_POINT('Origin',(-55.4750436920354,-25.,0.));
#974=CARTESIAN_POINT('Origin',(184.524956307965,-75.8302322111282,0.));
#975=CARTESIAN_POINT('',(184.524956307965,-25.,0.));
#976=CARTESIAN_POINT('',(184.524956307965,-75.8302322111282,0.));
#977=CARTESIAN_POINT('',(184.524956307965,-25.,0.));
#978=CARTESIAN_POINT('',(184.524956307965,-25.,25.));
#979=CARTESIAN_POINT('',(184.524956307965,-25.,0.));
#980=CARTESIAN_POINT('',(184.524956307965,-75.8302322111282,25.));
#981=CARTESIAN_POINT('',(184.524956307965,-25.,25.));
#982=CARTESIAN_POINT('',(184.524956307965,-75.8302322111282,0.));
#983=CARTESIAN_POINT('Origin',(174.524956307965,-118.098637211335,0.));
#984=CARTESIAN_POINT('',(184.524956307965,-160.367042211542,0.));
#985=CARTESIAN_POINT('Origin',(174.524956307965,-118.098637211335,0.));
#986=CARTESIAN_POINT('',(184.524956307965,-160.367042211542,25.));
#987=CARTESIAN_POINT('Origin',(174.524956307965,-118.098637211335,25.));
#988=CARTESIAN_POINT('',(184.524956307965,-160.367042211542,0.));
#989=CARTESIAN_POINT('Origin',(184.524956307965,-225.,0.));
#990=CARTESIAN_POINT('',(184.524956307965,-225.,0.));
#991=CARTESIAN_POINT('',(184.524956307965,-160.367042211542,0.));
#992=CARTESIAN_POINT('',(184.524956307965,-225.,25.));
#993=CARTESIAN_POINT('',(184.524956307965,-160.367042211542,25.));
#994=CARTESIAN_POINT('',(184.524956307965,-225.,0.));
#995=CARTESIAN_POINT('Origin',(144.524956307965,-225.,0.));
#996=CARTESIAN_POINT('',(144.524956307965,-265.,0.));
#997=CARTESIAN_POINT('Origin',(144.524956307965,-225.,0.));
#998=CARTESIAN_POINT('',(144.524956307965,-265.,25.));
#999=CARTESIAN_POINT('Origin',(144.524956307965,-225.,25.));
#1000=CARTESIAN_POINT('',(144.524956307965,-265.,0.));
#1001=CARTESIAN_POINT('Origin',(94.5249563079646,-265.,0.));
#1002=CARTESIAN_POINT('',(94.5249563079646,-265.,0.));
#1003=CARTESIAN_POINT('',(144.524956307965,-265.,0.));
#1004=CARTESIAN_POINT('',(94.5249563079646,-265.,25.));
#1005=CARTESIAN_POINT('',(144.524956307965,-265.,25.));
#1006=CARTESIAN_POINT('',(94.5249563079646,-265.,0.));
#1007=CARTESIAN_POINT('Origin',(94.5249563079646,-260.,0.));
#1008=CARTESIAN_POINT('',(94.5249563079646,-260.,0.));
#1009=CARTESIAN_POINT('',(94.5249563079646,-265.,0.));
#1010=CARTESIAN_POINT('',(94.5249563079646,-260.,25.));
#1011=CARTESIAN_POINT('',(94.5249563079646,-265.,25.));
#1012=CARTESIAN_POINT('',(94.5249563079646,-260.,0.));
#1013=CARTESIAN_POINT('Origin',(54.5249563079646,-260.,0.));
#1014=CARTESIAN_POINT('',(54.5249563079646,-260.,0.));
#1015=CARTESIAN_POINT('',(94.5249563079646,-260.,0.));
#1016=CARTESIAN_POINT('',(54.5249563079646,-260.,25.));
#1017=CARTESIAN_POINT('',(94.5249563079646,-260.,25.));
#1018=CARTESIAN_POINT('',(54.5249563079646,-260.,0.));
#1019=CARTESIAN_POINT('Origin',(54.5249563079646,-222.822367669948,0.));
#1020=CARTESIAN_POINT('',(54.5249563079646,-222.822367669948,0.));
#1021=CARTESIAN_POINT('',(54.5249563079646,-260.,0.));
#1022=CARTESIAN_POINT('',(54.5249563079646,-222.822367669948,25.));
#1023=CARTESIAN_POINT('',(54.5249563079646,-260.,25.));
#1024=CARTESIAN_POINT('',(54.5249563079646,-222.822367669948,0.));
#1025=CARTESIAN_POINT('Origin',(44.5249563079646,-208.098637211335,0.));
#1026=CARTESIAN_POINT('',(34.5249563079646,-222.822367669948,0.));
#1027=CARTESIAN_POINT('Origin',(44.5249563079646,-208.098637211335,0.));
#1028=CARTESIAN_POINT('',(34.5249563079646,-222.822367669948,25.));
#1029=CARTESIAN_POINT('Origin',(44.5249563079646,-208.098637211335,25.));
#1030=CARTESIAN_POINT('',(34.5249563079646,-222.822367669948,0.));
#1031=CARTESIAN_POINT('Origin',(34.5249563079646,-260.,0.));
#1032=CARTESIAN_POINT('',(34.5249563079646,-260.,0.));
#1033=CARTESIAN_POINT('',(34.5249563079646,-260.,0.));
#1034=CARTESIAN_POINT('',(34.5249563079646,-260.,25.));
#1035=CARTESIAN_POINT('',(34.5249563079646,-260.,25.));
#1036=CARTESIAN_POINT('',(34.5249563079646,-260.,0.));
#1037=CARTESIAN_POINT('Origin',(-5.47504369203539,-260.,0.));
#1038=CARTESIAN_POINT('',(-5.47504369203539,-260.,0.));
#1039=CARTESIAN_POINT('',(-5.47504369203539,-260.,0.));
#1040=CARTESIAN_POINT('',(-5.47504369203539,-260.,25.));
#1041=CARTESIAN_POINT('',(-5.47504369203539,-260.,25.));
#1042=CARTESIAN_POINT('',(-5.47504369203539,-260.,0.));
#1043=CARTESIAN_POINT('Origin',(-5.47504369203539,-265.,0.));
#1044=CARTESIAN_POINT('',(-5.47504369203539,-265.,0.));
#1045=CARTESIAN_POINT('',(-5.47504369203539,-265.,0.));
#1046=CARTESIAN_POINT('',(-5.47504369203539,-265.,25.));
#1047=CARTESIAN_POINT('',(-5.47504369203539,-265.,25.));
#1048=CARTESIAN_POINT('',(-5.47504369203539,-265.,0.));
#1049=CARTESIAN_POINT('Origin',(-55.4750436920353,-265.,0.));
#1050=CARTESIAN_POINT('',(-55.4750436920353,-265.,0.));
#1051=CARTESIAN_POINT('',(144.524956307965,-265.,0.));
#1052=CARTESIAN_POINT('',(-55.4750436920353,-265.,25.));
#1053=CARTESIAN_POINT('',(144.524956307965,-265.,25.));
#1054=CARTESIAN_POINT('',(-55.4750436920353,-265.,0.));
#1055=CARTESIAN_POINT('Origin',(-55.4750436920354,-225.,0.));
#1056=CARTESIAN_POINT('',(-95.4750436920353,-225.,0.));
#1057=CARTESIAN_POINT('Origin',(-55.4750436920354,-225.,0.));
#1058=CARTESIAN_POINT('',(-95.4750436920353,-225.,25.));
#1059=CARTESIAN_POINT('Origin',(-55.4750436920354,-225.,25.));
#1060=CARTESIAN_POINT('',(-95.4750436920353,-225.,0.));
#1061=CARTESIAN_POINT('Origin',(-95.4750436920353,-162.497583304898,0.));
#1062=CARTESIAN_POINT('',(-95.4750436920353,-162.497583304898,0.));
#1063=CARTESIAN_POINT('',(-95.4750436920353,-225.,0.));
#1064=CARTESIAN_POINT('',(-95.4750436920353,-162.497583304898,25.));
#1065=CARTESIAN_POINT('',(-95.4750436920353,-225.,25.));
#1066=CARTESIAN_POINT('',(-95.4750436920353,-162.497583304898,0.));
#1067=CARTESIAN_POINT('Origin',(-85.4750436920354,-118.098637211335,0.));
#1068=CARTESIAN_POINT('',(-95.4750436920353,-73.699691117772,0.));
#1069=CARTESIAN_POINT('Origin',(-85.4750436920354,-118.098637211335,0.));
#1070=CARTESIAN_POINT('',(-95.4750436920353,-73.699691117772,25.));
#1071=CARTESIAN_POINT('Origin',(-85.4750436920354,-118.098637211335,25.));
#1072=CARTESIAN_POINT('',(-95.4750436920353,-73.699691117772,0.));
#1073=CARTESIAN_POINT('Origin',(-95.4750436920353,-25.,0.));
#1074=CARTESIAN_POINT('',(-95.4750436920353,-25.,0.));
#1075=CARTESIAN_POINT('',(-95.4750436920353,-73.699691117772,0.));
#1076=CARTESIAN_POINT('',(-95.4750436920353,-25.,25.));
#1077=CARTESIAN_POINT('',(-95.4750436920353,-73.699691117772,25.));
#1078=CARTESIAN_POINT('',(-95.4750436920353,-25.,0.));
#1079=CARTESIAN_POINT('Origin',(-55.4750436920354,-25.,0.));
#1080=CARTESIAN_POINT('',(-55.4750436920353,15.,0.));
#1081=CARTESIAN_POINT('Origin',(-55.4750436920354,-25.,0.));
#1082=CARTESIAN_POINT('',(-55.4750436920353,15.,25.));
#1083=CARTESIAN_POINT('Origin',(-55.4750436920354,-25.,25.));
#1084=CARTESIAN_POINT('',(-55.4750436920353,15.,0.));
#1085=CARTESIAN_POINT('Origin',(-5.47504369203537,15.,0.));
#1086=CARTESIAN_POINT('',(-5.47504369203537,15.,0.));
#1087=CARTESIAN_POINT('',(-55.4750436920353,15.,0.));
#1088=CARTESIAN_POINT('',(-5.47504369203537,15.,25.));
#1089=CARTESIAN_POINT('',(-55.4750436920353,15.,25.));
#1090=CARTESIAN_POINT('',(-5.47504369203537,15.,0.));
#1091=CARTESIAN_POINT('Origin',(-5.47504369203537,10.,0.));
#1092=CARTESIAN_POINT('',(-5.47504369203537,10.,0.));
#1093=CARTESIAN_POINT('',(-5.47504369203537,15.,0.));
#1094=CARTESIAN_POINT('',(-5.47504369203537,10.,25.));
#1095=CARTESIAN_POINT('',(-5.47504369203537,15.,25.));
#1096=CARTESIAN_POINT('',(-5.47504369203537,10.,0.));
#1097=CARTESIAN_POINT('Origin',(34.5249563079646,10.,0.));
#1098=CARTESIAN_POINT('',(34.5249563079646,10.,0.));
#1099=CARTESIAN_POINT('',(-5.47504369203537,10.,0.));
#1100=CARTESIAN_POINT('',(34.5249563079646,10.,25.));
#1101=CARTESIAN_POINT('',(-5.47504369203537,10.,25.));
#1102=CARTESIAN_POINT('',(34.5249563079646,10.,0.));
#1103=CARTESIAN_POINT('Origin',(34.5249563079646,-27.1776323300524,0.));
#1104=CARTESIAN_POINT('',(34.5249563079646,-27.1776323300524,0.));
#1105=CARTESIAN_POINT('',(34.5249563079646,10.,0.));
#1106=CARTESIAN_POINT('',(34.5249563079646,-27.1776323300524,25.));
#1107=CARTESIAN_POINT('',(34.5249563079646,10.,25.));
#1108=CARTESIAN_POINT('',(34.5249563079646,-27.1776323300524,0.));
#1109=CARTESIAN_POINT('Origin',(44.5249563079647,-41.901362788665,0.));
#1110=CARTESIAN_POINT('',(54.5249563079646,-27.1776323300524,0.));
#1111=CARTESIAN_POINT('Origin',(44.5249563079647,-41.901362788665,0.));
#1112=CARTESIAN_POINT('',(54.5249563079646,-27.1776323300524,25.));
#1113=CARTESIAN_POINT('Origin',(44.5249563079647,-41.901362788665,25.));
#1114=CARTESIAN_POINT('',(54.5249563079646,-27.1776323300524,0.));
#1115=CARTESIAN_POINT('Origin',(54.5249563079646,10.,0.));
#1116=CARTESIAN_POINT('',(54.5249563079646,10.,0.));
#1117=CARTESIAN_POINT('',(54.5249563079646,10.,0.));
#1118=CARTESIAN_POINT('',(54.5249563079646,10.,25.));
#1119=CARTESIAN_POINT('',(54.5249563079646,10.,25.));
#1120=CARTESIAN_POINT('',(54.5249563079646,10.,0.));
#1121=CARTESIAN_POINT('Origin',(94.5249563079646,9.99999999999996,0.));
#1122=CARTESIAN_POINT('',(94.5249563079646,9.99999999999996,0.));
#1123=CARTESIAN_POINT('',(94.5249563079646,9.99999999999996,0.));
#1124=CARTESIAN_POINT('',(94.5249563079646,9.99999999999996,25.));
#1125=CARTESIAN_POINT('',(94.5249563079646,9.99999999999996,25.));
#1126=CARTESIAN_POINT('',(94.5249563079646,9.99999999999996,0.));
#1127=CARTESIAN_POINT('Origin',(94.5249563079646,15.,0.));
#1128=CARTESIAN_POINT('',(94.5249563079646,15.,0.));
#1129=CARTESIAN_POINT('',(94.5249563079646,15.,0.));
#1130=CARTESIAN_POINT('',(94.5249563079646,15.,25.));
#1131=CARTESIAN_POINT('',(94.5249563079646,15.,25.));
#1132=CARTESIAN_POINT('',(94.5249563079646,15.,0.));
#1133=CARTESIAN_POINT('Origin',(144.524956307965,15.,0.));
#1134=CARTESIAN_POINT('',(144.524956307965,15.,0.));
#1135=CARTESIAN_POINT('',(-55.4750436920353,15.,0.));
#1136=CARTESIAN_POINT('',(144.524956307965,15.,25.));
#1137=CARTESIAN_POINT('',(-55.4750436920353,15.,25.));
#1138=CARTESIAN_POINT('',(144.524956307965,15.,0.));
#1139=CARTESIAN_POINT('Origin',(144.524956307965,-25.,0.));
#1140=CARTESIAN_POINT('Origin',(144.524956307965,-25.,0.));
#1141=CARTESIAN_POINT('Origin',(144.524956307965,-25.,25.));
#1142=CARTESIAN_POINT('Origin',(44.5249563079646,-125.,25.));
#1143=CARTESIAN_POINT('Origin',(44.5249563079646,-125.,0.));
#1144=UNCERTAINTY_MEASURE_WITH_UNIT(LENGTH_MEASURE(0.01),#1148,
'DISTANCE_ACCURACY_VALUE',
'Maximum model space distance between geometric entities at asserted c
onnectivities');
#1145=UNCERTAINTY_MEASURE_WITH_UNIT(LENGTH_MEASURE(0.01),#1148,
'DISTANCE_ACCURACY_VALUE',
'Maximum model space distance between geometric entities at asserted c
onnectivities');
#1146=(
GEOMETRIC_REPRESENTATION_CONTEXT(3)
GLOBAL_UNCERTAINTY_ASSIGNED_CONTEXT((#1144))
GLOBAL_UNIT_ASSIGNED_CONTEXT((#1148,#1150,#1151))
REPRESENTATION_CONTEXT('','3D')
);
#1147=(
GEOMETRIC_REPRESENTATION_CONTEXT(3)
GLOBAL_UNCERTAINTY_ASSIGNED_CONTEXT((#1145))
GLOBAL_UNIT_ASSIGNED_CONTEXT((#1148,#1150,#1151))
REPRESENTATION_CONTEXT('','3D')
);
#1148=(
LENGTH_UNIT()
NAMED_UNIT(*)
SI_UNIT(.MILLI.,.METRE.)
);
#1149=(
LENGTH_UNIT()
NAMED_UNIT(*)
SI_UNIT($,.METRE.)
);
#1150=(
NAMED_UNIT(*)
PLANE_ANGLE_UNIT()
SI_UNIT($,.RADIAN.)
);
#1151=(
NAMED_UNIT(*)
SI_UNIT($,.STERADIAN.)
SOLID_ANGLE_UNIT()
);
#1152=SHAPE_DEFINITION_REPRESENTATION(#1153,#1154);
#1153=PRODUCT_DEFINITION_SHAPE('',$,#1156);
#1154=SHAPE_REPRESENTATION('',(#700),#1146);
#1155=PRODUCT_DEFINITION_CONTEXT('part definition',#1160,'design');
#1156=PRODUCT_DEFINITION('2026-10-09-21-48-19-307','exercise 15',#1157,
#1155);
#1157=PRODUCT_DEFINITION_FORMATION('',$,#1162);
#1158=PRODUCT_RELATED_PRODUCT_CATEGORY('exercise 15','exercise 15',(#1162));
#1159=APPLICATION_PROTOCOL_DEFINITION('international standard',
'automotive_design',2009,#1160);
#1160=APPLICATION_CONTEXT(
'Core Data for Automotive Mechanical Design Process');
#1161=PRODUCT_CONTEXT('part definition',#1160,'mechanical');
#1162=PRODUCT('2026-10-09-21-48-19-307','exercise 15',$,(#1161));
#1163=PRESENTATION_STYLE_ASSIGNMENT((#1164));
#1164=SURFACE_STYLE_USAGE(.BOTH.,#1165);
#1165=SURFACE_SIDE_STYLE('',(#1166));
#1166=SURFACE_STYLE_FILL_AREA(#1167);
#1167=FILL_AREA_STYLE('Steel - Satin',(#1168));
#1168=FILL_AREA_STYLE_COLOUR('Steel - Satin',#1169);
#1169=COLOUR_RGB('Steel - Satin',0.627450980392157,0.627450980392157,0.627450980392157);
ENDSEC;
END-ISO-10303-21;
